<?xml version="1.0" encoding="UTF-8"?>
<!DOCTYPE svg PUBLIC "-//W3C//DTD SVG 1.1//EN" "http://www.w3.org/Graphics/SVG/1.1/DTD/svg11.dtd">
<!-- Creator: CorelDRAW 2017 -->
<svg xmlns="http://www.w3.org/2000/svg" xml:space="preserve" width="295px" height="295px" version="1.1" style="shape-rendering:geometricPrecision; text-rendering:geometricPrecision; image-rendering:optimizeQuality; fill-rule:evenodd; clip-rule:evenodd"
viewBox="0 0 295 295"
 xmlns:xlink="http://www.w3.org/1999/xlink">
 <defs>
  <style type="text/css">
   <![CDATA[
    .str0 {stroke:#373435;stroke-width:2;stroke-miterlimit:22.9256}
    .fil0 {fill:#385134}
    .fil2 {fill:#FEFEFE;fill-rule:nonzero}
    .fil1 {fill:#F7F7F8;fill-rule:nonzero}
   ]]>
  </style>
 </defs>
 <g id="Layer_x0020_1">
  <metadata id="CorelCorpID_0Corel-Layer"/>
  <rect class="fil0 str0" width="295" height="295"/>
  <g id="_2017380693696">
   <path class="fil1" d="M182 240c-2,0 -3,-1 -4,-2 -1,-2 0,-4 2,-5 34,-14 56,-46 56,-83 0,-49 -40,-89 -89,-89 -49,0 -89,40 -89,89 0,28 13,54 35,71 2,1 2,4 1,5 -1,2 -4,2 -5,1 -24,-18 -38,-47 -38,-77 0,-53 43,-97 97,-97 53,0 97,43 97,97 0,40 -24,75 -61,90 0,0 -1,0 -1,0z"/>
   <path class="fil2" d="M176 188c-3,-2 -6,-3 -9,-2 -2,1 -4,2 -8,3 -3,2 -7,3 -10,5 0,0 -10,7 -30,-37 -19,-44 -7,-47 -7,-47 3,-2 7,-3 10,-5 3,-1 6,-2 8,-4 3,-2 4,-5 5,-8 2,-8 1,-16 0,-24 -2,-9 -7,-19 -15,-25 -1,-1 -3,-2 -5,-3 -33,-2 -47,34 -47,34 2,40 19,81 23,91 0,0 0,0 0,0 0,0 0,0 1,1 0,1 1,1 1,1 0,0 0,0 0,0 5,10 24,50 52,79 0,0 36,15 57,-11 0,-2 1,-4 1,-6 1,-10 -3,-20 -8,-28 -4,-6 -10,-13 -17,-16z"/>
   <path class="fil2" d="M158 113c-3,0 -5,2 -5,6l0 6 -9 0 0 -6c0,-9 5,-15 14,-15 9,0 14,5 14,15 0,19 -20,26 -18,36l17 0 0 8 -26 0 0 -7c0,-17 18,-20 18,-37 0,-5 -2,-7 -5,-7z"/>
   <path class="fil2" d="M193 145l0 -22 -9 22 9 0zm-17 0l17 -39 10 0 0 39 4 0 0 8 -4 0 0 11 -9 0 0 -11 -17 0 0 -8z"/>
  </g>
 </g>
</svg>
