<?xml version="1.0" encoding="UTF-8"?>
<!DOCTYPE svg PUBLIC "-//W3C//DTD SVG 1.1//EN" "http://www.w3.org/Graphics/SVG/1.1/DTD/svg11.dtd">
<!-- Creator: CorelDRAW 2019 (64-Bit) -->
<svg xmlns="http://www.w3.org/2000/svg" xml:space="preserve" width="150mm" height="150mm" version="1.1" style="shape-rendering:geometricPrecision; text-rendering:geometricPrecision; image-rendering:optimizeQuality; fill-rule:evenodd; clip-rule:evenodd"
viewBox="0 0 15000 15000"
 xmlns:xlink="http://www.w3.org/1999/xlink">
 <defs>
  <style type="text/css">
   <![CDATA[
    .fil0 {fill:none}
    .fil1 {fill:#FEFEFE;fill-rule:nonzero}
   ]]>
  </style>
 </defs>
 <g id="Layer_x0020_1">
  <metadata id="CorelCorpID_0Corel-Layer"/>
  <rect class="fil0" x="-17.74" y="-14.81" width="15032.53" height="15032.53"/>
  <g id="_2603791418976">
   <polygon class="fil1" points="1336.11,8509.71 1336.72,8509.71 1337.94,8500.03 "/>
   <path class="fil1" d="M1530.7 7997.96l-1.7 0c-18.92,28.13 -17.4,28.3 1.7,0z"/>
   <polygon class="fil1" points="11052.29,6173.39 8528.49,7971.5 8270.68,7567.14 10965.52,6037.44 "/>
   <path class="fil1" d="M12495.53 7782.44c39.85,111.54 78.3,224.11 115.19,337.65 -32,329.75 -78.57,656.63 -138.74,979.32 -47.04,-37.19 -94.44,-73.99 -142.09,-110.44 1.22,-402.96 -19.54,-804.74 -61.87,-1203.61 57.07,-33.35 114.45,-67.18 171.22,-101.5 18.75,32.79 37.54,65.84 56.29,98.58z"/>
   <path class="fil1" d="M1328.56 9139.39c36.02,312.71 113.24,545.28 113.24,545.28l1094.99 0 0 -236.84 -568.03 0 0 -223.37 -640.2 -85.07z"/>
   <path class="fil1" d="M10284.43 9890.95c-104.29,0 -188.88,-84.59 -188.88,-188.58 0,-103.81 84.59,-188.57 188.88,-188.57 103.38,0 188.27,84.76 188.27,188.57 0,103.99 -84.89,188.58 -188.27,188.58zm0 470.36c-364.24,0 -659.68,-295.61 -659.68,-659.24 0,-363.46 295.44,-659.08 659.68,-659.08 363.02,0 659.12,295.62 659.12,659.08 0,363.63 -296.1,659.24 -659.12,659.24zm0 -1789.3c-624.32,0 -1130.53,506.17 -1130.53,1130.36 0,624.32 506.21,1130.23 1130.53,1130.23 623.89,0 1129.79,-505.91 1129.79,-1130.23 0,-624.19 -505.9,-1130.36 -1129.79,-1130.36z"/>
   <path class="fil1" d="M3832.35 9890.95c-103.81,0 -188.09,-84.59 -188.09,-188.58 0,-103.81 84.28,-188.57 188.09,-188.57 103.99,0 188.75,84.76 188.75,188.57 0,103.99 -84.76,188.58 -188.75,188.58zm0 470.36c-363.76,0 -659.38,-295.61 -659.38,-659.24 0,-363.46 295.62,-659.08 659.38,-659.08 363.81,0 659.42,295.62 659.42,659.08 0,363.63 -295.61,659.24 -659.42,659.24zm0 -1789.3c-623.84,0 -1130.05,506.17 -1130.05,1130.36 0,624.32 506.21,1130.23 1130.05,1130.23 624.5,0 1130.1,-505.91 1130.1,-1130.23 0,-624.19 -505.6,-1130.36 -1130.1,-1130.36z"/>
   <path class="fil1" d="M12413.08 9370.61l-473.6 -96.44 -322.56 410.5 720.16 0c0,0 33.84,-126.27 76,-314.06z"/>
   <path class="fil1" d="M5462.94 7344.38l-57.03 -421.27c-10.16,-76 -102.28,-115.98 -200.43,-80.14 -211.81,77.96 -292.56,520.34 -282.4,540.48 55.5,108.44 198.86,100.76 366.68,99.98 105.99,-0.13 183.34,-63.18 173.18,-139.05z"/>
   <path class="fil1" d="M8399.6 7769.23c0.61,30.31 -23.85,54.77 -53.23,54.77l-669.85 2.31c-29.69,0 -53.84,-24.16 -53.84,-53.98 -0.48,-30 23.37,-54.33 53.54,-54.63l671.37 -32.01c29.86,0 79.09,18.93 52.01,83.54zm3776.16 1295.43l0.3 -76.12c1.22,-395.16 -19.4,-794.63 -60.91,-1187l-10.46 -98.76 28.9 -17.09 -3512.19 0 0 -1907.89c-67.06,-5.1 -1217.47,-14.48 -1287.75,-14.48 -600.35,0 -1435.87,490.08 -2045.72,913.36 93.83,2.92 172.88,43.56 221.62,108.13 478.39,-301.76 1133.02,-575.1 1687.06,-642.46 1007.97,-64.31 1112.7,-25.07 1112.7,-25.07l-29.39 1321.41c0,0 -1647.03,3.84 -2678.85,5.85 -10.9,29.51 -26.42,57.68 -48.13,82.58 -61.04,69.84 -156.88,110 -263,110.13l-74.91 0.48c-125.22,0 -334.42,0 -428.86,-184.13 -50.14,-98.88 32.79,-327.31 59.38,-395.15 13.39,-33.97 28.78,-63.22 43.82,-92.74 -243.47,184.26 -397.6,315.15 -397.6,315.15 0,0 -101.98,115.37 -1944.69,219.18 -526.65,29.87 -837.36,230.61 -1016.38,497.92l677.86 0c0,0 225.46,95.66 -107.08,457.77 -51.97,51.67 -550.94,54.89 -764.76,53.98 -26.47,160.1 -29.39,322.08 -20.58,472.81l806.44 107.21 0 204.27 455.42 0c30.3,-94.31 60.16,-150.11 60.16,-150.11 210.55,-448.4 666.8,-760.32 1194.19,-760.32 721.25,0 1308.21,582.34 1317.89,1301.1l3815.7 0c2,-313.62 123.65,-540.78 123.65,-540.78 210.9,-448.4 666.96,-760.32 1194.84,-760.32 651.1,0 1191.31,475.43 1297.13,1097l295.62 -376.06 475.29 96.75c-61.34,-47.83 -176.71,-136.6 -176.71,-136.6z"/>
   <path class="fil1" d="M13647.29 7972.28c-29.52,-10.33 -61.39,5.98 -71.2,35.36 -21.1,62.92 -93.7,95.97 -215.34,97.84 -76.92,1.7 -123.83,-14.17 -156.31,-46.61 -38.11,-39.06 -56.12,-108.61 -53.68,-206.71 1.4,-60.47 19.71,-107.21 53.37,-138.61 60.17,-55.67 153.52,-52.27 154.44,-52.27l58.9 3.05 0 -160.58c15.26,-14.61 25.07,-35.06 25.07,-57.99l0 -395.29c67.54,-30.91 114.93,-98.32 114.93,-177.5 0,-97.67 -73.07,-175.54 -166.9,-189.84l-967.51 -2285.04c-24.59,-57.55 -64.57,-111.23 -117.94,-151.82 -26.64,-20.45 -55.37,-35.1 -85.06,-47.22 -153.35,-63.53 -335.47,-20.45 -440.99,117.68l-35.84 46.74 -2567.96 3361.77 -22.59 31.52c-142.58,216.26 -111.36,495.01 56.9,676.95 296.7,-99.06 587.44,-200.87 905.68,-227.64 22.15,-1.7 41.99,-0.48 61.96,0.92l1913.3 -2905.4 1091.16 1494.9c-9.99,23.72 -15.53,49.53 -15.53,76.48 0,79.18 47.53,146.59 115.07,177.5l0 395.29c0,22.45 9.37,42.77 24.15,57.38l0 49.05c-49.22,6.62 -119.81,25.85 -176.58,78.3 -57.38,52.76 -87.86,125.97 -90.3,218.4 -3.53,131.98 24.46,226.9 85.98,288.6 53.54,54.41 128.28,80.27 229.65,80.27l7.98 0c217.52,-3.1 294.43,-96.45 320.25,-174.41 10.02,-29.56 -5.67,-61.56 -35.06,-71.07z"/>
  </g>
 </g>
</svg>
