<?xml version="1.0" encoding="utf-8"?>
<!-- Generator: Adobe Illustrator 24.2.3, SVG Export Plug-In . SVG Version: 6.00 Build 0)  -->
<svg version="1.1" id="Layer_1" xmlns="http://www.w3.org/2000/svg" xmlns:xlink="http://www.w3.org/1999/xlink" x="0px" y="0px"
	 viewBox="0 0 400 400" style="enable-background:new 0 0 400 400;" xml:space="preserve">
<style type="text/css">
	.st0{fill:#FFFFFF;stroke:#7F7F7F;stroke-miterlimit:10;}
	.st1{fill:none;stroke:#7F7F7F;stroke-miterlimit:10;}
	.st2{stroke:#7F7F7F;}
	.st3{font-family:'MyriadPro-Regular';}
	.st4{font-size:30.3394px;}
</style>
<rect x="99.1" y="73.2" class="st0" width="201.8" height="253.7"/>
<line class="st1" x1="106" y1="115.1" x2="291.3" y2="114.7"/>
<g>
	<rect x="105.7" y="126.8" class="st1" width="185.8" height="192.2"/>
	<g>
		<g>
			<rect x="117.9" y="149.1" class="st1" width="99.1" height="11.9"/>
			<rect x="117.9" y="168.6" class="st1" width="99.1" height="11.9"/>
			<rect x="117.9" y="186.8" class="st1" width="99.1" height="11.9"/>
			<rect x="117.9" y="206.3" class="st1" width="99.1" height="11.9"/>
			<rect x="117.9" y="227.6" class="st1" width="99.1" height="11.9"/>
			<rect x="117.9" y="247.1" class="st1" width="99.1" height="11.9"/>
			<rect x="117.9" y="265.3" class="st1" width="99.1" height="11.9"/>
			<rect x="117.9" y="284.8" class="st1" width="99.1" height="11.9"/>
		</g>
		<g>
			<rect x="231.4" y="149.4" class="st1" width="47.9" height="11.9"/>
			<rect x="231.4" y="168.8" class="st1" width="47.9" height="11.9"/>
			<rect x="231.4" y="187" class="st1" width="47.9" height="11.9"/>
			<rect x="231.4" y="206.4" class="st1" width="47.9" height="11.9"/>
			<rect x="231.4" y="227.6" class="st1" width="47.9" height="11.9"/>
			<rect x="231.4" y="247" class="st1" width="47.9" height="11.9"/>
			<rect x="231.4" y="265.1" class="st1" width="47.9" height="11.9"/>
			<rect x="231.4" y="284.6" class="st1" width="47.9" height="11.9"/>
		</g>
	</g>
</g>
<text transform="matrix(0.824 0 0 1 105.5439 102.9746)" class="st2 st3 st4">AGUA &amp; LUZ</text>
</svg>
