<?xml version="1.0" encoding="utf-8"?>
<!-- Generator: Adobe Illustrator 24.2.3, SVG Export Plug-In . SVG Version: 6.00 Build 0)  -->
<svg version="1.1" id="Layer_1" xmlns="http://www.w3.org/2000/svg" xmlns:xlink="http://www.w3.org/1999/xlink" x="0px" y="0px"
	 viewBox="0 0 541.4 453.5" style="enable-background:new 0 0 541.4 453.5;" xml:space="preserve">
<style type="text/css">
	.st0{fill:#424242;}
</style>
<g>
	<path class="st0" d="M64,231.5H47.3l9-29.4L64,231.5z M38.6,264.6l5.8-19.6h22.5l5.3,19.6h20.9l-20.9-74.4c-0.8-4-4.2-6.9-8.2-6.4
		H34.3v6.9h2.4c3.2,0,4.8,1.3,4.8,3.7c-0.3,2.1-0.8,4.5-1.6,6.6L19,264.9h19.6V264.6z"/>
	<path class="st0" d="M118.8,264.6V190c0.3-2.9-1.9-5.8-4.8-6.1c-0.3,0-0.8,0-1.1,0h-18v6.9h1.3c3.2,0,4.5,1.3,4.5,4.5v69.3
		L118.8,264.6z"/>
	<path class="st0" d="M151.3,264.6V190c0.3-2.9-1.9-5.8-4.8-6.1c-0.3,0-0.8,0-1.1,0h-18v6.9h1.1c3.2,0,4.5,1.3,4.5,4.5v69.3
		L151.3,264.6z"/>
	<path class="st0" d="M183.6,191c0-5.3-3.7-8.5-10.3-8.5c-6.6,0-10.3,3.2-10.3,8.5c0,5.3,4,8.5,10.6,8.5S183.6,196.6,183.6,191z
		 M183.6,264.3v-54.8c0.3-3.2-1.9-5.8-4.8-6.1c-0.3,0-0.8,0-1.1,0h-18v7.4h1.1c3.2,0,4.5,1.6,4.5,4.8v49.2L183.6,264.3z"/>
	<path class="st0" d="M225.1,235.5v11.6c-2.6,2.9-6.4,5-10.3,5.3c-3.4,0-4.5-1.6-4.5-6.1s1.1-6.6,4.2-7.7
		C218,237.1,221.4,236.3,225.1,235.5z M200.2,221.5c5.6-2.9,11.9-4.5,18.3-4.8c5,0,6.9,1.9,6.9,7.1v1.3c-7.4,1.3-9.8,1.6-14,2.6
		c-2.4,0.5-4.8,1.3-6.9,2.4c-7.4,2.9-10.8,9-10.8,18c0,11.4,4.8,16.9,14.8,16.9c3.4,0,6.6-0.5,9.8-1.9c2.9-1.3,5.6-3.2,7.9-5.3v0.8
		c-0.3,2.6,1.6,5.3,4.2,5.6c0.5,0,0.8,0,1.3,0h17.2v-6.9h-1.3c-3.2,0-4.5-1.3-4.5-5v-28.3c0-15.3-5.3-20.6-20.4-20.6
		c-4.8,0-9.5,0.5-14.3,1.6c-4.5,1.1-8.7,2.6-12.7,4.8L200.2,221.5z"/>
	<path class="st0" d="M276.7,264.6v-41.3c2.6-3.2,6.6-5,10.6-5c4.2,0,5.3,1.6,5.3,7.7v38.6h18.5v-41.5c0-9.8-0.8-12.7-3.7-16.1
		c-2.9-2.9-7.1-4.5-11.4-4.2c-7.4,0-12.7,2.4-19.6,9.3v-2.6c0-4-1.9-6.1-5.6-6.1h-17.5v7.4h1.1c3.2,0,4.5,1.6,4.5,4.8v49.2H276.7z"
		/>
	<path class="st0" d="M367.7,252.2h-25.9l24.9-35.2v-12.4h-39.2c-3.2-0.5-6.1,1.6-6.6,4.8c0,0.5,0,1.3,0,1.9V222h7.4v-1.1
		c0-2.9,1.3-4.2,4.5-4.2H346l-25.1,35.5v12.2h46.8L367.7,252.2z"/>
	<path class="st0" d="M467,260.6v-67.2c0-5.3-1.6-7.1-6.9-7.1H445v7.4h2.4c0.5,0,1.3,0.3,1.6,0.8c0.8,1.1,1.1,2.4,0.8,3.4v62.7H467z
		 M475.4,260.6h17.2v-50.8c0-5-1.9-7.1-7.1-7.1h-10.1V260.6z M442.6,260.6v-58.2h-10.1c-5,0-6.9,2.1-6.9,7.1v51.1H442.6z
		 M509.8,226.5c0,30.4-21.7,52.7-51.3,52.7s-51.3-22.2-51.3-52.7s21.7-52.4,51.3-52.4S509.8,196.1,509.8,226.5z M522,226.5
		c0-37-27.3-64.8-63.5-64.8s-63.8,27.5-63.8,64.8s27.3,64.8,63.8,64.8S522,263.8,522,226.5z"/>
</g>
</svg>
