<?xml version="1.0" encoding="utf-8"?>
<!-- Generator: Adobe Illustrator 24.2.3, SVG Export Plug-In . SVG Version: 6.00 Build 0)  -->
<svg version="1.1" id="Layer_1" xmlns="http://www.w3.org/2000/svg" xmlns:xlink="http://www.w3.org/1999/xlink" x="0px" y="0px"
	 viewBox="0 0 541.4 453.5" style="enable-background:new 0 0 541.4 453.5;" xml:space="preserve">
<style type="text/css">
	.st0{fill-rule:evenodd;clip-rule:evenodd;fill:#484848;}
	.st1{fill:#FEFEFE;}
	.st2{fill-rule:evenodd;clip-rule:evenodd;fill:#6D6D6D;}
</style>
<g id="Layer_x0020_1">
	<g id="_2428515141296">
		<path class="st0" d="M81.6,16.5h378.3c11.7,0,21.1,12.8,21.1,28.5v363.6c0,15.7-9.5,28.5-21.1,28.5H81.6
			c-11.7,0-21.1-12.8-21.1-28.5V45C60.4,29.3,69.9,16.5,81.6,16.5z"/>
		<g>
			<path class="st1" d="M189.2,233.5h-45.7l-6.3,21.4h-41l48.8-129.9h43.8L237.6,255h-42L189.2,233.5L189.2,233.5z M180.7,205.4
				l-14.4-46.7l-14.3,46.7H180.7L180.7,205.4z"/>
			<polygon class="st1" points="240.9,182 302.2,182 302.2,198.4 268.9,235.9 304.2,235.9 304.2,255 238.4,255 238.4,236.8 
				270,201.1 240.9,201.1 			"/>
			<path class="st1" d="M390.2,256.2h-27.5v-12c-4.1,4.9-8.2,8.5-12.4,10.5c-4.2,2.1-9.3,3.1-15.4,3.1c-8.1,0-14.5-2.3-19.1-7
				c-4.6-4.7-6.9-11.9-6.9-21.6V182h29.6v40.8c0,4.6,0.9,8,2.7,9.9c1.8,2,4.3,2.9,7.5,2.9c3.5,0,6.4-1.3,8.7-3.9
				c2.2-2.6,3.4-7.3,3.4-14V182h29.5V256.2L390.2,256.2z"/>
			<polygon class="st1" points="395.6,148.7 425.3,148.7 425.3,256.6 395.6,256.6 			"/>
			<path class="st1" d="M136.1,345.1v-10.5c2.9,2.2,5.3,3.7,7.3,4.6c2,0.9,3.9,1.3,5.8,1.3c1.9,0,3.3-0.4,4.3-1.1
				c1-0.7,1.4-1.8,1.4-3.1c0-1.1-0.3-2-0.9-2.7c-0.6-0.7-2-1.5-4.2-2.4c-5.5-2.4-9.2-4.8-11.2-7.2c-2.1-2.5-3.1-5.6-3.1-9.4
				c0-4,1.3-7.3,4-9.8c2.7-2.5,6.2-3.8,10.4-3.8c2.2,0,4.3,0.3,6.5,1c2.2,0.7,4.4,1.6,6.5,2.9v9.7c-2.6-1.6-4.9-2.8-6.9-3.5
				c-2-0.8-3.9-1.1-5.6-1.1c-1.8,0-3.2,0.3-4.2,1c-1,0.7-1.4,1.6-1.4,2.8c0,1,0.4,1.9,1.3,2.8c0.8,0.9,2.1,1.7,3.9,2.5
				c0.4,0.2,0.9,0.4,1.7,0.8c3.7,1.7,6.3,3.1,7.9,4.3c1.7,1.3,2.9,2.9,3.8,4.9c0.8,2,1.3,4.3,1.3,6.9c0,4.4-1.3,7.8-4,10.3
				c-2.7,2.5-6.4,3.7-11.1,3.7c-2.4,0-4.7-0.4-6.9-1.1C140.3,347.8,138.1,346.7,136.1,345.1L136.1,345.1z M171.7,348.9v-47.1h25.6
				v8.7h-16v9.6h15.3v8.8h-15.3v11.2h16.5v8.8H171.7z M240.4,343.4c-2.3,2.2-4.8,3.7-7.4,4.8c-2.6,1-5.5,1.6-8.6,1.6
				c-3,0-5.8-0.6-8.3-1.7c-2.5-1.1-4.7-2.8-6.5-4.9c-1.9-2.3-3.4-4.9-4.4-8c-1-3-1.5-6.3-1.5-9.8c0-7.3,2-13.2,5.9-17.7
				c4-4.5,9.2-6.7,15.8-6.7c2.4,0,4.8,0.3,7.1,1c2.3,0.7,4.7,1.8,7.1,3.2v10.3c-2.5-1.6-4.9-2.8-7.2-3.6c-2.3-0.8-4.5-1.2-6.5-1.2
				c-3.9,0-6.9,1.3-9.1,3.9c-2.2,2.6-3.3,6.1-3.3,10.7c0,4.4,1,7.9,3.1,10.6c2.1,2.6,4.9,3.9,8.4,3.9c0.9,0,1.9-0.1,2.8-0.4
				c0.9-0.3,1.9-0.6,2.8-1.1v-5.9h-5.3v-8.9h15L240.4,343.4L240.4,343.4z M284.6,301.8v27c0,6.6-1.6,11.7-4.8,15.4
				c-3.2,3.7-7.6,5.5-13.3,5.5c-5.7,0-10.1-1.9-13.3-5.5c-3.2-3.7-4.8-8.8-4.8-15.4v-27h9.6v26.5c0,3.7,0.7,6.6,2.2,8.6
				c1.5,2,3.6,3,6.3,3c2.8,0,4.9-1,6.3-3c1.4-2,2.2-4.9,2.2-8.6v-26.5H284.6L284.6,301.8z M307.9,321.1c1.8,0,3.1-0.5,4-1.4
				c0.9-0.9,1.3-2.3,1.3-4.2c0-1.8-0.4-3.1-1.4-4.1c-0.9-0.9-2.2-1.4-3.9-1.4h-4.6v11H307.9L307.9,321.1z M293.7,348.9v-47.1h14.1
				c5.2,0,9,1.1,11.5,3.3c2.5,2.2,3.7,5.7,3.7,10.3c0,2.6-0.6,4.8-1.6,6.7c-1.1,1.9-2.8,3.4-5,4.7c1,0.4,1.8,1.1,2.6,2.1
				c0.8,1,1.4,2.3,2,3.8l6.1,16.1h-10.8l-4.9-13.6c-0.8-2.2-1.7-3.6-2.7-4.4c-1-0.8-2.4-1.2-4.3-1.2c-0.1,0-0.3,0-0.6,0
				c-0.2,0-0.4,0-0.6,0v19.2H293.7L293.7,348.9z M339.6,325.4c0,4.2,1,7.7,3.1,10.4c2.1,2.7,4.7,4.1,7.8,4.1c3.2,0,5.8-1.4,7.9-4.1
				c2.1-2.7,3.1-6.2,3.1-10.4c0-4.2-1-7.7-3.1-10.4c-2.1-2.7-4.7-4.1-7.9-4.1c-3.2,0-5.8,1.4-7.8,4.1
				C340.6,317.7,339.6,321.2,339.6,325.4z M329.8,325.4c0-3.5,0.5-6.7,1.5-9.7c1-3,2.5-5.6,4.5-8c1.9-2.2,4.1-3.9,6.6-5
				c2.5-1.1,5.2-1.7,8.2-1.7c3,0,5.8,0.6,8.3,1.7c2.5,1.1,4.7,2.8,6.6,5c2,2.3,3.5,5,4.5,8c1,3,1.5,6.2,1.5,9.7
				c0,3.5-0.5,6.7-1.5,9.7c-1,3-2.5,5.6-4.5,7.9c-2,2.2-4.2,3.9-6.6,5.1c-2.5,1.1-5.2,1.7-8.2,1.7c-3,0-5.7-0.6-8.2-1.7
				c-2.5-1.1-4.7-2.8-6.6-5.1c-2-2.3-3.5-4.9-4.5-7.9C330.3,332.1,329.8,328.9,329.8,325.4L329.8,325.4z M378,345.1v-10.5
				c2.9,2.2,5.3,3.7,7.3,4.6c2,0.9,3.9,1.3,5.8,1.3c1.9,0,3.3-0.4,4.3-1.1c1-0.7,1.4-1.8,1.4-3.1c0-1.1-0.3-2-0.9-2.7
				c-0.6-0.7-2-1.5-4.2-2.4c-5.5-2.4-9.2-4.8-11.2-7.2c-2.1-2.5-3.1-5.6-3.1-9.4c0-4,1.3-7.3,4-9.8c2.7-2.5,6.2-3.8,10.4-3.8
				c2.2,0,4.3,0.3,6.5,1c2.2,0.7,4.4,1.6,6.5,2.9v9.7c-2.6-1.6-4.9-2.8-6.9-3.5c-2-0.8-3.9-1.1-5.6-1.1c-1.8,0-3.2,0.3-4.2,1
				c-1,0.7-1.4,1.6-1.4,2.8c0,1,0.4,1.9,1.3,2.8c0.8,0.9,2.1,1.7,3.9,2.5c0.4,0.2,0.9,0.4,1.7,0.8c3.7,1.7,6.3,3.1,7.9,4.3
				c1.7,1.3,2.9,2.9,3.8,4.9c0.8,2,1.3,4.3,1.3,6.9c0,4.4-1.3,7.8-4,10.3c-2.7,2.5-6.4,3.7-11.1,3.7c-2.4,0-4.7-0.4-6.9-1.1
				C382.2,347.8,380,346.7,378,345.1L378,345.1z"/>
			<path class="st2" d="M88.6,259.5h344.8v9.2c-114.9,2.1-229.8,7.7-344.8,28.6C88.6,297.3,88.6,259.5,88.6,259.5z"/>
		</g>
	</g>
</g>
</svg>
