<?xml version="1.0" encoding="UTF-8"?>
<!DOCTYPE svg PUBLIC "-//W3C//DTD SVG 1.1//EN" "http://www.w3.org/Graphics/SVG/1.1/DTD/svg11.dtd">
<!-- Creator: CorelDRAW 2019 (64-Bit) -->
<svg xmlns="http://www.w3.org/2000/svg" xml:space="preserve" width="150mm" height="150mm" version="1.1" style="shape-rendering:geometricPrecision; text-rendering:geometricPrecision; image-rendering:optimizeQuality; fill-rule:evenodd; clip-rule:evenodd"
viewBox="0 0 15000 15000"
 xmlns:xlink="http://www.w3.org/1999/xlink">
 <defs>
  <style type="text/css">
   <![CDATA[
    .fil0 {fill:none}
    .fil1 {fill:#FEFEFE;fill-rule:nonzero}
   ]]>
  </style>
 </defs>
 <g id="Layer_x0020_1">
  <metadata id="CorelCorpID_0Corel-Layer"/>
  <rect class="fil0" x="-17.74" y="-14.81" width="15032.53" height="15032.53"/>
  <g id="_2603902992288">
   <path class="fil1" d="M11163.27 8165.8l-1804.04 0 0 -479.83 1804.04 0 0 479.83zm-4248.26 1216.05l614.01 -1212.59 -614.01 0 1276.98 -1472.53 -472.81 1111.4 579.24 -14 -1383.41 1587.72zm-1158.68 -1216.05l-661.24 0 0 661.24 -479.78 0 0 -661.24 -663.02 0 0 -479.83 663.02 0 0 -661.24 479.78 0 0 661.24 661.24 0 0 479.83zm-2706.04 -2346.68l0 5771.58 8999.3 0 0 -5771.58 -8999.3 0z"/>
   <polygon class="fil1" points="2600.13,5461.44 12396.93,5461.44 12396.93,4772.21 2600.13,4772.21 "/>
   <path class="fil1" d="M4854.34 3935.69l0 596.7 -1046.86 0 0 -596.7c0,-289.67 233.78,-523.45 523.4,-523.45 144.81,0 273.95,57.57 369.89,153.56 94.22,94.22 153.57,225.08 153.57,369.89z"/>
   <path class="fil1" d="M11163.27 3935.69l0 596.7 -1046.81 0 0 -596.7c0,-289.67 233.79,-523.45 523.41,-523.45 144.81,0 275.67,57.57 369.89,153.56 95.94,94.22 153.51,225.08 153.51,369.89z"/>
  </g>
 </g>
</svg>
