<?xml version="1.0" encoding="utf-8"?>
<!-- Generator: Adobe Illustrator 24.2.3, SVG Export Plug-In . SVG Version: 6.00 Build 0)  -->
<svg version="1.1" id="Layer_1" xmlns="http://www.w3.org/2000/svg" xmlns:xlink="http://www.w3.org/1999/xlink" x="0px" y="0px"
	 viewBox="0 0 500 500" style="enable-background:new 0 0 500 500;" xml:space="preserve">
<style type="text/css">
	.st0{fill:#FFFFFF;}
	.st1{fill:#FF5C78;}
	.st2{fill:#006FE7;stroke:#3900FF;stroke-miterlimit:10;}
</style>
<g>
	<path class="st0" d="M250,477c-60.6,0-117.6-23.6-160.5-66.5C46.6,367.6,23,310.6,23,250S46.6,132.4,89.5,89.5S189.4,23,250,23
		s117.6,23.6,160.5,66.5C453.4,132.4,477,189.4,477,250s-23.6,117.6-66.5,160.5C367.6,453.4,310.6,477,250,477z"/>
	<path class="st1" d="M250,43c55.3,0,107.3,21.5,146.4,60.6C435.5,142.7,457,194.7,457,250s-21.5,107.3-60.6,146.4
		C357.3,435.5,305.3,457,250,457s-107.3-21.5-146.4-60.6C64.5,357.3,43,305.3,43,250s21.5-107.3,60.6-146.4
		C142.7,64.5,194.7,43,250,43 M250,3C113.6,3,3,113.6,3,250s110.6,247,247,247s247-110.6,247-247S386.4,3,250,3L250,3z"/>
</g>
<g>
	<path class="st2" d="M161.8,93.2h22.1c5.8,0,10.2,1.2,13.2,3.5c2.9,2.3,4.4,6.1,4.4,11.4c0,3.1-0.5,5.6-1.4,7.5
		c-0.9,1.8-2.5,3.5-4.8,4.9c2.5,1,4.3,2.6,5.5,4.5c1.2,2,1.8,4.7,1.8,8.3c0,5.5-1.6,9.5-4.8,12.2c-3.2,2.6-7.7,4-13.5,4h-22.4V93.2z
		 M183.3,103h-10.1v13.4h10.2c4.3,0,6.5-2.2,6.5-6.7S187.6,103,183.3,103z M183.6,126h-10.4v13.7h10.4c2.5,0,4.3-0.5,5.5-1.5
		c1.2-1,1.8-2.8,1.8-5.5C190.9,128.2,188.5,126,183.6,126z"/>
	<path class="st2" d="M212.1,149.5V93.2h36.4v9.9h-25v13.2h20v9.8h-20v13.5h25v9.9H212.1z"/>
	<path class="st2" d="M275.3,102.1c-6,0-9,2-9,6c0,1.8,0.7,3.1,2.2,4.1c1.5,0.9,5,2.3,10.5,4.1c5.5,1.8,9.3,3.8,11.5,6
		c2.2,2.2,3.3,5.7,3.3,10.3c0,5.9-1.8,10.4-5.4,13.4c-3.6,3-8.3,4.5-14.1,4.5c-4.3,0-9.6-0.7-15.8-2l-3-0.6l1.2-8.8
		c7.4,1,13,1.5,17,1.5c5.8,0,8.8-2.4,8.8-7.3c0-1.8-0.7-3.1-2-4.1c-1.4-1-4-2.1-8.1-3.2c-6.4-1.8-10.9-4-13.5-6.5
		c-2.6-2.5-3.9-6-3.9-10.5c0-5.6,1.7-9.8,5.1-12.6c3.4-2.8,8.1-4.1,14.1-4.1c4.1,0,9.3,0.6,15.5,1.7l3,0.6l-0.9,9
		C283.9,102.6,278.5,102.1,275.3,102.1z"/>
	<path class="st2" d="M297.9,103.3V93.2h41.4v10.1h-14.9v46.2H313v-46.2H297.9z"/>
	<path class="st2" d="M167.6,232.3h-9.3v16.4h-11.4v-56.2h20.7c13.3,0,20,6.5,20,19.5c0,6.6-1.7,11.6-5.1,15.1
		C179.1,230.6,174.2,232.3,167.6,232.3z M158.3,222.6h9.2c5.7,0,8.5-3.5,8.5-10.6c0-3.5-0.7-6-2.1-7.5c-1.4-1.5-3.5-2.3-6.5-2.3
		h-9.2V222.6z"/>
	<path class="st2" d="M207.1,229.8v18.9h-11.4v-56.2h21.8c13.2,0,19.8,6.2,19.8,18.5c0,7.3-2.8,12.7-8.3,16.2l8,21.5h-12.5
		l-6.5-18.9H207.1z M223.7,217.6c1.3-1.7,2-3.8,2-6.5c0-2.7-0.7-4.9-2.1-6.5c-1.4-1.6-3.4-2.4-6.1-2.4h-10.4v17.9h10.6
		C220.3,220.1,222.4,219.3,223.7,217.6z"/>
	<path class="st2" d="M246.9,248.7v-56.2h11.4v56.2H246.9z"/>
	<path class="st2" d="M306.2,247.8c-5.8,1.3-11.1,1.9-15.8,1.9s-8.4-0.6-11.2-1.7c-2.8-1.2-5-3-6.6-5.5c-1.6-2.5-2.7-5.5-3.3-8.9
		c-0.6-3.4-0.9-7.7-0.9-12.9c0-10.9,1.5-18.4,4.6-22.7c3.1-4.3,8.7-6.4,16.9-6.4c4.7,0,10.2,0.7,16.5,2.2l-0.3,9.1
		c-5.5-0.8-10-1.2-13.6-1.2c-3.6,0-6.2,0.5-7.7,1.4c-1.5,1-2.7,2.8-3.4,5.5c-0.7,2.7-1.1,7.3-1.1,13.8c0,6.5,0.8,11,2.3,13.5
		c1.5,2.5,4.5,3.8,9.1,3.8s9.4-0.4,14.5-1.2L306.2,247.8z"/>
	<path class="st2" d="M315.5,248.7v-56.2h36.4v9.9h-25v13.2h20v9.8h-20v13.5h25v9.9H315.5z"/>
</g>
<g>
	<path class="st2" d="M207.7,343.7h-33c-1.8,0-3.3,1.5-3.3,3.3v77.6c0,1.8,1.5,3.3,3.3,3.3h33c1.8,0,3.3-1.5,3.3-3.3V347
		C211,345.2,209.5,343.7,207.7,343.7z"/>
	<path class="st2" d="M315.8,379.7c5.2-1.9,8.8-5.4,8.8-11.2c0-5.8-3.1-10.1-8.1-11.7c3.9-2.4,6.3-5.7,6.3-11.5S317,335,312.4,334
		c-7.8-1.7-27.1-2-43.6,0c28.4-38.6,10.4-53.5,4.4-53.5c-13.3,0-8.8,13.3-14.2,23.1c-2.7,4.9-15.9,17.6-18.6,23.5
		c-8.2,18.2-22.6,26.6-22.6,26.6s0,46.4,0,63.9c20.1,2.3,38.1,8.7,52.2,9.7c14,1,24.5,0.8,32-1.2c7.5-2,16.7-4.7,16.7-15.5
		c0-3.4-2.2-6.1-6.4-8.1c6.3-0.8,10.8-5.7,10.8-11.4C323.1,385.3,319.5,381.5,315.8,379.7z"/>
</g>
</svg>
