<?xml version="1.0" encoding="utf-8"?>
<!-- Generator: Adobe Illustrator 24.2.3, SVG Export Plug-In . SVG Version: 6.00 Build 0)  -->
<svg version="1.1" id="Layer_1" xmlns="http://www.w3.org/2000/svg" xmlns:xlink="http://www.w3.org/1999/xlink" x="0px" y="0px"
	 viewBox="0 0 500 500" style="enable-background:new 0 0 500 500;" xml:space="preserve">
<style type="text/css">
	.st0{fill:#A20009;stroke:#3200FF;stroke-miterlimit:10;}
	.st1{fill:#00008B;stroke:#1100D0;stroke-miterlimit:10;}
	.st2{font-family:'BookmanOldStyle-Bold';}
	.st3{font-size:90.8306px;}
</style>
<g>
	<path class="st0" d="M347.5,388.5c24.3-35.3,46.4-63.7,63.7-85c15.9-19.4,28.3-33.5,47.5-47.5c15.9-11.6,30.6-19.1,41.2-23.7
		c-3.7-11.5-7.5-26.8-8.7-45c-1.5-21.4,1-39.5,3.7-52.5c-23.8,15.3-54.9,38.9-85,73.7c-35.8,41.5-56.1,82.5-67.5,111.2
		c-12.1-22.9-24.2-45.8-36.2-68.7c-25,14.6-50,29.2-75,43.7c12.3,5.7,25.7,12.9,39.4,21.9C306.2,339.9,331,366.8,347.5,388.5z"/>
	<path class="st0" d="M398.1,141.7c-39.5-12-101.7-25.6-171.2-18.7c-30.2,3-55.7,9.2-68.7,12.5c-41.5,10.3-66.4,21.7-83.7,31.2
		c-27.8,15.3-37.2,26.3-42.5,37.5c-2.2,4.5-7.8,17.9-6.2,31.2c5.3,44.8,90.9,72.8,143.7,82.5c56.4,10.3,98.6,3.8,98.7,6.2
		c0.1,2.6-49.5,14.3-101.2,7.5c-62.8-8.3-157.3-37.4-166.2-93.7c-2.5-15.5,2.3-28.1,5-35c33.6-85.9,202.5-90.7,222.5-91.2
		C266.4,110.6,326.7,114.1,398.1,141.7z"/>
	<text transform="matrix(0.9922 -0.1244 0.1244 0.9922 65.3217 270.7632)" class="st1 st2 st3">BONUS</text>
</g>
</svg>
