<?xml version="1.0" encoding="utf-8"?>
<!-- Generator: Adobe Illustrator 24.2.3, SVG Export Plug-In . SVG Version: 6.00 Build 0)  -->
<svg version="1.1" id="Layer_1" xmlns="http://www.w3.org/2000/svg" xmlns:xlink="http://www.w3.org/1999/xlink" x="0px" y="0px"
	 viewBox="0 0 541.4 453.5" style="enable-background:new 0 0 541.4 453.5;" xml:space="preserve">
<style type="text/css">
	.st0{fill:none;}
	.st1{fill-rule:evenodd;clip-rule:evenodd;fill:#515151;}
	.st2{fill-rule:evenodd;clip-rule:evenodd;fill:#FEFEFE;}
	.st3{fill-rule:evenodd;clip-rule:evenodd;fill:#353535;}
	.st4{fill:#353535;}
</style>
<g id="Layer_x0020_1">
	<rect x="-0.2" y="-1.2" class="st0" width="541.8" height="455.8"/>
	<g id="_2392475068272">
		<polygon class="st1" points="165.5,16.3 375.9,16.3 375.9,226.7 165.5,226.7 		"/>
		<path class="st2" d="M251.5,166.6h9.6v54.2h8.3v-83h17.9v83c327.8,0-358,0-35.8,0V166.6L251.5,166.6z M177.9,228
			C119.6,228,622.4,228,177.9,228z M233.5,174.9c-23-37.1-21.5-67.9-7.9-89c85.2-10.6,152.1,38,95,84.5
			c88.6-43.7,2.6-112.2-80.9-99.9c23.6-18.6,59.8-21.1,86-1.2c-37.8-44.8-86.8-27.6-110.1,7.1c-12.9,4.6-25.3,11.4-36.5,21
			c9.9-3.8,19.9-6.6,29.6-8.7C196.3,116.6,199.8,151.1,233.5,174.9z"/>
		<path class="st3" d="M355.4,276.4c-9.6,0-20.6,5.3-20.6,18.3c0,20.3,23.8,13.6,23.8,23.1c0,3.9-3.3,4.5-6.8,4.5
			c-6,0-11.8-1.9-15.7-3.9v13.4c4.4,1.8,9.6,3.5,16.6,3.5c11,0,22.6-3.8,22.6-18.8c0-21.4-24.9-14.5-24.9-23.2c0-3.1,4.1-4,7.7-3.9
			c3.8,0.1,9.8,1.7,13.3,4.2v-13.8C366.3,277.5,360.8,276.4,355.4,276.4L355.4,276.4z M312.3,300.4c0-6.5-2.6-11.8-9.3-11.8
			c-6,0-8.9,5.3-9.3,11.8H312.3z M327.3,311.4h-33.4c0.9,7.8,6,10.8,14.2,10.8c4.6,0,9.7-1.2,14.8-4.3l0,13.7
			c-5.4,2.5-11.5,3.6-17.7,3.6c-16,0-28.1-10.9-28.1-29.5c0-18.6,10.9-29.4,25.9-29.4c17.9,0,24.4,14.8,24.4,31.5L327.3,311.4
			L327.3,311.4z M148.9,276.4c-7.2,0-11.4,4.5-14.3,11.7h-0.2v-10.4h-15.2v56.2h16.7v-23.7c0-11,4.3-17.6,12.1-18.2
			c1.6-0.1,4.3,0.3,5.7,0.9v-15.6C152.3,276.7,150.4,276.4,148.9,276.4L148.9,276.4z M189.9,308.6c-2.1-0.1-4.7-0.3-7.2-0.3
			c-5.7,0-10.1,2.1-10.1,7.4c0,3.9,3,6.2,6.9,6.2c4.5,0,8.2-2,10.4-5.8V308.6z M190,333.9v-7.4c-3.1,5.7-8.5,8.7-14.8,8.7
			c-9.6,0-18.1-5.5-18.1-17.7c0-17.2,16.1-19.2,25-19.2c2.7,0,5.7,0.3,7.8,0.8c-0.1-7.7-5-9.7-11-9.7c-5.4,0-10.8,1.2-15.4,4.2
			l0-0.1v-13.1c5.9-2.7,12-3.9,19-3.9c12.3,0,23,6.2,23,23.3l0,20.9c0,4.4,0.2,8.8,0.9,13.3H190L190,333.9z M468.5,305.8
			c0,8.3-3.2,15.8-10.9,15.8c-7.7,0-10.9-7.4-10.9-15.8c0-8.4,3.2-15.9,10.9-15.9C465.3,290,468.5,297.4,468.5,305.8z M429.5,305.8
			c0,18.6,12.2,29.4,28.1,29.4c16,0,28.1-10.8,28.1-29.4c0-18.7-12.2-29.5-28.1-29.5C441.6,276.4,429.5,287.2,429.5,305.8z
			 M241.5,320.3c-6.3,0-10.1-6.2-10.1-15.1c0-7.4,3.6-13.9,10.1-13.9c6.1,0,10.2,6.1,10.2,14.7C251.7,314.1,247,320.3,241.5,320.3z
			 M268.4,258.4h-16.8v26.5h-0.2c-4.3-6.5-9.9-8.5-16.6-8.5c-13.4,0-20.7,14.6-20.7,28.4c0,16.6,7.7,30.4,22.1,30.4
			c7.1,0,13.4-3.5,16.6-9.8h0.2v8.4h15.4L268.4,258.4L268.4,258.4z M73,272.8h6.5c5.8,0,11.3,0.6,11.3,7.6c0,6.4-5.9,8-11.5,8H73
			C73,288.3,73,272.8,73,272.8z M73,301.9h6.8c5.9,0,12.7,0.7,12.7,8.9c0,7.7-6.6,8.7-12.9,8.7H73V301.9z M55.7,333.9h28.8
			c11.6,0,25.3-3.8,25.3-21.8c0-9.2-4.5-14.6-13.1-16.6v-0.2c7.2-2.8,11.4-8.1,11.4-17.6c0-12.9-9-19.1-21.1-19.1H55.7L55.7,333.9
			L55.7,333.9z M421.5,319.3c0.7,1.8,2.4,6.5,6,11.5c-0.9,0.4-3,1.4-4.3,1.9c0,0-5.9,2.5-13.6,2.5c-16,0-28.1-10.8-28.1-29.4
			c0-18.7,12.2-29.5,28.1-29.5c4.5,0,8.5,0.9,12,2.5v0c2.3,1.1,4.1,2.2,5.1,3c-2.6,3.5-4.7,7.7-6,12.2c-2.6-1.8-5.4-2.8-9.5-2.8
			c-7.2,0-12.6,5.3-12.6,15c0,8.9,6.4,14.4,13.6,14.5c3.8,0,6.4-1.1,8-1.9c0.3-0.1,0.6-0.3,0.8-0.3
			C421.2,318.3,421.2,318.7,421.5,319.3L421.5,319.3z"/>
		<path class="st4" d="M151.3,346.2c-3.1-1.7-8-3.1-14.3-3.1c-15.2,0-23.7,9.5-23.7,21.7c0,8.5,5.4,15.6,15.7,20.7
			c6.8,3.3,9.8,5.7,9.8,10.1c0,4.3-3.1,7.2-9.4,7.2c-5.3,0-10.8-1.8-14.3-3.7l-2.6,13.7c3.1,1.9,9.6,3.7,16.2,3.7
			c15.9,0,25-9.3,25-22.3c0-8.9-4.3-15.9-14.8-21c-8-4-10.7-5.9-10.7-9.9c0-3.5,2.8-6.6,8.6-6.6c5.3,0,9.2,1.7,11.6,3L151.3,346.2
			L151.3,346.2z M197,402.3c-3.4,1.2-7.1,2-11.5,2c-6.2,0-11.3-2.9-11.7-9.1h27.1c0.3-1.8,0.4-4.4,0.4-6.9c0-17.7-8.1-26-19.5-26
			c-14.3,0-22.3,13.1-22.3,28c0,16.3,8.5,26.1,23.6,26.1c5.7,0,11.4-0.9,15.8-2.9L197,402.3L197,402.3z M173.8,384
			c0.3-4.4,2.2-10.5,7.3-10.5c5.2,0,6.6,5.8,6.6,10.5H173.8z M238.4,363.4l-0.7,5.6h-0.2c-2.2-4.2-6-6.7-11.1-6.7
			c-10.7,0-19.4,10.6-19.4,27.4c0,13.7,6.6,25.3,18,25.3c4.4,0,8.4-2,10.8-5.7h0.2v2.9c0,8.2-4,12.5-10.5,12.5
			c-4.8,0-9.1-1.5-11.9-3.1l-2.7,12.4c4,2.1,9.5,3.2,15.1,3.2c22,0,24.8-15.5,24.8-28.5v-29.3c0-7.1,0.3-12,0.4-16.1H238.4
			L238.4,363.4z M236,393.9c0,6.6-3,8.9-6.2,8.9c-4.7,0-7.6-5.2-7.6-13.3c0-8.5,3.1-14.3,7.7-14.3c3.1,0,6,2.8,6,8.6V393.9z
			 M302.9,363.4h-15v31.9c0,5.3-3,7.9-6,7.9c-4.2,0-6-4.1-6-11.1v-28.7h-15v31c0,15,5.4,22.1,15.1,22.1c7,0,11.3-4.2,13.4-7.5h0.3
			l0.7,6.5h12.9c-0.2-4.6-0.4-10.4-0.4-16.8L302.9,363.4L302.9,363.4z M341,362.6c-0.9-0.2-1.7-0.3-3.1-0.3c-3.9,0-8.9,2.9-11.3,9.7
			h-0.3l-0.6-8.7h-12.8c0.2,4.7,0.3,10,0.3,16.8v35.3h15v-26.1c0-1.9,0.2-3.7,0.6-4.9c1.3-4.6,4.8-6.6,8.7-6.6
			c1.5,0,2.6,0.1,3.7,0.4V362.6L341,362.6z M367.8,362.4c-13.2,0-22.9,9.9-22.9,27.4c0,16.8,9.1,26.8,22.4,26.8
			c10.5,0,22.5-7.1,22.5-27.4C389.8,373.5,381.5,362.4,367.8,362.4z M374.6,389.4c0,8.3-2.3,15.3-7.1,15.3c-5.1,0-7.4-6.6-7.4-15.3
			c0-7.2,1.8-15.2,7.4-15.2C372.6,374.2,374.6,381.7,374.6,389.4z M426.9,365.1c-2.9-1.5-7.1-2.8-12.1-2.8
			c-11.2,0-18.4,7.4-18.4,17.2c0,5.4,2.8,11.2,12,15.4c4.8,2.1,6.2,3.4,6.2,5.9c0,2.5-1.8,3.9-5.5,3.9c-3.8,0-8.8-1.9-11.1-3.4
			l-2.6,11.7c3.1,2,8.4,3.4,13.8,3.4c12.1,0,19.6-6.2,19.6-16.9c-0.1-6.7-3.2-12-11.6-15.8c-5.3-2.4-6.7-3.7-6.7-5.8
			c0-2.3,1.7-3.9,5-3.9c3.4,0,6.8,1.4,8.8,2.6L426.9,365.1L426.9,365.1z"/>
	</g>
</g>
</svg>
