<?xml version="1.0" encoding="utf-8"?>
<!-- Generator: Adobe Illustrator 24.2.3, SVG Export Plug-In . SVG Version: 6.00 Build 0)  -->
<svg version="1.1" id="Layer_1" xmlns="http://www.w3.org/2000/svg" xmlns:xlink="http://www.w3.org/1999/xlink" x="0px" y="0px"
	 viewBox="0 0 140 90" style="enable-background:new 0 0 140 90;" xml:space="preserve">
<style type="text/css">
	.st0{fill:#FFFFFF;}
</style>
<g>
	<path class="st0" d="M25.6,55.85c-5.76,0-10.43,4.82-10.43,10.76c0,5.94,4.67,10.76,10.43,10.76c5.76,0,10.43-4.82,10.43-10.76
		C36.03,60.67,31.36,55.85,25.6,55.85z M25.6,72.37c-3.08,0-5.58-2.58-5.58-5.76c0-3.18,2.5-5.76,5.58-5.76
		c3.08,0,5.58,2.58,5.58,5.76C31.18,69.79,28.68,72.37,25.6,72.37z"/>
	<path class="st0" d="M76.06,12.11H7.75c-0.9,0-1.63,0.75-1.63,1.68v43.38c-1.16,0.36-2.01,1.48-2.01,2.8v4.1
		c0,1.62,1.27,2.93,2.84,2.93h0.81h6.35h0.32c-0.02-0.29-0.03-0.58-0.03-0.87c0-2.8,0.94-5.37,2.51-7.4
		c2.11-2.52,5.23-4.11,8.71-4.11c6.36,0,11.52,5.32,11.52,11.89c0,0.17-0.01,0.33-0.01,0.49h10.85c-0.01-0.16-0.01-0.33-0.01-0.49
		c0-6.56,5.16-11.89,11.52-11.89C65.84,54.61,71,59.94,71,66.5c0,0.17-0.01,0.33-0.01,0.49h5.07c0.9,0,1.63-0.75,1.63-1.68V13.79
		C77.69,12.86,76.96,12.11,76.06,12.11z"/>
	<path class="st0" d="M107.74,55.85c-5.76,0-10.43,4.82-10.43,10.76c0,5.94,4.67,10.76,10.43,10.76c5.76,0,10.43-4.82,10.43-10.76
		C118.17,60.67,113.5,55.85,107.74,55.85z M107.74,72.37c-3.08,0-5.58-2.58-5.58-5.76c0-3.18,2.5-5.76,5.58-5.76
		c3.08,0,5.58,2.58,5.58,5.76C113.32,69.79,110.82,72.37,107.74,72.37z"/>
	<path class="st0" d="M132.84,57.15c0.01-5.31-0.21-11.35-1.16-14.17c-1.36-4.05-12.67-5.33-12.67-5.33s-13.22-15.79-18.97-18.63
		c-5.61-2.77-19.74-1.85-19.74-1.85v49.81h15.82c-0.01-0.16-0.01-0.33-0.01-0.49c0-6.56,5.16-11.89,11.52-11.89
		c6.36,0,11.52,5.32,11.52,11.89c0,0.17-0.01,0.33-0.01,0.49h0.11h12.85h0.5c0,0,0-0.02,0-0.05c1.33-0.24,2.33-1.44,2.33-2.88v-4.1
		C134.93,58.62,134.05,57.49,132.84,57.15z M108.26,36.54H83.91c0,0,0-14.08,0-14.84c0-0.4,9.53-0.7,13.59,1.15
		c3.21,1.46,8.87,7.07,11.42,10.24C110.85,35.48,110.82,36.54,108.26,36.54z"/>
	<path class="st0" d="M59.62,55.85c-5.76,0-10.43,4.82-10.43,10.76c0,5.94,4.67,10.76,10.43,10.76c5.76,0,10.43-4.82,10.43-10.76
		C70.05,60.67,65.38,55.85,59.62,55.85z M59.62,72.37c-3.08,0-5.58-2.58-5.58-5.76c0-3.18,2.5-5.76,5.58-5.76
		c3.08,0,5.58,2.58,5.58,5.76C65.2,69.79,62.7,72.37,59.62,72.37z"/>
</g>
</svg>
