<?xml version="1.0" encoding="UTF-8"?>
<!DOCTYPE svg PUBLIC "-//W3C//DTD SVG 1.1//EN" "http://www.w3.org/Graphics/SVG/1.1/DTD/svg11.dtd">
<!-- Creator: CorelDRAW 2017 -->
<svg xmlns="http://www.w3.org/2000/svg" xml:space="preserve" width="1181px" height="1181px" version="1.1" style="shape-rendering:geometricPrecision; text-rendering:geometricPrecision; image-rendering:optimizeQuality; fill-rule:evenodd; clip-rule:evenodd"
viewBox="0 0 1181 1181"
 xmlns:xlink="http://www.w3.org/1999/xlink">
 <defs>
  <style type="text/css">
   <![CDATA[
    .str0 {stroke:white;stroke-width:10;stroke-miterlimit:10}
    .fil0 {fill:#2A445F;fill-rule:nonzero}
    .fil6 {fill:#2A445F;fill-rule:nonzero}
    .fil4 {fill:#2A445F;fill-rule:nonzero}
    .fil2 {fill:#2A445F;fill-rule:nonzero}
    .fil5 {fill:white;fill-rule:nonzero}
    .fil3 {fill:white;fill-rule:nonzero}
    .fil1 {fill:white;fill-rule:nonzero}
   ]]>
  </style>
 </defs>
 <g id="Layer_x0020_1">
  <metadata id="CorelCorpID_0Corel-Layer"/>
  <g id="_2426899073232">
   <path class="fil0 str0" d="M70 555l41 -122c-21,-35 -33,-75 -33,-118 0,-128 104,-232 232,-232 128,0 232,104 232,232 0,128 -104,232 -232,232 -39,0 -76,-10 -108,-27l-132 35z"/>
   <path class="fil1" d="M454 402c-11,-21 -52,-45 -52,-45 -9,-5 -20,-6 -26,4 0,0 -13,16 -17,18 -15,10 -30,10 -44,-4l-67 -67c-14,-14 -15,-29 -4,-44 2,-3 18,-17 18,-17 9,-5 9,-16 4,-26 0,0 -24,-41 -45,-52 -9,-5 -20,-3 -27,4l-15 15c-47,47 -24,99 23,146l85 85c47,47 99,70 146,23l15 -15c7,-7 9,-18 4,-27z"/>
  </g>
  <g id="_2426899069808">
   <path class="fil2" d="M1110 318c0,130 -106,236 -236,236 -130,0 -236,-106 -236,-236 0,-130 106,-236 236,-236 130,0 236,106 236,236z"/>
   <path class="fil3" d="M815 265l-73 -73c9,-9 19,-19 28,-28 4,-4 11,-4 16,0l57 57c4,4 4,12 0,16l-24 24c-1,1 -3,3 -4,5zm60 119c-12,-10 -23,-21 -35,-32 -11,-11 -22,-23 -32,-35 -8,-10 -10,-24 -6,-36l-75 -75c-8,8 -12,22 -12,38 0,19 5,42 16,64 8,17 19,32 30,47 11,14 23,28 36,41 13,13 26,25 41,36 15,11 30,22 47,30 39,19 83,21 101,4l-75 -75c-12,4 -26,3 -36,-6zm153 22l-57 -57c-4,-4 -12,-4 -16,0l-12 13 -12 12c-1,1 -3,3 -5,4l73 73c9,-9 19,-19 28,-28 4,-4 5,-11 0,-16z"/>
  </g>
  <path class="fil4" d="M542 863c0,130 -106,236 -236,236 -130,0 -236,-106 -236,-236 0,-130 106,-236 236,-236 130,0 236,106 236,236z"/>
  <g id="_2426899069872">
   <path class="fil5" d="M465 772l0 -3c0,-8 -6,-14 -14,-14l-291 0c-8,0 -14,6 -14,14l0 3 159 117 159 -117z"/>
   <path class="fil5" d="M254 861l-105 104c-2,-2 -2,-5 -2,-8l0 -174 107 79z"/>
   <path class="fil5" d="M352 865l105 104c-2,1 -3,1 -5,1l-291 0c-2,0 -4,0 -6,-1l105 -104 46 34 46 -34z"/>
   <path class="fil5" d="M465 782l0 175c0,3 -1,6 -3,8l-105 -104 108 -79z"/>
  </g>
  <path class="fil6" d="M874 626c-131,0 -237,106 -237,237 0,117 85,215 198,234l0 -184 -57 0 0 -66 57 0 0 -49c0,-57 35,-88 85,-88 24,0 45,2 51,3l0 59 -35 0c-27,0 -33,13 -33,32l0 42 66 0 -9 66 -57 0 0 186c117,-14 208,-114 208,-235 0,-131 -106,-237 -237,-237z"/>
 </g>
</svg>
