<?xml version="1.0" encoding="UTF-8"?>
<!DOCTYPE svg PUBLIC "-//W3C//DTD SVG 1.1//EN" "http://www.w3.org/Graphics/SVG/1.1/DTD/svg11.dtd">
<!-- Creator: CorelDRAW 2019 (64-Bit) -->
<svg xmlns="http://www.w3.org/2000/svg" xml:space="preserve" width="150mm" height="150mm" version="1.1" style="shape-rendering:geometricPrecision; text-rendering:geometricPrecision; image-rendering:optimizeQuality; fill-rule:evenodd; clip-rule:evenodd"
viewBox="0 0 15000 15000"
 xmlns:xlink="http://www.w3.org/1999/xlink">
 <defs>
  <style type="text/css">
   <![CDATA[
    .fil0 {fill:none}
    .fil1 {fill:#FEFEFE}
   ]]>
  </style>
 </defs>
 <g id="Layer_x0020_1">
  <metadata id="CorelCorpID_0Corel-Layer"/>
  <rect class="fil0" x="-17.74" y="-14.81" width="15032.53" height="15032.53"/>
  <g id="_2603793523824">
   <g>
    <path class="fil1" d="M9287.89 3443.95c-46.2,11.16 -118.03,38.29 -159.48,60.6 -130.77,68.59 -1039.71,711.18 -1191.21,841.94 -173.79,149.91 -429,409.86 -561.34,574.09 -140.34,175.38 -722.33,1014.15 -773.44,1116.2 -87.73,177.05 -98.89,398.62 -30.3,597.98 39.87,118.03 90.9,196.1 204.1,315.71 49.44,49.45 84.48,94.06 81.32,98.89 -3.16,3.16 -215.25,216.83 -470.45,473.62l-462.47 467.2 -186.37 287.09 -186.61 288.66 -248.8 141.92 -247.13 141.92 -149.91 248.71 -149.91 247.22 -196.1 111.62c-296.58,167.47 -334.87,210.5 -489.52,553.36l-47.78 106.79 -212.08 106.79c-218.5,108.46 -285.42,156.32 -325.29,234.4 -27.14,51.02 -78.16,806.89 -62.18,916.93 12.73,86.15 86.15,172.22 167.47,196.11 82.9,25.55 886.64,-20.73 951.98,-55.85 78.16,-39.87 125.94,-106.8 234.4,-323.71l105.21 -212.09 210.5 -100.46c255.12,-121.2 291.83,-157.91 451.31,-438.5l111.62 -196.1 215.25 -129.19c118.03,-71.75 235.98,-148.32 259.95,-170.63 25.56,-22.31 103.63,-143.5 175.38,-269.52l129.19 -227.99 264.69 -167.47 263.11 -169.05 494.34 -492.77 495.93 -492.76 62.18 65.42c105.29,108.46 240.8,200.94 354,239.23 148.33,51.02 384.31,51.02 521.48,1.58 92.48,-35.13 862.67,-554.94 1157.66,-782.93 161.06,-124.35 548.53,-505.49 672.97,-663.39 143.5,-180.21 743.06,-1046.04 784.59,-1132.19 100.47,-212.09 94.06,-486.35 -17.56,-700.02 -59.02,-111.62 -1479.79,-1542.05 -1610.55,-1620.13 -164.31,-100.38 -398.79,-135.42 -590.15,-89.23zm374.73 783.01c79.74,33.46 1060.44,1011 1103.47,1101.89 114.79,235.98 -81.32,414.61 -318.96,293.41 -30.3,-15.98 -282.26,-258.36 -559.69,-537.37 -545.36,-548.54 -572.5,-583.66 -551.77,-717.59 14.31,-92.48 100.46,-164.23 194.52,-164.23 39.96,-0.08 98.97,11.07 132.43,23.89zm-2245.23 3364.6l358.75 358.75 -462.46 462.47 -462.47 464.04 -287 183.37c-157.9,102.05 -299.82,200.94 -315.71,220.08 -15.99,17.57 -86.15,133.93 -156.32,258.37l-127.61 224.82 -237.55 140.34c-264.7,154.65 -253.54,141.92 -440.16,468.79 -51.02,90.89 -113.2,178.63 -137.17,194.52 -23.89,17.57 -124.36,67.01 -223.25,111.62 -98.88,43.04 -197.77,97.31 -220.07,118.03 -22.31,20.73 -89.32,138.76 -149.91,261.53 -129.19,259.95 -82.91,234.4 -456.06,250.38l-231.06 9.57 1463.88 -1465.46c1417.69,-1419.19 1462.31,-1465.47 1462.31,-1524.49 0,-78.16 -44.62,-122.77 -122.78,-122.77 -59.01,0 -105.21,44.61 -1524.48,1462.3l-1465.47 1463.81 11.16 -247.22c4.74,-135.51 12.73,-264.69 17.56,-287 6.41,-35.04 43.03,-59.01 231.23,-151.49 122.78,-62.18 240.81,-129.18 261.53,-151.49 20.73,-22.31 74.92,-121.19 118.03,-220.08 44.62,-98.88 94.06,-199.35 111.62,-223.24 15.98,-23.89 89.32,-78.16 162.65,-121.19 381.14,-221.66 346.01,-189.78 502.33,-456.06l141.92 -239.22 223.24 -127.6c122.78,-70.17 237.56,-140.34 256.7,-156.24 19.15,-14.4 114.79,-153.07 212.09,-306.14l180.21 -279.1 463.96 -467.12c256.7,-255.12 468.79,-465.63 473.62,-465.63 4.83,0 169.05,161.07 366.74,358.75z"/>
   </g>
  </g>
 </g>
</svg>
