<?xml version="1.0" encoding="UTF-8"?>
<!DOCTYPE svg PUBLIC "-//W3C//DTD SVG 1.1//EN" "http://www.w3.org/Graphics/SVG/1.1/DTD/svg11.dtd">
<!-- Creator: CorelDRAW 2017 -->
<svg xmlns="http://www.w3.org/2000/svg" xml:space="preserve" width="295px" height="295px" version="1.1" style="shape-rendering:geometricPrecision; text-rendering:geometricPrecision; image-rendering:optimizeQuality; fill-rule:evenodd; clip-rule:evenodd"
viewBox="0 0 295 295"
 xmlns:xlink="http://www.w3.org/1999/xlink">
 <defs>
  <style type="text/css">
   <![CDATA[
    .str0 {stroke:#373435;stroke-width:2;stroke-miterlimit:22.9256}
    .fil0 {fill:#51A33D}
    .fil1 {fill:#FEFEFE;fill-rule:nonzero}
   ]]>
  </style>
 </defs>
 <g id="Layer_x0020_1">
  <metadata id="CorelCorpID_0Corel-Layer"/>
  <rect class="fil0 str0" width="295" height="295"/>
  <path class="fil1" d="M248 235c-4,1 -8,1 -12,-1l-17 -9c-1,-1 -3,-1 -4,-1l5 -12 35 15c-2,3 -4,6 -8,7zm-51 -4l-11 -4 11 -22 6 -3 6 4 -12 25zm70 -13l-48 -20 -5 -3c1,0 2,-1 2,-1l9 -9c3,-3 3,-7 0,-9 -3,-3 -7,-3 -9,0l-8 7 -6 -17c-1,-3 -5,-5 -8,-4 -3,1 -5,5 -4,8l6 18c0,1 1,2 2,3l-54 26 8 -17c0,0 0,0 0,0 0,0 0,0 0,-1 0,0 0,0 0,-1 0,0 0,0 0,-1 0,0 0,0 0,-1 0,0 0,0 0,0 0,-17 -6,-27 -9,-34 -4,-7 -5,-10 -3,-16l42 -16c2,-1 4,-3 4,-5l3 -22c1,-3 -2,-7 -5,-7 -6,-1 -22,-5 -28,-7 -1,-1 -3,-5 -4,-6 -3,-5 -4,-6 -5,-7 -7,-5 -17,-8 -17,-8 -3,-1 -7,1 -8,4 -1,3 1,7 4,8 0,0 7,2 13,6 1,1 2,3 3,4 5,7 6,10 9,11 5,2 18,5 26,7l-2 13 -41 15c-1,0 -1,1 -2,1l-37 -18c0,-1 0,-2 1,-3 5,-18 10,-37 16,-46 1,-1 1,-2 1,-3 0,-2 0,-4 1,-6 1,-6 1,-11 1,-16 0,-4 -3,-7 -7,-7 -4,0 -7,3 -7,7 0,4 -1,8 -1,14 0,1 0,3 0,4 -7,11 -12,29 -17,49 -5,18 -10,37 -16,44 -13,16 -32,42 -45,70 -1,3 0,7 3,9 1,0 2,1 3,1 3,0 5,-1 6,-4 12,-27 30,-52 43,-67 3,-3 5,-8 7,-13l28 14c1,0 2,1 3,1 2,0 5,-1 6,-4 2,-3 0,-7 -3,-9l-29 -14c1,-2 2,-5 2,-8l35 17c-1,8 2,14 5,20 3,7 7,14 8,27l-16 32c0,0 0,0 0,0 0,0 0,0 0,1 0,0 0,0 0,1 0,0 0,0 0,1 0,0 0,0 0,1 0,0 0,0 0,1 0,0 0,0 0,1 0,0 0,0 0,1 0,0 0,0 0,1 0,0 0,0 0,0 0,0 0,0 0,0 0,0 0,0 0,1 0,0 0,0 0,1 0,0 0,0 0,0 0,0 0,0 0,0 0,0 0,0 0,0 0,0 0,0 1,0 0,0 0,0 0,0 0,0 0,0 0,0 0,0 1,0 1,0 0,0 0,0 1,0 0,0 1,0 1,0 0,0 0,0 0,0 0,0 0,0 0,0 1,0 1,0 2,0 0,0 0,0 0,0 0,0 1,0 1,0l44 -21 -6 12 -24 19c-3,2 -3,6 -1,9 1,2 3,2 5,2 1,0 3,0 4,-1l22 -18 20 7c1,0 2,0 2,0 2,0 5,-1 6,-4l4 -8c1,1 1,2 2,2l17 9c4,2 9,3 13,3 3,0 6,-1 9,-2 7,-3 13,-8 16,-15l2 -5c1,-3 0,-7 -4,-9z"/>
 </g>
</svg>
