<?xml version="1.0" encoding="UTF-8"?>
<!DOCTYPE svg PUBLIC "-//W3C//DTD SVG 1.1//EN" "http://www.w3.org/Graphics/SVG/1.1/DTD/svg11.dtd">
<!-- Creator: CorelDRAW 2019 (64-Bit) -->
<svg xmlns="http://www.w3.org/2000/svg" xml:space="preserve" width="150mm" height="150mm" version="1.1" style="shape-rendering:geometricPrecision; text-rendering:geometricPrecision; image-rendering:optimizeQuality; fill-rule:evenodd; clip-rule:evenodd"
viewBox="0 0 15000 15000"
 xmlns:xlink="http://www.w3.org/1999/xlink">
 <defs>
  <style type="text/css">
   <![CDATA[
    .fil0 {fill:none}
    .fil1 {fill:#FEFEFE;fill-rule:nonzero}
   ]]>
  </style>
 </defs>
 <g id="Layer_x0020_1">
  <metadata id="CorelCorpID_0Corel-Layer"/>
  <rect class="fil0" x="-17.74" y="-14.81" width="15032.53" height="15032.53"/>
  <g id="_2602851129264">
   <path class="fil1" d="M11254.31 7243.86l0 -891.74c0,0 1168.78,91.02 1408.54,263.59 0,0 28.92,570.64 239.83,628.15l-1648.37 0zm1590.45 217.76c0.25,20.25 -16.12,36.69 -35.89,36.69l-450.86 1.51c-20.02,0 -36.37,-16.19 -36.37,-36.3 -0.16,-20.18 16.03,-36.55 35.98,-36.62l452.26 -21.69c19.86,0 53.08,12.79 34.88,56.41zm-1725.97 -222.53c0,0 -1401.07,2.86 -2173.35,4.14 -5.25,10.16 -9.05,20.88 -17,29.86 -33.76,38.69 -87.62,60.85 -147.84,60.94l-50.04 0.31c-76.68,0 -190.04,-1.03 -246.36,-90.48l-2.55 0 0.88 -2.45 -6.66 -10.02c-27.43,-54.59 41.45,-234.12 42.18,-235.87 46.48,-117.26 108.11,-190.67 183.35,-218.3 23.44,-8.67 47.27,-13.04 70.93,-13.04 52.2,0 95.1,22.56 122.26,57.04 324.46,-211.8 782.93,-407.87 1169.34,-454.74 678.54,-43.3 1074.72,-16.84 1074.72,-16.84l-19.86 889.45zm-245.17 222.53c0.31,20.25 -16.06,36.69 -35.83,36.69l-450.77 1.51c-20.02,0 -36.37,-16.19 -36.37,-36.3 -0.25,-20.18 15.88,-36.55 35.99,-36.62l452.03 -21.69c20.02,0 53.21,12.79 34.95,56.41zm2515.57 820.63c0.88,-265.25 -12.86,-533.05 -40.92,-796.17l-8.89 -83.57 72.69 -42.27c34.48,-20.09 68.96,-40.6 103.28,-61.25 -181.06,-237.94 -452.51,-444.96 -522.9,-620.84 -66.48,-165.97 45.44,-103.83 134.66,-90.89 53.62,7.86 51.17,-68.79 51.17,-68.79 38.91,17.47 -627.69,-298.47 -2293.78,-407.15 -1629.55,-106.29 -2641.01,1021.41 -2641.01,1021.41 0,0 -68.71,77.6 -1308.92,147.68 -506.82,28.6 -719.18,290.84 -795.41,586.14 22.97,-88.51 58.24,-173.92 109.92,-251.05l457.42 0c0,0 151.87,64.27 -72.02,308 -34.82,34.79 -370.92,37.02 -514.8,36.39 -16.1,98.18 -19.97,197.65 -15.94,291.47l571.12 76.02 0 134.04 289.35 0c16.91,-46.73 31.5,-74.61 31.5,-74.61 141.85,-302.05 448.7,-511.77 803.92,-511.77 485.41,0 880.4,391.9 886.84,875.62l2568.24 0c1.42,-211.08 83.33,-363.85 83.33,-363.85 141.8,-302.05 448.85,-511.77 804.14,-511.77 425.89,0 782.35,301.8 867.74,702.67l193.85 -246.5 224.67 45.76c-22.49,-17.25 -39.4,-30.2 -39.4,-30.2l0.15 -64.52z"/>
   <path class="fil1" d="M6135.94 7880.6c-5.83,23.82 -10.99,47.9 -15.06,71.97 4.07,-24.07 9.23,-48.15 15.06,-71.97z"/>
   <path class="fil1" d="M13630.47 7470.52c26.93,74.99 52.74,150.7 77.44,227.13 -21.53,222.04 -52.74,441.94 -93.25,659.21 -31.78,-25.11 -63.64,-49.81 -95.67,-74.27 0.88,-271.38 -13.1,-541.82 -41.61,-810.25 38.53,-22.49 76.97,-45.22 115.28,-68.32 12.7,22.09 25.26,44.25 37.81,66.5z"/>
   <path class="fil1" d="M6114.37 8383.64c24.3,210.6 76.09,367.02 76.09,367.02l737.15 0 0 -159.44 -382.53 0 0 -150.16 -430.71 -57.42z"/>
   <path class="fil1" d="M12142.18 9206.27c-244.94,0 -443.95,-199.09 -443.95,-443.86 0,-244.6 199.01,-443.61 443.95,-443.61 244.43,0 443.68,199.01 443.68,443.61 0,244.77 -199.25,443.86 -443.68,443.86zm0 -1204.45c-420.19,0 -760.84,340.67 -760.84,760.75 0,420.26 340.65,760.91 760.84,760.91 420.01,0 760.5,-340.65 760.5,-760.91 0,-420.08 -340.49,-760.75 -760.5,-760.75z"/>
   <path class="fil1" d="M12142.18 8889.53c-70.17,0 -127.03,-56.97 -127.03,-126.96 0,-69.9 56.86,-126.78 127.03,-126.78 69.65,0 126.79,56.88 126.79,126.78 0,69.99 -57.14,126.96 -126.79,126.96z"/>
   <path class="fil1" d="M7799.63 9206.27c-244.81,0 -443.79,-199.09 -443.79,-443.86 0,-244.6 198.98,-443.61 443.79,-443.61 244.72,0 443.86,199.01 443.86,443.61 0,244.77 -199.14,443.86 -443.86,443.86zm0 -1204.45c-420.05,0 -760.66,340.67 -760.66,760.75 0,420.26 340.61,760.91 760.66,760.91 420.1,0 760.59,-340.65 760.59,-760.91 0,-420.08 -340.49,-760.75 -760.59,-760.75z"/>
   <path class="fil1" d="M7799.63 8889.53c-69.92,0 -126.81,-56.97 -126.81,-126.96 0,-69.9 56.89,-126.78 126.81,-126.78 70.01,0 126.9,56.88 126.9,126.78 0,69.99 -56.89,126.96 -126.9,126.96z"/>
   <path class="fil1" d="M13575.02 8539.34l-318.74 -64.97 -217.26 276.29 484.75 0c0,0 22.88,-84.77 51.25,-211.32z"/>
   <path class="fil1" d="M8897.23 7175.54l-38.62 -283.54c-6.74,-51.08 -68.87,-78.17 -134.81,-53.85 -142.61,52.34 -197.02,350.09 -190.26,363.6 37.56,73.01 134.1,67.92 246.9,67.45 71.43,-0.07 123.54,-42.75 116.79,-93.66z"/>
   <path class="fil1" d="M1832.2 6896.21c-0.21,-7.14 -0.68,-14.46 -2.19,-21.69l-29.5 -147.05c-11.53,-57.9 -66.72,-95.8 -122.87,-84.52l-305.54 61.26c-56.18,11.28 -92.37,67.44 -80.8,125.43l29.55 146.96c11.57,57.92 66.65,95.73 122.8,84.38l293.15 -58.71 12.39 -2.54 180.15 -36.08 -16.77 -83.57 -80.37 16.13z"/>
   <path class="fil1" d="M5170.52 6226.44c-2.8,-6.6 -4.87,-13.61 -6.36,-20.99l-29.41 -146.9c-11.71,-57.89 24.39,-114.06 80.71,-125.43l305.46 -61.25c56.23,-11.28 111.22,26.62 122.91,84.54l29.48 146.96c11.68,57.98 -24.51,114.08 -80.67,125.36l-293.38 58.78 -12.21 2.48 -180.33 36.14 -16.76 -83.5 80.56 -16.19z"/>
   <path class="fil1" d="M1988.43 6626.02c11.47,-295.52 -67.8,-441.29 316.67,-518.44l2128.65 -427.08c384.36,-77.15 367.78,87.78 492.2,356.21l138.3 298 -3088.45 619.58 12.63 -328.27zm2988.58 -689.16c-126.65,-245.8 -296.85,-617.12 -760.15,-524.16l-1814.59 364c-463.47,92.94 -477.39,501.22 -499.23,776.88 -21.93,275.65 -39.66,498.89 -39.66,498.89l3342.58 -670.49 -228.95 -445.12z"/>
   <path class="fil1" d="M2352.12 9533.57l-334.18 66.97c-106.99,21.53 -209.46,-39.39 -228.85,-136l-69.51 -346.52 721.4 -144.83 69.57 346.69c19.34,96.52 -51.71,192.16 -158.43,213.69z"/>
   <path class="fil1" d="M6023.08 8797.05l-334.1 67.06c-107.06,21.44 -209.5,-39.41 -228.8,-136.02l-69.54 -346.59 721.5 -144.83 69.65 346.76c19.3,96.45 -51.68,192.18 -158.71,213.62z"/>
   <path class="fil1" d="M2023.95 8766.62c12.29,61.5 -26.1,121 -85.8,133.07 -59.79,12 -118.09,-28.28 -130.48,-89.69 -12.38,-61.64 25.99,-121.14 85.82,-133.14 59.7,-12 118.05,28.04 130.46,89.76z"/>
   <path class="fil1" d="M6005.26 8130.29l-430.25 86.27c-56.23,11.35 -96.16,-27.65 -73.21,-81.52 41.61,-97.86 143.81,-255.07 393.59,-421.04 47.97,-31.69 100.91,-8.96 116.67,47.92l66.86 244.67c15.63,57.05 -17.29,112.42 -73.66,123.7zm-594.55 -222.35l-151.58 268.5c-36.26,64.36 -122.6,128.15 -192.74,142.21l-2331.37 467.77c-69.97,13.98 -174.21,-11.53 -232.65,-56.89l-243.39 -189.32c-58.46,-45.44 -49.11,-93.74 21.1,-107.73l3069.78 -615.9c70.03,-14.08 97.51,26.84 60.85,91.36zm-3151.88 985.33l-430.33 86.27c-56.09,11.29 -108.02,-27.02 -115.5,-85.57l-32.74 -251.36c-7.48,-58.71 32.69,-100.17 89.29,-89.29 294.39,56.66 449.12,162.3 525.4,236.5 41.93,41.01 20.24,92.17 -36.12,103.45zm3917.92 -851.41l-48.46 -486.35 -4667.12 936.33 142.81 467.44c19.37,96.6 21.78,177.56 115.6,158.74l4412 -885.17c93.52,-18.74 64.56,-94.45 45.17,-190.99z"/>
   <path class="fil1" d="M5736.18 8012.63c12.3,61.5 70.8,101.76 130.48,89.78 59.65,-12 98.11,-71.65 85.73,-133.15 -12.3,-61.57 -70.8,-101.77 -130.52,-89.77 -59.61,11.92 -98.08,71.66 -85.69,133.14z"/>
   <path class="fil1" d="M5120.34 7526.37c0,0 -45.46,0.47 -96.67,-15.59 -821.22,288.95 -1678.73,460.93 -2547.96,511.4 -41.48,35.17 -84.63,51.86 -84.63,51.86 0,0 -698.1,357.34 -859.59,-107.17 -104.87,-301.56 164.87,-312.61 164.87,-312.61 0,0 1062.6,-45.45 1100.14,103.52 616.53,-58.78 1225.32,-180.34 1816.93,-363.13 -22.72,-150.38 985.97,-523.53 985.97,-523.53 0,0 252.98,-93.75 272.62,224.97 30.13,490.81 -751.68,430.28 -751.68,430.28zm824.23 -578.03c-15.58,-77.31 -40.31,-125.61 -73.86,-155.72l0.47 -0.16 -2.29 -1.42c-13.04,-11.44 -27.48,-20.27 -43.42,-26.71l-619.51 -382.35 -3343.21 670.67 -403.75 604.96c-13.67,15.56 -25.08,32.32 -33.96,50.83l-4.18 6.28 0.9 -0.25c-24.8,55.94 -29.3,125.46 -10.75,217.76l50.16 559.61 4667.12 -936.33 -183.72 -607.17z"/>
   <path class="fil1" d="M2042.68 8098.36c-232.24,46.55 -371.3,-6.21 -425.23,-161.35 -12.88,-37.02 -19.48,-70.8 -19.23,-97.65 0,0 9.7,-73.25 58.3,-83.81 48.76,-10.63 16.26,-5.79 27.9,-8.11l6.89 -1.42 7.19 -0.16 6.78 -0.94c229.76,-32.18 598.7,-41.01 711.47,38.28 0,0 109.74,91.27 -57.62,205.6l-13.4 6.04c0.4,0 -141,71.02 -303.05,103.52z"/>
   <path class="fil1" d="M5440 7416.81c232.27,-46.55 340.23,-148.96 330.16,-312.93 -2.39,-39.09 -9.39,-72.85 -19.95,-97.48 0,0 -37.27,-63.78 -86.27,-54.82 -48.94,8.99 -16.98,0.88 -28.74,3.18l-6.89 1.44 -6.64 2.54 -6.67 1.83c-224.36,58.86 -568.21,193.12 -641.69,309.75 0,0 -66,126.47 132.48,167.46l14.69 0.4c-0.3,0.07 157.45,11.19 319.52,-21.37z"/>
   <path class="fil1" d="M3700.97 5997.86c8.67,43.06 -19.23,84.86 -62.18,93.5l-426.63 85.65c-43.01,8.58 -84.92,-19.21 -93.54,-62.2 -8.58,-43.06 19.27,-85.01 62.26,-93.59l426.63 -85.64c43.04,-8.58 84.9,19.32 93.46,62.28z"/>
   <polygon class="fil1" points="3443.19,5968.63 3335.97,5990.07 3318.79,5904.21 3425.96,5882.59 "/>
   <path class="fil1" d="M4637.32 8337.94l-1498.59 300.71c-173.45,34.79 -173.34,-49.97 -193.4,-150.48 -20.22,-100.41 83.34,-205.92 231.14,-235.53l1277.01 -256.2c147.79,-29.64 284.08,27.63 304.16,128.2 20.23,100.35 53.13,178.51 -120.32,213.3z"/>
  </g>
 </g>
</svg>
