<?xml version="1.0" encoding="UTF-8"?>
<!DOCTYPE svg PUBLIC "-//W3C//DTD SVG 1.1//EN" "http://www.w3.org/Graphics/SVG/1.1/DTD/svg11.dtd">
<!-- Creator: CorelDRAW 2017 -->
<svg xmlns="http://www.w3.org/2000/svg" xml:space="preserve" width="295px" height="295px" version="1.1" style="shape-rendering:geometricPrecision; text-rendering:geometricPrecision; image-rendering:optimizeQuality; fill-rule:evenodd; clip-rule:evenodd"
viewBox="0 0 295 295"
 xmlns:xlink="http://www.w3.org/1999/xlink">
 <defs>
  <style type="text/css">
   <![CDATA[
    .str0 {stroke:#373435;stroke-width:2;stroke-miterlimit:22.9256}
    .fil0 {fill:#3E4095}
    .fil1 {fill:white;fill-rule:nonzero}
   ]]>
  </style>
 </defs>
 <g id="Layer_x0020_1">
  <metadata id="CorelCorpID_0Corel-Layer"/>
  <rect class="fil0 str0" x="-30" y="-30" width="354" height="354"/>
  <g id="_2017607083344">
   <path class="fil1" d="M191 183c-42,0 -57,-89 -57,-107 0,-19 20,-25 31,-25l0 15c0,0 -16,1 -16,9 0,18 16,92 42,92 25,0 42,-73 42,-92 0,-9 -16,-9 -16,-9l0 -15c11,0 31,6 31,25 0,18 -16,107 -57,107z"/>
   <polygon class="fil1" points="151,134 231,134 231,128 151,128 "/>
   <path class="fil1" d="M165 70l-1 0c-2,0 -4,-2 -4,-4l0 -16c0,-2 2,-4 4,-4l1 0c5,0 9,4 9,9l0 6c0,5 -4,9 -9,9z"/>
   <path class="fil1" d="M217 70l1 0c2,0 4,-2 4,-4l0 -16c0,-2 -2,-4 -4,-4l-1 0c-5,0 -9,4 -9,9l0 6c0,5 4,9 9,9z"/>
   <path class="fil1" d="M155 248c-14,0 -27,-6 -35,-17 -11,-14 -15,-35 -9,-58 7,-28 7,-45 0,-53 -4,-5 -11,-8 -22,-8l0 -14c15,0 26,4 33,13 10,12 10,32 2,65 -4,18 -2,35 7,46 6,8 15,12 25,12 9,0 16,-3 21,-8 8,-9 11,-26 9,-47l13 -1c2,18 1,43 -13,58 -8,9 -18,13 -31,13z"/>
   <path class="fil1" d="M71 93c-6,0 -11,5 -11,11 0,6 5,11 11,11 6,0 11,-5 11,-11 0,-6 -5,-11 -11,-11zm0 35c-13,0 -24,-11 -24,-24 0,-13 11,-24 24,-24 13,0 24,11 24,24 0,13 -11,24 -24,24z"/>
  </g>
 </g>
</svg>
