<svg id="Layer_1" data-name="Layer 1" xmlns="http://www.w3.org/2000/svg" viewBox="0 0 500 203.7"><defs><style>.cls-1{fill:#fff;}.cls-2{fill:#108fce;}</style></defs><rect class="cls-1" x="5" y="19.85" width="491" height="160"/><path class="cls-2" d="M109,155.13a3.13,3.13,0,0,0-2.94,1.4,9.32,9.32,0,0,0-.82,4.48,9.59,9.59,0,0,0,.82,4.52,3.72,3.72,0,0,0,5.88,0,9.46,9.46,0,0,0,.82-4.52,9.2,9.2,0,0,0-.82-4.48A3.11,3.11,0,0,0,109,155.13Z" transform="translate(-0.11 -0.27)"/><path class="cls-2" d="M200.68,58.42q-5.34,0-7.64,4.34t-2.3,15q0,10.68,2.34,14.93c1.56,2.84,4.11,4.25,7.64,4.25s6.05-1.41,7.55-4.25,2.26-7.83,2.26-15-.75-12.16-2.26-15S204.24,58.42,200.68,58.42Z" transform="translate(-0.11 -0.27)"/><path class="cls-2" d="M335,149a3.68,3.68,0,0,0-3.52,2q-1.07,2-1.06,6.92t1.08,6.88a3.7,3.7,0,0,0,3.52,2,3.62,3.62,0,0,0,3.48-2q1-2,1-6.9t-1-6.92A3.63,3.63,0,0,0,335,149Z" transform="translate(-0.11 -0.27)"/><path class="cls-2" d="M249.29,58.42q-5.34,0-7.64,4.34t-2.3,15q0,10.68,2.34,14.93c1.56,2.84,4.11,4.25,7.64,4.25s6-1.41,7.55-4.25,2.26-7.83,2.26-15-.75-12.16-2.26-15S252.85,58.42,249.29,58.42Z" transform="translate(-0.11 -0.27)"/><path class="cls-2" d="M189.29,150.61a3.14,3.14,0,0,0-1.78-1.54,9.7,9.7,0,0,0-3.18-.42h-3.64v17.6h3.64a5.58,5.58,0,0,0,4.36-1.52c.78-.83,1.26-2.32,1.44-4.48.06-.86.08-2,.08-3.54a31.63,31.63,0,0,0-.16-3.62A6.72,6.72,0,0,0,189.29,150.61Z" transform="translate(-0.11 -0.27)"/><path class="cls-2" d="M87.89,155.37a8.18,8.18,0,0,0-3,.6l-.48.2v10.48a23.18,23.18,0,0,0,2.92.24,3.47,3.47,0,0,0,3.18-1.36,9.09,9.09,0,0,0,.86-4.64Q91.37,155.37,87.89,155.37Z" transform="translate(-0.11 -0.27)"/><path class="cls-2" d="M87.18,83.86,85.53,97.14q7-.78,7-7.3a5,5,0,0,0-1.17-3.42A11,11,0,0,0,87.18,83.86Z" transform="translate(-0.11 -0.27)"/><path class="cls-2" d="M76.07,64.24a4.56,4.56,0,0,0,1.3,3.38,14.73,14.73,0,0,0,5,2.69l1.47-12.06Q76.07,58.6,76.07,64.24Z" transform="translate(-0.11 -0.27)"/><path class="cls-2" d="M312.59,149a3.68,3.68,0,0,0-3.52,2q-1.06,2-1.06,6.92t1.08,6.88a3.7,3.7,0,0,0,3.52,2,3.62,3.62,0,0,0,3.48-2q1-2,1-6.9t-1-6.92A3.63,3.63,0,0,0,312.59,149Z" transform="translate(-0.11 -0.27)"/><path class="cls-2" d="M366.09,56.69q-6.94,0-9.55,4.86t-2.61,15.58q0,10.73,2.56,15.28t9.6,4.55q7,0,9.59-4.55t2.56-15.28q0-10.72-2.6-15.58T366.09,56.69Z" transform="translate(-0.11 -0.27)"/><path class="cls-2" d="M468.86.27H172A22.22,22.22,0,0,0,160.93,3L140.74,15,120.55,3A22.25,22.25,0,0,0,109.49.27H31.36C14.15.27.11,8.59.11,18.79V185.46c0,10.22,14,18.52,31.25,18.52h78.13a22.35,22.35,0,0,0,11.06-2.71l20.19-12,20.19,12A22.12,22.12,0,0,0,172,204H468.86c17.25,0,31.25-8.3,31.25-18.52V18.79C500.11,8.59,486.11.27,468.86.27ZM44.47,165.51c.6.81,1.84,1.22,3.7,1.22l4.65-.32.15,4.28a36.72,36.72,0,0,1-6.52.84c-3,0-5.08-.83-6.38-2.5s-1.94-4.34-1.94-8,.67-6.34,2-8,3.48-2.46,6.44-2.46a28.26,28.26,0,0,1,5.32.64l1.08.24-.15,4.24c-2.11-.22-3.67-.32-4.69-.32-1.83,0-3.06.39-3.66,1.18s-.9,2.27-.9,4.46S43.87,164.7,44.47,165.51ZM56.1,106.34H43L36.14,86.55H24.59v19.79h-12v-59H35.53q20.84,0,20.83,19.44,0,11.55-8.68,17Zm18,64.71H68.77v-1.12a10.74,10.74,0,0,1-5,1.6q-4.16,0-5.6-2.3t-1.44-7.7V151.05h5.36v10.56a11.37,11.37,0,0,0,.48,4c.32.72,1.1,1.08,2.32,1.08a9.81,9.81,0,0,0,3.32-.56l.52-.16v-15h5.36Zm20.6-1.78q-2.11,2.26-7,2.26a18.34,18.34,0,0,1-2.84-.24l-.48-.08v8.24H79.05v-28.4h5.32v1.08a9.24,9.24,0,0,1,4.56-1.56c2.7,0,4.68.81,6,2.42s1.92,4.35,1.92,8.22S96.11,167.76,94.69,169.27ZM84.32,107.38h-.09l-1.3,10.24q-6.44-.25-6.43-.6L77.72,107A96.21,96.21,0,0,1,67,105.12l-1.73-.34,1.13-9q6.86.94,12.67,1.3L80.93,82Q72,79.25,68.26,75.44T64.52,65q0-8.59,5.21-12.81T84.05,48h1.13l1.57-12h6.42l-1.56,12.5c3.58.34,6.88.81,9.89,1.38l1.48.35-1,9.2q-6.33-.69-11.72-1l-1.73,14q9,2.86,12.28,6.29t3.26,10.37q0,9-5.47,13.68T84.32,107.38ZM109,171.53q-9.19,0-9.2-10.52c0-3.31.71-5.87,2.12-7.7s3.78-2.74,7.08-2.74,5.67.91,7.08,2.74,2.12,4.39,2.12,7.7Q118.17,171.53,109,171.53Zm41.92-.48h-5.36V160.37a9.43,9.43,0,0,0-.56-3.78,2.22,2.22,0,0,0-2.24-1.22,11.21,11.21,0,0,0-3.12.56l-.6.2c.11,2,.16,3.52.16,4.56v10.36h-5.36V160.77a11.69,11.69,0,0,0-.52-4.18,2.2,2.2,0,0,0-2.28-1.22,9,9,0,0,0-3.08.56l-.48.16v15h-5.36v-20h5.32v1.12a9.86,9.86,0,0,1,4.72-1.6,6.52,6.52,0,0,1,5,1.88,15.06,15.06,0,0,1,6.72-1.88c2.64,0,4.48.77,5.5,2.3s1.54,4,1.54,7.34Zm10.28,0h-5.76v-6.64h5.76Zm0-11.56h-5.76v-6.64h5.76Zm9.34-53.15H133.36V96.18L145.6,83.77a103.59,103.59,0,0,0,9.07-10.24,12.78,12.78,0,0,0,2.56-7.6q0-4-2.13-5.69a9.68,9.68,0,0,0-6-1.65,84.06,84.06,0,0,0-12.67,1l-2.09.26-.6-9.29A59.7,59.7,0,0,1,151.33,48q18.22,0,18.23,16.41a21.41,21.41,0,0,1-2.78,11.11q-2.78,4.7-10.07,11.37l-10,9h23.78ZM299,30.24h18.51V48.76H299Zm0,37h18.51V85.79H299ZM195.45,163.11a11.69,11.69,0,0,1-1.66,4.32,6.85,6.85,0,0,1-3.54,2.76,17.32,17.32,0,0,1-5.92.86h-9.16v-27.2h9.16a19.21,19.21,0,0,1,5.8.74,6.86,6.86,0,0,1,3.54,2.44,10.08,10.08,0,0,1,1.74,4,30.25,30.25,0,0,1,.48,6A34.39,34.39,0,0,1,195.45,163.11ZM184,100.57Q178.4,93.75,178.41,78T184,55.12Q189.61,48,200.63,48t16.63,7.12q5.6,7.13,5.6,22.88t-5.56,22.57q-5.55,6.81-16.67,6.81T184,100.57Zm34.32,48.08H206.21V155h9.68v4.72h-9.68v6.52h12.08v4.8h-17.6v-27.2h17.6Zm19.28,20.68a10.14,10.14,0,0,1-6.8,2.2,37.81,37.81,0,0,1-7.64-1l-1.44-.28.56-4.28a66.59,66.59,0,0,0,8.2.72q4.25,0,4.24-3.52a2.34,2.34,0,0,0-1-2,13.78,13.78,0,0,0-3.9-1.56q-4.63-1.32-6.54-3.14a6.66,6.66,0,0,1-1.9-5.06q0-4.08,2.48-6.08a10.55,10.55,0,0,1,6.8-2,45.58,45.58,0,0,1,7.52.8l1.44.28-.44,4.36q-5.64-.65-8-.64-4.36,0-4.36,2.88a2.18,2.18,0,0,0,1.08,2,28.17,28.17,0,0,0,5.06,2,14,14,0,0,1,5.58,2.9,6.82,6.82,0,0,1,1.6,5A8,8,0,0,1,237.57,169.33Zm12.74-4.5q1.09,1.81,4.4,1.82a47.71,47.71,0,0,0,7-.56l.12,4.52a36.61,36.61,0,0,1-7.64.92,14.54,14.54,0,0,1-5.44-.84,6.67,6.67,0,0,1-3.2-2.68,12,12,0,0,1-1.6-4.32,37,37,0,0,1-.44-6.24q0-7.87,2.22-11t8.18-3.1a34.8,34.8,0,0,1,8,1.08l-.16,4.4a45.39,45.39,0,0,0-6.58-.6,7.37,7.37,0,0,0-3.74.7,4.31,4.31,0,0,0-1.66,2.66,28.42,28.42,0,0,0-.54,6.68C249.21,161.43,249.58,163.62,250.31,164.83Zm-1.07-57.45q-11.1,0-16.66-6.81T227,78q0-15.77,5.6-22.88T249.24,48q11,0,16.63,7.12T271.47,78q0,15.75-5.56,22.57T249.24,107.38Zm27.49,55.47H264.89V158h11.84Zm22,8.2H281.57v-4.68l5.64-5.72a47.63,47.63,0,0,0,4.18-4.72,5.86,5.86,0,0,0,1.18-3.5,3.14,3.14,0,0,0-1-2.62,4.42,4.42,0,0,0-2.78-.76,39.08,39.08,0,0,0-5.84.48l-1,.12-.28-4.28a27.57,27.57,0,0,1,8.12-1.2q8.4,0,8.4,7.56a9.9,9.9,0,0,1-1.28,5.12,25.23,25.23,0,0,1-4.64,5.24l-4.6,4.16h11Zm.33-66.74h18.51v18.52H299Zm21.23,64.08q-2.56,3.13-7.68,3.14t-7.68-3.14q-2.56-3.13-2.56-10.4t2.58-10.54q2.58-3.28,7.66-3.28t7.66,3.28q2.58,3.28,2.58,10.54T320.25,168.39Zm22.4,0q-2.56,3.13-7.68,3.14t-7.68-3.14q-2.57-3.13-2.56-10.4t2.58-10.54q2.58-3.28,7.66-3.28t7.66,3.28q2.58,3.28,2.58,10.54T342.65,168.39Zm17.6-5.54H348.41V158h11.84Zm24,5.3q-2.53,3.38-8.74,3.38t-8.74-3.38q-2.54-3.39-2.54-10.58t2.54-10.7q2.54-3.5,8.74-3.5t8.74,3.5q2.53,3.49,2.54,10.7T384.27,168.15Zm.78-68.1q-5.51,7.33-19,7.33t-19-7.33q-5.52-7.33-5.51-23t5.51-23.22q5.5-7.59,19-7.59t19,7.59q5.52,7.61,5.52,23.22T385.05,100.05Zm23.84,48.6H397.05v8h9.68v4.8h-9.68v9.6h-5.52v-27.2h17.36Zm21.24,0H418.29v8H428v4.8h-9.68v9.6h-5.52v-27.2h17.36Zm8.35-90.92H412.79V75.09h21V85.51h-21v20.83h-12v-59h37.67Zm46.1,0h-25.7V75.09h21V85.51h-21v20.83h-12v-59h37.68Z" transform="translate(-0.11 -0.27)"/><path class="cls-2" d="M35.53,57.55H24.59V76.3H35.7c2.84,0,4.95-.86,6.34-2.6a10.65,10.65,0,0,0,2.09-6.86,9.88,9.88,0,0,0-2.22-6.77A8,8,0,0,0,35.53,57.55Z" transform="translate(-0.11 -0.27)"/><path class="cls-2" d="M375.53,148.17q-3.19,0-4.4,2.24c-.8,1.49-1.2,3.89-1.2,7.18s.39,5.64,1.18,7,2.26,2.1,4.42,2.1,3.63-.7,4.42-2.1,1.18-3.75,1.18-7-.4-5.69-1.2-7.18S377.66,148.17,375.53,148.17Z" transform="translate(-0.11 -0.27)"/></svg>