<svg id="Capa_1" data-name="Capa 1" xmlns="http://www.w3.org/2000/svg" viewBox="0 0 500 203.7"><defs><style>.cls-1{fill:#108fce;}.cls-2{fill:#fafafa;}.cls-3{font-size:86.81px;}.cls-3,.cls-4{fill:#fff;font-family:TitilliumWeb-Bold, Titillium Web;font-weight:700;}.cls-4{font-size:40px;}.cls-5{letter-spacing:-0.02em;}</style></defs><path class="cls-1" d="M474.75,152.15H177.88a22.39,22.39,0,0,0-11.07,2.7l-20.18,12-20.19-12a22.38,22.38,0,0,0-11.06-2.7H37.25C20,152.15,6,160.46,6,170.67V337.33c0,10.23,14,18.52,31.25,18.52h78.13a22.38,22.38,0,0,0,11.06-2.7l20.19-12,20.18,12a22.18,22.18,0,0,0,11.07,2.72H474.75c17.25,0,31.25-8.29,31.25-18.52V170.67C506,160.46,492,152.15,474.75,152.15Z" transform="translate(-6 -152.15)"/><rect class="cls-2" x="300.93" y="28.74" width="18.52" height="18.52"/><rect class="cls-2" x="300.93" y="102.81" width="18.52" height="18.52"/><rect class="cls-2" x="300.93" y="65.78" width="18.52" height="18.52"/><text class="cls-3" transform="translate(339.7 104.84)">OFF</text><text class="cls-3" transform="translate(8.1 104.84)">R$ 100</text><text class="cls-4" transform="translate(36.5 169.55)">cupom: DES<tspan class="cls-5" x="205.04" y="0">C</tspan><tspan x="226.04" y="0">-100-OFF</tspan></text></svg>