<?xml version="1.0" encoding="utf-8"?>
<!-- Generator: Adobe Illustrator 24.2.3, SVG Export Plug-In . SVG Version: 6.00 Build 0)  -->
<svg version="1.1" id="Capa_1" xmlns="http://www.w3.org/2000/svg" xmlns:xlink="http://www.w3.org/1999/xlink" x="0px" y="0px"
	 viewBox="0 0 512 512" style="enable-background:new 0 0 512 512;" xml:space="preserve">
<style type="text/css">
	.st0{fill:#FFFFFF;}
	.st1{fill:#108FCE;}
</style>
<g>
	<rect x="11" y="174" class="st0" width="491" height="160"/>
	<g>
		<path class="st1" d="M114.9,309c-1.4,0-2.4,0.5-2.9,1.4c-0.5,0.9-0.8,2.4-0.8,4.5c0,2.1,0.3,3.6,0.8,4.5c0.5,1,1.5,1.4,2.9,1.4
			c1.4,0,2.4-0.5,2.9-1.4c0.5-1,0.8-2.5,0.8-4.5c0-2.1-0.3-3.5-0.8-4.5C117.3,309.5,116.3,309,114.9,309z"/>
		<path class="st1" d="M206.6,212.3c-3.6,0-6.1,1.4-7.6,4.3c-1.5,2.9-2.3,7.9-2.3,15c0,7.1,0.8,12.1,2.3,14.9
			c1.6,2.8,4.1,4.3,7.6,4.3c3.5,0,6-1.4,7.6-4.3c1.5-2.8,2.3-7.8,2.3-15c0-7.1-0.8-12.2-2.3-15C212.7,213.7,210.1,212.3,206.6,212.3
			z"/>
		<path class="st1" d="M340.9,302.8c-1.6,0-2.8,0.7-3.5,2c-0.7,1.3-1.1,3.6-1.1,6.9c0,3.3,0.4,5.6,1.1,6.9c0.7,1.3,1.9,2,3.5,2
			c1.6,0,2.8-0.7,3.5-2c0.7-1.3,1-3.6,1-6.9c0-3.3-0.3-5.6-1-6.9C343.7,303.5,342.5,302.8,340.9,302.8z"/>
		<path class="st1" d="M255.2,212.3c-3.6,0-6.1,1.4-7.6,4.3c-1.5,2.9-2.3,7.9-2.3,15c0,7.1,0.8,12.1,2.3,14.9
			c1.6,2.8,4.1,4.3,7.6,4.3c3.5,0,6-1.4,7.6-4.3c1.5-2.8,2.3-7.8,2.3-15c0-7.1-0.8-12.2-2.3-15C261.3,213.7,258.7,212.3,255.2,212.3
			z"/>
		<path class="st1" d="M195.2,304.5c-0.4-0.7-1-1.3-1.8-1.5c-0.8-0.3-1.8-0.4-3.2-0.4h-3.6v17.6h3.6c2,0,3.5-0.5,4.4-1.5
			c0.8-0.8,1.3-2.3,1.4-4.5c0.1-0.9,0.1-2,0.1-3.5c0-1.5-0.1-2.7-0.2-3.6C195.8,306.1,195.6,305.2,195.2,304.5z"/>
		<path class="st1" d="M93.8,309.2c-1,0-2,0.2-3,0.6l-0.5,0.2v10.5c1.2,0.2,2.2,0.2,2.9,0.2c1.5,0,2.6-0.5,3.2-1.4
			c0.6-0.9,0.9-2.5,0.9-4.6C97.3,311.1,96.1,309.2,93.8,309.2z"/>
		<path class="st1" d="M93.1,237.7L91.4,251c4.7-0.5,7-3,7-7.3c0-1.4-0.4-2.5-1.2-3.4C96.5,239.4,95.1,238.5,93.1,237.7z"/>
		<path class="st1" d="M82,218.1c0,1.4,0.4,2.5,1.3,3.4c0.9,0.9,2.5,1.8,5,2.7l1.5-12.1C84.6,212.4,82,214.4,82,218.1z"/>
		<path class="st1" d="M318.5,302.8c-1.6,0-2.8,0.7-3.5,2c-0.7,1.3-1.1,3.6-1.1,6.9c0,3.3,0.4,5.6,1.1,6.9s1.9,2,3.5,2
			c1.6,0,2.8-0.7,3.5-2s1-3.6,1-6.9c0-3.3-0.3-5.6-1-6.9S320.1,302.8,318.5,302.8z"/>
		<path class="st1" d="M372,210.6c-4.6,0-7.8,1.6-9.5,4.9c-1.7,3.2-2.6,8.4-2.6,15.6c0,7.1,0.9,12.2,2.6,15.3s4.9,4.6,9.6,4.6
			s7.9-1.5,9.6-4.6c1.7-3,2.6-8.1,2.6-15.3c0-7.1-0.9-12.3-2.6-15.6C379.8,212.2,376.6,210.6,372,210.6z"/>
		<path class="st1" d="M474.8,154.1H177.9c-4.2,0-8.1,1-11.1,2.7l-20.2,12l-20.2-12c-2.9-1.7-6.9-2.7-11.1-2.7H37.3
			C20,154.1,6,162.5,6,172.7v166.7c0,10.2,14,18.5,31.3,18.5h78.1c4.2,0,8.1-1,11.1-2.7l20.2-12l20.2,12c2.9,1.7,6.9,2.7,11.1,2.7
			h296.9c17.3,0,31.3-8.3,31.3-18.5V172.7C506,162.5,492,154.1,474.8,154.1z M50.4,319.4c0.6,0.8,1.8,1.2,3.7,1.2l4.6-0.3l0.2,4.3
			c-2.9,0.6-5,0.8-6.5,0.8c-3,0-5.1-0.8-6.4-2.5c-1.3-1.7-1.9-4.3-1.9-8c0-3.7,0.7-6.3,2-8c1.3-1.6,3.5-2.5,6.4-2.5
			c1.4,0,3.2,0.2,5.3,0.6l1.1,0.2l-0.2,4.2c-2.1-0.2-3.7-0.3-4.7-0.3c-1.8,0-3.1,0.4-3.7,1.2c-0.6,0.8-0.9,2.3-0.9,4.5
			C49.5,317.1,49.8,318.6,50.4,319.4z M62,260.2H48.9L42,240.4H30.5v19.8h-12v-59h22.9c13.9,0,20.8,6.5,20.8,19.4
			c0,7.7-2.9,13.4-8.7,17L62,260.2z M80,324.9h-5.3v-1.1c-1.9,1.1-3.6,1.6-5,1.6c-2.8,0-4.6-0.8-5.6-2.3c-1-1.5-1.4-4.1-1.4-7.7
			v-10.5H68v10.6c0,2,0.2,3.3,0.5,4c0.3,0.7,1.1,1.1,2.3,1.1c1.2,0,2.3-0.2,3.3-0.6l0.5-0.2v-15H80V324.9z M100.6,323.1
			c-1.4,1.5-3.7,2.3-7,2.3c-0.9,0-1.8-0.1-2.8-0.2l-0.5-0.1v8.2h-5.4v-28.4h5.3v1.1c1.7-1,3.3-1.6,4.6-1.6c2.7,0,4.7,0.8,6,2.4
			c1.3,1.6,1.9,4.4,1.9,8.2C102.7,319,102,321.6,100.6,323.1z M90.2,261.3L90.2,261.3l-1.4,10.2c-4.3-0.2-6.4-0.4-6.4-0.6l1.2-10.1
			c-4.3-0.5-7.9-1.1-10.8-1.8l-1.7-0.3l1.1-9c4.6,0.6,8.8,1.1,12.7,1.3l1.9-15.1c-6-1.8-10.2-4-12.7-6.5c-2.5-2.5-3.7-6-3.7-10.4
			c0-5.7,1.7-10,5.2-12.8c3.5-2.8,8.2-4.2,14.3-4.2h1.1l1.6-12h6.4l-1.6,12.5c3.6,0.3,6.9,0.8,9.9,1.4l1.5,0.3l-1,9.2
			c-4.2-0.5-8.1-0.8-11.7-1l-1.7,14c6,1.9,10.1,4,12.3,6.3c2.2,2.3,3.3,5.7,3.3,10.4c0,6-1.8,10.6-5.5,13.7
			C100.9,259.7,96.1,261.3,90.2,261.3z M114.9,325.4c-6.1,0-9.2-3.5-9.2-10.5c0-3.3,0.7-5.9,2.1-7.7c1.4-1.8,3.8-2.7,7.1-2.7
			c3.3,0,5.7,0.9,7.1,2.7c1.4,1.8,2.1,4.4,2.1,7.7C124.1,321.9,121,325.4,114.9,325.4z M156.8,324.9h-5.4v-10.7c0-1.7-0.2-3-0.6-3.8
			c-0.4-0.8-1.1-1.2-2.2-1.2c-0.9,0-1.9,0.2-3.1,0.6l-0.6,0.2c0.1,2,0.2,3.5,0.2,4.6v10.4h-5.4v-10.3c0-2-0.2-3.4-0.5-4.2
			c-0.3-0.8-1.1-1.2-2.3-1.2c-1,0-2.1,0.2-3.1,0.6l-0.5,0.2v15H128v-20h5.3v1.1c1.8-1.1,3.4-1.6,4.7-1.6c2.2,0,3.8,0.6,5,1.9
			c2.5-1.3,4.7-1.9,6.7-1.9c2.6,0,4.5,0.8,5.5,2.3c1,1.5,1.5,4,1.5,7.3V324.9z M167.1,324.9h-5.8v-6.6h5.8V324.9z M167.1,313.4h-5.8
			v-6.6h5.8V313.4z M176.4,260.2h-37.2v-10.2l12.2-12.4c4.3-4.5,7.4-7.9,9.1-10.2c1.7-2.4,2.6-4.9,2.6-7.6c0-2.7-0.7-4.6-2.1-5.7
			c-1.4-1.1-3.4-1.6-6-1.6c-3.9,0-8.1,0.3-12.7,1l-2.1,0.3l-0.6-9.3c5.7-1.7,11.5-2.6,17.6-2.6c12.2,0,18.2,5.5,18.2,16.4
			c0,4.3-0.9,8-2.8,11.1c-1.9,3.1-5.2,6.9-10.1,11.4l-10,9h23.8V260.2z M304.9,184.1h18.5v18.5h-18.5V184.1z M304.9,221.2h18.5v18.5
			h-18.5V221.2z M201.3,317c-0.3,1.6-0.8,3.1-1.7,4.3c-0.8,1.3-2,2.2-3.5,2.8c-1.5,0.6-3.5,0.9-5.9,0.9h-9.2v-27.2h9.2
			c2.3,0,4.3,0.2,5.8,0.7c1.5,0.5,2.7,1.3,3.5,2.4s1.4,2.5,1.7,4c0.3,1.5,0.5,3.5,0.5,6C201.8,313.3,201.6,315.4,201.3,317z
			 M189.9,254.4c-3.7-4.5-5.6-12.1-5.6-22.6c0-10.5,1.9-18.1,5.6-22.9c3.7-4.7,9.3-7.1,16.6-7.1c7.3,0,12.9,2.4,16.6,7.1
			c3.7,4.7,5.6,12.4,5.6,22.9c0,10.5-1.9,18-5.6,22.6c-3.7,4.5-9.3,6.8-16.7,6.8C199.1,261.3,193.6,259,189.9,254.4z M224.2,302.5
			h-12.1v6.4h9.7v4.7h-9.7v6.5h12.1v4.8h-17.6v-27.2h17.6V302.5z M243.5,323.2c-1.7,1.5-4,2.2-6.8,2.2c-2.1,0-4.6-0.3-7.6-1
			l-1.4-0.3l0.6-4.3c3.6,0.5,6.3,0.7,8.2,0.7c2.8,0,4.2-1.2,4.2-3.5c0-0.9-0.3-1.5-1-2c-0.7-0.5-2-1-3.9-1.6
			c-3.1-0.9-5.3-1.9-6.5-3.1c-1.3-1.2-1.9-2.9-1.9-5.1c0-2.7,0.8-4.7,2.5-6.1c1.7-1.3,3.9-2,6.8-2c2,0,4.5,0.3,7.5,0.8l1.4,0.3
			l-0.4,4.4c-3.8-0.4-6.4-0.6-8-0.6c-2.9,0-4.4,1-4.4,2.9c0,0.9,0.4,1.5,1.1,2c0.7,0.5,2.4,1.1,5.1,2c2.7,0.9,4.5,1.8,5.6,2.9
			c1.1,1.1,1.6,2.7,1.6,5C246.1,319.6,245.2,321.7,243.5,323.2z M256.2,318.7c0.7,1.2,2.2,1.8,4.4,1.8c2.2,0,4.5-0.2,7-0.6l0.1,4.5
			c-2.8,0.6-5.4,0.9-7.6,0.9c-2.3,0-4.1-0.3-5.4-0.8c-1.4-0.6-2.4-1.5-3.2-2.7c-0.8-1.2-1.3-2.7-1.6-4.3s-0.4-3.7-0.4-6.2
			c0-5.3,0.7-8.9,2.2-11c1.5-2.1,4.2-3.1,8.2-3.1c2.3,0,4.9,0.4,8,1.1l-0.2,4.4c-2.6-0.4-4.8-0.6-6.6-0.6c-1.7,0-3,0.2-3.7,0.7
			c-0.7,0.5-1.3,1.4-1.7,2.7s-0.5,3.5-0.5,6.7S255.5,317.5,256.2,318.7z M255.1,261.3c-7.4,0-13-2.3-16.7-6.8
			c-3.7-4.5-5.6-12.1-5.6-22.6c0-10.5,1.9-18.1,5.6-22.9c3.7-4.7,9.3-7.1,16.6-7.1c7.3,0,12.9,2.4,16.6,7.1
			c3.7,4.7,5.6,12.4,5.6,22.9c0,10.5-1.9,18-5.6,22.6C268.1,259,262.5,261.3,255.1,261.3z M282.6,316.7h-11.8v-4.9h11.8V316.7z
			 M304.6,324.9h-17.1v-4.7l5.6-5.7c2-2.1,3.4-3.6,4.2-4.7c0.8-1.1,1.2-2.3,1.2-3.5c0-1.2-0.3-2.1-1-2.6c-0.7-0.5-1.6-0.8-2.8-0.8
			c-1.8,0-3.7,0.2-5.8,0.5l-1,0.1l-0.3-4.3c2.6-0.8,5.3-1.2,8.1-1.2c5.6,0,8.4,2.5,8.4,7.6c0,2-0.4,3.7-1.3,5.1
			c-0.9,1.4-2.4,3.2-4.6,5.2l-4.6,4.2h11V324.9z M304.9,258.2h18.5v18.5h-18.5V258.2z M326.1,322.3c-1.7,2.1-4.3,3.1-7.7,3.1
			c-3.4,0-6-1-7.7-3.1c-1.7-2.1-2.6-5.6-2.6-10.4s0.9-8.4,2.6-10.5c1.7-2.2,4.3-3.3,7.7-3.3c3.4,0,5.9,1.1,7.7,3.3
			c1.7,2.2,2.6,5.7,2.6,10.5S327.8,320.2,326.1,322.3z M348.5,322.3c-1.7,2.1-4.3,3.1-7.7,3.1c-3.4,0-6-1-7.7-3.1
			c-1.7-2.1-2.6-5.6-2.6-10.4s0.9-8.4,2.6-10.5s4.3-3.3,7.7-3.3s5.9,1.1,7.7,3.3s2.6,5.7,2.6,10.5S350.2,320.2,348.5,322.3z
			 M366.1,316.7h-11.8v-4.9h11.8V316.7z M390.2,322c-1.7,2.3-4.6,3.4-8.7,3.4s-7-1.1-8.7-3.4c-1.7-2.3-2.5-5.8-2.5-10.6
			s0.8-8.4,2.5-10.7c1.7-2.3,4.6-3.5,8.7-3.5s7,1.2,8.7,3.5c1.7,2.3,2.5,5.9,2.5,10.7S391.8,319.8,390.2,322z M390.9,253.9
			c-3.7,4.9-10,7.3-19,7.3c-9,0-15.3-2.4-19-7.3c-3.7-4.9-5.5-12.5-5.5-23c0-10.4,1.8-18.2,5.5-23.2c3.7-5.1,10-7.6,19-7.6
			c9,0,15.3,2.5,19,7.6c3.7,5.1,5.5,12.8,5.5,23.2C396.5,241.4,394.6,249,390.9,253.9z M414.8,302.5h-11.8v8h9.7v4.8h-9.7v9.6h-5.5
			v-27.2h17.4V302.5z M436,302.5h-11.8v8h9.7v4.8h-9.7v9.6h-5.5v-27.2H436V302.5z M444.4,211.6h-25.7V229h21v10.4h-21v20.8h-12v-59
			h37.7V211.6z M490.5,211.6h-25.7V229h21v10.4h-21v20.8h-12v-59h37.7V211.6z"/>
		<path class="st1" d="M41.4,211.4H30.5v18.7h11.1c2.8,0,4.9-0.9,6.3-2.6c1.4-1.7,2.1-4,2.1-6.9c0-2.8-0.7-5.1-2.2-6.8
			C46.3,212.3,44.2,211.4,41.4,211.4z"/>
		<path class="st1" d="M381.4,302c-2.1,0-3.6,0.7-4.4,2.2c-0.8,1.5-1.2,3.9-1.2,7.2c0,3.3,0.4,5.6,1.2,7c0.8,1.4,2.3,2.1,4.4,2.1
			s3.6-0.7,4.4-2.1c0.8-1.4,1.2-3.7,1.2-7c0-3.3-0.4-5.7-1.2-7.2S383.5,302,381.4,302z"/>
	</g>
</g>
</svg>
