<?xml version="1.0" encoding="utf-8"?>
<!-- Generator: Adobe Illustrator 24.2.3, SVG Export Plug-In . SVG Version: 6.00 Build 0)  -->
<svg version="1.1" id="Layer_1" xmlns="http://www.w3.org/2000/svg" xmlns:xlink="http://www.w3.org/1999/xlink" x="0px" y="0px"
	 viewBox="0 0 400 400" style="enable-background:new 0 0 400 400;" xml:space="preserve">
<style type="text/css">
	.st0{fill:#FFFFFF;stroke:#FFFFFF;stroke-miterlimit:10;}
</style>
<g>
	<polygon class="st0" points="341.6,192.3 341.6,358.7 295.9,358.5 295.9,232.5 227.2,232.5 227.2,358.2 62.2,357.5 62.2,269 
		89.3,262.1 93.4,255 93.4,283.7 169.7,283.7 169.7,241.7 171.9,241.1 194.2,235.4 193.4,225 212.2,225 230.9,222.5 237.7,224.4 
		257.2,219.4 257.2,215 278.4,212.5 289.7,197.5 313.4,198.7 328.4,191.2 	"/>
	<path class="st0" d="M337.8,180.6l-13.2-0.6l-14.7,8l-23.8-0.4l-10.7,15.4l-21.1,3.2l0.1,4.5l-19.3,5.6l-6.8-1.7l-18.7,3.1
		l-18.7,0.6l1.1,10.4l-22.1,6.4c-0.7,0-1.5,0-2.2,0l-1.4-39.7L90.1,198l1.8,53.7L88,259l-26.8,7.8l-2.8-81.4L193,41.3l144.7,135.1
		L337.8,180.6z"/>
</g>
</svg>
