<?xml version="1.0" encoding="UTF-8"?>
<!DOCTYPE svg PUBLIC "-//W3C//DTD SVG 1.1//EN" "http://www.w3.org/Graphics/SVG/1.1/DTD/svg11.dtd">
<!-- Creator: CorelDRAW 2017 -->
<svg xmlns="http://www.w3.org/2000/svg" xml:space="preserve" width="2083px" height="2083px" version="1.1" style="shape-rendering:geometricPrecision; text-rendering:geometricPrecision; image-rendering:optimizeQuality; fill-rule:evenodd; clip-rule:evenodd"
viewBox="0 0 2083 2083"
 xmlns:xlink="http://www.w3.org/1999/xlink">
 <defs>
  <style type="text/css">
   <![CDATA[
    .fil9 {fill:black;fill-rule:nonzero}
    .fil2 {fill:#492D1A;fill-rule:nonzero}
    .fil10 {fill:#5B5B5B;fill-rule:nonzero}
    .fil6 {fill:#623146;fill-rule:nonzero}
    .fil3 {fill:#6D4429;fill-rule:nonzero}
    .fil11 {fill:#727F7D;fill-rule:nonzero}
    .fil0 {fill:#7A4F2E;fill-rule:nonzero}
    .fil1 {fill:#B54F1C;fill-rule:nonzero}
    .fil4 {fill:#E6B185;fill-rule:nonzero}
    .fil8 {fill:#F7C9A4;fill-rule:nonzero}
    .fil7 {fill:#F9A800;fill-rule:nonzero}
    .fil5 {fill:#FFD7B3;fill-rule:nonzero}
    .fil12 {fill:#FFE2CA;fill-rule:nonzero}
   ]]>
  </style>
 </defs>
 <g id="Layer_x0020_1">
  <metadata id="CorelCorpID_0Corel-Layer"/>
  <g id="_2017675353936">
   <path class="fil0" d="M155 1449c18,41 97,77 169,52 72,-25 179,-50 196,-37 -37,37 -89,87 -129,89 -40,2 -92,32 -92,32l-23 24c0,0 15,41 62,36 47,-5 81,-57 120,-65 46,-9 73,-28 82,-13 -4,53 20,202 69,298l716 0c101,-141 168,-243 168,-243 0,0 -366,-146 -376,-156 -10,-10 -80,-80 -115,-142 -35,-62 -132,-165 -192,-214 -60,-97 -90,-117 -96,-180 -6,-60 -10,-127 -27,-130 -17,-2 -89,67 -96,134 -15,-27 -19,-59 -19,-81 0,-22 -12,-25 -25,-8 -44,60 -54,106 -35,197 0,0 -31,26 -112,78 -27,17 -65,51 -65,66 0,15 -12,71 -32,83 -20,12 -153,68 -197,113 -15,15 14,50 50,67z"/>
   <path class="fil1" d="M287 1505c0,0 -42,62 -48,80 -6,18 -3,83 10,84 13,1 28,-53 35,-66 7,-13 91,-43 108,-46 17,-3 59,-15 133,-93 0,0 -15,-17 -108,9 -92,27 -130,32 -130,32z"/>
   <path class="fil2" d="M463 1460c4,-7 -24,49 -88,102 8,-2 14,-4 17,-5 17,-3 59,-15 133,-93 0,0 -9,-14 -62,-4z"/>
   <path class="fil2" d="M594 1003c-10,-21 -6,-39 -3,-68 -12,-25 -19,-61 -19,-81 0,-22 -12,-25 -25,-8 -44,60 -54,106 -35,197 0,0 56,-39 82,-39z"/>
   <path class="fil2" d="M155 1449c1,3 83,-58 -3,-102 -28,16 -32,20 -47,35 -15,15 14,50 50,67z"/>
   <path class="fil3" d="M609 1865l145 0c-31,-37 -137,-167 -105,-225 78,-140 68,-208 53,-294 -35,78 45,177 -164,219l2 3c-4,53 20,202 69,298z"/>
   <polygon class="fil4" points="1258,1341 1507,1341 1507,925 1258,925 "/>
   <path class="fil5" d="M1041 783c0,227 134,402 233,402 165,0 362,-135 363,-402 2,-227 -239,-442 -403,-442 -165,0 -193,215 -193,442z"/>
   <path class="fil6" d="M1785 1865l-83 -544c-6,-39 -56,-48 -112,-48l-384 0c-57,0 -101,13 -107,52l-87 539 773 0z"/>
   <path class="fil6" d="M1838 1806l-199 -475c-12,-36 -13,-59 102,-59 38,0 75,9 87,45l145 413c-38,34 -96,43 -135,76z"/>
   <path class="fil7" d="M1610 938c0,0 278,-347 0,-633 -154,-119 -399,-121 -539,20 -110,162 -64,344 -30,416 31,-103 1,-319 131,-254 21,11 14,24 135,-6 152,-38 223,6 220,311 59,-179 131,-71 84,146z"/>
   <path class="fil8" d="M1965 1822c-22,37 -61,54 -88,37l-421 -240c-52,-31 -81,-108 -61,-174 21,-69 46,-59 100,-15l466 281c27,22 28,71 4,110z"/>
   <path class="fil8" d="M1550 1557c0,0 -58,5 -112,48 -45,36 -129,-114 -129,-167 0,-53 -3,-131 48,-149 52,-17 192,-18 192,58 0,76 0,210 0,210z"/>
   <path class="fil9" d="M767 1300l0 258c0,18 17,32 38,32l542 0c21,0 38,-14 38,-32l0 -258c0,-18 -17,-32 -38,-32l-542 0c-21,0 -38,14 -38,32z"/>
   <path class="fil10" d="M846 1386c0,3 3,6 6,6 3,0 6,-3 6,-6l0 -5c0,-3 -3,-6 -6,-6 -3,0 -6,3 -6,6l0 5z"/>
   <path class="fil10" d="M828 1429c0,13 10,23 23,23 13,0 23,-10 23,-23 0,-13 -10,-23 -23,-23 -13,0 -23,10 -23,23z"/>
   <path class="fil11" d="M851 1448c-11,0 -19,-9 -19,-19 0,-11 9,-19 19,-19 11,0 19,9 19,19 0,11 -9,19 -19,19z"/>
   <path class="fil5" d="M1395 1322c-11,21 -3,46 18,57l118 62c21,11 46,3 57,-18 11,-21 3,-46 -18,-57l-118 -62c-21,-11 -46,-3 -57,18z"/>
   <path class="fil5" d="M1283 1419c11,21 37,29 57,18l109 -56c21,-11 29,-37 18,-57 -11,-21 -37,-29 -57,-18l-109 56c-21,11 -29,37 -18,57z"/>
   <path class="fil5" d="M1414 1206c-15,18 -13,45 5,60l97 102c18,15 45,13 60,-5 15,-18 13,-45 -5,-60l-97 -102c-18,-15 -45,-13 -60,5z"/>
   <path class="fil5" d="M1293 1294c9,22 34,32 55,23l113 -45c22,-9 32,-34 23,-55 -9,-22 -34,-32 -55,-23l-113 45c-22,9 -32,34 -23,55z"/>
   <path class="fil5" d="M1383 1427c-6,23 7,46 29,52l117 34c23,6 46,-7 52,-29 6,-23 -7,-46 -29,-52l-117 -34c-23,-6 -46,7 -52,29z"/>
   <path class="fil5" d="M1295 1542c15,18 42,21 60,6l95 -76c18,-15 21,-42 6,-60 -15,-18 -42,-21 -60,-6l-95 76c-18,15 -21,42 -6,60z"/>
   <path class="fil5" d="M1409 1522c-1,18 12,34 30,35l93 8c18,1 34,-12 35,-30 1,-18 -12,-34 -30,-35l-93 -8c-18,-1 -34,12 -35,30z"/>
   <path class="fil5" d="M1361 1620c14,11 34,9 45,-4l60 -71c11,-14 9,-34 -4,-45 -14,-11 -34,-9 -45,4l-60 71c-11,14 -9,34 4,45z"/>
   <path class="fil12" d="M615 1722c9,14 4,32 -9,40l-54 22c-14,9 -32,4 -40,-9 -9,-14 -4,-32 9,-40l54 -22c14,-9 32,-4 40,9z"/>
   <path class="fil12" d="M708 1737c0,16 -13,29 -29,29l-84 0c-16,0 -29,-13 -29,-29 0,-16 13,-29 29,-29l84 0c16,0 29,13 29,29z"/>
   <path class="fil12" d="M575 1658c11,12 11,30 0,41l-38 48c-12,11 -30,11 -41,0 -11,-12 -11,-30 0,-41l38 -48c12,-11 30,-11 41,0z"/>
   <path class="fil12" d="M668 1667c1,16 -10,30 -26,32l-83 8c-16,1 -30,-10 -32,-26 -1,-16 10,-30 26,-32l83 -8c16,-1 30,10 32,26z"/>
   <path class="fil12" d="M713 1796c-1,14 -12,25 -26,24l-72 -3c-14,-1 -25,-12 -24,-26 1,-14 12,-25 26,-24l72 3c14,1 25,12 24,26z"/>
   <path class="fil12" d="M642 1789c2,14 -8,26 -21,28l-57 10c-14,2 -26,-8 -28,-21 -2,-14 8,-26 21,-28l57 -10c14,-2 26,8 28,21z"/>
   <path class="fil12" d="M690 1844c0,12 -10,22 -22,22l-64 0c-12,0 -22,-10 -22,-22 0,-12 10,-22 22,-22l64 0c12,0 22,10 22,22z"/>
   <path class="fil12" d="M639 1844c0,12 -10,22 -22,22l-31 0c-12,0 -22,-10 -22,-22 0,-12 10,-22 22,-22l31 0c12,0 22,10 22,22z"/>
   <path class="fil7" d="M1061 480c0,4 33,115 252,154 -20,-12 -64,-90 -64,-90 0,0 121,66 189,76 -48,-35 -10,-165 -10,-165l-367 25z"/>
  </g>
 </g>
</svg>
