<?xml version="1.0" encoding="UTF-8"?>
<!DOCTYPE svg PUBLIC "-//W3C//DTD SVG 1.1//EN" "http://www.w3.org/Graphics/SVG/1.1/DTD/svg11.dtd">
<!-- Creator: CorelDRAW 2019 (64-Bit) -->
<svg xmlns="http://www.w3.org/2000/svg" xml:space="preserve" width="150mm" height="150mm" version="1.1" style="shape-rendering:geometricPrecision; text-rendering:geometricPrecision; image-rendering:optimizeQuality; fill-rule:evenodd; clip-rule:evenodd"
viewBox="0 0 15000 15000"
 xmlns:xlink="http://www.w3.org/1999/xlink">
 <defs>
  <style type="text/css">
   <![CDATA[
    .fil0 {fill:none}
    .fil1 {fill:#FEFEFE;fill-rule:nonzero}
   ]]>
  </style>
 </defs>
 <g id="Layer_x0020_1">
  <metadata id="CorelCorpID_0Corel-Layer"/>
  <rect class="fil0" x="-17.74" y="-14.81" width="15032.53" height="15032.53"/>
  <g id="_2603641742080">
   <path class="fil1" d="M6807.63 6451.3c88.6,-127.81 152.07,-275.91 179.36,-439.31 99.62,-593.5 -300.95,-1155.14 -894.32,-1254.63 -34.94,-5.8 -69.7,-9.6 -104.34,-12.19l1.08 -5.19c99.45,-593.38 -301.11,-1155.01 -894.49,-1254.46 -590.65,-99.02 -1149.39,297.27 -1252.64,886.1 -648.63,-37.7 -1234.83,418.38 -1344.66,1073.72 -37.53,224.54 -14.18,444.93 57.38,645.22 -47,19.24 -92.01,42.41 -135.77,67.88 -269.68,157.26 -471.05,427.42 -526.57,759.5 -99.45,593.37 300.95,1155.18 894.32,1254.63 85.44,14.32 170.1,17.08 252.91,11.59 133.65,348.86 441.9,620.23 836.85,686.25 34.16,5.97 67.89,5.97 101.74,8.39l-134.39 757.08 -28.36 1845.24 518.18 0 -27.46 -1780.12 128.12 -886.11c44.71,-16.77 89.07,-34.46 131.02,-56.86 152.72,79.61 319.58,137.42 498.5,167.47 733.43,122.8 1434.47,-250.31 1763.04,-874.34 81.16,-154.24 140.66,-323.39 171.01,-504.61 65.6,-391.57 -10.85,-773.68 -190.51,-1095.25z"/>
   <path class="fil1" d="M10186.96 8350.89l-133.48 -1039.56c0,0 1376.22,-68.79 1681.58,96.73 0,0 119.16,660.78 373.58,696.33l-1921.68 246.5zm1886.75 16c3.37,23.52 -13.28,45.14 -36.32,48.08l-525.32 69.23c-23.52,3.07 -44.84,-13.4 -47.91,-36.93 -3.2,-23.48 13.1,-44.97 36.32,-47.86l524.11 -93.05c23.17,-2.9 63.77,6.83 49.12,60.53zm-2045.4 -1.21c0,0 -1633.06,212.95 -2533.22,329.96l-15.39 37.36c-33.55,50.03 -93.05,84.06 -163.23,93.18l-58.24 7.78c-89.42,11.29 -221.65,27.16 -300.82,-68.62l-2.89 0.43 0.73 -3.02 -9.43 -10.68c-39.99,-59.63 13.41,-279.16 13.88,-281.27 36.76,-143.56 97.47,-238.6 181.05,-281.92 26.07,-13.58 53.23,-22.27 80.85,-25.78 60.89,-7.78 114.24,12.07 151,48.22 346.73,-295.46 851.94,-592.6 1295.36,-705.19 784.53,-151.95 1250.22,-180.44 1250.22,-180.44l110.13 1039.99zm-252.6 296.06c3.37,23.65 -13.28,45.01 -36.32,48.08l-525.32 69.4c-23.35,2.9 -44.84,-13.58 -47.73,-36.92 -3.38,-23.66 13.1,-45.02 36.45,-48.22l523.67 -92.74c23.48,-3.03 63.91,6.87 49.25,60.4zm3055.64 580.45c-38.88,-309.38 -94.7,-619.8 -166.86,-922.13l-22.88 -96.25 78.39 -60.1c37.23,-28.49 74.46,-57.51 111.04,-86.78 -246.46,-250.18 -594.11,-451.07 -702.25,-645.56 -102.39,-183.51 37.36,-127.82 143.38,-126 63.61,1.08 49.25,-87.87 49.25,-87.87 48.04,14.53 -776.57,-254.11 -2735.01,-131.62 -1915.72,119.91 -2926.31,1586.11 -2926.31,1586.11 0,0 -68.32,100.66 -1503.74,367.92 -586.62,109.05 -794.99,446.62 -839.7,802.18 13.57,-106.63 41.94,-211.4 90.58,-309.16l533.32 -68.37c0,0 186.7,52.19 -37.84,369.92 -35.41,45.74 -426.99,98.54 -594.75,119.42 -4.11,116.88 6.22,233.24 24.99,342.03l677.3 3.33 19.98 156.35 337.26 -43.33c12.8,-57.03 25.6,-91.79 25.6,-91.79 120.21,-373.29 446.66,-663.73 860.64,-716.95 565.91,-72.47 1085,325.2 1164.95,888.09l2994.19 -383.97c-29.92,-246.33 42.85,-436.71 42.85,-436.71 120.04,-373.42 446.49,-663.86 860.64,-716.91 496.65,-63.78 957.45,234.74 1117.04,689.45l188.96 -316.34 268.78 19.67c-28.67,-16.77 -50.46,-29.44 -50.46,-29.44l-9.34 -75.19z"/>
   <path class="fil1" d="M4314.97 9859.04c-3.2,28.54 -5.62,57.33 -6.87,86.17 1.25,-28.84 3.67,-57.63 6.87,-86.17z"/>
   <path class="fil1" d="M12990.94 8259.83c42.85,83.11 84.32,167.64 124.14,253.04 8.39,262.07 4.89,523.06 -10.07,782.67 -40.56,-24.86 -81.6,-48.64 -122.46,-72.42 -39.69,-316.39 -96.29,-629.7 -169.62,-938.3 41.46,-32.04 82.97,-64.21 124.01,-96.98 17.98,23.78 36.14,47.86 54,71.99z"/>
   <path class="fil1" d="M4365.17 10448.61c59.8,241.92 143.51,416.74 143.51,416.74l859.56 -110.44 -23.91 -185.97 -445.89 57.38 -22.57 -175.12 -510.7 -2.59z"/>
   <path class="fil1" d="M11515.7 10505.94c-285.68,36.62 -547.28,-165.65 -583.9,-451.03 -36.62,-285.12 165.65,-547.02 451.07,-583.64 285.08,-36.45 546.98,165.69 583.6,450.9 36.63,285.25 -165.95,547.19 -450.77,583.77zm-180.26 -1404.11c-489.99,62.87 -835.95,511 -773.08,1000.82 62.83,489.81 510.83,835.9 1000.82,773.07 489.47,-62.87 835.6,-510.87 772.73,-1000.81 -62.83,-489.82 -510.83,-835.91 -1000.47,-773.08z"/>
   <path class="fil1" d="M11468.14 10136.81c-81.77,10.5 -156.53,-47.44 -166.9,-129.03 -10.51,-81.64 47.3,-156.35 128.89,-166.9 81.47,-10.51 156.53,47.3 166.91,128.76 10.5,81.77 -47.44,156.79 -128.9,167.17z"/>
   <path class="fil1" d="M6452.94 11155.48c-285.55,36.58 -547.15,-165.69 -583.9,-450.94 -36.46,-285.21 165.65,-546.85 451.07,-583.43 285.38,-36.75 547.28,165.48 583.9,450.73 36.63,285.42 -165.82,547.32 -451.07,583.64zm-180.14 -1403.98c-489.81,62.7 -835.9,510.83 -773.07,1000.52 62.87,490.07 511,836.03 1000.69,773.2 489.77,-62.52 835.73,-510.7 772.9,-1000.82 -62.87,-489.64 -510.7,-835.77 -1000.52,-772.9z"/>
   <path class="fil1" d="M6405.51 10786.3c-81.47,10.38 -156.18,-47.43 -166.73,-129.02 -10.51,-81.46 47.3,-156.35 128.76,-166.73 81.59,-10.51 156.48,47.3 166.86,128.72 10.55,81.64 -47.26,156.66 -128.89,167.03z"/>
   <path class="fil1" d="M13086.24 9514.16l-381.2 -28.06 -212.17 354.65 565.31 -72.77c0,0 14.05,-102.22 28.06,-253.82z"/>
   <path class="fil1" d="M7428.76 8623.95l-87.43 -324.94c-15.56,-58.42 -91.97,-80.82 -165.34,-42.55 -158.34,82.37 -177.24,437.62 -167.34,452.45 54.79,79.48 166.43,59.16 297.92,41.64 83.28,-10.85 137.72,-68.18 122.19,-126.6z"/>
  </g>
 </g>
</svg>
