<?xml version="1.0" encoding="UTF-8"?>
<!DOCTYPE svg PUBLIC "-//W3C//DTD SVG 1.1//EN" "http://www.w3.org/Graphics/SVG/1.1/DTD/svg11.dtd">
<!-- Creator: CorelDRAW 2019 (64-Bit) -->
<svg xmlns="http://www.w3.org/2000/svg" xml:space="preserve" width="150mm" height="150mm" version="1.1" style="shape-rendering:geometricPrecision; text-rendering:geometricPrecision; image-rendering:optimizeQuality; fill-rule:evenodd; clip-rule:evenodd"
viewBox="0 0 15000 15000"
 xmlns:xlink="http://www.w3.org/1999/xlink">
 <defs>
  <style type="text/css">
   <![CDATA[
    .fil0 {fill:none}
    .fil1 {fill:#FEFEFE;fill-rule:nonzero}
   ]]>
  </style>
 </defs>
 <g id="Layer_x0020_1">
  <metadata id="CorelCorpID_0Corel-Layer"/>
  <rect class="fil0" x="-17.74" y="-14.81" width="15032.53" height="15032.53"/>
  <g id="_2603789284000">
   <polygon class="fil1" points="1579.12,6900.92 1503.81,6869.61 1403.87,6694.52 1318.23,6667.49 1416.92,7314.04 1637.1,7280.38 "/>
   <path class="fil1" d="M5672.94 5362.16l-204.37 -235.1c-132.76,-151.92 -327.32,-202.91 -525.42,-156.67l0.88 -1.88 -24.63 6.47 -8.66 2.19 -621.77 159.64 -838.76 36.43 -1.1 17.33 -35.38 -10.7 -91.12 -4.96c-73.64,-3.86 -138.09,65.18 -142.47,154.84 -5.01,90.03 50.78,165.86 124.83,169.93l90.75 4.96 32.57 -6.27 -1.3 19.52 669.62 -13.78 162.93 -10.85 -440.36 414.94 -1160.24 177.13 -1088.49 757.61 74.21 486.39 1020.33 -639.2 622.81 -108.08 -565.72 293.46 -1060.3 565.4 7.36 48.8 -193.46 -59.86 -27.82 85.43 64.04 421.26 220.39 -33.35 -29.28 -192 32.98 216.11 1523.68 -653.18 1003.57 -324.61 98.64 -63.67 11.06 12.89 -34.23 19.31 -18.22 16.02c-64.81,56.68 -72.02,156.3 -15.29,221.12 57.25,65.71 156.51,72.54 221.64,15.45l18.27 -15.81 24.27 -31.53 36.63 42.17 747.86 -652.09c0,0 225.34,-236.93 280.98,-322.36 35.33,-54.85 91.64,-188.35 127.02,-275.6 8.09,-16.6 14.51,-33.51 20.41,-50.84 6.99,-17.48 11.79,-30 11.79,-30l-2.03 -0.37c40.7,-154.11 2.6,-333.22 -119.1,-472.04z"/>
   <path class="fil1" d="M6366.1 4378.47c-91.12,-102.39 -172.53,-201.6 -232.91,-325.7 -46.76,136.05 -90.03,225.35 -202.7,287.97 -16.39,8.98 -34.24,17.64 -54.33,26.3 -193.3,78.6 -391.2,272.69 -507.37,421.26 -98.32,126.3 347.21,558.94 614.57,545.32 21.86,-1.1 42.53,-5.54 62.93,-11.07 39.04,-10.64 75.52,-27.61 110.64,-48.59 160.74,-96.13 433.42,-144.71 479.45,-359 42.9,-200.71 -149.88,-400.43 -270.28,-536.49z"/>
   <path class="fil1" d="M9963.57 7498.16l0 -1350.26c0,0 1769.79,137.73 2132.86,399.19 0,0 43.84,863.81 363.08,951.07l-2495.94 0zm2408.31 329.93c0.37,30.37 -24.53,55.22 -54.33,55.22l-682.87 2.4c-30.38,0 -55.06,-24.69 -55.06,-54.85 -0.16,-30.74 24.32,-55.43 54.53,-55.43l684.87 -32.77c30,0 80.26,18.94 52.86,85.43zm-2613.78 -337.13c0,0 -2121.48,4.43 -3291.12,6.47l-25.41 45.09c-51.36,58.4 -132.93,92.27 -224.26,92.27l-75.46 0.36c-116.17,0 -287.92,-1.67 -373.2,-136.99l-3.86 0 1.46 -3.71 -10.28 -15.23c-41.23,-82.51 62.94,-354.41 64.04,-357.02 70.35,-177.65 163.5,-289.02 277.64,-330.66 35.38,-13.26 71.29,-19.68 107.56,-19.68 78.75,0 143.77,34.24 184.79,86.32 491.25,-320.85 1185.66,-617.49 1770.95,-688.51 1027.32,-65.76 1627.16,-25.63 1627.16,-25.63l-30.01 1346.92zm-371 337.13c0.37,30.37 -24.48,55.22 -54.48,55.22l-682.52 2.4c-30.37,0 -55.21,-24.69 -55.21,-54.85 -0.37,-30.74 24.11,-55.43 54.48,-55.43l684.71 -32.77c30.37,0 80.47,18.94 53.02,85.43zm3809.19 1242.54c1.31,-401.74 -19.51,-807.14 -62.05,-1205.54l-13.41 -126.87 110.27 -63.87c52.09,-30.38 104.01,-61.48 156.1,-92.59 -274.15,-360.3 -685.07,-673.69 -791.85,-940.26 -100.67,-251.29 69.04,-157.04 203.79,-137.52 81.42,11.95 77.56,-104.22 77.56,-104.22 59.07,26.36 -950.4,-451.95 -3473.21,-616.75 -2467.6,-160.74 -3999.37,1547.05 -3999.37,1547.05 0,0 -104.01,117.27 -1982.25,223.31 -767.21,43.48 -1088.85,440.57 -1204.44,887.77 35.17,-134.02 88.35,-263.23 166.79,-380.19l692.43 0c0,0 230.15,97.44 -108.81,466.35 -52.82,52.87 -561.91,56.16 -779.69,55.06 -24.48,148.95 -30.37,299.35 -24.32,441.51l865.12 115.08 0 202.85 438.01 0c25.57,-70.51 47.7,-112.83 47.7,-112.83 214.65,-457.32 679.7,-774.94 1217.28,-774.94 735.17,0 1333.3,593.38 1343.06,1325.78l3889.09 0c2.04,-319.6 126.14,-550.84 126.14,-550.84 214.86,-457.32 679.69,-774.94 1217.49,-774.94 645.09,0 1184.72,456.8 1314.14,1063.96l293.66 -373.36 340.06 69.57c-34.08,-26.3 -59.65,-46.03 -59.65,-46.03l0.36 -97.54z"/>
   <path class="fil1" d="M2212.83 8462.54c-8.87,35.85 -16.75,72.33 -22.85,108.97 6.1,-36.64 13.98,-73.12 22.85,-108.97z"/>
   <path class="fil1" d="M13561.56 7841.35c40.7,113.4 79.9,228.27 117.26,343.92 -32.41,336.14 -79.9,669.2 -141.22,998.19 -48.22,-38.09 -96.28,-75.3 -144.66,-112.31 1.09,-410.92 -19.89,-820.34 -63.36,-1226.88 58.35,-34.24 116.75,-68.68 174.73,-103.65 19.15,33.51 38.3,67.22 57.25,100.73z"/>
   <path class="fil1" d="M2180.06 9224.17c36.79,318.87 115.44,555.64 115.44,555.64l1116.25 0 0 -241.37 -579.39 0 0 -227.38 -652.3 -86.89z"/>
   <path class="fil1" d="M11307.72 10469.84c-370.8,0 -672.18,-301.38 -672.18,-672.02 0,-370.74 301.38,-671.97 672.18,-671.97 370.22,0 671.97,301.23 671.97,671.97 0,370.64 -301.75,672.02 -671.97,672.02zm0 -1823.76c-636.12,0 -1151.79,515.88 -1151.79,1151.95 0,636.27 515.67,1152.15 1151.79,1152.15 636.27,0 1151.79,-515.88 1151.79,-1152.15 0,-636.07 -515.52,-1151.95 -1151.79,-1151.95z"/>
   <path class="fil1" d="M11307.72 9990.23c-106.05,0 -192.21,-86.31 -192.21,-192.2 0,-106.05 86.16,-192 192.21,-192 105.68,0 192.21,85.95 192.21,192 0,105.89 -86.53,192.2 -192.21,192.2z"/>
   <path class="fil1" d="M4731.94 10469.84c-370.79,0 -672.18,-301.38 -672.18,-672.02 0,-370.74 301.39,-671.97 672.18,-671.97 370.64,0 672.18,301.23 672.18,671.97 0,370.64 -301.54,672.02 -672.18,672.02zm0 -1823.76c-635.91,0 -1151.73,515.88 -1151.73,1151.95 0,636.27 515.82,1152.15 1151.73,1152.15 636.49,0 1151.79,-515.88 1151.79,-1152.15 0,-636.07 -515.3,-1151.95 -1151.79,-1151.95z"/>
   <path class="fil1" d="M4731.94 9990.23c-106.04,0 -191.84,-86.31 -191.84,-192.2 0,-106.05 85.8,-192 191.84,-192 106.05,0 192.42,85.95 192.42,192 0,105.89 -86.37,192.2 -192.42,192.2z"/>
   <path class="fil1" d="M13477.59 9459.8l-482.69 -98.27 -329.04 418.28 734.23 0c0,0 34.44,-128.33 77.5,-320.01z"/>
   <path class="fil1" d="M6393.92 7394.88l-58.19 -429.51c-10.33,-77.18 -104.38,-118.2 -204.37,-81.57 -215.95,79.17 -298.25,530.23 -287.76,550.48 56.72,110.64 202.69,103.07 373.71,102.19 108.09,0 187.1,-64.46 176.61,-141.59z"/>
  </g>
 </g>
</svg>
