<?xml version="1.0" encoding="UTF-8"?>
<!DOCTYPE svg PUBLIC "-//W3C//DTD SVG 1.1//EN" "http://www.w3.org/Graphics/SVG/1.1/DTD/svg11.dtd">
<!-- Creator: CorelDRAW 2017 -->
<svg xmlns="http://www.w3.org/2000/svg" xml:space="preserve" width="295px" height="295px" version="1.1" style="shape-rendering:geometricPrecision; text-rendering:geometricPrecision; image-rendering:optimizeQuality; fill-rule:evenodd; clip-rule:evenodd"
viewBox="0 0 295 295"
 xmlns:xlink="http://www.w3.org/1999/xlink">
 <defs>
  <style type="text/css">
   <![CDATA[
    .str0 {stroke:#373435;stroke-width:2;stroke-miterlimit:22.9256}
    .fil1 {fill:#FEFEFE}
    .fil0 {fill:#024E3F}
   ]]>
  </style>
 </defs>
 <g id="Layer_x0020_1">
  <metadata id="CorelCorpID_0Corel-Layer"/>
  <rect class="fil0 str0" width="295" height="295"/>
  <path class="fil1" d="M165 50l0 194c0,13 -8,24 -18,24l0 0c-10,0 -18,-11 -18,-24l0 -194c-5,0 -8,-5 -8,-11l0 0c0,-6 4,-11 8,-11l37 0c5,0 8,5 8,11l0 0c0,6 -4,11 -9,11l0 0zm-18 51l13 0 0 -9 -13 0c-1,0 -2,-1 -2,-3l0 0c0,-2 1,-3 2,-3l13 0 0 -8 -13 0c-1,0 -2,-1 -2,-3l0 0c0,-2 1,-3 2,-3l13 0 0 -29 5 0c2,0 4,-2 4,-4 0,-2 -1,-4 -3,-4l-37 0c-2,0 -3,2 -3,4 0,2 1,4 3,4l5 0 0 135 27 0 0 -71 -13 0c-1,0 -2,-1 -2,-3l0 0c0,-2 1,-3 2,-3z"/>
 </g>
</svg>
