<?xml version="1.0" encoding="UTF-8"?>
<!DOCTYPE svg PUBLIC "-//W3C//DTD SVG 1.1//EN" "http://www.w3.org/Graphics/SVG/1.1/DTD/svg11.dtd">
<!-- Creator: CorelDRAW 2019 (64-Bit) -->
<svg xmlns="http://www.w3.org/2000/svg" xml:space="preserve" width="150mm" height="150mm" version="1.1" style="shape-rendering:geometricPrecision; text-rendering:geometricPrecision; image-rendering:optimizeQuality; fill-rule:evenodd; clip-rule:evenodd"
viewBox="0 0 15000 15000"
 xmlns:xlink="http://www.w3.org/1999/xlink">
 <defs>
  <style type="text/css">
   <![CDATA[
    .fil0 {fill:none}
    .fil1 {fill:#FEFEFE;fill-rule:nonzero}
   ]]>
  </style>
 </defs>
 <g id="Layer_x0020_1">
  <metadata id="CorelCorpID_0Corel-Layer"/>
  <rect class="fil0" x="-17.74" y="-14.81" width="15032.53" height="15032.53"/>
  <g id="_2604201948000">
   <path class="fil1" d="M10978.46 8794.71c-708.61,518.47 -1614.51,841.03 -2364.24,841.03 -816.56,0 -1754.08,-311.45 -1754.08,-2739.79 0,-2428.52 937.52,-2739.92 1754.08,-2739.92 749.73,0 1655.63,322.21 2364.24,840.73 748.54,548.23 1177.55,1240.16 1177.55,1899.19 0,658.6 -429.01,1350.65 -1177.55,1898.76l0 0zm455.15 -4419.3c-846.48,-619.87 -1900.25,-989.54 -2819.39,-989.54 -924.97,0 -1608.38,372.82 -2031.64,1108.16 -331.45,576.16 -492.77,1361.77 -492.77,2401.92 0,1039.68 161.32,1825.33 492.77,2401.78 423.26,735.48 1106.97,1108.17 2031.64,1108.17 919.14,0 1972.91,-370.01 2819.39,-989.54 962.51,-705.16 1492.69,-1600.08 1492.69,-2520.41 0,-920.46 -530.18,-1815.72 -1492.69,-2520.54l0 0z"/>
   <path class="fil1" d="M5187.91 3816.49l-2904.3 1452.35c-190.05,95.04 -267.31,326.42 -172.01,516.56 67.47,135.14 203.38,213.08 344.78,213.08 57.67,0 116.58,-13.24 171.83,-40.87l2904.26 -1452.04c190.3,-95.05 267.26,-326.43 172.21,-516.69 -95.26,-190.39 -326.47,-267.43 -516.77,-172.39l0 0z"/>
   <path class="fil1" d="M5187.91 5221.38l-2904.3 1452.04c-190.05,95.05 -267.31,326.6 -172.01,516.86 67.47,134.8 203.38,212.91 344.78,212.91 57.67,0 116.58,-13.07 171.83,-40.69l2904.26 -1452.35c190.3,-94.87 267.26,-326.42 172.21,-516.69 -95.26,-190.39 -326.47,-267.26 -516.77,-172.08l0 0z"/>
   <path class="fil1" d="M5187.91 6626.13l-2904.3 1452c-190.05,95.05 -267.31,326.47 -172.01,516.69 67.47,135.02 203.38,212.95 344.78,212.95 57.67,0 116.58,-13.06 171.83,-40.86l2904.26 -1452c190.3,-95.09 267.26,-326.47 172.21,-516.56 -95.26,-190.39 -326.47,-267.56 -516.77,-172.22l0 0z"/>
   <path class="fil1" d="M5187.91 8030.67l-2904.3 1452.05c-190.05,95.34 -267.31,326.43 -172.01,516.86 67.47,134.84 203.38,212.91 344.78,212.91 57.67,0 116.58,-13.2 171.83,-40.69l2904.26 -1452.05c190.3,-95.34 267.26,-326.43 172.21,-516.82 -95.26,-190.26 -326.47,-267.43 -516.77,-172.26l0 0z"/>
   <path class="fil1" d="M5187.91 9435.43l-2904.3 1452c-190.05,95.22 -267.31,326.47 -172.01,516.73 67.47,134.98 203.38,212.91 344.78,212.91 57.67,0 116.58,-13.06 171.83,-40.69l2904.26 -1452.04c190.3,-95.18 267.26,-326.43 172.21,-516.69 -95.26,-190.39 -326.47,-267.56 -516.77,-172.22l0 0z"/>
  </g>
 </g>
</svg>
