<?xml version="1.0" encoding="utf-8"?>
<!-- Generator: Adobe Illustrator 24.2.3, SVG Export Plug-In . SVG Version: 6.00 Build 0)  -->
<svg version="1.1" id="Layer_1" xmlns="http://www.w3.org/2000/svg" xmlns:xlink="http://www.w3.org/1999/xlink" x="0px" y="0px"
	 viewBox="0 0 1280 1248" style="enable-background:new 0 0 1280 1248;" xml:space="preserve">
<style type="text/css">
	.st0{fill:#FFFFFF;}
</style>
<g transform="translate(0.000000,1248.000000) scale(0.100000,-0.100000)">
	<path class="st0" d="M3264.1,10149.8l-52.1-104.2l33.4-19.3c18.6-10.3,261.1-149.2,538.8-308l504.8-288.7l-1.3-82.3
		c-1.9-101-15.4-200-40.5-303.5c-79.7-326.6-275.2-588.4-573.6-769l-49.5-30.2l-519.6,297.1c-285.5,163.3-528.6,302.2-540.1,309.3
		l-20.6,12.2l-26.4-51.4l-25.7-52.1l28.9-81c110-301.6,279.1-574.2,468.1-753c301.6-284.9,698.9-433.4,1206.9-449.5
		c136.3-4.5,166.5-10.3,242.4-50.8c147.2-77.8,335.6-225.1,619.2-482.3c151.7-137.6,227-210.3,463.6-445.6l210.3-208.3l412.8,412.8
		l413.5,412.2l-221.8,223.1c-594.8,598-943.3,999.9-1071.3,1235.9c-39.2,72.7-44.4,101-48.9,254c-9,316.4-51.4,533.7-139.5,722.7
		c-86.2,183.9-234.1,342.7-416,445.6c-277.8,157.5-655.2,237.9-1192.1,253.3l-151.7,4.5L3264.1,10149.8z"/>
	<path class="st0" d="M9233.7,9636.7c-279.1-195.5-511.8-362-516.3-370.4s-29.6-102.9-56.6-210.9l-48.2-195.5L7120.8,7369.4
		L5629.7,5879l-205.8,128.6l-205.8,128.6l-102.9-102.9c-100.3-100.3-102.9-104.2-102.9-130.5c0-39.2-10.9-110-25.7-166.5
		c-59.8-232.8-257.8-455.3-531.1-594.8c-133.7-68.8-279.7-116.4-406.4-131.8l-66.2-8.4l-849.4-848.8l-849.4-848.1l4.5-55.3
		c17.4-232.8,150.5-484.2,364.6-691.2c184.5-178.1,386.4-286.8,600.6-321.5c32.2-5.1,70.7-9.6,86.2-9.6h28.3l848.1,848.1
		c784.5,785.8,847.5,850.1,847.5,870c0,69.4,35.4,214.1,78.4,323.4c134.4,338.2,379.4,586.4,652.7,659.1
		c27.6,7.7,83.6,16.7,125.4,21.2l74.6,7.1l101,100.3l101,101l-129.2,206.4l-129.2,207L7423.7,7055
		c817.3,816,1489.8,1487.9,1495,1492.4c5.1,4.5,99.7,30.2,209.6,57.9s203.8,54,208.3,59.2c4.5,4.5,167.8,236,362.7,514.4l353.7,506
		l-133.7,133.7c-73.9,73.3-144,142.7-155.6,153.7l-21.9,20.6L9233.7,9636.7z"/>
	<path class="st0" d="M6759.4,6083.4l-410.9-412.2l279.7-280.4c394.8-396.7,589-601.2,785.8-830.1
		c213.5-248.2,347.2-443,369.1-540.1c3.2-16.1,7.7-89.4,10.3-164c12.2-468.1,106.7-762,313.8-978.7
		c92.6-97.1,180.7-161.4,306.7-223.8c273.3-136.3,625-204.5,1126.5-219.3l151.8-4.5l52.1,103.5l52.1,104.2l-33.4,19.3
		c-18.6,10.3-261.1,149.2-538.8,308l-504.8,288.7l1.3,79.1c7.7,454.6,227,842.3,607.6,1071.9l55.9,34.1l519.6-297.1
		c285.5-163.3,528.6-302.2,540.1-309.3l20.6-12.2l25.7,51.4l25.7,50.8l-18,54c-45,132.5-127.3,309.3-201.9,432.7
		c-265.6,439.8-664.2,696.4-1203.7,774.2c-103.5,14.8-248.2,26.4-339.5,26.4c-97.7,0-166.5,27-303.5,117.7
		c-218,145.3-498.3,396.7-1012.7,909.2c-143.4,142.1-262.3,259.1-263.6,258.5C7171,6495.6,6985.1,6309.8,6759.4,6083.4z"/>
</g>
</svg>
