<?xml version="1.0" encoding="utf-8"?>
<!-- Generator: Adobe Illustrator 24.2.3, SVG Export Plug-In . SVG Version: 6.00 Build 0)  -->
<svg version="1.1" id="Layer_1" xmlns="http://www.w3.org/2000/svg" xmlns:xlink="http://www.w3.org/1999/xlink" x="0px" y="0px"
	 viewBox="0 0 484 484" style="enable-background:new 0 0 484 484;" xml:space="preserve">
<style type="text/css">
	.st0{fill:#FFFFFF;}
</style>
<path class="st0" d="M242,78c-88.1,0-160,73.7-160,164s71.9,164,160,164s160-73.7,160-164S330.1,78,242,78z M171.5,135
	c2.7-2.8,7.5-2.8,10.8,0l38.6,39.6c2.7,2.8,2.7,8.3,0,11.1l-16.3,16.7c-0.7,0.7-2,2.1-2.7,3.5v-0.7l-49.5-50.7
	C158.6,148.2,165.4,141.2,171.5,135z M249.5,342.1c-11.5-5.6-21.7-13.2-31.9-20.8s-19-16-27.8-25c-8.8-9-16.9-18.8-24.4-28.5
	c-7.5-10.4-14.9-20.8-20.3-32.7c-7.5-15.3-10.8-31.3-10.8-44.5c0-11.1,2.7-20.8,8.1-26.4l50.8,52.1c-2.7,8.3-1.4,18.1,4.1,25
	c6.8,8.3,14.2,16.7,21.7,24.3c8.1,7.6,15.6,15.3,23.7,22.2v0.7c6.8,6.3,16.3,6.9,24.4,4.2l50.8,52.1
	C305.7,356.7,275.9,355.3,249.5,342.1z M345.7,315c-6.1,6.3-12.9,13.2-19,19.5l-49.5-50.7c1.4-0.7,2.7-2.1,3.4-2.8l8.1-8.3l8.1-9
	c2.7-2.8,8.1-2.8,10.8,0l38.6,39.6l-0.7,0.7C349.1,307.3,348.4,312.2,345.7,315z"/>
</svg>
