<?xml version="1.0" encoding="UTF-8"?>
<!DOCTYPE svg PUBLIC "-//W3C//DTD SVG 1.1//EN" "http://www.w3.org/Graphics/SVG/1.1/DTD/svg11.dtd">
<!-- Creator: CorelDRAW 2017 -->
<svg xmlns="http://www.w3.org/2000/svg" xml:space="preserve" width="484px" height="484px" version="1.1" style="shape-rendering:geometricPrecision; text-rendering:geometricPrecision; image-rendering:optimizeQuality; fill-rule:evenodd; clip-rule:evenodd"
viewBox="0 0 484 484"
 xmlns:xlink="http://www.w3.org/1999/xlink">
 <defs>
  <style type="text/css">
   <![CDATA[
    .fil0 {fill:#265A99;fill-rule:nonzero}
    .fil1 {fill:white;fill-rule:nonzero}
   ]]>
  </style>
 </defs>
 <g id="Layer_x0020_1">
  <metadata id="CorelCorpID_0Corel-Layer"/>
  <g id="_2428334055728">
   <path class="fil0" d="M478 242c0,130 -106,236 -236,236 -130,0 -236,-106 -236,-236 0,-130 106,-236 236,-236 130,0 236,106 236,236z"/>
   <path class="fil1" d="M183 189l-73 -73c9,-9 19,-19 28,-28 4,-4 11,-4 16,0l57 57c4,4 4,12 0,16l-24 24c-1,1 -3,3 -4,5zm60 119c-12,-10 -23,-21 -35,-32 -11,-11 -22,-23 -32,-35 -8,-10 -10,-24 -6,-36l-75 -75c-8,8 -12,22 -12,38 0,19 5,42 16,64 8,17 19,32 30,47 11,14 23,28 36,41 13,13 26,25 41,36 15,11 30,22 47,30 39,19 83,21 101,4l-75 -75c-12,4 -26,3 -36,-6zm153 22l-57 -57c-4,-4 -12,-4 -16,0l-12 13 -12 12c-1,1 -3,3 -5,4l73 73c9,-9 19,-19 28,-28 4,-4 5,-11 0,-16z"/>
  </g>
 </g>
</svg>
