<?xml version="1.0" encoding="UTF-8"?>
<!DOCTYPE svg PUBLIC "-//W3C//DTD SVG 1.1//EN" "http://www.w3.org/Graphics/SVG/1.1/DTD/svg11.dtd">
<!-- Creator: CorelDRAW 2019 (64-Bit) -->
<svg xmlns="http://www.w3.org/2000/svg" xml:space="preserve" width="150mm" height="150mm" version="1.1" style="shape-rendering:geometricPrecision; text-rendering:geometricPrecision; image-rendering:optimizeQuality; fill-rule:evenodd; clip-rule:evenodd"
viewBox="0 0 15000 15000"
 xmlns:xlink="http://www.w3.org/1999/xlink">
 <defs>
  <style type="text/css">
   <![CDATA[
    .fil1 {fill:none}
    .fil0 {fill:#FEFEFE;fill-rule:nonzero}
   ]]>
  </style>
 </defs>
 <g id="Layer_x0020_1">
  <metadata id="CorelCorpID_0Corel-Layer"/>
  <g id="_2603647319344">
   <path class="fil0" d="M3235.94 6216.25l756 0c162.81,0 297.39,121.25 319.16,278.1 42.22,-15.31 84.66,-31.68 127.63,-50.41 142.88,-62.2 208.25,-228.46 146.02,-371.41 -62.23,-142.84 -228.46,-208.24 -371.34,-146.01 -186.83,81.1 -341.91,110.49 -473,110.56 -175.26,-0.64 -313.97,-50.8 -440.55,-132.37 -97.93,-62.97 -185.53,-148.23 -260.88,-240.2 -303.74,98.42 -539.33,136.56 -618.77,147.53l-0.71 0.14 -3.95 0.49c-15.52,1.91 -29.95,2.83 -43.95,2.83l-0.08 0c-177.27,-0.18 -327.55,-132.93 -349.53,-308.97 -11.78,-93.48 13.48,-185.98 71.3,-260.38 57.78,-74.37 141.11,-121.89 234.67,-133.63l8.67 -1.2 17.93 -2.79c21.48,-3.46 53.41,-8.93 94.12,-17.14 69.42,-13.97 176.63,-38.42 304.2,-76.8 -61.21,-78.99 -140.97,-136.21 -237.1,-158.08 -302.65,-68.83 -735.83,103.64 -902.76,623.74 -225.36,716.53 -267.41,1180.68 -160.09,1962.33 68.68,318.31 222.39,473.43 401.21,546.28 -0.56,622.97 -77.54,1821.15 -534.56,3052.66 -84.63,228.34 31.99,482.11 260.38,566.72 50.48,18.71 102.24,27.56 153.07,27.56 179.21,0 347.74,-110.07 413.67,-287.97 512.27,-1386.1 588.79,-2688.18 589.49,-3374.5 -0.07,-308.92 -16.05,-493.22 -17.07,-504.29 -2.97,-33.23 -9.81,-65.13 -19.55,-95.61 -36.4,-382.48 13.69,-796.64 75.18,-1166.53 58.42,54.4 122.55,106.12 192.58,153.78 57.82,-86.96 156.6,-144.43 268.61,-144.43z"/>
   <path class="fil0" d="M13442.29 6286.81l-756 0c-139.24,0 -252.06,112.85 -252.06,252.02l0 126.05 -268.64 0c-196.6,-521.76 -545.11,-1449.92 -610.2,-1644.58 -55.6,-175.01 -201.83,-272.1 -372.32,-313.83 -172.16,-44.66 -383.97,-55.39 -642.83,-77.12 -563.85,-47.02 -1590.08,-93.66 -2201.13,-93.66 -611.36,0 -1637.45,46.64 -2201.19,93.66 -258.83,21.73 -470.71,32.46 -643.01,77.12 -170.28,41.73 -316.76,138.82 -372.39,313.83 -24.2,72.71 -88.05,247.76 -168.77,465.77l-283.07 -988.27c-36.05,57.61 -75.28,113.6 -116.94,168.24l306.77 1070.93c-107.81,289.17 -228,608.96 -321.55,857.39 -9.14,24.2 -18.03,47.73 -26.6,70.52l-268.36 0 0 -126.05c0,-139.17 -112.86,-252.02 -251.99,-252.02l-756.04 0c-139.13,0 -251.99,112.85 -251.99,252.02l0 251.99c0,139.17 112.86,252.03 251.99,252.03l1133.69 0 -26.71 70.59 -0.24 0.7c-272.6,137.09 -903.75,513.82 -903.75,1062.73 0,700.07 0,1512.04 0,1512.04l3451.08 0 0 -1260.01 378.04 0 0 1260.01 251.99 0 0 -1260.01 378 0 0 1260.01 252.03 0 0 -1260.01 378 0 0 1260.01 251.99 0 0 -1260.01 378.07 0 0 1260.01 251.95 0 0 -1260.01 378 0 0 1260.01 3451.09 0c0,0 0,-811.97 0,-1512.04 0,-549.12 -631.55,-925.88 -903.93,-1062.87l-26.98 -71.15 1134 0c139.17,0 251.99,-112.86 251.99,-252.03l0 -251.99c0,-139.17 -112.82,-252.02 -251.99,-252.02zm-8360.16 -352.67c103.54,-212.48 189.65,-394.09 219.81,-484.61 37.68,-104.89 97.97,-149.51 240.99,-190.54 141.25,-37.5 349.32,-50.13 610.69,-71.86 555.94,-46.36 1583.05,-92.89 2185.49,-92.89 602.16,0 1629.45,46.53 2185.39,92.89 261.3,21.73 469.51,34.36 610.55,71.86 142.98,41.03 203.56,85.65 241.06,190.54 79.65,238.44 546.73,1107.89 699.48,1512.71l-7467.98 0 0 -13.55c19.4,-50.52 43.32,-107.6 70.59,-169.55 81.81,-185.94 193.07,-414.33 299.75,-632.14l199.39 696.1 152.61 -43.74 -247.82 -865.22zm-145.03 3138.8c-348.12,0 -630.1,-282.06 -630.1,-630.01 0,-347.99 281.98,-630.01 630.1,-630.01 347.77,0 629.92,282.02 629.92,630.01 0,347.95 -282.15,630.01 -629.92,630.01zm6804.2 0c-348.08,0 -630.13,-282.06 -630.13,-630.01 0,-347.99 282.05,-630.01 630.13,-630.01 347.77,0 629.92,282.02 629.92,630.01 0,347.95 -282.15,630.01 -629.92,630.01z"/>
   <path class="fil0" d="M8045.18 5610.92l587.87 0c81.21,0 147,-65.86 147,-146.97 0,-81.24 -65.79,-147 -147,-147l-587.87 0c-81.21,0 -146.97,65.76 -146.97,147 0,81.11 65.76,146.97 146.97,146.97z"/>
   <path class="fil0" d="M3298.98 9846.25c0,0 0,653.42 419.91,653.42 19.86,0 48.22,0 84.07,0l0 923.98c0,139.15 112.71,252.02 252.02,252.02l1008.06 0c139,0 252.03,-112.87 252.03,-252.02l0 -504.04c1503.08,0 4833.72,0 6201.65,0l0 520.62c0,130.02 105.31,235.44 235.41,235.44l941.64 0c129.89,0 235.44,-105.42 235.44,-235.44l0 -940.56c11.33,0 21.73,0 30.09,0 419.95,0 419.95,-653.42 419.95,-653.42l-10080.27 0z"/>
   <path class="fil0" d="M4937.1 7952.91c-270.4,0 -490.08,219.55 -490.08,490.11 0,270.21 219.68,489.87 490.08,489.87 270.12,0 490.01,-219.66 490.01,-489.87 0,-270.56 -219.89,-490.11 -490.01,-490.11z"/>
   <path class="fil0" d="M11741.3 7953.05c-270.23,0 -489.72,219.67 -489.72,489.74 0,270.44 219.49,490.1 489.72,490.1 270.27,0 489.9,-219.66 489.9,-490.1 0,-270.07 -219.63,-489.74 -489.9,-489.74z"/>
   <path class="fil0" d="M4073.82 4121.56c-43.29,-323.6 -284.94,-599.89 -622.62,-671.19 -428.8,-90.67 -849.88,183.55 -940.54,612.28 -78.03,369.53 114.94,733.14 444.11,884.59 225,-82.97 496.68,-210.86 734.27,-400.9 158.82,-126.68 287.45,-269.2 384.78,-424.78z"/>
   <path class="fil0" d="M4339.07 3340.2l-152.61 43.71 125.87 439.31c47.49,-23.39 100.05,-36.83 154.55,-36.9l-127.81 -446.12z"/>
   <path class="fil0" d="M2462.68 5160.53c-42.05,8.47 -74.96,14.18 -96.66,17.6 -10.9,1.84 -18.91,2.93 -23.85,3.71 -4.97,0.7 -5.39,0.7 -5.39,0.7 -154.7,19.44 -264.31,160.55 -244.83,315.25 17.88,142.69 139.45,247.05 279.65,247.08 11.78,0 23.63,-0.78 35.63,-2.26l-0.07 0c15.87,-2.4 423.93,-53.51 915.91,-257.95 245.85,-102.52 513.4,-243.91 761.93,-441.85 248.11,-197.59 477.87,-453.85 636.06,-780.63 67.98,-140.3 9.38,-309.07 -130.92,-377.05 -140.26,-67.98 -309.03,-9.31 -376.94,130.99 -115.18,237.56 -284.02,428.98 -480.02,585.36 -293.13,234.35 -647.07,384 -926.36,470.57 -139.49,43.39 -260.07,71.58 -344.14,88.48z"/>
  </g>
  <rect class="fil1" x="-17.74" y="-14.81" width="15032.53" height="15032.53"/>
 </g>
</svg>
