<?xml version="1.0" encoding="utf-8"?>
<!-- Generator: Adobe Illustrator 24.2.3, SVG Export Plug-In . SVG Version: 6.00 Build 0)  -->
<svg version="1.1" id="Layer_1" xmlns="http://www.w3.org/2000/svg" xmlns:xlink="http://www.w3.org/1999/xlink" x="0px" y="0px"
	 viewBox="0 0 541.4 453.5" style="enable-background:new 0 0 541.4 453.5;" xml:space="preserve">
<style type="text/css">
	.st0{fill-rule:evenodd;clip-rule:evenodd;fill:#717171;}
	.st1{fill-rule:evenodd;clip-rule:evenodd;fill:#FEFEFE;}
	.st2{fill:#353535;}
</style>
<g id="Layer_x0020_1">
	<g id="_2392479915904">
		<g>
			<polygon class="st0" points="56.2,225.9 107.9,225.9 107.9,69.7 56.2,69.7 			"/>
			<polygon class="st0" points="160,225.6 212.1,225.6 212.1,69.3 160,69.3 			"/>
			<path class="st0" d="M303.8,225.2h-52.1V69.3h65.2C446.9,75.9,415.2,232.1,303.8,225.2z"/>
			<path class="st1" d="M301.7,186.2v-79.7C362.1,99,367.3,190.4,301.7,186.2z"/>
			<polygon class="st0" points="433.2,225.9 485.2,225.9 485.2,70 433.2,70 			"/>
			<polygon class="st0" points="107.9,174.9 160,174.9 160,122.8 107.9,122.8 			"/>
		</g>
		<g>
			<path class="st2" d="M94.8,298.1c-2.4-1.4-7.1-3.3-13.3-3.3c-8.9,0-12.6,5.2-12.6,10c0,6.4,4.2,9.5,13.7,13.6
				c12,5.3,17.8,11.8,17.8,22.1c0,12.5-9.3,21.9-26.1,21.9c-7,0-14.5-2.1-18.1-4.5l2.5-9.5c4,2.4,10.1,4.4,16.2,4.4
				c8.9,0,13.9-4.6,13.9-11.3c0-6.4-3.8-10.3-12.7-14C65,322.9,57.5,316.2,57.5,306c0-11.8,9.5-20.7,24.3-20.7
				c7.1,0,12.5,1.8,15.7,3.4L94.8,298.1z"/>
			<path class="st2" d="M164.3,359.1c-3.8,1.8-9.8,3.2-17.1,3.2c-16.2,0-25.6-10.9-25.6-27.3c0-16,9-28.8,24.2-28.8
				c15.2,0,21.2,12.6,21.2,25.9c0,1.9-0.1,3.4-0.3,4.8h-34.2c0.3,12.1,7.8,16.7,16.3,16.7c6,0,10.1-1.1,13.6-2.5L164.3,359.1
				L164.3,359.1z M156.3,328.8L156.3,328.8c0.1-6.5-2.5-14.5-11.2-14.5c-8.3,0-11.8,8.2-12.4,14.5H156.3z"/>
			<path class="st2" d="M236,307.4c-0.3,3.8-0.5,8.3-0.5,15.5v30.7c0,10.8-0.9,30.6-26.4,30.6c-6.3,0-12.8-1.4-17-3.9l2.5-8.8
				c3.3,2,8.5,3.8,14.6,3.8c8.8,0,15.1-4.9,15.1-17.1V353h-0.2c-2.7,4.6-8,7.9-15,7.9c-12.7,0-21.4-11.2-21.4-26.3
				c0-18.3,11-28.4,22.8-28.4c8,0,12.5,4.1,14.8,8.4h0.2l0.5-7.2H236z M224.2,328.2L224.2,328.2c0-7.1-4.7-13-11.6-13
				c-7.8,0-13.3,7.4-13.3,19c0,10.6,4.8,18.1,13.2,18.1c5.9,0,11.7-4.5,11.7-13.5V328.2z"/>
			<path class="st2" d="M306.8,345.8c0,6.1,0.3,11.1,0.5,15.4h-10l-0.6-7.8h-0.3c-2.2,3.7-7.5,8.9-16.2,8.9c-9.3,0-17.4-5.8-17.4-23
				v-32.1h11.3v30.2c0,9.3,2.6,15.4,10.1,15.4c5.2,0,11.2-4.1,11.2-12.2v-33.3h11.3L306.8,345.8L306.8,345.8z"/>
			<path class="st2" d="M361.4,317.4c-1-0.2-2.1-0.3-3.3-0.3c-7.6,0-12.4,6.3-12.4,15.6v28.5h-11.3v-37.4c0-6.3-0.1-11.4-0.4-16.4
				h9.9l0.4,9.9h0.4c2.4-6.8,8.1-11,14-11c1.1,0,1.9,0.1,2.8,0.3V317.4L361.4,317.4z"/>
			<path class="st2" d="M429.7,333.9c0,20.1-13.1,28.4-25.2,28.4c-14,0-24.6-10.3-24.6-27.7c0-18.2,11.1-28.4,25.4-28.4
				C420,306.2,429.7,317.4,429.7,333.9L429.7,333.9z M404.9,314.7L404.9,314.7c-9.7,0-13.4,10.4-13.4,19.6c0,10.6,5,19.5,13.3,19.5
				c8.2,0,13.3-8.9,13.3-19.6C418.1,325.3,414.3,314.7,404.9,314.7L404.9,314.7z"/>
			<path class="st2" d="M480.7,317.5c-2.2-1.4-5.9-3-10.3-3c-5.1,0-7.8,2.9-7.8,6.6c0,3.7,2.4,5.6,9,8.4c8.9,3.6,13.6,8.5,13.6,16.3
				c0,10.4-7.9,16.5-20.1,16.5c-5.7,0-11-1.5-14.7-3.6l2.5-8.4c2.7,1.7,7.7,3.6,12.3,3.6c6.1,0,9-2.9,9-7c0-4.1-2.2-6.4-8.7-9.1
				c-9.6-3.8-13.8-9.2-13.8-15.4c0-9,7.3-16.1,18.7-16.1c5.3,0,9.9,1.5,12.8,3.1L480.7,317.5L480.7,317.5z"/>
		</g>
	</g>
</g>
</svg>
