<?xml version="1.0" encoding="UTF-8"?>
<!DOCTYPE svg PUBLIC "-//W3C//DTD SVG 1.1//EN" "http://www.w3.org/Graphics/SVG/1.1/DTD/svg11.dtd">
<!-- Creator: CorelDRAW 2017 -->
<svg xmlns="http://www.w3.org/2000/svg" xml:space="preserve" width="9567px" height="9567px" version="1.1" style="shape-rendering:geometricPrecision; text-rendering:geometricPrecision; image-rendering:optimizeQuality; fill-rule:evenodd; clip-rule:evenodd"
viewBox="0 0 9567 9567"
 xmlns:xlink="http://www.w3.org/1999/xlink">
 <defs>
  <style type="text/css">
   <![CDATA[
    .fil39 {fill:#FEFEFE;fill-rule:nonzero}
    .fil37 {fill:#EE3537;fill-rule:nonzero}
    .fil36 {fill:#ED3237;fill-rule:nonzero}
    .fil35 {fill:#EA3338;fill-rule:nonzero}
    .fil34 {fill:#E83338;fill-rule:nonzero}
    .fil33 {fill:#E63338;fill-rule:nonzero}
    .fil32 {fill:#E53438;fill-rule:nonzero}
    .fil31 {fill:#DF3338;fill-rule:nonzero}
    .fil30 {fill:#DE3438;fill-rule:nonzero}
    .fil29 {fill:#DC3438;fill-rule:nonzero}
    .fil28 {fill:#D93438;fill-rule:nonzero}
    .fil27 {fill:#D73438;fill-rule:nonzero}
    .fil26 {fill:#D53439;fill-rule:nonzero}
    .fil25 {fill:#D43439;fill-rule:nonzero}
    .fil24 {fill:#D23438;fill-rule:nonzero}
    .fil23 {fill:#D03539;fill-rule:nonzero}
    .fil40 {fill:#CF3539;fill-rule:nonzero}
    .fil22 {fill:#CD3539;fill-rule:nonzero}
    .fil21 {fill:#CC3539;fill-rule:nonzero}
    .fil20 {fill:#CA3538;fill-rule:nonzero}
    .fil19 {fill:#C83538;fill-rule:nonzero}
    .fil18 {fill:#C73538;fill-rule:nonzero}
    .fil17 {fill:#C53538;fill-rule:nonzero}
    .fil16 {fill:#C33538;fill-rule:nonzero}
    .fil15 {fill:#C13538;fill-rule:nonzero}
    .fil14 {fill:#BF3538;fill-rule:nonzero}
    .fil13 {fill:#BD3538;fill-rule:nonzero}
    .fil12 {fill:#BB3438;fill-rule:nonzero}
    .fil11 {fill:#BA3538;fill-rule:nonzero}
    .fil10 {fill:#B93437;fill-rule:nonzero}
    .fil9 {fill:#B73538;fill-rule:nonzero}
    .fil8 {fill:#B53437;fill-rule:nonzero}
    .fil7 {fill:#B43437;fill-rule:nonzero}
    .fil6 {fill:#B23437;fill-rule:nonzero}
    .fil5 {fill:#B13437;fill-rule:nonzero}
    .fil4 {fill:#AE3437;fill-rule:nonzero}
    .fil3 {fill:#AD3436;fill-rule:nonzero}
    .fil2 {fill:#AB3437;fill-rule:nonzero}
    .fil1 {fill:#AA3436;fill-rule:nonzero}
    .fil0 {fill:#A73436;fill-rule:nonzero}
    .fil38 {fill:#282828;fill-rule:nonzero}
   ]]>
  </style>
 </defs>
 <g id="Layer_x0020_1">
  <metadata id="CorelCorpID_0Corel-Layer"/>
  <g id="_2017380685024">
   <polygon class="fil0" points="7784,3115 5567,3115 5567,898 2230,898 2230,3115 13,3115 13,6452 2230,6452 2230,8669 5567,8669 5567,6452 7784,6452 "/>
   <polygon class="fil0" points="7784,3115 5567,3115 5567,898 2230,898 2230,3115 13,3115 13,6452 2230,6452 2230,8669 5567,8669 5567,6452 7784,6452 7784,3115 "/>
   <polygon class="fil1" points="7784,3115 5567,3115 5567,898 2230,898 2230,3115 13,3115 13,6452 2230,6452 2230,8669 5567,8669 5567,6452 7784,6452 7784,3115 "/>
   <polygon class="fil1" points="7784,3115 5567,3115 5567,898 2230,898 2230,3115 13,3115 13,6452 2230,6452 2230,8669 5567,8669 5567,6452 7784,6452 7784,3115 "/>
   <polygon class="fil2" points="7784,3115 5567,3115 5567,898 2230,898 2230,3115 13,3115 13,6452 2230,6452 2230,8669 5567,8669 5567,6452 7784,6452 7784,3115 "/>
   <polygon class="fil3" points="7784,3115 5567,3115 5567,898 2230,898 2230,3115 13,3115 13,6452 2230,6452 2230,8669 5567,8669 5567,6452 7784,6452 7784,3115 "/>
   <polygon class="fil3" points="7784,3115 5567,3115 5567,898 2230,898 2230,3115 13,3115 13,6452 2230,6452 2230,8669 5567,8669 5567,6452 7784,6452 7784,3115 "/>
   <polygon class="fil4" points="7784,3115 5567,3115 5567,898 2230,898 2230,3115 13,3115 13,6452 2230,6452 2230,8669 5567,8669 5567,6452 7784,6452 7784,3115 "/>
   <polygon class="fil4" points="7784,3115 5567,3115 5567,898 2230,898 2230,3115 13,3115 13,6452 2230,6452 2230,8669 5567,8669 5567,6452 7784,6452 7784,3115 "/>
   <polygon class="fil4" points="7784,3115 5567,3115 5567,898 2230,898 2230,3115 13,3115 13,6452 2230,6452 2230,8669 5567,8669 5567,6452 7784,6452 7784,3115 "/>
   <polygon class="fil5" points="7784,3115 5567,3115 5567,898 2230,898 2230,3115 13,3115 13,6452 2230,6452 2230,8669 5567,8669 5567,6452 7784,6452 7784,3115 "/>
   <polygon class="fil6" points="7784,3115 5567,3115 5567,898 2230,898 2230,3115 13,3115 13,6452 2230,6452 2230,8669 5567,8669 5567,6452 7784,6452 7784,3115 "/>
   <polygon class="fil6" points="7784,3115 5567,3115 5567,898 2230,898 2230,3115 13,3115 13,6452 2230,6452 2230,8669 5567,8669 5567,6452 7784,6452 7784,3115 "/>
   <polygon class="fil7" points="7784,3115 5567,3115 5567,898 2230,898 2230,3115 13,3115 13,6452 2230,6452 2230,8669 5567,8669 5567,6452 7784,6452 7784,3115 "/>
   <polygon class="fil8" points="7784,3115 5567,3115 5567,898 2230,898 2230,3115 13,3115 13,6452 2230,6452 2230,8669 5567,8669 5567,6452 7784,6452 7784,3115 "/>
   <polygon class="fil8" points="7784,3115 5567,3115 5567,898 2230,898 2230,3115 13,3115 13,6452 2230,6452 2230,8669 5567,8669 5567,6452 7784,6452 7784,3115 "/>
   <polygon class="fil8" points="7784,3115 5567,3115 5567,898 2230,898 2230,3115 13,3115 13,6452 2230,6452 2230,8669 5567,8669 5567,6452 7784,6452 7784,3115 "/>
   <polygon class="fil9" points="7784,3115 5567,3115 5567,898 2230,898 2230,3115 13,3115 13,6452 2230,6452 2230,8669 5567,8669 5567,6452 7784,6452 7784,3115 "/>
   <polygon class="fil9" points="7784,3115 5567,3115 5567,898 2230,898 2230,3115 13,3115 13,6452 2230,6452 2230,8669 5567,8669 5567,6452 7784,6452 7784,3115 "/>
   <polygon class="fil10" points="7784,3115 5567,3115 5567,898 2230,898 2230,3115 13,3115 13,6452 2230,6452 2230,8669 5567,8669 5567,6452 7784,6452 7784,3115 "/>
   <polygon class="fil10" points="7784,3115 5567,3115 5567,898 2230,898 2230,3115 13,3115 13,6452 2230,6452 2230,8669 5567,8669 5567,6452 7784,6452 7784,3115 "/>
   <polygon class="fil11" points="7784,3115 5567,3115 5567,898 2230,898 2230,3115 13,3115 13,6452 2230,6452 2230,8669 5567,8669 5567,6452 7784,6452 7784,3115 "/>
   <polygon class="fil12" points="7784,3115 5567,3115 5567,898 2230,898 2230,3115 13,3115 13,6452 2230,6452 2230,8669 5567,8669 5567,6452 7784,6452 7784,3115 "/>
   <polygon class="fil13" points="7784,3115 5567,3115 5567,898 2230,898 2230,3115 13,3115 13,6452 2230,6452 2230,8669 5567,8669 5567,6452 7784,6452 7784,3115 "/>
   <polygon class="fil13" points="7784,3115 5567,3115 5567,898 2230,898 2230,3115 13,3115 13,6452 2230,6452 2230,8669 5567,8669 5567,6452 7784,6452 7784,3115 "/>
   <polygon class="fil13" points="7784,3115 5567,3115 5567,898 2230,898 2230,3115 13,3115 13,6452 2230,6452 2230,8669 5567,8669 5567,6452 7784,6452 7784,3115 "/>
   <polygon class="fil14" points="7784,3115 5567,3115 5567,898 2230,898 2230,3115 13,3115 13,6452 2230,6452 2230,8669 5567,8669 5567,6452 7784,6452 7784,3115 "/>
   <polygon class="fil15" points="7784,3115 5567,3115 5567,898 2230,898 2230,3115 13,3115 13,6452 2230,6452 2230,8669 5567,8669 5567,6452 7784,6452 7784,3115 "/>
   <polygon class="fil15" points="7784,3115 5567,3115 5567,898 2230,898 2230,3115 13,3115 13,6452 2230,6452 2230,8669 5567,8669 5567,6452 7784,6452 7784,3115 "/>
   <polygon class="fil15" points="7784,3115 5567,3115 5567,898 2230,898 2230,3115 13,3115 13,6452 2230,6452 2230,8669 5567,8669 5567,6452 7784,6452 7784,3115 "/>
   <polygon class="fil16" points="7784,3115 5567,3115 5567,898 2230,898 2230,3115 13,3115 13,6452 2230,6452 2230,8669 5567,8669 5567,6452 7784,6452 7784,3115 "/>
   <polygon class="fil16" points="7784,3115 5567,3115 5567,898 2230,898 2230,3115 13,3115 13,6452 2230,6452 2230,8669 5567,8669 5567,6452 7784,6452 7784,3115 "/>
   <polygon class="fil16" points="7784,3115 5567,3115 5567,898 2230,898 2230,3115 13,3115 13,6452 2230,6452 2230,8669 5567,8669 5567,6452 7784,6452 7784,3115 "/>
   <polygon class="fil17" points="7784,3115 5567,3115 5567,898 2230,898 2230,3115 13,3115 13,6452 2230,6452 2230,8669 5567,8669 5567,6452 7784,6452 7784,3115 "/>
   <polygon class="fil18" points="7784,3115 5567,3115 5567,898 2230,898 2230,3115 13,3115 13,6452 2230,6452 2230,8669 5567,8669 5567,6452 7784,6452 7784,3115 "/>
   <polygon class="fil18" points="7784,3115 5567,3115 5567,898 2230,898 2230,3115 13,3115 13,6452 2230,6452 2230,8669 5567,8669 5567,6452 7784,6452 7784,3115 "/>
   <path class="fil18" d="M13 3121c1,-2 2,-4 3,-6l2214 0 0 -2217 3337 0 0 2217 2217 0 0 0 0 3337 -2217 0 0 2217 -3337 0 0 -2217 -2217 0 0 -3331z"/>
   <path class="fil19" d="M13 3217c14,-34 29,-69 44,-103l2172 0 0 -2183c25,-11 51,-23 76,-34l3261 0 0 2217 2217 0 0 0 0 3337 -2217 0 0 2217 -3337 0 0 -2217 -2217 0 0 -3235z"/>
   <path class="fil19" d="M13 3318c27,-68 55,-136 86,-204l2131 0 0 -2141c58,-26 115,-52 174,-75l3164 0 0 2217 2217 0 0 0 0 3337 -2217 0 0 2217 -3337 0 0 -2217 -2217 0 0 -3134z"/>
   <path class="fil20" d="M51 6452c-13,-33 -26,-67 -38,-100l0 -2927c38,-105 80,-208 127,-311l2090 0 0 -2100c91,-42 184,-81 278,-117l3030 0c10,4 20,8 29,12l0 2205 2217 0 0 0 0 3337 -2217 0 0 2217 -3337 0 0 -2217 -2179 0z"/>
   <path class="fil20" d="M92 6452c-28,-71 -54,-142 -78,-214l0 -2698c48,-144 104,-286 169,-425l2048 0 0 -2058c127,-59 256,-112 388,-158l2810 0c47,16 93,34 140,52l0 2164 2217 0 0 0 0 3337 -2217 0 0 2217 -3337 0 0 -2217 -2138 0z"/>
   <path class="fil20" d="M132 6452c-45,-111 -84,-224 -119,-338l0 -2451c57,-187 127,-370 210,-549l2007 0 0 -2016c165,-78 334,-145 506,-200l2573 0c87,28 173,59 258,93l0 2124 2217 0 0 0 0 3337 -2217 0 0 2217 -3337 0 0 -2217 -2098 0z"/>
   <path class="fil21" d="M7780 3115c1,3 3,6 4,8l0 3329 -2217 0 0 2217 -3269 0c-23,-10 -45,-21 -68,-32l0 -2185 -2057 0c-63,-155 -116,-314 -160,-474l0 -2179c63,-234 147,-463 252,-684l1965 0 0 -1974c206,-99 419,-179 636,-242l2313 0c131,38 261,82 388,133l0 2083 2213 0z"/>
   <path class="fil22" d="M7738 3115c16,33 31,66 46,99l0 3238 -2217 0 0 2217 -3177 0c-54,-23 -108,-48 -161,-74l0 -2143 -2016 0c-84,-205 -151,-416 -201,-630l0 -1867c67,-288 165,-570 294,-841l1923 0 0 -1933c252,-122 514,-217 781,-284l2024 0c180,46 359,103 533,174l0 2043 2171 0z"/>
   <path class="fil22" d="M7696 3115c31,64 60,129 88,195l0 3143 -2217 0 0 2212c-3,1 -7,3 -10,4l-3069 0c-87,-35 -173,-74 -258,-116l0 -2101 -1975 0c-109,-264 -190,-537 -241,-815l0 -1498c65,-352 177,-697 336,-1025l1881 0 0 -1891c304,-149 623,-257 948,-326l1689 0c238,50 472,122 700,215l0 2002 2129 0z"/>
   <path class="fil22" d="M7654 3115c47,97 91,195 130,295l0 2958c-11,28 -23,57 -34,85l-2182 0 0 2171c-38,16 -76,31 -114,45l-2861 0c-123,-46 -243,-99 -362,-158l0 -2059 -1934 0c-143,-341 -237,-698 -282,-1060l0 -1006c55,-437 180,-867 378,-1271l1839 0 0 -1849c368,-182 759,-305 1156,-368l1273 0c310,49 615,134 908,256l0 1961 2087 0z"/>
   <path class="fil22" d="M7613 3115c65,131 122,266 172,402l0 2744c-23,64 -49,128 -75,191l-2141 0 0 2131c-74,31 -149,60 -225,86l-2640 0c-161,-56 -319,-123 -473,-200l0 -2017 -1893 0c-452,-1068 -421,-2292 96,-3337l1797 0 0 -1806c466,-233 968,-370 1477,-410l632 0c419,33 835,132 1229,297l0 1920 2045 0z"/>
   <path class="fil23" d="M7570 3115c84,168 155,341 214,517l0 2515c-34,103 -73,205 -116,306l-2100 0 0 2090c-113,48 -228,90 -345,127l-2399 0c-203,-64 -401,-145 -593,-242l0 -1974 -1852 0c-457,-1067 -425,-2293 98,-3337l1755 0 0 -1764c1042,-528 2268,-567 3337,-115l0 1879 2003 0z"/>
   <path class="fil23" d="M7528 3115c105,207 190,422 256,641l0 2265c-44,146 -96,290 -157,431l-2060 0 0 2049c-156,67 -315,123 -477,168l-2135 0c-249,-70 -492,-165 -725,-285l0 -1932 -1811 0c-462,-1066 -429,-2295 99,-3337l1712 0 0 -1722c1041,-534 2269,-573 3337,-117l0 1838 1960 0z"/>
   <path class="fil24" d="M7485 3115c129,251 228,513 299,781l0 1986c-51,194 -117,385 -199,570l-2018 0 0 2008c-203,88 -413,158 -625,209l-1838 0c-301,-73 -594,-182 -874,-327l0 -1890 -1770 0c-467,-1065 -434,-2296 100,-3337l1670 0 0 -1679c1039,-540 2270,-579 3337,-118l0 1797 1918 0z"/>
   <path class="fil25" d="M7443 3115c156,300 270,617 341,941l0 1666c-55,249 -135,494 -240,731l-1977 0 0 1966c-259,113 -528,197 -802,250l-1485 0c-362,-71 -717,-194 -1050,-370l0 -1847 -1729 0c-472,-1064 -438,-2298 101,-3337l1628 0 0 -1637c1037,-546 2271,-585 3337,-119l0 1756 1876 0z"/>
   <path class="fil25" d="M7401 3115c190,361 318,746 384,1139l0 1269c-53,318 -147,630 -281,929l-1935 0 0 1925c-332,147 -681,244 -1036,292l-1017 0c-444,-59 -879,-197 -1284,-413l0 -1804 -1687 0c-477,-1063 -443,-2299 102,-3337l1585 0 0 -1594c1036,-552 2272,-592 3337,-121l0 1715 1833 0z"/>
   <path class="fil25" d="M7358 3115c240,451 382,941 426,1437l0 674c-37,420 -145,836 -323,1227l-1894 0 0 1884c-1064,476 -2303,436 -3337,-122l0 -1761 -1646 0c-483,-1062 -448,-2301 104,-3337l1542 0 0 -1551c1034,-558 2273,-599 3337,-122l0 1673 1790 0z"/>
   <path class="fil25" d="M7315 3115c558,1035 593,2277 105,3337l-1853 0 0 1842c-1063,482 -2305,441 -3337,-124l0 -1718 -1604 0c-488,-1061 -453,-2303 105,-3337l1499 0 0 -1508c1032,-564 2274,-606 3337,-124l0 1632 1747 0z"/>
   <path class="fil26" d="M7272 3115c565,1033 600,2278 107,3337l-1811 0 0 1801c-1062,487 -2307,446 -3337,-125l0 -1675 -1563 0c-493,-1060 -458,-2304 107,-3337l1456 0 0 -1465c1030,-571 2275,-613 3337,-125l0 1590 1704 0z"/>
   <path class="fil26" d="M7229 3115c571,1031 607,2279 108,3337l-1769 0 0 1759c-1061,493 -2309,451 -3337,-127l0 -1632 -1521 0c-499,-1058 -463,-2306 108,-3337l1413 0 0 -1422c1029,-578 2277,-620 3337,-127l0 1549 1661 0z"/>
   <path class="fil26" d="M7185 3115c578,1029 614,2280 109,3337l-1727 0 0 1717c-1060,499 -2311,456 -3337,-129l0 -1589 -1479 0c-505,-1057 -469,-2308 109,-3337l1370 0 0 -1378c1027,-585 2278,-628 3337,-129l0 1507 1618 0z"/>
   <path class="fil27" d="M7142 3115c585,1027 622,2281 111,3337l-1685 0 0 1676c-1058,505 -2313,461 -3337,-131l0 -1545 -1437 0c-511,-1056 -474,-2310 111,-3337l1326 0 0 -1334c1025,-592 2279,-635 3337,-131l0 1465 1575 0z"/>
   <path class="fil27" d="M7098 3115c592,1025 630,2283 112,3337l-1643 0 0 1634c-1057,511 -2315,467 -3337,-132l0 -1501 -1395 0c-517,-1055 -480,-2312 112,-3337l1283 0 0 -1291c1022,-599 2280,-643 3337,-132l0 1423 1531 0z"/>
   <path class="fil27" d="M7055 3115c599,1023 637,2284 114,3337l-1601 0 0 1592c-1056,517 -2317,472 -3337,-134l0 -1458 -1353 0c-524,-1053 -486,-2314 114,-3337l1239 0 0 -1247c1020,-606 2282,-651 3337,-134l0 1381 1488 0z"/>
   <path class="fil27" d="M7011 3115c607,1021 645,2286 115,3337l-1559 0 0 1550c-1054,523 -2319,478 -3337,-136l0 -1413 -1311 0c-530,-1052 -492,-2317 115,-3337l1196 0 0 -1203c1018,-614 2283,-660 3337,-136l0 1339 1444 0z"/>
   <path class="fil28" d="M6967 3115c615,1019 654,2287 117,3337l-1517 0 0 1507c-1053,530 -2322,484 -3337,-138l0 -1369 -1268 0c-537,-1050 -498,-2319 117,-3337l1151 0 0 -1159c1016,-622 2284,-668 3337,-138l0 1297 1399 0z"/>
   <path class="fil28" d="M6923 3115c623,1016 662,2289 119,3337l-1474 0 0 1465c-1052,537 -2324,490 -3337,-140l0 -1325 -1226 0c-543,-1049 -504,-2321 119,-3337l1107 0 0 -1115c1013,-630 2286,-677 3337,-140l0 1254 1355 0z"/>
   <path class="fil28" d="M6878 3115c631,1014 671,2290 121,3337l-1432 0 0 1423c-1050,544 -2327,496 -3337,-142l0 -1280 -1184 0c-550,-1047 -510,-2324 121,-3337l1063 0 0 -1070c1011,-638 2287,-686 3337,-142l0 1212 1311 0z"/>
   <path class="fil29" d="M6834 3115c639,1011 680,2292 122,3337l-1389 0 0 1380c-1049,551 -2329,502 -3337,-145l0 -1235 -1141 0c-558,-1046 -517,-2326 122,-3337l1018 0 0 -1025c1008,-647 2289,-695 3337,-145l0 1170 1266 0z"/>
   <path class="fil29" d="M6789 3115c648,1008 689,2294 124,3337l-1346 0 0 1337c-1047,558 -2332,509 -3337,-147l0 -1191 -1098 0c-565,-1044 -524,-2329 124,-3337l973 0 0 -980c1005,-656 2290,-705 3337,-147l0 1127 1221 0z"/>
   <path class="fil29" d="M6744 3115c657,1006 699,2295 126,3337l-1303 0 0 1294c-1045,565 -2335,516 -3337,-149l0 -1145 -1055 0c-573,-1042 -531,-2332 126,-3337l928 0 0 -935c1002,-665 2292,-714 3337,-149l0 1084 1177 0z"/>
   <path class="fil29" d="M6699 3115c666,1003 709,2297 129,3337l-1260 0 0 1251c-1043,573 -2338,523 -3337,-152l0 -1100 -1012 0c-581,-1040 -538,-2335 129,-3337l883 0 0 -889c999,-674 2294,-725 3337,-152l0 1041 1131 0z"/>
   <path class="fil29" d="M6653 3115c676,1000 719,2299 131,3337l-1216 0 0 1208c-1042,581 -2341,530 -3337,-154l0 -1054 -968 0c-589,-1038 -545,-2338 131,-3337l838 0 0 -844c996,-684 2296,-735 3337,-154l0 998 1086 0z"/>
   <path class="fil30" d="M6607 3115c686,996 730,2301 133,3337l-1173 0 0 1165c-1040,589 -2345,537 -3337,-156l0 -1008 -925 0c-597,-1036 -553,-2341 133,-3337l792 0 0 -798c993,-694 2298,-746 3337,-156l0 954 1040 0z"/>
   <path class="fil30" d="M6562 3115c696,993 741,2303 135,3337l-1129 0 0 1121c-1038,598 -2348,545 -3337,-159l0 -962 -881 0c-606,-1034 -561,-2344 135,-3337l746 0 0 -751c989,-704 2300,-757 3337,-159l0 911 994 0z"/>
   <path class="fil30" d="M6515 3115c706,990 752,2305 138,3337l-1085 0 0 1078c-1036,607 -2352,553 -3337,-162l0 -916 -837 0c-614,-1032 -569,-2348 138,-3337l700 0 0 -705c986,-715 2302,-769 3337,-162l0 867 948 0z"/>
   <path class="fil31" d="M6469 3115c717,986 764,2308 140,3337l-1041 0 0 1034c-1034,616 -2355,561 -3337,-165l0 -869 -793 0c-624,-1030 -577,-2351 140,-3337l653 0 0 -658c982,-726 2304,-781 3337,-165l0 823 901 0z"/>
   <path class="fil31" d="M6422 3115c728,982 776,2310 142,3337l-997 0 0 990c-1031,625 -2359,569 -3337,-168l0 -822 -749 0c-633,-1027 -586,-2355 142,-3337l606 0 0 -611c978,-737 2306,-793 3337,-168l0 779 855 0z"/>
   <path class="fil31" d="M6375 3115c740,978 788,2313 145,3337l-953 0 0 945c-1029,635 -2363,578 -3337,-171l0 -774 -705 0c-643,-1025 -594,-2359 145,-3337l559 0 0 -564c974,-749 2308,-806 3337,-171l0 735 807 0z"/>
   <path class="fil32" d="M6327 3115c752,974 801,2315 148,3337l-908 0 0 901c-1026,645 -2368,586 -3337,-175l0 -726 -660 0c-653,-1022 -604,-2363 148,-3337l512 0 0 -516c970,-761 2311,-819 3337,-175l0 691 760 0z"/>
   <path class="fil32" d="M6279 3115c764,970 814,2318 151,3337l-863 0 0 856c-1024,655 -2372,596 -3337,-178l0 -678 -615 0c-663,-1019 -613,-2368 151,-3337l464 0 0 -468c965,-774 2313,-833 3337,-178l0 646 712 0z"/>
   <path class="fil32" d="M6231 3115c777,965 829,2321 154,3337l-818 0 0 811c-1021,666 -2377,605 -3337,-182l0 -630 -570 0c-674,-1017 -623,-2372 154,-3337l415 0 0 -419c960,-787 2316,-847 3337,-182l0 601 664 0z"/>
   <path class="fil32" d="M6182 3115c790,960 843,2324 157,3337l-772 0 0 766c-1018,677 -2382,615 -3337,-186l0 -580 -524 0c-686,-1014 -633,-2377 157,-3337l367 0 0 -370c955,-800 2319,-862 3337,-186l0 556 615 0z"/>
   <path class="fil32" d="M6133 3115c804,955 858,2327 161,3337l-727 0 0 720c-1015,688 -2388,625 -3337,-189l0 -531 -478 0c-697,-1010 -644,-2383 161,-3337l318 0 0 -321c950,-815 2322,-878 3337,-189l0 510 566 0z"/>
   <path class="fil32" d="M6084 3115c819,949 874,2330 164,3337l-680 0 0 675c-1012,700 -2393,635 -3337,-194l0 -481 -432 0c-709,-1007 -655,-2388 164,-3337l268 0 0 -270c944,-829 2325,-894 3337,-194l0 464 516 0z"/>
   <path class="fil33" d="M6033 3115c834,944 890,2334 168,3337l-634 0 0 629c-1009,713 -2399,647 -3337,-198l0 -431 -386 0c-722,-1004 -666,-2394 168,-3337l218 0 0 -220c938,-845 2329,-911 3337,-198l0 418 466 0z"/>
   <path class="fil33" d="M5983 3115c850,937 907,2337 172,3337l-588 0 0 582c-1005,726 -2406,658 -3337,-203l0 -379 -339 0c-735,-1000 -678,-2400 172,-3337l167 0 0 -169c932,-861 2332,-929 3337,-203l0 372 415 0z"/>
   <path class="fil34" d="M5931 3115c866,931 925,2341 176,3337l-540 0 0 536c-1002,739 -2412,670 -3337,-208l0 -328 -292 0c-749,-996 -690,-2406 176,-3337l116 0 0 -117c925,-878 2336,-947 3337,-208l0 325 364 0z"/>
   <path class="fil34" d="M5879 3115c884,924 944,2345 181,3337l-493 0 0 488c-998,753 -2420,682 -3337,-213l0 -275 -245 0c-763,-992 -703,-2413 181,-3337l64 0 0 -65c918,-895 2340,-966 3337,-213l0 278 312 0z"/>
   <path class="fil34" d="M5827 3115c902,917 964,2350 186,3337l-445 0 0 441c-992,767 -2424,695 -3334,-215 -1,-1 -2,-2 -4,-4l0 -222 -197 0c-778,-988 -716,-2421 186,-3337l11 0 0 -12c1,-1 2,-2 4,-4 910,-910 2341,-982 3334,-215l0 231 259 0z"/>
   <path class="fil34" d="M5785 3126c910,910 969,2347 179,3326l-397 0 0 393c-978,774 -2403,710 -3307,-194 -10,-10 -20,-21 -30,-31l0 -168 -149 0c-790,-979 -731,-2416 179,-3326 904,-904 2329,-968 3307,-194l0 182 206 0c4,4 8,8 12,11z"/>
   <path class="fil34" d="M5758 3153c903,903 955,2335 157,3299l-348 0 0 345c-964,782 -2383,725 -3280,-172 -19,-19 -38,-39 -57,-59l0 -113 -100 0c-799,-964 -746,-2396 157,-3299 897,-897 2316,-955 3280,-172l0 134 152 0c13,13 26,25 39,38z"/>
   <path class="fil35" d="M5732 3180c897,897 941,2323 134,3272l-299 0 0 296c-950,791 -2363,741 -3254,-150 -29,-29 -57,-58 -84,-88l0 -58 -51 0c-807,-950 -763,-2376 134,-3272 891,-891 2304,-941 3254,-150l0 85 97 0c23,21 45,43 68,65z"/>
   <path class="fil35" d="M5705 3206c890,890 927,2311 111,3246l-249 0 0 246c-935,800 -2342,757 -3227,-127 -38,-38 -75,-78 -110,-118l0 -1 -1 0c-816,-935 -780,-2355 111,-3246 885,-885 2292,-927 3227,-127l0 36 41 0c33,29 65,60 97,92z"/>
   <path class="fil35" d="M5678 3233c884,884 913,2300 87,3219l-198 0 0 196c-920,809 -2322,774 -3200,-104 -914,-914 -914,-2397 0,-3311 914,-914 2397,-914 3311,0z"/>
   <path class="fil35" d="M5652 3260c878,878 899,2289 63,3192l-147 0 0 146c-904,819 -2302,792 -3174,-80 -900,-900 -900,-2358 0,-3258 900,-900 2358,-900 3258,0z"/>
   <path class="fil36" d="M5625 3286c872,872 885,2278 38,3166l-96 0 0 94c-889,829 -2281,811 -3147,-55 -885,-885 -885,-2320 0,-3204 885,-885 2320,-885 3205,0z"/>
   <path class="fil36" d="M5598 3313c866,866 870,2268 12,3139l-43 0 0 42c-872,840 -2260,830 -3120,-30 -870,-870 -870,-2281 0,-3151 870,-870 2281,-870 3151,0z"/>
   <path class="fil36" d="M5572 3340c855,855 855,2242 0,3098 -855,855 -2242,855 -3098,0 -855,-855 -855,-2242 0,-3098 855,-855 2242,-855 3098,0z"/>
   <path class="fil36" d="M5545 3367c841,841 841,2204 0,3044 -841,841 -2204,841 -3044,0 -841,-841 -841,-2204 0,-3044 841,-841 2204,-841 3044,0z"/>
   <path class="fil36" d="M5518 3393c826,826 826,2165 0,2991 -826,826 -2165,826 -2991,0 -826,-826 -826,-2165 0,-2991 826,-826 2165,-826 2991,0z"/>
   <path class="fil36" d="M5491 3420c811,811 811,2126 0,2937 -811,811 -2126,811 -2937,0 -811,-811 -811,-2126 0,-2937 811,-811 2126,-811 2937,0z"/>
   <path class="fil36" d="M5465 3447c796,796 796,2088 0,2884 -796,796 -2088,796 -2884,0 -796,-796 -796,-2088 0,-2884 796,-796 2088,-796 2884,0z"/>
   <path class="fil36" d="M5438 3473c782,782 782,2049 0,2831 -782,782 -2049,782 -2831,0 -782,-782 -782,-2049 0,-2831 782,-782 2049,-782 2831,0z"/>
   <path class="fil36" d="M5411 3500c767,767 767,2010 0,2777 -767,767 -2010,767 -2777,0 -767,-767 -767,-2010 0,-2777 767,-767 2010,-767 2777,0z"/>
   <path class="fil36" d="M5385 3527c752,752 752,1972 0,2724 -752,752 -1972,752 -2724,0 -752,-752 -752,-1972 0,-2724 752,-752 1972,-752 2724,0z"/>
   <path class="fil36" d="M5358 3553c737,737 737,1933 0,2670 -737,737 -1933,737 -2670,0 -737,-737 -737,-1933 0,-2670 737,-737 1933,-737 2670,0z"/>
   <path class="fil36" d="M5331 3580c723,723 723,1894 0,2617 -723,723 -1894,723 -2617,0 -723,-723 -723,-1894 0,-2617 723,-723 1894,-723 2617,0z"/>
   <path class="fil36" d="M5304 3607c708,708 708,1856 0,2564 -708,708 -1856,708 -2564,0 -708,-708 -708,-1856 0,-2564 708,-708 1856,-708 2564,0z"/>
   <path class="fil36" d="M5278 3634c693,693 693,1817 0,2510 -693,693 -1817,693 -2510,0 -693,-693 -693,-1817 0,-2510 693,-693 1817,-693 2510,0z"/>
   <path class="fil36" d="M5251 3660c678,678 678,1778 0,2457 -678,678 -1778,678 -2457,0 -678,-678 -678,-1778 0,-2457 678,-678 1778,-678 2457,0z"/>
   <path class="fil36" d="M5224 3687c664,664 664,1740 0,2403 -664,664 -1740,664 -2403,0 -664,-664 -664,-1740 0,-2403 664,-664 1740,-664 2403,0z"/>
   <path class="fil36" d="M5198 3714c649,649 649,1701 0,2350 -649,649 -1701,649 -2350,0 -649,-649 -649,-1701 0,-2350 649,-649 1701,-649 2350,0z"/>
   <path class="fil36" d="M5171 3740c634,634 634,1662 0,2297 -634,634 -1662,634 -2297,0 -634,-634 -634,-1662 0,-2297 634,-634 1662,-634 2297,0z"/>
   <path class="fil36" d="M5144 3767c619,619 619,1624 0,2243 -619,619 -1624,619 -2243,0 -619,-619 -619,-1624 0,-2243 619,-619 1624,-619 2243,0z"/>
   <path class="fil36" d="M5118 3794c605,605 605,1585 0,2190 -605,605 -1585,605 -2190,0 -605,-605 -605,-1585 0,-2190 605,-605 1585,-605 2190,0z"/>
   <path class="fil36" d="M5091 3820c590,590 590,1546 0,2136 -590,590 -1546,590 -2136,0 -590,-590 -590,-1546 0,-2136 590,-590 1546,-590 2136,0z"/>
   <path class="fil36" d="M5064 3847c575,575 575,1508 0,2083 -575,575 -1508,575 -2083,0 -575,-575 -575,-1508 0,-2083 575,-575 1508,-575 2083,0z"/>
   <path class="fil36" d="M5037 3874c560,560 560,1469 0,2030 -560,560 -1469,560 -2030,0 -560,-560 -560,-1469 0,-2030 560,-560 1469,-560 2030,0z"/>
   <path class="fil36" d="M5011 3901c546,546 546,1430 0,1976 -546,546 -1430,546 -1976,0 -546,-546 -546,-1430 0,-1976 546,-546 1430,-546 1976,0z"/>
   <path class="fil36" d="M4984 3927c531,531 531,1392 0,1923 -531,531 -1392,531 -1923,0 -531,-531 -531,-1392 0,-1923 531,-531 1392,-531 1923,0z"/>
   <path class="fil36" d="M4957 3954c516,516 516,1353 0,1869 -516,516 -1353,516 -1869,0 -516,-516 -516,-1353 0,-1869 516,-516 1353,-516 1869,0z"/>
   <path class="fil36" d="M4931 3981c501,501 501,1314 0,1816 -501,501 -1314,501 -1816,0 -501,-501 -501,-1314 0,-1816 501,-501 1314,-501 1816,0z"/>
   <path class="fil36" d="M4904 4007c487,487 487,1276 0,1762 -487,487 -1276,487 -1762,0 -487,-487 -487,-1276 0,-1762 487,-487 1276,-487 1762,0z"/>
   <path class="fil36" d="M4877 4034c472,472 472,1237 0,1709 -472,472 -1237,472 -1709,0 -472,-472 -472,-1237 0,-1709 472,-472 1237,-472 1709,0z"/>
   <path class="fil36" d="M4851 4061c457,457 457,1198 0,1656 -457,457 -1198,457 -1656,0 -457,-457 -457,-1198 0,-1656 457,-457 1198,-457 1656,0z"/>
   <path class="fil36" d="M4824 4088c442,442 442,1160 0,1602 -442,442 -1160,442 -1602,0 -442,-442 -442,-1160 0,-1602 442,-442 1160,-442 1602,0z"/>
   <path class="fil36" d="M4797 4114c428,428 428,1121 0,1549 -428,428 -1121,428 -1549,0 -428,-428 -428,-1121 0,-1549 428,-428 1121,-428 1549,0z"/>
   <path class="fil36" d="M4770 4141c413,413 413,1082 0,1495 -413,413 -1082,413 -1495,0 -413,-413 -413,-1082 0,-1495 413,-413 1082,-413 1495,0z"/>
   <path class="fil36" d="M4744 4168c398,398 398,1044 0,1442 -398,398 -1044,398 -1442,0 -398,-398 -398,-1044 0,-1442 398,-398 1044,-398 1442,0z"/>
   <path class="fil36" d="M4717 4194c383,383 383,1005 0,1389 -383,383 -1005,383 -1389,0 -383,-383 -383,-1005 0,-1389 383,-383 1005,-383 1389,0z"/>
   <path class="fil36" d="M4690 4221c369,369 369,967 0,1335 -369,369 -967,369 -1335,0 -369,-369 -369,-967 0,-1335 369,-369 967,-369 1335,0z"/>
   <path class="fil36" d="M4664 4248c354,354 354,928 0,1282 -354,354 -928,354 -1282,0 -354,-354 -354,-928 0,-1282 354,-354 928,-354 1282,0z"/>
   <path class="fil36" d="M4637 4274c339,339 339,889 0,1228 -339,339 -889,339 -1228,0 -339,-339 -339,-889 0,-1228 339,-339 889,-339 1228,0z"/>
   <path class="fil36" d="M4610 4301c324,324 324,851 0,1175 -324,324 -851,324 -1175,0 -324,-324 -324,-851 0,-1175 324,-324 851,-324 1175,0z"/>
   <path class="fil36" d="M4583 4328c310,310 310,812 0,1122 -310,310 -812,310 -1122,0 -310,-310 -310,-812 0,-1122 310,-310 812,-310 1122,0z"/>
   <path class="fil36" d="M4557 4355c295,295 295,773 0,1068 -295,295 -773,295 -1068,0 -295,-295 -295,-773 0,-1068 295,-295 773,-295 1068,0z"/>
   <path class="fil36" d="M4530 4381c280,280 280,735 0,1015 -280,280 -735,280 -1015,0 -280,-280 -280,-735 0,-1015 280,-280 735,-280 1015,0z"/>
   <path class="fil36" d="M4503 4408c265,265 265,696 0,961 -265,265 -696,265 -961,0 -265,-265 -265,-696 0,-961 265,-265 696,-265 961,0z"/>
   <path class="fil36" d="M4477 4435c251,251 251,657 0,908 -251,251 -657,251 -908,0 -251,-251 -251,-657 0,-908 251,-251 657,-251 908,0z"/>
   <path class="fil36" d="M4450 4461c236,236 236,619 0,855 -236,236 -619,236 -855,0 -236,-236 -236,-619 0,-855 236,-236 619,-236 855,0z"/>
   <path class="fil36" d="M4423 4488c221,221 221,580 0,801 -221,221 -580,221 -801,0 -221,-221 -221,-580 0,-801 221,-221 580,-221 801,0z"/>
   <path class="fil36" d="M4397 4515c206,206 206,541 0,748 -206,206 -541,206 -748,0 -206,-206 -206,-541 0,-748 206,-206 541,-206 748,0z"/>
   <path class="fil36" d="M4370 4542c192,192 192,503 0,694 -192,192 -503,192 -694,0 -192,-192 -192,-503 0,-694 192,-192 503,-192 694,0z"/>
   <path class="fil36" d="M4343 4568c177,177 177,464 0,641 -177,177 -464,177 -641,0 -177,-177 -177,-464 0,-641 177,-177 464,-177 641,0z"/>
   <path class="fil36" d="M4316 4595c162,162 162,425 0,587 -162,162 -425,162 -588,0 -162,-162 -162,-425 0,-588 162,-162 425,-162 588,0z"/>
   <path class="fil36" d="M4290 4622c147,147 147,387 0,534 -147,147 -387,147 -534,0 -147,-147 -147,-387 0,-534 147,-147 387,-147 534,0z"/>
   <path class="fil36" d="M4263 4648c133,133 133,348 0,481 -133,133 -348,133 -481,0 -133,-133 -133,-348 0,-481 133,-133 348,-133 481,0z"/>
   <path class="fil37" d="M4236 4675c118,118 118,309 0,427 -118,118 -309,118 -427,0 -118,-118 -118,-309 0,-427 118,-118 309,-118 427,0z"/>
   <path class="fil37" d="M4210 4702c103,103 103,271 0,374 -103,103 -271,103 -374,0 -103,-103 -103,-271 0,-374 103,-103 271,-103 374,0z"/>
   <path class="fil37" d="M4183 4728c88,88 88,232 0,320 -88,88 -232,88 -320,0 -89,-89 -88,-232 0,-320 88,-88 232,-88 320,0z"/>
   <path class="fil37" d="M4156 4755c74,74 74,193 0,267 -74,74 -193,74 -267,0 -74,-74 -74,-193 0,-267 74,-74 193,-74 267,0z"/>
   <path class="fil37" d="M4130 4782c59,59 59,155 0,214 -59,59 -155,59 -214,0 -59,-59 -59,-155 0,-214 59,-59 155,-59 214,0z"/>
   <path class="fil37" d="M4103 4809c44,44 44,116 0,160 -44,44 -116,44 -160,0 -44,-44 -44,-116 0,-160 44,-44 116,-44 160,0z"/>
   <path class="fil37" d="M4076 4835c30,30 30,77 0,107 -30,29 -77,29 -107,0 -29,-30 -29,-77 0,-107 30,-30 77,-30 107,0z"/>
   <path class="fil37" d="M4049 4862c15,15 15,39 0,53 -15,15 -39,15 -53,0 -15,-15 -15,-39 0,-53 15,-15 39,-15 53,0z"/>
   <path class="fil38" d="M2482 3345c67,257 145,466 145,466 0,0 57,157 248,194 191,36 381,51 381,51 0,0 51,18 -73,160 -124,142 -336,266 -236,532 0,0 21,-118 181,-154 0,0 -245,248 -154,451 0,0 27,-109 118,-142 0,0 -14,75 -6,176l0 0c0,0 -110,43 -156,213 0,0 213,-137 152,114 -61,251 -172,461 -128,686l0 0c14,35 31,73 50,110 35,68 79,134 129,184 49,48 100,79 158,90l1216 0c57,-11 109,-42 158,-90 50,-49 94,-116 129,-184 70,-136 105,-275 108,-288 0,-1 0,-1 0,-1l1 -3 254 -879 0 0 82 -285 234 -808c-48,-49 -96,-97 -140,-140 -43,-77 -219,-392 -278,-506 -67,-130 -139,-544 -218,-608 -79,-64 -203,-88 -490,-9 0,0 -54,18 -103,-6 -48,-24 -517,-136 -768,24 -251,160 -251,160 -251,160 0,0 -33,224 -384,236 -351,12 -426,-3 -360,254z"/>
   <path class="fil39" d="M8738 5678l-71 96 -244 333 -71 96c-28,39 -20,93 19,122 39,28 93,20 122,-19l71 -96 244 -333 71 -96c28,-39 20,-93 -19,-122 -39,-28 -93,-20 -122,19zm173 471l-26 28c-37,41 -35,104 6,141l95 87c41,37 104,35 141,-6l26 -28c37,-41 35,-104 -6,-141l-95 -87c-41,-37 -104,-35 -141,6zm-39 -299l-315 429c-28,39 -20,93 19,122 39,28 93,20 122,-19l315 -429c28,-39 20,-93 -19,-122 -39,-28 -93,-20 -122,19zm609 850c-59,-147 -138,-253 -187,-310 -26,-30 -43,-47 -45,-49l-119 126 2 -2 -2 2 0 0c2,2 14,14 33,35 54,63 157,204 200,396 21,96 28,204 8,325 -21,120 -70,253 -163,397 -86,133 -176,238 -270,318 -100,86 -203,143 -310,177 -160,51 -329,50 -509,2 -180,-48 -371,-144 -566,-282 -309,-219 -631,-295 -913,-282 -282,13 -524,113 -685,250 -40,34 -75,71 -104,111 -70,95 -149,192 -241,272 -98,84 -210,147 -351,172 -141,24 -314,10 -535,-75 -158,-61 -281,-159 -379,-273 -145,-169 -232,-374 -282,-538 -25,-82 -41,-153 -50,-203 -5,-25 -8,-45 -10,-58 -1,-7 -2,-12 -2,-15 0,-2 0,-3 0,-4 0,-1 0,-1 0,-1l0 -4 -1 -4c-2,-9 -4,-19 -5,-28l-176 0c3,20 6,39 10,59 3,24 19,147 68,308 55,178 149,405 316,600 113,132 260,249 448,322 243,94 450,115 627,84 177,-31 319,-113 434,-211 109,-94 195,-202 268,-300 20,-28 47,-55 78,-82 126,-108 335,-198 580,-209 245,-11 526,54 805,250 276,195 554,320 827,345 136,13 271,0 401,-41 130,-41 254,-111 369,-210 0,0 0,0 0,0 108,-93 209,-211 303,-356 104,-162 163,-317 188,-461 38,-216 0,-406 -59,-552zm-1329 -425c39,28 93,20 122,-19l71 -96 36 -49 71 -96 137 -187 71 -96 36 -49 71 -96c28,-39 20,-93 -19,-122 -39,-28 -93,-20 -122,19l-71 96 -36 49 -71 96 -138 187 -71 96 -36 49 -71 96c-28,39 -20,93 19,122zm-4205 843c45,0 82,-37 82,-82l0 -380 495 0 7 -1c110,-17 200,-77 269,-148 105,-107 171,-244 215,-355 39,-100 59,-179 63,-196l953 -3293c81,-217 108,-400 108,-547 0,-276 -96,-422 -104,-434l-1 -2 -2 -2c-87,-112 -198,-176 -302,-211 -104,-35 -200,-43 -268,-43 -20,0 -37,1 -51,2l0 -31c0,-45 -37,-82 -82,-82l-295 0c-45,0 -82,37 -82,82l0 232c0,45 37,82 82,82l295 0c45,0 82,-37 82,-82l0 -21c12,-1 30,-2 51,-2 54,0 132,6 210,33 77,27 154,71 215,149 9,15 72,123 72,330 0,125 -23,287 -98,487l-1 3 -956 3305 -1 3c0,0 0,0 0,1 -3,13 -37,152 -108,288 -35,68 -79,134 -129,184 -49,48 -100,79 -158,90l-1216 0c-57,-11 -109,-42 -158,-90 -50,-49 -94,-116 -129,-184 -70,-136 -105,-275 -108,-288 0,-1 0,-1 0,-1l-1 -3 -956 -3305 -1 -3c-75,-200 -98,-362 -98,-487 0,-207 63,-315 72,-330 62,-78 138,-122 215,-149 78,-27 156,-33 210,-33 22,0 39,1 51,2l0 21c0,45 37,82 82,82l295 0c45,0 82,-37 82,-82l0 -232c0,-45 -37,-82 -82,-82l-295 0c-45,0 -82,37 -82,82l0 31c-14,-1 -32,-2 -51,-2 -68,0 -164,8 -268,43 -103,35 -215,100 -302,211l-2 2 -1 2c-8,11 -105,158 -104,433 0,147 27,330 108,547l953 3293c4,16 23,96 63,196 44,111 111,247 215,355 70,71 159,130 269,148l7 1 474 0 0 380c0,45 37,82 82,82l113 0z"/>
   <path class="fil40" d="M8151 6275c39,28 93,20 122,-19l71 -96 36 -49 71 -96 137 -187 71 -96 36 -49 71 -96c28,-39 20,-93 -19,-122 -39,-28 -93,-20 -122,19l-71 96 -36 49 -71 96 -138 187 -71 96 -36 49 -71 96c-28,39 -20,93 19,122zm720 -425l-315 429c-28,39 -20,93 19,122 39,28 93,20 122,-19l315 -429c28,-39 20,-93 -19,-122 -39,-28 -93,-20 -122,19zm39 299l-26 28c-37,41 -35,104 6,141l95 87c41,37 104,35 141,-6l26 -28c37,-41 35,-104 -6,-141l-95 -87c-41,-37 -104,-35 -141,6zm-173 -471l-71 96 -244 333 -71 96c-28,39 -20,93 19,122 39,28 93,20 122,-19l71 -96 244 -333 71 -96c28,-39 20,-93 -19,-122 -39,-28 -93,-20 -122,19zm742 1022c-59,-147 -138,-253 -187,-310 -26,-30 -43,-47 -45,-49l-119 126 2 -2 -2 2 0 0c2,2 14,14 33,35 54,63 157,204 200,396 21,96 28,204 8,325 -21,120 -70,253 -163,397 -86,133 -176,238 -270,318 -100,86 -203,143 -310,177 -160,51 -329,50 -509,2 -180,-48 -371,-144 -566,-282 -309,-219 -631,-295 -913,-282 -282,13 -524,113 -685,250 -40,34 -75,71 -104,111 -70,95 -149,192 -241,272 -13,11 -26,22 -39,32l0 208c55,-32 106,-69 152,-108 109,-94 195,-202 268,-300 20,-28 47,-55 78,-82 126,-108 335,-198 580,-209 245,-11 526,54 805,250 276,195 554,320 827,345 136,13 271,0 401,-41 130,-41 254,-111 369,-210 0,0 0,0 0,0 108,-93 209,-211 303,-356 104,-162 163,-317 188,-461 38,-216 0,-406 -59,-552zm-7710 -5021l-2 2 -1 2c-8,11 -105,158 -104,433 0,147 27,330 108,547l131 451 187 0 -147 -508 -1 -3c-75,-200 -98,-362 -98,-487 0,-207 63,-315 72,-330 62,-78 138,-122 215,-149 34,-12 68,-20 100,-25l0 -182c-48,6 -102,17 -158,36 -103,35 -215,100 -302,211zm4116 107c9,15 72,123 72,330 0,125 -23,287 -98,487l-1 3 -147 508 187 0 131 -451c81,-217 108,-400 108,-547 0,-276 -96,-422 -104,-434l-1 -2 -2 -2c-87,-112 -198,-176 -302,-211 -57,-19 -112,-30 -161,-36l0 182c33,5 68,13 103,25 77,27 154,71 215,149z"/>
   <path class="fil39" d="M5409 3960c-20,-21 -41,-42 -61,-62 -197,-198 -370,-344 -370,-344l-1 -1 -12 -23c-14,-12 -29,-24 -43,-37 -188,-157 -426,-221 -550,-269 -124,-48 -218,-18 -218,-18 27,30 -9,109 -9,109l-79 -24c-115,-45 -124,18 -124,18 0,0 85,160 85,254 0,94 -118,184 -218,290 -100,106 -91,148 -70,233 21,85 -42,206 -118,296 -76,91 82,181 82,181 148,290 522,161 522,161 -20,120 -10,238 10,339 0,0 0,0 0,0 60,508 610,847 610,847l250 -864 0 0 314 -1087z"/>
  </g>
 </g>
</svg>
