<svg xmlns="http://www.w3.org/2000/svg" xmlns:xlink="http://www.w3.org/1999/xlink" viewBox="0 0 652.17 553.1"><defs><style>.cls-1,.cls-13,.cls-17,.cls-6,.cls-7{fill:none;}.cls-2{fill:url(#radial-gradient);}.cls-3,.cls-4,.cls-5,.cls-8{fill:#202020;}.cls-10,.cls-4,.cls-5,.cls-6,.cls-7{stroke:#202020;}.cls-10,.cls-5,.cls-7{stroke-width:0.25px;}.cls-18,.cls-6{stroke-width:0.5px;}.cls-11,.cls-12,.cls-15,.cls-8,.cls-9{fill-rule:evenodd;}.cls-11,.cls-14{fill:#00488b;}.cls-12{fill:#008bc9;}.cls-13{stroke:#00488b;stroke-width:2.13px;}.cls-15{fill:#008ac8;}.cls-16{clip-path:url(#clip-path);}.cls-17{stroke:#008bc9;stroke-width:0.53px;}.cls-18{fill:#898989;stroke:#fff;stroke-miterlimit:10;}</style><radialGradient id="radial-gradient" cx="117.58" cy="99.72" fx="68.55418235259191" fy="159.080408297854" r="167.67" gradientTransform="translate(-13.01 13.8)" gradientUnits="userSpaceOnUse"><stop offset="0" stop-color="#d5d5d5"/><stop offset="0.15" stop-color="#cbcbcb"/><stop offset="0.4" stop-color="#b1b1b1"/><stop offset="0.72" stop-color="#868686"/><stop offset="0.82" stop-color="#777"/><stop offset="1" stop-color="#8f8f8f"/></radialGradient><clipPath id="clip-path" transform="translate(32.99 18)"><rect id="SVGID" class="cls-1" x="230.87" y="170.23" width="336.13" height="283.22"/></clipPath></defs><g id="Layer_8" data-name="Layer 8"><ellipse class="cls-2" cx="104.58" cy="113.52" rx="137.66" ry="119.44" transform="translate(25.05 25.86) rotate(-4.15)"/><path class="cls-3" d="M3.88,33.54c-1.85,1.67,26.87-2.71,57.18,15C75.18,56.07,87,66.23,92.15,75.93c5.89,9.94,5.21,19.4,10.51,30.88,8.66,62.64-1.46,9.44-2.78,9.61a83.46,83.46,0,0,1-13.87-3c2.67-1,5.62-2.13,8.9-3.55a62.87,62.87,0,0,1-13.74-.65c3.2-1.25,6.79-2.68,10.8-4.62a51.18,51.18,0,0,1-15.06-.42,74.17,74.17,0,0,0,11-2.39,40.31,40.31,0,0,1-15.12-3.26,90.07,90.07,0,0,0,11-3.38,50.55,50.55,0,0,1-12.94-.39,98.51,98.51,0,0,0,11.42-4.47,65.92,65.92,0,0,1-13,1.36A94.65,94.65,0,0,0,81,86.75c-5.32.91-10.15.68-14.94.6,4.92-1.16,10-2.16,15.28-4.57a63.33,63.33,0,0,1-13.41-.63,57.62,57.62,0,0,0,9.64-4.62c-5.33.08-10.48-.79-16.19-1.24A47.94,47.94,0,0,0,71.16,69c-5,.27-10.22,0-16.17.15A36.81,36.81,0,0,0,63,61c-5.47.07-11.37-.17-18.4.25a60.31,60.31,0,0,0,9.94-6,173.64,173.64,0,0,0-19.42-2.5,28.54,28.54,0,0,0,4.92-5.85c-4.69-.1-9.71-.16-15.25,0a32.78,32.78,0,0,0,5.87-5.24C21.41,38.62,11.67,36.06,3.88,33.54Z" transform="translate(32.99 18)"/><path class="cls-3" d="M-19.85,85.2S54.28,55.43,91.42,114s2.87,10.56,2.87,10.56L82,125.83l5.24-7.16-11.83,4.82,6.17-10.06-13.69,7.25,8-9.13L59,118.43l7-12.07L53.49,116.91l6.26-14.27L48.89,115.86l6.22-15.52-13.31,15L51.9,96.62,38.72,108.69l5.37-13.5L28.45,109.1l4.7-16.58L19.21,105.74l4.27-15.56L9,101.93l6.76-12.81L1.52,95.77l3.46-9-10.3,5.87,4.18-8Z" transform="translate(32.99 18)"/><path class="cls-3" d="M35.11,7.93c-3.82,2.89,7.37-8,18.72-11.86C65.68-8.73,77.68-6.39,87.25,0c9.72,6.34,17,16.7,22.76,28,5.53,12.27,9.54,25.45,7.67,60.45-7.8,55-6.84,56.28-7.51,46.6,0-10.14-1.71-31.24-.41-31.61A161.91,161.91,0,0,1,94.93,87.94,31,31,0,0,0,106.8,89.4,52.74,52.74,0,0,1,90.67,78.46a25.35,25.35,0,0,0,14.49.12A34.75,34.75,0,0,1,87,68.31a22.3,22.3,0,0,0,13.7,3.41c-7.94-2.89-13.2-8.25-17.38-14.38a16.74,16.74,0,0,0,12.9,1.74C89.94,58.53,85.52,55,81.6,50.79a15.49,15.49,0,0,0,13,.43c-5.89.61-10.26-2.24-14.36-5.64,3.88,1.64,8.06,2.53,13.17.3-6.41.27-11-3.88-16-7.77,5.19,2.69,10.25,5.24,16.9,2.42-5.57.2-9.83-3-14.39-6.42,3.58.81,7.17,1.08,11.17-.68-5.86-.91-10.79-5.34-17.29-8.11,4.58-.16,8.8-.33,13.21-2.74-5.47-.89-11-3.52-18.38-4.12,4.91-1.31,9.25-2.38,13.51-5.08-6-.69-12.77-1.74-21.58-.18,6-2.17,11-3.53,15.79-5.59a50.64,50.64,0,0,0-20.63,1A110.47,110.47,0,0,0,66.18,1.48,87.66,87.66,0,0,0,48.67,7.31c4-2.83,7.68-5.51,11.12-8.38A48.92,48.92,0,0,0,35.11,7.93Z" transform="translate(32.99 18)"/><path class="cls-3" d="M192.79,4.75C196.17,7.42,186-2,176.91-10.44c-9.85-9.33-19.64-9.33-26.89-3.77-7.42,5.42-13.6,14-21.1,24.87-7.21,11.89-15.56,27.71-21.11,71.68-3,65.7-4.26,70.58-1.46,56.79,2.15-13.74,8.62-42.09,7.29-41.8,7.29-8.91,13.53-15.84,18.74-21.61A78,78,0,0,1,120,79c7.61-5.22,13.47-9.18,18.34-13.09a39.77,39.77,0,0,1-14.17.09c8.57-3.08,14.54-5.92,19.5-9.53a30.25,30.25,0,0,1-13.43,1.64c8.44-3,14-6.54,18.59-11a16.8,16.8,0,0,1-11.69-1.58c5.89.58,10.26-1.35,14.19-4-3.35.35-7-.16-11.26-3.42,5.21,2,9.32.81,13.18-1a14.42,14.42,0,0,1-11.21-3.91c5.63,2.06,10-.18,14.49-2.26-4.5.83-9,1.47-14.46-3.24,4.91,1.82,8.85.24,12.9-1.54a15.68,15.68,0,0,1-9.16-4.49c5.12,1,9.51-1.55,14.83-2.42-3.61-1.62-7-3.26-10.42-7.29,4.58.93,9.09,0,14.88,1.39a47.47,47.47,0,0,1-10.56-9.82c4.87,1.12,10.17,2.09,17.1,5.76A136.91,136.91,0,0,1,159.2-1.54c4.62.53,10,2.47,16.38,6.24a95.28,95.28,0,0,1-8.44-11.11c4.31,2.8,9,6.56,14.13,10.49a92.12,92.12,0,0,1-9.09-12.22C178.82-5.62,186.2.4,192.79,4.75Z" transform="translate(32.99 18)"/><path class="cls-3" d="M106.15,140.19S48,95.79-11.84,182.56c-4.33,6.27,17-16.87,17-16.87l-4,16.48,7.22-14.91,1.8,14.51,4.33-16.08L16,181.77l5.41-17.26L29.3,180.2l4.33-25.49,2.88,17.65,5.05-23.93,2.89,18.44,4.33-22,.72,20,4-20.39,2.16,19.22L60,144.11l1.81,18.44,2.52-22.75,2.17,20,9.38-19.61-.72,13.34,5-13.34.36,10.59,5-9v8.63l7.94-9-1.08,7.06Z" transform="translate(32.99 18)"/><path class="cls-4" d="M107.23,143.33s35,17.65,37.17,42-.36,55.32-.36,55.32l-3.25-27.86L135,226.49l5-18.43-8.66,9.41,6.49-14.12-9,7.84,6.86-16.47-8.66,10.2,5.77-13.34-8.3,9.42L130,186.87l-6.13,4.32,4.69-13.73-10.46,6.67V164.9l-2.17,11.77-2.16-14.9-.36,11-5.78-19.61Z" transform="translate(32.99 18)"/><path class="cls-4" d="M106.15,139.41s82.27-1.18,94.17,87.08C200,240.22,190.58,203,190.58,203v20l-4-22.75-2.88,17.65L183,196.29l-7.58,16.08V193.54L164.24,203l1.81-14.13-7.58,9.81,3.25-25.11-8.3,16.09,3.61-20-8.66,18,4.33-20L144,179.42l3.24-14.12-6.49,10.59.36-14.91-6.49,11-2.17-14.91-2.16,8.24-2.53-11.77-2.53,9-2.52-11.38Z" transform="translate(32.99 18)"/><path class="cls-4" d="M105.43,137.44s56.65-79.63,108.25-12.16c12.62,16.48-20.93-12.55-20.93-12.55l5.41,9.41-13-10.59,4.69,15.69-9-13.33.36,22.75-6.49-22.75-1.09,15.69-6.49-14.91L170,131.17l-10.83-15.3,3.25,12.94-8.66-12.16,1.8,9.42-8.3-8.63,2.89,10.2-6.49-8.24,3.24,12.16L139.35,121l1.44,11.77-7.94-8.24.36,7.06-7.94-2.75Z" transform="translate(32.99 18)"/><path class="cls-4" d="M107.23,138.23s6.5-91.41,71.44-97.29S158.11,53.1,158.11,53.1l14.07,3.14L155.58,59l14.07,2-19.12.78,16.24,5.1-19.85-2.35,17.68,7.45-19.84-2.74L152.7,77l-14.08.39,12.63,9-16.59-1.18,11.18,3.92-17,1.57L152,97l-24.17-.79,23.45,3.53-22.73-1.17,17.32,3.53-20.21,2.35,22.38.79-23.1,5.1,10.83,9-14.07-5.1,13.71,12.16-15.88-5.1Z" transform="translate(32.99 18)"/><path class="cls-4" d="M110.84,143.72s28.14-43.54,88,1.57c7.58,11-17.68-7.85-17.68-6.67s7.58,13.73,7.58,13.73l-13.71-15.3,5.77,16.09-11.19-16.87,5.78,14.9-13.35-15.29,6.49,14.51S157,136.27,157,137.44s5.05,12.16,5.05,12.16l-11.91-15.29L155.22,148s-10.1-15.3-9.38-12.95-.72,11-.72,11l-6.5-10.59-.36,8.63-4.69-6.27Z" transform="translate(32.99 18)"/><path class="cls-4" d="M102.11,133.64c-13,26-31.07,59-35.13,74.76-6.33,6.78-19.26,55.89-15.86,108.08,2.4,37,4.33,55.11,15.87,81.7s-7.24,64.45-16.45,73.19c2.44,15.19,87.24,4.1,88.69,3.45s-12.1-27.37-12.1-27.37a122.48,122.48,0,0,1-1-14.26c0-7.13-8.66-9.72-11.07-10.37S84.31,367.7,83.35,361.87s-20.2-60.95-11.55-97.26,22.32-82.34,28.14-92.33c3.61-9.93,15.8-25.59,14.2-38C112.58,120.35,103.6,131,102.11,133.64Z" transform="translate(32.99 18)"/><path class="cls-5" d="M124.35,226.49s-12.88,1.43-12.33-17.34,15.52,1.56,15.58,4.71C128.31,215.81,127.86,225.44,124.35,226.49Z" transform="translate(32.99 18)"/><path class="cls-5" d="M126.4,208.32s-8.06.89-7.72-10.85,9.71,1,9.75,2.94C128.87,201.63,128.59,207.66,126.4,208.32Z" transform="translate(32.99 18)"/><path class="cls-5" d="M112.47,200.55s-5.61-2.13-1.83-9.79,6.14,3.92,5.57,5.23C116.13,197,114.12,200.85,112.47,200.55Z" transform="translate(32.99 18)"/><path class="cls-5" d="M111,188.84s-5.61-2.12-1.83-9.78,6.14,3.91,5.57,5.23C114.7,185.25,112.69,189.15,111,188.84Z" transform="translate(32.99 18)"/><path class="cls-5" d="M104.66,182.45s-2.63-3.11,1.86-6.32,2.41,4.33,1.69,4.91C107.88,181.57,105.54,183.18,104.66,182.45Z" transform="translate(32.99 18)"/><path class="cls-5" d="M104.42,196s-2.63-3.11,1.87-6.32,2.4,4.33,1.68,4.91C107.64,195.16,105.3,196.77,104.42,196Z" transform="translate(32.99 18)"/><path class="cls-4" d="M106.46,198.39s9.6,2.64,2.61,19.55-12.93-2.19-9.89-9.4C99.58,207.58,103.61,198.27,106.46,198.39Z" transform="translate(32.99 18)"/><path class="cls-5" d="M107.39,154.56c0-.15,8.53,25.76-2,53.93C110.91,190.33,107.39,154.56,107.39,154.56Z" transform="translate(32.99 18)"/><path class="cls-3" d="M109.32,172.94c-.35-.71,3.49,2.37,5.42,6.22,2.38,4,2.83,8.78,6,15.15-3.16-4.4-3.81-9.25-6.06-13.66C112.81,176.36,109.36,172.5,109.32,172.94Z" transform="translate(32.99 18)"/><path class="cls-6" d="M109.32,172.94c-.35-.71,3.49,2.37,5.42,6.22,2.38,4,2.83,8.78,6,15.15-3.16-4.4-3.81-9.25-6.06-13.66C112.81,176.36,109.36,172.5,109.32,172.94Z" transform="translate(32.99 18)"/><path class="cls-3" d="M110.28,181.82c.43-2.07,2,1.7,3.12,5.53,1.18,4.29,2,8.64,1.45,18C114.06,194.3,111.83,179.53,110.28,181.82Z" transform="translate(32.99 18)"/><path class="cls-7" d="M110.28,181.82c.43-2.07,2,1.7,3.12,5.53,1.18,4.29,2,8.64,1.45,18C114.06,194.3,111.83,179.53,110.28,181.82Z" transform="translate(32.99 18)"/><path class="cls-3" d="M109.85,173.24c.31-1.5,1.42,1.23,2.27,4,.86,3.11,1.46,6.28,1,13C112.6,182.31,111,171.57,109.85,173.24Z" transform="translate(32.99 18)"/><path class="cls-7" d="M109.85,173.24c.31-1.5,1.42,1.23,2.27,4,.86,3.11,1.46,6.28,1,13C112.6,182.31,111,171.57,109.85,173.24Z" transform="translate(32.99 18)"/><path class="cls-8" d="M146.71,479.28h1.67s-3.62-28,1.48-66C149.86,413.32,144.2,445.31,146.71,479.28Z" transform="translate(32.99 18)"/><path class="cls-8" d="M140.7,472.26h1.66s-3.61-22.79,1.49-53.6C143.85,418.66,138.19,444.65,140.7,472.26Z" transform="translate(32.99 18)"/><path class="cls-8" d="M148.39,463.74h1.24s-2.67-13,1.09-30.54C150.72,433.2,146.55,448,148.39,463.74Z" transform="translate(32.99 18)"/><path class="cls-8" d="M142.62,468.69h1.23s-2.67-13,1.1-30.53C145,438.16,140.77,453,142.62,468.69Z" transform="translate(32.99 18)"/><path class="cls-8" d="M129.78,465.42h.93s.28-13.85-.55-33.36C130.16,432.06,130.25,460,129.78,465.42Z" transform="translate(32.99 18)"/><path class="cls-8" d="M130,465.42c0-2.83,1.85-29.72,1.85-29.72-2,12-2.5,29.72-2.5,29.72Z" transform="translate(32.99 18)"/><path class="cls-8" d="M126.89,462.36c0-2.09,1.37-21.95,1.37-21.95a213,213,0,0,0-1.85,21.95Z" transform="translate(32.99 18)"/><path class="cls-8" d="M127.26,462.41h1.24c1.85-15.94-2.33-30.94-2.33-30.94C129.94,449.26,127.26,462.41,127.26,462.41Z" transform="translate(32.99 18)"/><path class="cls-8" d="M130.71,464.45h.65s-.56-13.46-2.5-22.61C128.86,441.84,130.71,462.29,130.71,464.45Z" transform="translate(32.99 18)"/><path class="cls-8" d="M128.51,461.43h.69s.2-10.23-.41-24.63C128.79,436.8,128.86,457.46,128.51,461.43Z" transform="translate(32.99 18)"/><path class="cls-8" d="M129.76,464.45c0-2.09,1.37-22,1.37-22a213.29,213.29,0,0,0-1.85,22Z" transform="translate(32.99 18)"/><path class="cls-8" d="M130,441.71c-.61,11.53-.41,19.72-.41,19.72h.69C129.92,458.25,130,441.71,130,441.71Z" transform="translate(32.99 18)"/><path class="cls-8" d="M147.58,474.34h.93s.28-13.85-.55-33.36C148,441,148.05,469,147.58,474.34Z" transform="translate(32.99 18)"/><path class="cls-8" d="M147.78,474.34c0-2.83,1.85-29.72,1.85-29.72-1.95,12-2.5,29.72-2.5,29.72Z" transform="translate(32.99 18)"/><path class="cls-8" d="M144.69,471.28c0-2.09,1.37-21.95,1.37-21.95a213,213,0,0,0-1.85,21.95Z" transform="translate(32.99 18)"/><path class="cls-8" d="M145.07,471.33h1.23c1.85-15.94-2.33-30.94-2.33-30.94C147.74,458.18,145.07,471.33,145.07,471.33Z" transform="translate(32.99 18)"/><path class="cls-8" d="M148.51,473.37h.65s-.56-13.45-2.5-22.6C146.66,450.77,148.51,471.22,148.51,473.37Z" transform="translate(32.99 18)"/><path class="cls-8" d="M146.31,470.35H147s.21-10.23-.41-24.63C146.59,445.72,146.66,466.38,146.31,470.35Z" transform="translate(32.99 18)"/><path class="cls-8" d="M147.56,473.37c0-2.09,1.37-22,1.37-22a213.29,213.29,0,0,0-1.85,22Z" transform="translate(32.99 18)"/><path class="cls-8" d="M147.79,450.63c-.61,11.53-.41,19.72-.41,19.72h.69C147.72,467.17,147.79,450.63,147.79,450.63Z" transform="translate(32.99 18)"/><path class="cls-8" d="M133.63,469.88h.93s.28-13.85-.56-33.36C134,436.52,134.1,464.5,133.63,469.88Z" transform="translate(32.99 18)"/><path class="cls-8" d="M133.82,469.88c0-2.83,1.86-29.72,1.86-29.72-2,12-2.5,29.72-2.5,29.72Z" transform="translate(32.99 18)"/><path class="cls-8" d="M130.74,466.82c0-2.09,1.37-21.95,1.37-21.95a213,213,0,0,0-1.85,21.95Z" transform="translate(32.99 18)"/><path class="cls-8" d="M131.11,466.87h1.24c1.84-15.94-2.33-30.94-2.33-30.94C133.78,453.72,131.11,466.87,131.11,466.87Z" transform="translate(32.99 18)"/><path class="cls-8" d="M134.56,468.91h.65s-.56-13.45-2.5-22.6C132.71,446.31,134.56,466.76,134.56,468.91Z" transform="translate(32.99 18)"/><path class="cls-8" d="M132.36,465.89h.69s.2-10.23-.41-24.63C132.64,441.26,132.71,461.92,132.36,465.89Z" transform="translate(32.99 18)"/><path class="cls-8" d="M133.61,468.91c0-2.09,1.37-22,1.37-22a213.29,213.29,0,0,0-1.85,22Z" transform="translate(32.99 18)"/><path class="cls-8" d="M133.84,446.17c-.62,11.53-.41,19.72-.41,19.72h.68C133.77,462.71,133.84,446.17,133.84,446.17Z" transform="translate(32.99 18)"/><path class="cls-8" d="M146.33,470.19h1a184.41,184.41,0,0,0-1.94-40.45C148.56,453,146.33,470.19,146.33,470.19Z" transform="translate(32.99 18)"/><path class="cls-8" d="M146.11,472.61l1.64.32c7.36-25.73,6.42-51.52,6.42-51.52C153.71,451.67,146.11,472.61,146.11,472.61Z" transform="translate(32.99 18)"/><path class="cls-8" d="M136.93,470.32h1.24a162,162,0,0,0-2.33-41.49C139.61,452.68,136.93,470.32,136.93,470.32Z" transform="translate(32.99 18)"/><path class="cls-8" d="M135,466.66h1.23s-2.67-15,1.1-35.22A117.31,117.31,0,0,0,135,466.66Z" transform="translate(32.99 18)"/><path class="cls-8" d="M140.72,432.4c-.84,22.2-.56,38-.56,38h.93C140.62,464.25,140.72,432.4,140.72,432.4Z" transform="translate(32.99 18)"/><path class="cls-9" d="M141.69,472.67h1.67c2.51-34-3.15-65.95-3.15-65.95C145.31,444.64,141.69,472.67,141.69,472.67Z" transform="translate(32.99 18)"/><path class="cls-8" d="M43.09,482.25H41.42s3.62-28-1.49-66C39.93,416.29,45.59,448.28,43.09,482.25Z" transform="translate(32.99 18)"/><path class="cls-9" d="M49.1,475.23H47.43s3.62-22.78-1.48-53.6C46,421.63,51.6,447.63,49.1,475.23Z" transform="translate(32.99 18)"/><path class="cls-9" d="M41.4,466.71H40.17s2.67-13-1.1-30.53C39.07,436.18,43.25,451,41.4,466.71Z" transform="translate(32.99 18)"/><path class="cls-9" d="M47.17,471.67H45.94s2.67-13-1.1-30.54C44.84,441.13,49,455.94,47.17,471.67Z" transform="translate(32.99 18)"/><path class="cls-8" d="M60,468.4h-.93s-.28-13.86.56-33.37C59.64,435,59.55,463,60,468.4Z" transform="translate(32.99 18)"/><path class="cls-8" d="M59.82,468.4c0-2.83-1.86-29.73-1.86-29.73,1.95,12,2.51,29.73,2.51,29.73Z" transform="translate(32.99 18)"/><path class="cls-8" d="M62.9,465.33c0-2.09-1.37-21.95-1.37-21.95a213,213,0,0,1,1.85,21.95Z" transform="translate(32.99 18)"/><path class="cls-8" d="M62.53,465.38H61.3c-1.85-15.93,2.32-30.94,2.32-30.94C59.86,452.23,62.53,465.38,62.53,465.38Z" transform="translate(32.99 18)"/><path class="cls-8" d="M59.08,467.42h-.65S59,454,60.94,444.82C60.94,444.82,59.08,465.27,59.08,467.42Z" transform="translate(32.99 18)"/><path class="cls-8" d="M61.28,464.4H60.6s-.21-10.23.41-24.63C61,439.77,60.94,460.43,61.28,464.4Z" transform="translate(32.99 18)"/><path class="cls-8" d="M60,467.42c0-2.09-1.37-21.95-1.37-21.95a213,213,0,0,1,1.85,21.95Z" transform="translate(32.99 18)"/><path class="cls-8" d="M59.8,444.69c.62,11.52.41,19.71.41,19.71h-.68C59.87,461.23,59.8,444.69,59.8,444.69Z" transform="translate(32.99 18)"/><path class="cls-9" d="M56.16,472.86h-.93S55,459,55.79,439.5C55.79,439.5,55.7,467.48,56.16,472.86Z" transform="translate(32.99 18)"/><path class="cls-9" d="M56,472.86c0-2.83-1.85-29.73-1.85-29.73,1.94,12,2.5,29.73,2.5,29.73Z" transform="translate(32.99 18)"/><path class="cls-9" d="M59.06,469.79c0-2.09-1.37-22-1.37-22a214.8,214.8,0,0,1,1.84,22Z" transform="translate(32.99 18)"/><path class="cls-9" d="M58.68,469.84H57.45c-1.85-15.93,2.33-30.94,2.33-30.94C56,456.69,58.68,469.84,58.68,469.84Z" transform="translate(32.99 18)"/><path class="cls-9" d="M55.23,471.88h-.65s.56-13.45,2.51-22.6C57.09,449.28,55.23,469.73,55.23,471.88Z" transform="translate(32.99 18)"/><path class="cls-9" d="M57.43,468.86h-.68s-.21-10.23.41-24.63C57.16,444.23,57.09,464.89,57.43,468.86Z" transform="translate(32.99 18)"/><path class="cls-9" d="M56.18,471.88c0-2.09-1.37-21.95-1.37-21.95a214.25,214.25,0,0,1,1.86,21.95Z" transform="translate(32.99 18)"/><path class="cls-9" d="M56,449.15c.62,11.53.41,19.71.41,19.71h-.68C56,465.69,56,449.15,56,449.15Z" transform="translate(32.99 18)"/><path class="cls-9" d="M43.46,473.16h-1a184.77,184.77,0,0,1,1.93-40.45C41.24,456,43.46,473.16,43.46,473.16Z" transform="translate(32.99 18)"/><path class="cls-9" d="M43.68,475.58,42,475.9c-7.35-25.72-6.42-51.52-6.42-51.52C36.09,454.64,43.68,475.58,43.68,475.58Z" transform="translate(32.99 18)"/><path class="cls-9" d="M52.86,473.3H51.63A162,162,0,0,1,54,431.81C50.19,455.66,52.86,473.3,52.86,473.3Z" transform="translate(32.99 18)"/><path class="cls-9" d="M54.79,469.63H53.55s2.68-15-1.09-35.21C52.46,434.42,56.64,451.5,54.79,469.63Z" transform="translate(32.99 18)"/><path class="cls-9" d="M49.08,435.38c.83,22.2.55,38,.55,38h-.92C49.17,467.22,49.08,435.38,49.08,435.38Z" transform="translate(32.99 18)"/><path class="cls-8" d="M48.1,475.65H46.43c-2.5-34,3.16-66,3.16-66C44.49,447.61,48.1,475.65,48.1,475.65Z" transform="translate(32.99 18)"/><path class="cls-10" d="M100.94,456.64s17.68-8.9,22.13,13.08c.24.54,2.4-.4,2.4-.4S117.66,446.79,100.94,456.64Z" transform="translate(32.99 18)"/><path class="cls-10" d="M125.72,467s-6.71-23.74-19.61-22.39c12.87.68,18.64,22.26,18.64,22.26Z" transform="translate(32.99 18)"/><path class="cls-10" d="M104.61,451.78S123.51,447,124,469.53c.14.59,2.43.14,2.43.14S122.74,445.85,104.61,451.78Z" transform="translate(32.99 18)"/><path class="cls-10" d="M126.43,469.54s-2.36-24.76-15.24-26.31c12.49,3.53,14.32,26,14.32,26Z" transform="translate(32.99 18)"/><path class="cls-9" d="M126.58,479.81h-1.66s3.61-30.52-1.49-71.8C123.43,408,129.09,442.83,126.58,479.81Z" transform="translate(32.99 18)"/><path class="cls-9" d="M132.6,472.17h-1.67s3.62-24.8-1.48-58.35C129.45,413.82,135.1,442.12,132.6,472.17Z" transform="translate(32.99 18)"/><path class="cls-9" d="M124.9,462.89h-1.23s2.67-14.12-1.1-33.23C122.57,429.66,126.75,445.78,124.9,462.89Z" transform="translate(32.99 18)"/><path class="cls-9" d="M130.67,468.29h-1.23s2.67-14.13-1.1-33.24C128.34,435.05,132.52,451.17,130.67,468.29Z" transform="translate(32.99 18)"/><path class="cls-9" d="M127,469.92h-1a218.28,218.28,0,0,1,1.94-44C124.74,451.2,127,469.92,127,469.92Z" transform="translate(32.99 18)"/><path class="cls-9" d="M127.18,472.55l-1.64.35c-7.36-28-6.42-56.08-6.42-56.08C119.58,449.76,127.18,472.55,127.18,472.55Z" transform="translate(32.99 18)"/><path class="cls-9" d="M131.6,472.62h-1.67c-2.5-37,3.15-71.79,3.15-71.79C128,442.1,131.6,472.62,131.6,472.62Z" transform="translate(32.99 18)"/><path class="cls-3" d="M587.29,489.57c-39.62-28.94-53.48-10.17-107.07-31.93-10.9,10.45-17.06,7-33.64,1.16-6.26,2.11-14.61-4.25-21.06-3.19-6.67,1.1-13.49-1.31-20,1.5-4.81,2.09-9.2,5.62-13.52,8.87-9.9,7.46-20,16.79-31.57,19.84-21.65,5.69-52.06-6.21-67.54-11.73-7.59-2.71-14.81.92-22.05,3.5-12.57,4.46-24.08,3.51-36.93,4.29-6.65.4-13.06,3-19.74,2.79a44.33,44.33,0,0,1-16.77-3.74c-9.36-4.1-17.4-11.62-26.75-15.74C131.5,447.9,106.81,461.1,77,471.57s-40.52-31.48-64.61,10.06c-14.08,1.56-24.91,5.33-33.25,10.28V535.1h640V494.42C609.83,495.46,595.79,495.77,587.29,489.57Z" transform="translate(32.99 18)"/><path class="cls-10" d="M194.79,460.21s-16.74-7.74-20.95,11.38c-.23.47-2.28-.35-2.28-.35S179,451.65,194.79,460.21Z" transform="translate(32.99 18)"/><path class="cls-10" d="M188,463.23S176.62,458,173.76,471c-.16.32-1.55-.24-1.55-.24S177.24,457.42,188,463.23Z" transform="translate(32.99 18)"/><path class="cls-10" d="M181.22,467.49s-6.21-2.87-7.77,4.22c-.08.18-.84-.13-.84-.13S175.35,464.32,181.22,467.49Z" transform="translate(32.99 18)"/><path class="cls-10" d="M171.33,469.24s6.35-20.65,18.56-19.47c-12.18.59-17.65,19.35-17.65,19.35Z" transform="translate(32.99 18)"/><path class="cls-10" d="M191.32,456s-17.9-4.16-18.34,15.45c-.14.5-2.3.12-2.3.12S174.15,450.83,191.32,456Z" transform="translate(32.99 18)"/><path class="cls-10" d="M170.66,471.43s2.23-21.53,14.43-22.89c-11.83,3.08-13.56,22.59-13.56,22.59Z" transform="translate(32.99 18)"/><path class="cls-9" d="M170.51,480.36h1.58s-3.43-26.54,1.4-62.44C173.49,417.92,168.14,448.2,170.51,480.36Z" transform="translate(32.99 18)"/><path class="cls-9" d="M164.82,473.72h1.58S163,452.15,167.8,423C167.8,423,162.45,447.58,164.82,473.72Z" transform="translate(32.99 18)"/><path class="cls-9" d="M172.11,465.65h1.16s-2.53-12.29,1-28.9A84,84,0,0,0,172.11,465.65Z" transform="translate(32.99 18)"/><path class="cls-9" d="M166.64,470.34h1.17s-2.53-12.28,1-28.9A83.89,83.89,0,0,0,166.64,470.34Z" transform="translate(32.99 18)"/><path class="cls-9" d="M154.49,467.25h.88s.26-13.12-.53-31.59C154.84,435.66,154.93,462.15,154.49,467.25Z" transform="translate(32.99 18)"/><path class="cls-9" d="M154.67,467.25c0-2.68,1.75-28.15,1.75-28.15-1.84,11.39-2.37,28.15-2.37,28.15Z" transform="translate(32.99 18)"/><path class="cls-9" d="M151.75,464.34c0-2,1.29-20.78,1.29-20.78a202.52,202.52,0,0,0-1.75,20.78Z" transform="translate(32.99 18)"/><path class="cls-9" d="M152.1,464.39h1.17a86.27,86.27,0,0,0-2.2-29.29C154.63,451.94,152.1,464.39,152.1,464.39Z" transform="translate(32.99 18)"/><path class="cls-9" d="M155.36,466.32H156s-.53-12.73-2.37-21.39C153.61,444.93,155.36,464.29,155.36,466.32Z" transform="translate(32.99 18)"/><path class="cls-9" d="M153.28,463.47h.65s.2-9.69-.39-23.32C153.54,440.15,153.61,459.71,153.28,463.47Z" transform="translate(32.99 18)"/><path class="cls-9" d="M154.47,466.32c0-2,1.29-20.78,1.29-20.78A202.52,202.52,0,0,0,154,466.32Z" transform="translate(32.99 18)"/><path class="cls-9" d="M154.68,444.8c-.58,10.91-.38,18.67-.38,18.67h.64C154.62,460.46,154.68,444.8,154.68,444.8Z" transform="translate(32.99 18)"/><path class="cls-9" d="M171.34,475.69h.88s.26-13.11-.53-31.58C171.69,444.11,171.78,470.6,171.34,475.69Z" transform="translate(32.99 18)"/><path class="cls-9" d="M171.52,475.69c0-2.68,1.76-28.14,1.76-28.14-1.85,11.39-2.37,28.14-2.37,28.14Z" transform="translate(32.99 18)"/><path class="cls-9" d="M168.6,472.79c0-2,1.3-20.78,1.3-20.78a202.52,202.52,0,0,0-1.75,20.78Z" transform="translate(32.99 18)"/><path class="cls-9" d="M169,472.84h1.17a86.23,86.23,0,0,0-2.2-29.29C171.48,460.39,169,472.84,169,472.84Z" transform="translate(32.99 18)"/><path class="cls-9" d="M172.22,474.77h.61s-.52-12.74-2.37-21.4C170.46,453.37,172.22,472.73,172.22,474.77Z" transform="translate(32.99 18)"/><path class="cls-9" d="M170.14,471.91h.65s.19-9.68-.39-23.32C170.4,448.59,170.46,468.15,170.14,471.91Z" transform="translate(32.99 18)"/><path class="cls-9" d="M171.32,474.77c0-2,1.3-20.78,1.3-20.78a200.71,200.71,0,0,0-1.76,20.78Z" transform="translate(32.99 18)"/><path class="cls-9" d="M171.54,453.25c-.59,10.91-.39,18.66-.39,18.66h.65C171.47,468.9,171.54,453.25,171.54,453.25Z" transform="translate(32.99 18)"/><path class="cls-9" d="M158.13,471.47H159s.26-13.12-.53-31.58C158.48,439.89,158.57,466.38,158.13,471.47Z" transform="translate(32.99 18)"/><path class="cls-9" d="M158.31,471.47c0-2.68,1.76-28.14,1.76-28.14-1.84,11.39-2.37,28.14-2.37,28.14Z" transform="translate(32.99 18)"/><path class="cls-9" d="M155.39,468.57c0-2,1.3-20.78,1.3-20.78a202.52,202.52,0,0,0-1.75,20.78Z" transform="translate(32.99 18)"/><path class="cls-9" d="M155.75,468.62h1.16a86.31,86.31,0,0,0-2.2-29.3C158.27,456.16,155.75,468.62,155.75,468.62Z" transform="translate(32.99 18)"/><path class="cls-9" d="M159,470.55h.61s-.52-12.74-2.37-21.4C157.25,449.15,159,468.51,159,470.55Z" transform="translate(32.99 18)"/><path class="cls-9" d="M156.93,467.69h.65s.19-9.69-.39-23.32C157.19,444.37,157.25,463.93,156.93,467.69Z" transform="translate(32.99 18)"/><path class="cls-9" d="M158.11,470.55c0-2,1.3-20.79,1.3-20.79a200.81,200.81,0,0,0-1.76,20.79Z" transform="translate(32.99 18)"/><path class="cls-9" d="M158.33,449c-.59,10.92-.39,18.67-.39,18.67h.65C158.26,464.68,158.33,449,158.33,449Z" transform="translate(32.99 18)"/><path class="cls-9" d="M170.15,471.76h1a175.1,175.1,0,0,0-1.84-38.3C172.26,455.48,170.15,471.76,170.15,471.76Z" transform="translate(32.99 18)"/><path class="cls-9" d="M169.94,474.05l1.56.31c7-24.36,6.08-48.78,6.08-48.78C177.14,454.23,169.94,474.05,169.94,474.05Z" transform="translate(32.99 18)"/><path class="cls-9" d="M161.26,471.88h1.16a153.11,153.11,0,0,0-2.2-39.28C163.79,455.19,161.26,471.88,161.26,471.88Z" transform="translate(32.99 18)"/><path class="cls-9" d="M159.43,468.42h1.17s-2.53-14.17,1-33.34A111,111,0,0,0,159.43,468.42Z" transform="translate(32.99 18)"/><path class="cls-9" d="M164.84,436c-.79,21-.53,35.94-.53,35.94h.88C164.75,466.14,164.84,436,164.84,436Z" transform="translate(32.99 18)"/><path class="cls-9" d="M165.76,474.11h1.58c2.37-32.16-3-62.44-3-62.44C169.18,447.57,165.76,474.11,165.76,474.11Z" transform="translate(32.99 18)"/><path class="cls-10" d="M21.55,489.56S15.21,468.91,3,470.09c12.19.59,17.65,19.35,17.65,19.35Z" transform="translate(32.99 18)"/><path class="cls-10" d="M1.57,476.3s17.9-4.16,18.34,15.45c.13.5,2.3.12,2.3.12S18.73,471.15,1.57,476.3Z" transform="translate(32.99 18)"/><path class="cls-10" d="M22.23,491.75S20,470.22,7.8,468.87c11.82,3.07,13.56,22.58,13.56,22.58Z" transform="translate(32.99 18)"/><path class="cls-9" d="M22.38,500.68H20.8s3.42-26.54-1.41-62.44C19.39,438.24,24.75,468.52,22.38,500.68Z" transform="translate(32.99 18)"/><path class="cls-9" d="M28.07,494H26.49s3.42-21.57-1.41-50.75C25.08,443.29,30.44,467.9,28.07,494Z" transform="translate(32.99 18)"/><path class="cls-9" d="M20.78,486H19.61s2.53-12.29-1-28.9A83.85,83.85,0,0,1,20.78,486Z" transform="translate(32.99 18)"/><path class="cls-9" d="M26.25,490.66H25.08s2.53-12.28-1-28.9A83.89,83.89,0,0,1,26.25,490.66Z" transform="translate(32.99 18)"/><path class="cls-9" d="M38.4,487.57h-.88s-.26-13.12.53-31.59C38.05,456,38,482.47,38.4,487.57Z" transform="translate(32.99 18)"/><path class="cls-9" d="M38.22,487.57c0-2.68-1.76-28.15-1.76-28.15,1.84,11.39,2.37,28.15,2.37,28.15Z" transform="translate(32.99 18)"/><path class="cls-9" d="M41.14,484.67c0-2-1.3-20.79-1.3-20.79a202.62,202.62,0,0,1,1.75,20.79Z" transform="translate(32.99 18)"/><path class="cls-9" d="M40.78,484.71H39.62a86.27,86.27,0,0,1,2.2-29.29C38.25,472.26,40.78,484.71,40.78,484.71Z" transform="translate(32.99 18)"/><path class="cls-9" d="M37.52,486.64H36.9s.53-12.73,2.38-21.39C39.28,465.25,37.52,484.61,37.52,486.64Z" transform="translate(32.99 18)"/><path class="cls-9" d="M39.6,483.79H39s-.19-9.69.39-23.32C39.34,460.47,39.28,480,39.6,483.79Z" transform="translate(32.99 18)"/><path class="cls-9" d="M38.42,486.64c0-2-1.3-20.78-1.3-20.78a203.8,203.8,0,0,1,1.76,20.78Z" transform="translate(32.99 18)"/><path class="cls-9" d="M38.2,465.12c.58,10.91.39,18.67.39,18.67h-.65C38.27,480.78,38.2,465.12,38.2,465.12Z" transform="translate(32.99 18)"/><path class="cls-9" d="M21.55,496h-.88s-.27-13.11.52-31.58C21.19,464.43,21.11,490.92,21.55,496Z" transform="translate(32.99 18)"/><path class="cls-9" d="M21.37,496c0-2.68-1.76-28.14-1.76-28.14C21.45,479.26,22,496,22,496Z" transform="translate(32.99 18)"/><path class="cls-9" d="M24.29,493.11c0-2-1.3-20.78-1.3-20.78a202.52,202.52,0,0,1,1.75,20.78Z" transform="translate(32.99 18)"/><path class="cls-9" d="M23.93,493.16H22.76A86.09,86.09,0,0,1,25,463.87C21.4,480.71,23.93,493.16,23.93,493.16Z" transform="translate(32.99 18)"/><path class="cls-9" d="M20.67,495.09h-.62s.53-12.73,2.37-21.4C22.42,473.69,20.67,493.05,20.67,495.09Z" transform="translate(32.99 18)"/><path class="cls-9" d="M22.75,492.23H22.1s-.19-9.68.39-23.32C22.49,468.91,22.42,488.47,22.75,492.23Z" transform="translate(32.99 18)"/><path class="cls-9" d="M21.57,495.09c0-2-1.3-20.79-1.3-20.79A202.83,202.83,0,0,1,22,495.09Z" transform="translate(32.99 18)"/><path class="cls-9" d="M21.35,473.57c.58,10.91.39,18.66.39,18.66h-.65C21.41,489.22,21.35,473.57,21.35,473.57Z" transform="translate(32.99 18)"/><path class="cls-9" d="M34.76,491.79h-.88s-.27-13.12.52-31.58C34.4,460.21,34.32,486.7,34.76,491.79Z" transform="translate(32.99 18)"/><path class="cls-9" d="M34.57,491.79c0-2.68-1.75-28.14-1.75-28.14,1.84,11.39,2.37,28.14,2.37,28.14Z" transform="translate(32.99 18)"/><path class="cls-9" d="M37.49,488.89c0-2-1.29-20.78-1.29-20.78A202.52,202.52,0,0,1,38,488.89Z" transform="translate(32.99 18)"/><path class="cls-9" d="M37.14,488.94H36a86.16,86.16,0,0,1,2.21-29.3C34.61,476.49,37.14,488.94,37.14,488.94Z" transform="translate(32.99 18)"/><path class="cls-9" d="M33.88,490.87h-.62s.53-12.74,2.37-21.4C35.63,469.47,33.88,488.83,33.88,490.87Z" transform="translate(32.99 18)"/><path class="cls-9" d="M36,488h-.65s-.2-9.69.39-23.32C35.7,464.69,35.63,484.25,36,488Z" transform="translate(32.99 18)"/><path class="cls-9" d="M34.78,490.87c0-2-1.3-20.79-1.3-20.79a202.83,202.83,0,0,1,1.75,20.79Z" transform="translate(32.99 18)"/><path class="cls-9" d="M34.56,469.34C35.14,480.26,35,488,35,488H34.3C34.62,485,34.56,469.34,34.56,469.34Z" transform="translate(32.99 18)"/><path class="cls-9" d="M22.73,492.08h-1a174.38,174.38,0,0,1,1.84-38.3C20.63,475.8,22.73,492.08,22.73,492.08Z" transform="translate(32.99 18)"/><path class="cls-9" d="M22.94,494.37l-1.55.31c-7-24.36-6.08-48.78-6.08-48.78C15.75,474.55,22.94,494.37,22.94,494.37Z" transform="translate(32.99 18)"/><path class="cls-9" d="M31.63,492.2H30.46a153.27,153.27,0,0,1,2.21-39.27C29.1,475.51,31.63,492.2,31.63,492.2Z" transform="translate(32.99 18)"/><path class="cls-9" d="M33.45,488.74H32.29s2.52-14.17-1-33.34A111.21,111.21,0,0,1,33.45,488.74Z" transform="translate(32.99 18)"/><path class="cls-9" d="M28.05,456.31c.79,21,.52,35.94.52,35.94H27.7C28.14,486.46,28.05,456.31,28.05,456.31Z" transform="translate(32.99 18)"/><path class="cls-9" d="M27.12,494.43H25.54c-2.37-32.15,3-62.44,3-62.44C23.7,467.89,27.12,494.43,27.12,494.43Z" transform="translate(32.99 18)"/></g><g id="Layer_6" data-name="Layer 6"><path class="cls-11" d="M258.87,348.75h-7.31a1.27,1.27,0,0,0-.9.37,1.22,1.22,0,0,0-.37.86v50a1.24,1.24,0,0,0,.37.86,1.27,1.27,0,0,0,.9.37h7.31a1.27,1.27,0,0,0,.9-.37,1.19,1.19,0,0,0,.37-.86V350a1.18,1.18,0,0,0-.37-.86,1.27,1.27,0,0,0-.9-.37Zm0,0" transform="translate(32.99 18)"/><path class="cls-12" d="M306.85,399.92V353.19L297,367v32.92a1.24,1.24,0,0,0,.37.88,1.31,1.31,0,0,0,.9.37h7.31a1.29,1.29,0,0,0,.89-.37,1.25,1.25,0,0,0,.38-.88Zm0,0" transform="translate(32.99 18)"/><path class="cls-12" d="M281.94,380.26,262.7,352.77v13.28l8.93,12.75a5.28,5.28,0,0,0,1.6,1.43,3.64,3.64,0,0,0,1.68.57h7.32a1.81,1.81,0,0,0-.29-.54Zm0,0" transform="translate(32.99 18)"/><path class="cls-12" d="M306.93,348.8h-7.32a3.61,3.61,0,0,0-1.68.57,5.5,5.5,0,0,0-1.61,1.45l-16.23,23.51,3.77,5.45a5.35,5.35,0,0,1,.59,1.13,4.9,4.9,0,0,0,1.21-1.19l21-30.38a2.45,2.45,0,0,0,.29-.54Zm0,0" transform="translate(32.99 18)"/><path class="cls-11" d="M565.58,375c.57,34.74-51,34.74-50.41,0-.53-34.83,50.94-34.82,50.41,0Zm-7.1,0c1-27-37.28-26.92-36.25,0-1,26.84,37.32,26.86,36.25,0Zm0,0" transform="translate(32.99 18)"/><path class="cls-11" d="M477.74,400.55h-5.35a2.31,2.31,0,0,1-1.51-.47,2.86,2.86,0,0,1-.85-1.17l-4.79-12.35H442.3l-4.77,12.35a2.83,2.83,0,0,1-.86,1.14,2.32,2.32,0,0,1-1.5.5h-5.35l20.44-51.17h7ZM444.23,381.6h19.09l-8-20.83a39.58,39.58,0,0,1-1.53-4.81c-.27,1-.52,1.86-.77,2.68s-.49,1.55-.73,2.17Zm0,0" transform="translate(32.99 18)"/><path class="cls-13" d="M477.74,400.55h-5.35a2.31,2.31,0,0,1-1.51-.47,2.86,2.86,0,0,1-.85-1.17l-4.79-12.35H442.3l-4.77,12.35a2.83,2.83,0,0,1-.86,1.14,2.32,2.32,0,0,1-1.5.5h-5.35l20.44-51.17h7ZM444.23,381.6h19.09l-8-20.82a40.38,40.38,0,0,1-1.53-4.82c-.27,1-.52,1.86-.77,2.68s-.49,1.55-.73,2.17Zm0,0" transform="translate(32.99 18)"/><path class="cls-11" d="M404.34,375a28.87,28.87,0,0,1-1.82,10.47,23.37,23.37,0,0,1-5.14,8.08,22.84,22.84,0,0,1-8,5.19,27.73,27.73,0,0,1-10.27,1.84H360V349.38h19.13a27.73,27.73,0,0,1,10.27,1.84,22.75,22.75,0,0,1,8,5.21,23.42,23.42,0,0,1,5.14,8.09A28.83,28.83,0,0,1,404.34,375Zm-7.1,0a25.5,25.5,0,0,0-1.29-8.4,17.59,17.59,0,0,0-3.64-6.27,15.57,15.57,0,0,0-5.7-3.93,19.86,19.86,0,0,0-7.46-1.36H367v39.9h12.17a19.66,19.66,0,0,0,7.46-1.36,15.5,15.5,0,0,0,5.7-3.9,17.55,17.55,0,0,0,3.64-6.26,25.5,25.5,0,0,0,1.29-8.42Zm0,0" transform="translate(32.99 18)"/><path class="cls-13" d="M404.34,375a28.87,28.87,0,0,1-1.82,10.47,23.37,23.37,0,0,1-5.14,8.08,22.84,22.84,0,0,1-8,5.19,27.73,27.73,0,0,1-10.27,1.84H360V349.38h19.13a27.73,27.73,0,0,1,10.27,1.84,22.75,22.75,0,0,1,8,5.21,23.42,23.42,0,0,1,5.14,8.09A28.83,28.83,0,0,1,404.34,375Zm-7.1,0a25.5,25.5,0,0,0-1.29-8.4,17.59,17.59,0,0,0-3.64-6.27,15.45,15.45,0,0,0-5.7-3.93,19.86,19.86,0,0,0-7.46-1.35H367v39.89h12.17a19.66,19.66,0,0,0,7.46-1.36,15.5,15.5,0,0,0,5.7-3.9,17.55,17.55,0,0,0,3.64-6.26,25.5,25.5,0,0,0,1.29-8.42Zm0,0" transform="translate(32.99 18)"/><path class="cls-11" d="M514.31,349.31v5.85H497.79v45.35h-6.92V355.16H474.28v-5.85Zm0,0" transform="translate(32.99 18)"/><path class="cls-13" d="M514.31,349.31v5.85H497.79v45.35h-6.92V355.16H474.28v-5.85Zm0,0" transform="translate(32.99 18)"/><rect class="cls-14" x="448.04" y="367.38" width="6.92" height="51.17"/><rect class="cls-13" x="448.04" y="367.38" width="6.92" height="51.17"/><path class="cls-11" d="M350.07,349.38V355H325.52v17H345.4v5.42H325.52v17.49h24.55v5.64H318.56V349.38Zm0,0" transform="translate(32.99 18)"/><path class="cls-13" d="M350.07,349.38V355H325.52v17H345.4v5.42H325.52v17.49h24.55v5.64H318.56V349.38Zm0,0" transform="translate(32.99 18)"/><rect class="cls-14" x="265.27" y="367.38" width="6.92" height="51.17"/><path class="cls-15" d="M252.46,421.5a2.1,2.1,0,0,1-.47.56,1.09,1.09,0,0,1-.65.19,1.77,1.77,0,0,1-1-.42,12.93,12.93,0,0,0-1.42-.94,11.77,11.77,0,0,0-2.06-.93,8.9,8.9,0,0,0-2.92-.41,8.63,8.63,0,0,0-2.85.42,6.15,6.15,0,0,0-2.07,1.19,4.78,4.78,0,0,0-1.25,1.74,5.59,5.59,0,0,0-.42,2.17,4,4,0,0,0,.73,2.47,6.41,6.41,0,0,0,1.94,1.68,14.29,14.29,0,0,0,2.73,1.19l3.12,1.06c1.07.37,2.11.77,3.13,1.23a10.65,10.65,0,0,1,2.73,1.73,7.82,7.82,0,0,1,1.93,2.55,8.48,8.48,0,0,1,.73,3.72,12.2,12.2,0,0,1-.79,4.38,10.12,10.12,0,0,1-2.32,3.56,10.75,10.75,0,0,1-3.75,2.38,13.74,13.74,0,0,1-5.05.87,15.32,15.32,0,0,1-6.28-1.26,14.7,14.7,0,0,1-4.86-3.39l1.39-2.28a1.68,1.68,0,0,1,.49-.47,1.17,1.17,0,0,1,.63-.19,2,2,0,0,1,1.19.56,20.13,20.13,0,0,0,1.68,1.23,13.08,13.08,0,0,0,2.43,1.23,9.63,9.63,0,0,0,3.48.55,9.26,9.26,0,0,0,3.05-.47,6.5,6.5,0,0,0,2.28-1.33,5.73,5.73,0,0,0,1.42-2,6.89,6.89,0,0,0,.5-2.66,4.36,4.36,0,0,0-.74-2.64,5.93,5.93,0,0,0-1.92-1.72,13.25,13.25,0,0,0-2.71-1.19l-3.13-1a28.51,28.51,0,0,1-3.12-1.17,10.2,10.2,0,0,1-2.72-1.74,7.75,7.75,0,0,1-1.92-2.67,10.11,10.11,0,0,1,0-7.6,9.27,9.27,0,0,1,2.11-3.12,10.07,10.07,0,0,1,3.45-2.18,12.42,12.42,0,0,1,4.69-.83,14.78,14.78,0,0,1,5.43,1,12.49,12.49,0,0,1,4.3,2.74Zm49-5.58v3.92H284.37v11.81h13.82v3.77H284.37v12.15h17.06v3.92h-21.9V415.92ZM343.2,448a23.92,23.92,0,0,0,2.64-.13,15.28,15.28,0,0,0,2.27-.41,16.32,16.32,0,0,0,2-.64c.62-.26,1.26-.54,1.88-.87v-7.87h-5.5a1.05,1.05,0,0,1-.76-.27.92.92,0,0,1-.29-.67v-2.73h10.92v13.67a19.86,19.86,0,0,1-2.79,1.68,18.81,18.81,0,0,1-3.1,1.2,23.07,23.07,0,0,1-3.54.72,32.51,32.51,0,0,1-4.09.24,18.4,18.4,0,0,1-7.1-1.33,16.42,16.42,0,0,1-5.56-3.72,16.81,16.81,0,0,1-3.62-5.75,20.13,20.13,0,0,1-1.31-7.37,20.67,20.67,0,0,1,1.28-7.42,16,16,0,0,1,9.38-9.46,20.44,20.44,0,0,1,7.53-1.32,22.75,22.75,0,0,1,3.91.32,18.43,18.43,0,0,1,3.37.9,16.22,16.22,0,0,1,2.86,1.42,17.94,17.94,0,0,1,2.46,1.9l-1.37,2.15a1.26,1.26,0,0,1-1.09.65,1.87,1.87,0,0,1-.87-.26c-.41-.24-.88-.52-1.39-.85a12.27,12.27,0,0,0-1.86-1,14.54,14.54,0,0,0-2.61-.77,16.79,16.79,0,0,0-3.56-.33,14.48,14.48,0,0,0-5.44,1,11.37,11.37,0,0,0-4.14,2.8,12.44,12.44,0,0,0-2.63,4.42,19.08,19.08,0,0,0,0,11.83,12.7,12.7,0,0,0,2.69,4.48,11.76,11.76,0,0,0,4.12,2.81,13.91,13.91,0,0,0,5.26,1Zm53.36-.3a10.08,10.08,0,0,0,3.95-.74,8.31,8.31,0,0,0,2.94-2.08,9.15,9.15,0,0,0,1.84-3.21,12.67,12.67,0,0,0,.63-4.09V416h4.78v21.62a16.34,16.34,0,0,1-1,5.71,13.44,13.44,0,0,1-2.8,4.55,13,13,0,0,1-4.46,3,16.54,16.54,0,0,1-11.81,0,13.12,13.12,0,0,1-4.47-3,13.31,13.31,0,0,1-2.81-4.55,16.34,16.34,0,0,1-1-5.71V416h4.78v21.58a12.67,12.67,0,0,0,.64,4.09,9.1,9.1,0,0,0,1.84,3.2,8.16,8.16,0,0,0,2.95,2.09,9.77,9.77,0,0,0,3.95.76Zm46.68-11v14.86h-4.79v-35.6H448.5a21.65,21.65,0,0,1,5.82.69,11,11,0,0,1,4.06,2,7.8,7.8,0,0,1,2.37,3.11,10.57,10.57,0,0,1,.77,4.09,10.18,10.18,0,0,1-.6,3.53,9.44,9.44,0,0,1-1.72,2.94,10.46,10.46,0,0,1-2.75,2.23,13.93,13.93,0,0,1-3.69,1.39,5,5,0,0,1,1.59,1.51l10.37,14.14h-4.27a2.11,2.11,0,0,1-1.94-1l-9.22-12.72a2.74,2.74,0,0,0-.92-.86,3.37,3.37,0,0,0-1.49-.26Zm0-3.52h5a12.23,12.23,0,0,0,3.71-.51,7.25,7.25,0,0,0,2.68-1.44,5.87,5.87,0,0,0,1.62-2.21,7.14,7.14,0,0,0,.55-2.85,5.67,5.67,0,0,0-2.09-4.78q-2.1-1.61-6.24-1.61h-5.26Zm77.52.59a20.7,20.7,0,0,1-1.26,7.35,16.69,16.69,0,0,1-3.57,5.74,16.05,16.05,0,0,1-5.54,3.74,19.91,19.91,0,0,1-14.31,0,16,16,0,0,1-5.53-3.74,16.86,16.86,0,0,1-3.58-5.74,22,22,0,0,1,0-14.69,17,17,0,0,1,3.58-5.76,16.22,16.22,0,0,1,5.53-3.77,19.77,19.77,0,0,1,14.31,0,16.26,16.26,0,0,1,5.54,3.77,16.87,16.87,0,0,1,3.57,5.76,20.68,20.68,0,0,1,1.26,7.34Zm-4.93,0a18.2,18.2,0,0,0-.89-5.88,12.58,12.58,0,0,0-2.53-4.42,11.16,11.16,0,0,0-4-2.77,14.42,14.42,0,0,0-10.4,0,11.19,11.19,0,0,0-4,2.77,12.3,12.3,0,0,0-2.54,4.42,19.66,19.66,0,0,0,0,11.76,12.3,12.3,0,0,0,2.54,4.4,10.9,10.9,0,0,0,4,2.75,14.56,14.56,0,0,0,10.4,0,10.86,10.86,0,0,0,4-2.75,12.58,12.58,0,0,0,2.53-4.4,18.2,18.2,0,0,0,.89-5.88Zm48.7-12.23a1.93,1.93,0,0,1-.47.56,1.09,1.09,0,0,1-.65.19,1.77,1.77,0,0,1-1-.42,14.92,14.92,0,0,0-1.41-.94A12.49,12.49,0,0,0,559,420a9,9,0,0,0-2.92-.41,8.65,8.65,0,0,0-2.86.42,6,6,0,0,0-2.06,1.19,4.81,4.81,0,0,0-1.26,1.74,5.59,5.59,0,0,0-.42,2.17,4,4,0,0,0,.74,2.47,6.37,6.37,0,0,0,1.93,1.68,14.29,14.29,0,0,0,2.73,1.19l3.13,1.06c1.06.37,2.1.77,3.12,1.23a10.65,10.65,0,0,1,2.73,1.73,7.69,7.69,0,0,1,1.93,2.55,8.48,8.48,0,0,1,.73,3.72,12,12,0,0,1-.79,4.38,10.12,10.12,0,0,1-2.32,3.56,10.71,10.71,0,0,1-3.74,2.38,13.84,13.84,0,0,1-5.06.87,15.32,15.32,0,0,1-6.28-1.26,14.66,14.66,0,0,1-4.85-3.39l1.39-2.28a1.54,1.54,0,0,1,.48-.47,1.17,1.17,0,0,1,.63-.19,2,2,0,0,1,1.19.56q.68.56,1.68,1.23a13.08,13.08,0,0,0,2.43,1.23,9.63,9.63,0,0,0,3.48.55,9.26,9.26,0,0,0,3-.47,6.41,6.41,0,0,0,2.28-1.33,5.73,5.73,0,0,0,1.42-2,6.89,6.89,0,0,0,.5-2.66,4.43,4.43,0,0,0-.73-2.64,6,6,0,0,0-1.93-1.72,13.25,13.25,0,0,0-2.71-1.19l-3.13-1a28.51,28.51,0,0,1-3.12-1.17,10.2,10.2,0,0,1-2.72-1.74,8,8,0,0,1-1.92-2.67,10.24,10.24,0,0,1,0-7.6,9.29,9.29,0,0,1,2.12-3.12,9.94,9.94,0,0,1,3.44-2.18,12.44,12.44,0,0,1,4.7-.83,14.82,14.82,0,0,1,5.43,1,12.55,12.55,0,0,1,4.29,2.74Zm0,0" transform="translate(32.99 18)"/><g class="cls-16"><path class="cls-13" d="M565.58,375c.57,34.74-51,34.74-50.41,0-.53-34.83,50.94-34.82,50.41,0Zm-7.1,0c1-27-37.28-26.92-36.25,0-1,26.84,37.32,26.86,36.25,0Zm0,0" transform="translate(32.99 18)"/></g><g class="cls-16"><rect class="cls-13" x="265.27" y="367.38" width="6.92" height="51.17"/></g><g class="cls-16"><path class="cls-17" d="M252.46,421.5c-1.51,2.12-3.54-1.36-5.57-1.54-4.72-2-12,2.16-8.78,7.58,4.06,4.61,12.74,3.26,15.58,9.44,4.94,13.76-14.14,19.77-22.32,10.26.81-1.17,1.87-4.2,3.7-2.38,5.09,5.62,18.13,2.91,14.1-6.13-2.53-3.26-7.36-3.29-10.88-5.07-14.95-9.24,3.33-25.79,15.34-14.44Zm49-5.58v3.92H284.37v11.81h13.82v3.77H284.37v12.15h17.06v3.92h-21.9V415.92ZM343.2,448a17.67,17.67,0,0,0,8.8-2.05v-7.87c-.56-.11-5.95.27-6.26-.27-.55-.35-.19-2.87-.29-3.4h10.92V448c-16.23,11.07-36.9-2.26-29.83-21.74,4-11.6,20.9-14.23,29.51-6.24-2.83,5.91-4.33.34-9.19,0C327.21,414.9,323.6,447.91,343.2,448Zm53.36-.3c14.33.49,8.07-23.48,9.36-31.72h4.78c-.83,12.05,5,36.19-14.14,36-19.12.21-13.35-24-14.16-36h4.78C388.46,424.27,382.21,448.09,396.56,447.67Zm46.68-11v14.86h-4.79v-35.6c5.79.29,15.29-1.21,19.93,2.66,6.38,5.34,2.42,16.23-5.62,17.29,1,0,11.11,14.75,12,15.65-1.46-.24-5.41.7-6.21-1-.23-.15-10-14.27-10.14-13.58C447.56,436.43,444.22,436.75,443.24,436.66Zm0-3.52c5.33.3,13.78.25,13.59-7,.21-7.23-8.3-6.43-13.59-6.39Zm77.52.59c.59,24.07-35.64,24.07-35.05,0-.56-24.13,35.62-24.13,35.05,0Zm-4.93,0c.89-18.67-26.08-18.64-25.21,0-.88,18.58,26.11,18.6,25.21,0Zm48.7-12.23C563,423.62,561,420.13,559,420c-4.73-2-12,2.16-8.78,7.58,4,4.61,12.73,3.26,15.57,9.44,5,13.75-14.15,19.77-22.31,10.26.8-1.17,1.87-4.2,3.69-2.38,5.1,5.62,18.12,2.92,14.11-6.13-2.54-3.26-7.37-3.28-10.89-5.07-15-9.23,3.33-25.79,15.34-14.44Zm0,0" transform="translate(32.99 18)"/></g><path class="cls-11" d="M285.19,170.9H242.84a12.11,12.11,0,0,0-12,12V320.79a11.33,11.33,0,0,0,3.54,8.42,11.72,11.72,0,0,0,8.43,3.55h42.35a11.72,11.72,0,0,0,8.43-3.55,11.36,11.36,0,0,0,3.54-8.42V182.88a12.11,12.11,0,0,0-12-12Zm0,0" transform="translate(32.99 18)"/><path class="cls-12" d="M304,180.44a8.64,8.64,0,0,0-2-1.11,19.58,19.58,0,0,1,.44,3.55v41.68l42.13,30.82a89.39,89.39,0,0,0,18,10.2c6,2.44,11.53,4,15.3,4H420a5.55,5.55,0,0,0,2.21-.22,8.64,8.64,0,0,0-.44-1.33c-1.33-2.22-4.21-5.1-8.65-8.43L311.57,185.31a55,55,0,0,0-7.54-4.87Zm0,0" transform="translate(32.99 18)"/><path class="cls-12" d="M564.31,170.23H522.19c-3.77,0-9.31,1.56-15.3,4a89.92,89.92,0,0,0-18,10.21l-84,61.63,12,8.65c4.66,3.55,7.76,6.65,9.53,9.32a9.06,9.06,0,0,1,1.55,4,52.26,52.26,0,0,0,10-3.32,100.59,100.59,0,0,0,18-10l101.55-74.5c4.43-3.32,7.32-6.21,8.65-8.42a3.21,3.21,0,0,0,.44-1.33,5.38,5.38,0,0,0-2.22-.23Zm0,0" transform="translate(32.99 18)"/><path class="cls-12" d="M566.56,179.33a2.82,2.82,0,0,1-1.11,1.11,41.7,41.7,0,0,1-5.54,4.65l-59.43,43.46v92A12.73,12.73,0,0,0,504,329a12.24,12.24,0,0,0,8.65,3.55H555a12.12,12.12,0,0,0,12-12V182.65A17.29,17.29,0,0,0,566.56,179.33Z" transform="translate(32.99 18)"/></g><g id="Layer_5" data-name="Layer 5"><path class="cls-11" d="M258.87,348.75h-7.31a1.27,1.27,0,0,0-.9.37,1.22,1.22,0,0,0-.37.86v49.95a1.24,1.24,0,0,0,.37.87,1.27,1.27,0,0,0,.9.37h7.31a1.27,1.27,0,0,0,.9-.37,1.2,1.2,0,0,0,.37-.87V350a1.18,1.18,0,0,0-.37-.86,1.27,1.27,0,0,0-.9-.37Zm0,0" transform="translate(32.99 18)"/><path class="cls-12" d="M306.85,399.92V353.19L297,367v32.92a1.24,1.24,0,0,0,.37.88,1.31,1.31,0,0,0,.9.37h7.31a1.29,1.29,0,0,0,.89-.37,1.25,1.25,0,0,0,.38-.88Zm0,0" transform="translate(32.99 18)"/><path class="cls-12" d="M281.94,380.26,262.7,352.77v13.28l8.93,12.75a5.28,5.28,0,0,0,1.6,1.43,3.64,3.64,0,0,0,1.68.57h7.32a1.81,1.81,0,0,0-.29-.54Zm0,0" transform="translate(32.99 18)"/><path class="cls-12" d="M306.93,348.8h-7.32a3.61,3.61,0,0,0-1.68.57,5.5,5.5,0,0,0-1.61,1.45l-16.23,23.51,3.77,5.45a5.35,5.35,0,0,1,.59,1.13,4.9,4.9,0,0,0,1.21-1.19l21-30.38a2.45,2.45,0,0,0,.29-.54Zm0,0" transform="translate(32.99 18)"/><path class="cls-11" d="M565.58,375c.57,34.74-51,34.74-50.41,0-.53-34.83,50.94-34.82,50.41,0Zm-7.1,0c1-27-37.28-26.92-36.25,0-1,26.84,37.32,26.86,36.25,0Zm0,0" transform="translate(32.99 18)"/><path class="cls-11" d="M477.74,400.55h-5.35a2.31,2.31,0,0,1-1.51-.47,2.86,2.86,0,0,1-.85-1.17l-4.79-12.35H442.3l-4.77,12.35a2.83,2.83,0,0,1-.86,1.14,2.32,2.32,0,0,1-1.5.5h-5.35l20.44-51.17h7ZM444.23,381.6h19.09l-8-20.83a39.58,39.58,0,0,1-1.53-4.81c-.27,1-.52,1.86-.77,2.68s-.49,1.55-.73,2.17Zm0,0" transform="translate(32.99 18)"/><path class="cls-13" d="M477.74,400.55h-5.35a2.31,2.31,0,0,1-1.51-.47,2.86,2.86,0,0,1-.85-1.17l-4.79-12.35H442.3l-4.77,12.35a2.83,2.83,0,0,1-.86,1.14,2.32,2.32,0,0,1-1.5.5h-5.35l20.44-51.17h7ZM444.23,381.6h19.09l-8-20.82a40.38,40.38,0,0,1-1.53-4.82c-.27,1-.52,1.86-.77,2.68s-.49,1.55-.73,2.17Zm0,0" transform="translate(32.99 18)"/><path class="cls-11" d="M404.34,375a28.87,28.87,0,0,1-1.82,10.47,23.37,23.37,0,0,1-5.14,8.08,22.84,22.84,0,0,1-8,5.19,27.73,27.73,0,0,1-10.27,1.84H360V349.38h19.13a27.73,27.73,0,0,1,10.27,1.84,22.75,22.75,0,0,1,8,5.21,23.42,23.42,0,0,1,5.14,8.09A28.83,28.83,0,0,1,404.34,375Zm-7.1,0a25.5,25.5,0,0,0-1.29-8.4,17.59,17.59,0,0,0-3.64-6.27,15.57,15.57,0,0,0-5.7-3.93,19.86,19.86,0,0,0-7.46-1.36H367v39.9h12.17a19.66,19.66,0,0,0,7.46-1.36,15.5,15.5,0,0,0,5.7-3.9,17.55,17.55,0,0,0,3.64-6.26,25.5,25.5,0,0,0,1.29-8.42Zm0,0" transform="translate(32.99 18)"/><path class="cls-13" d="M404.34,375a28.87,28.87,0,0,1-1.82,10.47,23.37,23.37,0,0,1-5.14,8.08,22.84,22.84,0,0,1-8,5.19,27.73,27.73,0,0,1-10.27,1.84H360V349.38h19.13a27.73,27.73,0,0,1,10.27,1.84,22.75,22.75,0,0,1,8,5.21,23.42,23.42,0,0,1,5.14,8.09A28.83,28.83,0,0,1,404.34,375Zm-7.1,0a25.5,25.5,0,0,0-1.29-8.4,17.59,17.59,0,0,0-3.64-6.27,15.45,15.45,0,0,0-5.7-3.93,19.86,19.86,0,0,0-7.46-1.35H367v39.89h12.17a19.66,19.66,0,0,0,7.46-1.36,15.5,15.5,0,0,0,5.7-3.9,17.55,17.55,0,0,0,3.64-6.26,25.5,25.5,0,0,0,1.29-8.42Zm0,0" transform="translate(32.99 18)"/><path class="cls-11" d="M514.31,349.31v5.85H497.79v45.35h-6.92V355.16H474.28v-5.85Zm0,0" transform="translate(32.99 18)"/><path class="cls-13" d="M514.31,349.31v5.85H497.79v45.35h-6.92V355.16H474.28v-5.85Zm0,0" transform="translate(32.99 18)"/><rect class="cls-14" x="448.04" y="367.38" width="6.92" height="51.17"/><rect class="cls-13" x="448.04" y="367.38" width="6.92" height="51.17"/><path class="cls-11" d="M350.07,349.38V355H325.52v17H345.4v5.42H325.52v17.49h24.55v5.64H318.56V349.38Zm0,0" transform="translate(32.99 18)"/><path class="cls-13" d="M350.07,349.38V355H325.52v17H345.4v5.42H325.52v17.49h24.55v5.64H318.56V349.38Zm0,0" transform="translate(32.99 18)"/><rect class="cls-14" x="265.27" y="367.38" width="6.92" height="51.17"/><path class="cls-15" d="M252.46,421.5a2.1,2.1,0,0,1-.47.56,1.09,1.09,0,0,1-.65.19,1.77,1.77,0,0,1-1-.42,12.93,12.93,0,0,0-1.42-.94,11.77,11.77,0,0,0-2.06-.93,8.9,8.9,0,0,0-2.92-.41,8.63,8.63,0,0,0-2.85.42,6.15,6.15,0,0,0-2.07,1.19,4.78,4.78,0,0,0-1.25,1.74,5.59,5.59,0,0,0-.42,2.17,4,4,0,0,0,.73,2.47,6.41,6.41,0,0,0,1.94,1.68,14.29,14.29,0,0,0,2.73,1.19l3.12,1.06c1.07.37,2.11.77,3.13,1.23a10.65,10.65,0,0,1,2.73,1.73,7.82,7.82,0,0,1,1.93,2.55,8.48,8.48,0,0,1,.73,3.72,12.2,12.2,0,0,1-.79,4.38,10.12,10.12,0,0,1-2.32,3.56,10.75,10.75,0,0,1-3.75,2.38,13.74,13.74,0,0,1-5.05.87,15.32,15.32,0,0,1-6.28-1.26,14.7,14.7,0,0,1-4.86-3.39l1.39-2.28a1.68,1.68,0,0,1,.49-.47,1.17,1.17,0,0,1,.63-.19,2,2,0,0,1,1.19.56,20.13,20.13,0,0,0,1.68,1.23,13.08,13.08,0,0,0,2.43,1.23,9.63,9.63,0,0,0,3.48.55,9.26,9.26,0,0,0,3.05-.47,6.5,6.5,0,0,0,2.28-1.33,5.73,5.73,0,0,0,1.42-2,6.89,6.89,0,0,0,.5-2.66,4.36,4.36,0,0,0-.74-2.64,5.93,5.93,0,0,0-1.92-1.72,13.25,13.25,0,0,0-2.71-1.19l-3.13-1a28.51,28.51,0,0,1-3.12-1.17,10.2,10.2,0,0,1-2.72-1.74,7.75,7.75,0,0,1-1.92-2.67,10.11,10.11,0,0,1,0-7.6,9.27,9.27,0,0,1,2.11-3.12,10.25,10.25,0,0,1,3.45-2.19,12.62,12.62,0,0,1,4.69-.82,14.78,14.78,0,0,1,5.43,1,12.35,12.35,0,0,1,4.3,2.74Zm49-5.58v3.92H284.37v11.81h13.82v3.77H284.37v12.15h17.06v3.92h-21.9V415.92ZM343.2,448a23.92,23.92,0,0,0,2.64-.13,15.28,15.28,0,0,0,2.27-.41,16.32,16.32,0,0,0,2-.64c.62-.26,1.26-.54,1.88-.87v-7.87h-5.5a1.05,1.05,0,0,1-.76-.27.92.92,0,0,1-.29-.67v-2.73h10.92v13.67a19.86,19.86,0,0,1-2.79,1.68,18.81,18.81,0,0,1-3.1,1.2,23.07,23.07,0,0,1-3.54.72,32.51,32.51,0,0,1-4.09.24,18.4,18.4,0,0,1-7.1-1.33,16.42,16.42,0,0,1-5.56-3.72,16.81,16.81,0,0,1-3.62-5.75,20.13,20.13,0,0,1-1.31-7.37,20.67,20.67,0,0,1,1.28-7.42,16,16,0,0,1,9.38-9.46,20.44,20.44,0,0,1,7.53-1.32,22.75,22.75,0,0,1,3.91.32,17.66,17.66,0,0,1,3.37.9,16.22,16.22,0,0,1,2.86,1.42,17.94,17.94,0,0,1,2.46,1.9l-1.37,2.15a1.26,1.26,0,0,1-1.09.65,1.87,1.87,0,0,1-.87-.26c-.41-.24-.88-.52-1.39-.85a12.27,12.27,0,0,0-1.86-1,14.54,14.54,0,0,0-2.61-.77,16.79,16.79,0,0,0-3.56-.33,14.48,14.48,0,0,0-5.44,1,11.37,11.37,0,0,0-4.14,2.8,12.44,12.44,0,0,0-2.63,4.42,19.08,19.08,0,0,0,0,11.83,12.7,12.7,0,0,0,2.69,4.48,11.76,11.76,0,0,0,4.12,2.81,13.91,13.91,0,0,0,5.26,1Zm53.36-.3a10.08,10.08,0,0,0,3.95-.74,8.31,8.31,0,0,0,2.94-2.08,9.15,9.15,0,0,0,1.84-3.21,12.67,12.67,0,0,0,.63-4.09V416h4.78v21.62a16.34,16.34,0,0,1-1,5.71,13.44,13.44,0,0,1-2.8,4.55,13,13,0,0,1-4.46,3,16.54,16.54,0,0,1-11.81,0,13.12,13.12,0,0,1-4.47-3,13.31,13.31,0,0,1-2.81-4.55,16.34,16.34,0,0,1-1-5.71V416h4.78v21.58a12.67,12.67,0,0,0,.64,4.09,9.1,9.1,0,0,0,1.84,3.2,8.16,8.16,0,0,0,2.95,2.09,9.77,9.77,0,0,0,3.95.76Zm46.68-11v14.86h-4.79v-35.6H448.5a21.65,21.65,0,0,1,5.82.69,11,11,0,0,1,4.06,2,7.8,7.8,0,0,1,2.37,3.11,10.57,10.57,0,0,1,.77,4.09,10.18,10.18,0,0,1-.6,3.53,9.44,9.44,0,0,1-1.72,2.94,10.46,10.46,0,0,1-2.75,2.23,13.93,13.93,0,0,1-3.69,1.39,5,5,0,0,1,1.59,1.51l10.37,14.14h-4.27a2.11,2.11,0,0,1-1.94-1l-9.22-12.72a2.74,2.74,0,0,0-.92-.86,3.37,3.37,0,0,0-1.49-.26Zm0-3.52h5a12.23,12.23,0,0,0,3.71-.51,7.25,7.25,0,0,0,2.68-1.44,5.87,5.87,0,0,0,1.62-2.21,7.14,7.14,0,0,0,.55-2.85,5.67,5.67,0,0,0-2.09-4.78q-2.1-1.61-6.24-1.61h-5.26Zm77.52.59a20.7,20.7,0,0,1-1.26,7.35,16.69,16.69,0,0,1-3.57,5.74,16.05,16.05,0,0,1-5.54,3.74,19.91,19.91,0,0,1-14.31,0,16,16,0,0,1-5.53-3.74,16.86,16.86,0,0,1-3.58-5.74,22,22,0,0,1,0-14.69,17,17,0,0,1,3.58-5.76,16.22,16.22,0,0,1,5.53-3.77,19.77,19.77,0,0,1,14.31,0,16.26,16.26,0,0,1,5.54,3.77,16.87,16.87,0,0,1,3.57,5.76,20.68,20.68,0,0,1,1.26,7.34Zm-4.93,0a18.2,18.2,0,0,0-.89-5.88,12.58,12.58,0,0,0-2.53-4.42,11.16,11.16,0,0,0-4-2.77,14.42,14.42,0,0,0-10.4,0,11.19,11.19,0,0,0-4,2.77,12.3,12.3,0,0,0-2.54,4.42,19.66,19.66,0,0,0,0,11.76,12.3,12.3,0,0,0,2.54,4.4,10.9,10.9,0,0,0,4,2.75,14.56,14.56,0,0,0,10.4,0,10.86,10.86,0,0,0,4-2.75,12.58,12.58,0,0,0,2.53-4.4,18.2,18.2,0,0,0,.89-5.88Zm48.7-12.23a1.93,1.93,0,0,1-.47.56,1.09,1.09,0,0,1-.65.19,1.77,1.77,0,0,1-1-.42,14.92,14.92,0,0,0-1.41-.94A12.49,12.49,0,0,0,559,420a9,9,0,0,0-2.92-.41,8.65,8.65,0,0,0-2.86.42,6,6,0,0,0-2.06,1.19,4.81,4.81,0,0,0-1.26,1.74,5.59,5.59,0,0,0-.42,2.17,4,4,0,0,0,.74,2.47,6.37,6.37,0,0,0,1.93,1.68,14.29,14.29,0,0,0,2.73,1.19l3.13,1.06c1.06.37,2.1.77,3.12,1.23a10.65,10.65,0,0,1,2.73,1.73,7.69,7.69,0,0,1,1.93,2.55,8.48,8.48,0,0,1,.73,3.72,12,12,0,0,1-.79,4.38,10.12,10.12,0,0,1-2.32,3.56,10.71,10.71,0,0,1-3.74,2.38,13.84,13.84,0,0,1-5.06.87,15.32,15.32,0,0,1-6.28-1.26,14.66,14.66,0,0,1-4.85-3.39l1.39-2.28a1.54,1.54,0,0,1,.48-.47,1.17,1.17,0,0,1,.63-.19,2,2,0,0,1,1.19.56q.68.56,1.68,1.23a13.08,13.08,0,0,0,2.43,1.23,9.63,9.63,0,0,0,3.48.55,9.26,9.26,0,0,0,3-.47,6.41,6.41,0,0,0,2.28-1.33,5.73,5.73,0,0,0,1.42-2,6.89,6.89,0,0,0,.5-2.66,4.43,4.43,0,0,0-.73-2.64,6,6,0,0,0-1.93-1.72,13.25,13.25,0,0,0-2.71-1.19l-3.13-1a28.51,28.51,0,0,1-3.12-1.17,10.2,10.2,0,0,1-2.72-1.74,8,8,0,0,1-1.92-2.67,10.24,10.24,0,0,1,0-7.6,9.29,9.29,0,0,1,2.12-3.12,10.1,10.1,0,0,1,3.44-2.19,12.64,12.64,0,0,1,4.7-.82,14.82,14.82,0,0,1,5.43,1,12.4,12.4,0,0,1,4.29,2.74Zm0,0" transform="translate(32.99 18)"/><g class="cls-16"><path class="cls-13" d="M565.58,375c.57,34.74-51,34.74-50.41,0-.53-34.83,50.94-34.82,50.41,0Zm-7.1,0c1-27-37.28-26.92-36.25,0-1,26.84,37.32,26.86,36.25,0Zm0,0" transform="translate(32.99 18)"/></g><g class="cls-16"><rect class="cls-13" x="265.27" y="367.38" width="6.92" height="51.17"/></g><g class="cls-16"><path class="cls-17" d="M252.46,421.5c-1.51,2.12-3.54-1.36-5.57-1.54-4.72-2-12,2.16-8.78,7.58,4.06,4.61,12.74,3.26,15.58,9.44,4.94,13.76-14.14,19.77-22.32,10.26.81-1.17,1.87-4.2,3.7-2.38,5.09,5.62,18.13,2.91,14.1-6.13-2.53-3.26-7.36-3.29-10.88-5.07-14.95-9.24,3.33-25.79,15.34-14.44Zm49-5.58v3.92H284.37v11.81h13.82v3.77H284.37v12.15h17.06v3.92h-21.9V415.92ZM343.2,448a17.67,17.67,0,0,0,8.8-2.05v-7.87c-.56-.11-5.95.27-6.26-.27-.55-.35-.19-2.87-.29-3.4h10.92V448c-16.23,11.07-36.9-2.26-29.83-21.74,4-11.6,20.9-14.23,29.51-6.24-2.83,5.91-4.33.34-9.19,0C327.21,414.9,323.6,447.91,343.2,448Zm53.36-.3c14.33.49,8.07-23.48,9.36-31.72h4.78c-.83,12.05,5,36.19-14.14,36-19.12.21-13.35-24-14.16-36h4.78C388.46,424.27,382.21,448.09,396.56,447.67Zm46.68-11v14.86h-4.79v-35.6c5.79.29,15.29-1.21,19.93,2.66,6.38,5.34,2.42,16.23-5.62,17.29,1,0,11.11,14.75,12,15.65-1.46-.24-5.41.7-6.21-1-.23-.15-10-14.27-10.14-13.58C447.56,436.43,444.22,436.75,443.24,436.66Zm0-3.52c5.33.3,13.78.25,13.59-7,.21-7.23-8.3-6.43-13.59-6.39Zm77.52.59c.59,24.07-35.64,24.07-35.05,0-.56-24.13,35.62-24.13,35.05,0Zm-4.93,0c.89-18.67-26.08-18.64-25.21,0-.88,18.58,26.11,18.6,25.21,0Zm48.7-12.23C563,423.62,561,420.13,559,420c-4.73-2-12,2.16-8.78,7.58,4,4.61,12.73,3.26,15.57,9.44,5,13.75-14.15,19.77-22.31,10.26.8-1.17,1.87-4.2,3.69-2.38,5.1,5.62,18.12,2.92,14.11-6.13-2.54-3.26-7.37-3.28-10.89-5.07-15-9.23,3.33-25.79,15.34-14.44Zm0,0" transform="translate(32.99 18)"/></g><path class="cls-11" d="M285.19,170.9H242.84a12.11,12.11,0,0,0-12,12V320.79a11.33,11.33,0,0,0,3.54,8.42,11.72,11.72,0,0,0,8.43,3.55h42.35a11.72,11.72,0,0,0,8.43-3.55,11.36,11.36,0,0,0,3.54-8.42V182.88a12.11,12.11,0,0,0-12-12Zm0,0" transform="translate(32.99 18)"/><path class="cls-12" d="M304,180.44a8.64,8.64,0,0,0-2-1.11,19.58,19.58,0,0,1,.44,3.55v41.68l42.13,30.82a89.39,89.39,0,0,0,18,10.2c6,2.44,11.53,4,15.3,4H420a5.55,5.55,0,0,0,2.21-.22,8.64,8.64,0,0,0-.44-1.33c-1.33-2.22-4.21-5.1-8.65-8.43L311.57,185.31a55,55,0,0,0-7.54-4.87Zm0,0" transform="translate(32.99 18)"/><path class="cls-18" d="M457.49,207.69l-1.3.6c-3.18,1.53-7.4,2.5-10.73.93-2.06-1-3.46-2.48-5.19-3.82-1.41-1.09-2.78-2.26-4.21-3.3a57.93,57.93,0,0,1-5.42-4.57c-2.56-2.4-3.83-5.57-6.21-8.09a15.83,15.83,0,0,0-2.36-1.64,9.11,9.11,0,0,1-3.22-4.4c-.07-.38.06-1.22-.53-1s-.24,2.37-.2,2.81a25.15,25.15,0,0,0,.76,3.94c.44,1.79.56,3.86,1.6,5.42a30.62,30.62,0,0,0,3.69,3.78c1.34,1.4,2.46,2,3,3.79a24.22,24.22,0,0,0,5,8.16c2.08,2.44,3.7,5.13,6.12,7.37,1.7,1.57,3.25,3.47,5.64,4.1,2.55.66,5.31.24,7.9.11s5-1.77,7.36-2.6c1.42-.49,2.93-.93,4.37-1.44,2.43-.84,5.05-1.46,7.41-2.35,3.21-1.21,6.2-3.5,7.38-6.7,1-2.73-2-4.67-4.47-5.09-5.44-.93-11.58,1.78-16.37,4Z" transform="translate(32.99 18)"/><polygon class="cls-18" points="455.37 217.59 437.68 219.4 431.25 196.27 448.98 194.15 455.37 217.59"/><path class="cls-18" d="M327,225.12c-3.93.53-6.92-1.85-7-5.56-.1-6.36-5.69-11.37-4.54-18,.24-1.37,2.26-2.63,3.41-1.68,1.4,1.15.86,3.52,1.71,5,1.17,2,3,3.07,4.67,4.62,1.22,1.14,2.14,2.57,3.38,3.7s2.1,1.12,3.64,1.29c2.46.26,5,.76,7.43,1.2,5.64,1,11.39.79,17.1.85a88.49,88.49,0,0,0,13.9-.75c4.49-.67,9.25-1.52,13.69-.14,2.45.76,4.63,2,7,2.95s5.09,1.16,7.59,1.86a72.68,72.68,0,0,0,8.42,2.27c7.11,1.07,19.84,3.71,14.34,12.79-3.33,5.51-8.49,7.25-14.88,7.31-4.16,0-5.27-.54-8.42-3.06a35.38,35.38,0,0,0-9.44-5.78c-2.45-.93-5.1-1.29-7.6-2.08-3.24-1-7-2.06-10.35-1a43.62,43.62,0,0,1-15.17,2.23,40.85,40.85,0,0,1-12.4-3c-4.53-1.77-10.27-6.34-15.39-5.19C327.71,225,327.34,225.07,327,225.12Z" transform="translate(32.99 18)"/><path class="cls-18" d="M494.63,178.52c-.49-3.35-3.88-7.58-7.2-8.79-7.14-2.62-16.13-1.61-21.22,4.27a3.1,3.1,0,0,0-1,2.8c0,.58,1.07.79,1.1,1.5s-.94,2-1.13,2.8c-.32,1.33.76,2.43.63,3.54-.11.85-1.19,2.4-1.6,3.29-.2.41-1.13,1.33-1,1.74.24,1.05,1.5.82,2.29,1.14a1.64,1.64,0,0,1,.74,1.78,6.82,6.82,0,0,0-.2,1,.71.71,0,0,0,.06.38c.05.09.18.13.21.24s-.08.18-.09.29.22.57.3.79a2.17,2.17,0,0,1,.14,1,4,4,0,0,0,0,1.75,2.29,2.29,0,0,0,.62,1,4.64,4.64,0,0,0,2.35,1.06c.55.12,1.2.3,1.91.51-.63,3.36-3.17,3.73-6,5.22-3.84,2-7.6,4.07-11.37,6.17-2.58,1.44-4.58,3.66-7,5.13s-5.52,2-8.13,3.34a32.12,32.12,0,0,0-6.3,4.6c-3.64,3.16-9.25,3.15-13.93,3.59a20,20,0,0,1-4.31-.05c-5.13-.55-10-2.29-15.2-3.08a71.09,71.09,0,0,1-8.41-2.27c-2.5-.69-5.17-.9-7.59-1.85s-4.55-2.19-7-3c-4.43-1.38-9.19-.53-13.68.13a88.49,88.49,0,0,1-13.9.76c-5.72-.07-11.46.15-17.1-.86-2.23-.4-4.5-.63-6.73-1.06a11.24,11.24,0,0,1-3.15-.74c-.92-.53-1.26-1.6-1.87-2.38a11.2,11.2,0,0,0-3.12-2.4,13.28,13.28,0,0,1-4.25-4.22c-.85-1.44-.31-3.81-1.71-5-1.16-.95-3.18.31-3.41,1.68-1.15,6.65,4.44,11.66,4.54,18,.05,3.72,3,6.1,7,5.57.37,0,.74-.12,1.11-.2,5.13-1.15,10.87,3.41,15.4,5.19a40.78,40.78,0,0,0,12.4,3,43.77,43.77,0,0,0,15.16-2.23c3.37-1.1,7.12-.05,10.36,1,2.5.78,5.15,1.15,7.6,2.08,5.46,2.07,9.88,6.1,14.17,9.79,3.75,3.22,7.46,6.61,12,8.78,5.51,2.62,11.87,3.27,18,2.74a43.94,43.94,0,0,0,8.84-1.59,121.87,121.87,0,0,0,14.84-5.58c3.1-1.44,5.9-3.42,9-4.92,7.68-3.76,16.15-6.47,22.25-12.59,3.93-3.94,6.53-8.91,8.5-13.95,1.47-3.77,3-7.84,1.5-11.79-1.47-3.79-.37-8.25-1.3-12.3.7-2.49.69-5.21,2-7.54C492.2,184.93,495.13,182.06,494.63,178.52Z" transform="translate(32.99 18)"/><polygon class="cls-18" points="452.57 217.82 434.88 219.64 428.44 196.5 446.17 194.38 452.57 217.82"/><path class="cls-18" d="M481,209.48c2.07,2.71,2.06,4.33.2,7.3s-4.66,4.93-6.82,7.61c-1.89,2.33-3.1,4.49-5.76,6.21a54.37,54.37,0,0,1-23.22,8c-3.29.39-6.77,1.56-9.31-.19-3.28-2.24-4.73-4.9-6.07-8.34-2.2-5.65-5.24-11-7.41-16.59-1-2.48-1.79-5.82-4.12-7.17s-5-1.7-6.51-3.8c-.37-.5-1.76-3.54-.43-3.61.07-.62-.27-.87.11-1.43s.51-.5.46-1.34a2,2,0,0,1,.55-1.43c.13-.19.29-.07.36-.32s-.17-.49-.2-.64c-.16-.91.15-1.58,1.23-1.57,1.39,0,2.46,1.22,3.88,1.07-.39-.61-.88-1.9.49-1.62a13.15,13.15,0,0,1,3.45,2.09,9.82,9.82,0,0,1,2.52,3.21,53.09,53.09,0,0,1,2.75,7.44c1.75,4.92,5,9.77,8.28,14.06,1.65,2.2,3.6,4.94,6,6.5,4.32,2.84,8.41-3.22,11.3-5.57a50.11,50.11,0,0,1,11.77-7.28,28,28,0,0,0,5.89-3C473.34,206.65,478.2,205.89,481,209.48Z" transform="translate(32.99 18)"/><path class="cls-12" d="M564.31,170.23H522.19c-3.77,0-9.31,1.56-15.3,4a89.92,89.92,0,0,0-18,10.21l-84,61.63,12,8.65c4.66,3.55,7.76,6.65,9.53,9.32a9.06,9.06,0,0,1,1.55,4,52.26,52.26,0,0,0,10-3.32,100.59,100.59,0,0,0,18-10l101.55-74.5c4.43-3.32,7.32-6.21,8.65-8.42a3.21,3.21,0,0,0,.44-1.33,5.38,5.38,0,0,0-2.22-.23Zm0,0" transform="translate(32.99 18)"/><path class="cls-12" d="M566.56,179.33a2.82,2.82,0,0,1-1.11,1.11,41.7,41.7,0,0,1-5.54,4.65l-59.43,43.46v92A12.73,12.73,0,0,0,504,329a12.24,12.24,0,0,0,8.65,3.55H555a12.12,12.12,0,0,0,12-12V182.65A17.29,17.29,0,0,0,566.56,179.33Z" transform="translate(32.99 18)"/></g></svg>