<svg xmlns="http://www.w3.org/2000/svg" xmlns:xlink="http://www.w3.org/1999/xlink" viewBox="0 0 590 498.46"><defs><style>.cls-1,.cls-4,.cls-8{fill:none;}.cls-2,.cls-5{fill:#00488b;}.cls-2,.cls-3,.cls-6{fill-rule:evenodd;}.cls-3{fill:#008bc9;}.cls-4{stroke:#00488b;stroke-width:2.13px;}.cls-6{fill:#008ac8;}.cls-7{clip-path:url(#clip-path);}.cls-8{stroke:#008bc9;stroke-width:0.53px;}.cls-9{fill:#858e78;stroke:#fff;stroke-miterlimit:10;stroke-width:0.5px;}</style><clipPath id="clip-path" transform="translate(-4.93 -2.91)"><rect class="cls-1" x="4.93" y="6.44" width="590" height="497.12"/></clipPath></defs><g id="Marca"><path class="cls-2" d="M54.09,319.78H41.25a2.28,2.28,0,0,0-1.57.64,2.17,2.17,0,0,0-.65,1.52v87.68a2.17,2.17,0,0,0,.65,1.52,2.23,2.23,0,0,0,1.57.64H54.09a2.23,2.23,0,0,0,1.57-.64,2.08,2.08,0,0,0,.65-1.52V321.94a2.08,2.08,0,0,0-.65-1.52,2.28,2.28,0,0,0-1.57-.64Zm0,0" transform="translate(-4.93 -2.91)"/><path class="cls-3" d="M138.3,409.6v-82L121,351.81V409.6a2.2,2.2,0,0,0,.66,1.54,2.26,2.26,0,0,0,1.57.64h12.84a2.23,2.23,0,0,0,1.56-.64,2.16,2.16,0,0,0,.66-1.54Zm0,0" transform="translate(-4.93 -2.91)"/><path class="cls-3" d="M94.59,375.09,60.81,326.84v23.3l15.67,22.38A9.29,9.29,0,0,0,79.3,375a6.38,6.38,0,0,0,3,1H95.09a3.22,3.22,0,0,0-.5-.94Zm0,0" transform="translate(-4.93 -2.91)"/><path class="cls-3" d="M138.44,319.86H125.59a6.18,6.18,0,0,0-2.94,1,9.25,9.25,0,0,0-2.82,2.54l-28.5,41.27L98,374.24a9.25,9.25,0,0,1,1,2,8.83,8.83,0,0,0,2.13-2.09l36.82-53.32a4,4,0,0,0,.5-.95Zm0,0" transform="translate(-4.93 -2.91)"/><path class="cls-2" d="M592.45,365.85c1,61-89.51,61-88.5,0-.92-61.13,89.42-61.12,88.5,0Zm-12.47,0c1.83-47.31-65.43-47.26-63.63,0-1.83,47.12,65.5,47.15,63.63,0Zm0,0" transform="translate(-4.93 -2.91)"/><path class="cls-2" d="M438.25,410.7h-9.39a4,4,0,0,1-2.63-.82,5.12,5.12,0,0,1-1.51-2.06l-8.39-21.68H376.06l-8.39,21.68a4.9,4.9,0,0,1-1.5,2,4,4,0,0,1-2.64.88h-9.39L390,320.88h12.34Zm-58.81-33.26H413l-14.09-36.56a66.67,66.67,0,0,1-2.69-8.45c-.47,1.7-.91,3.27-1.35,4.71s-.87,2.72-1.29,3.8Zm0,0" transform="translate(-4.93 -2.91)"/><path class="cls-4" d="M438.25,410.7h-9.39a4,4,0,0,1-2.63-.82,5.12,5.12,0,0,1-1.51-2.06l-8.39-21.68H376.06l-8.39,21.68a4.9,4.9,0,0,1-1.5,2,4,4,0,0,1-2.64.88h-9.39L390,320.88h12.34Zm-58.81-33.26H413l-14.09-36.56a66.67,66.67,0,0,1-2.69-8.45c-.47,1.71-.91,3.27-1.35,4.71s-.87,2.72-1.29,3.8Zm0,0" transform="translate(-4.93 -2.91)"/><path class="cls-2" d="M309.42,365.81a50.47,50.47,0,0,1-3.19,18.36,41.06,41.06,0,0,1-9,14.19,40.3,40.3,0,0,1-14,9.1,48.54,48.54,0,0,1-18,3.24H231.64V320.88h33.57a48.34,48.34,0,0,1,18,3.24,40,40,0,0,1,14,9.14,41.25,41.25,0,0,1,9,14.19,50.58,50.58,0,0,1,3.19,18.36Zm-12.47,0a45.08,45.08,0,0,0-2.25-14.76,30.65,30.65,0,0,0-6.39-11,27.08,27.08,0,0,0-10-6.89,34.63,34.63,0,0,0-13.09-2.39H243.85v70h21.36a34.63,34.63,0,0,0,13.09-2.39,27.1,27.1,0,0,0,10-6.85,30.6,30.6,0,0,0,6.39-11A45.17,45.17,0,0,0,297,365.81Zm0,0" transform="translate(-4.93 -2.91)"/><path class="cls-4" d="M309.42,365.81a50.56,50.56,0,0,1-3.19,18.37,41.11,41.11,0,0,1-9,14.18,40.3,40.3,0,0,1-14,9.1,48.54,48.54,0,0,1-18,3.24H231.64V320.88h33.57a48.34,48.34,0,0,1,18,3.24,40,40,0,0,1,14,9.14,41.25,41.25,0,0,1,9,14.19,50.58,50.58,0,0,1,3.19,18.36Zm-12.47,0a45.08,45.08,0,0,0-2.25-14.76,30.65,30.65,0,0,0-6.39-11,27.22,27.22,0,0,0-10-6.9,34.82,34.82,0,0,0-13.09-2.38H243.85v70h21.36a34.82,34.82,0,0,0,13.09-2.38,27.34,27.34,0,0,0,10-6.85,30.73,30.73,0,0,0,6.39-11A45.17,45.17,0,0,0,297,365.81Zm0,0" transform="translate(-4.93 -2.91)"/><path class="cls-2" d="M502.45,320.76V331h-29v79.6H461.3V331H432.18V320.76Zm0,0" transform="translate(-4.93 -2.91)"/><path class="cls-4" d="M502.45,320.76V331h-29v79.6H461.3V331H432.18V320.76Zm0,0" transform="translate(-4.93 -2.91)"/><rect class="cls-5" x="323.28" y="317.98" width="12.14" height="89.81"/><rect class="cls-4" x="323.28" y="317.98" width="12.14" height="89.81"/><path class="cls-2" d="M214.16,320.88v9.89H171.07v29.82H206v9.52H171.07V400.8h43.09v9.9h-55.3V320.88Zm0,0" transform="translate(-4.93 -2.91)"/><path class="cls-4" d="M214.16,320.88v9.89H171.07v29.82H206v9.51H171.07v30.7h43.09v9.9h-55.3V320.88Zm0,0" transform="translate(-4.93 -2.91)"/><rect class="cls-5" x="2.48" y="317.98" width="12.15" height="89.81"/><path class="cls-6" d="M42.84,447.48a3.42,3.42,0,0,1-.83,1,1.85,1.85,0,0,1-1.13.34,3,3,0,0,1-1.72-.75,26.69,26.69,0,0,0-2.48-1.64,20.09,20.09,0,0,0-3.61-1.63,15.77,15.77,0,0,0-5.13-.73,15,15,0,0,0-5,.75,10.67,10.67,0,0,0-3.63,2.08,8.48,8.48,0,0,0-2.21,3.05,9.74,9.74,0,0,0-.74,3.82,7.07,7.07,0,0,0,1.29,4.33,10.91,10.91,0,0,0,3.4,2.94,25.15,25.15,0,0,0,4.79,2.11L31.33,465c1.87.64,3.7,1.35,5.48,2.15a19.29,19.29,0,0,1,4.79,3,13.76,13.76,0,0,1,3.4,4.49,15,15,0,0,1,1.27,6.53,21,21,0,0,1-1.39,7.67,17.77,17.77,0,0,1-4.06,6.26,19,19,0,0,1-6.58,4.18,24.33,24.33,0,0,1-8.87,1.52,27,27,0,0,1-11-2.2,25.83,25.83,0,0,1-8.52-6l2.44-4a3,3,0,0,1,.86-.82,2,2,0,0,1,1.1-.33,3.44,3.44,0,0,1,2.09,1,36,36,0,0,0,2.95,2.15,22.62,22.62,0,0,0,4.27,2.16,16.82,16.82,0,0,0,6.1,1,16.09,16.09,0,0,0,5.36-.83,11.39,11.39,0,0,0,4-2.33,10.07,10.07,0,0,0,2.5-3.59,12,12,0,0,0,.87-4.66,7.78,7.78,0,0,0-1.28-4.64,10.52,10.52,0,0,0-3.38-3,23.7,23.7,0,0,0-4.76-2.08l-5.48-1.74A52.41,52.41,0,0,1,18,468.81a17.8,17.8,0,0,1-4.78-3.05,13.91,13.91,0,0,1-3.36-4.69,17.71,17.71,0,0,1,0-13.33,16.26,16.26,0,0,1,3.71-5.49,18,18,0,0,1,6-3.83A22,22,0,0,1,27.81,437a26.29,26.29,0,0,1,9.54,1.67,21.79,21.79,0,0,1,7.53,4.82Zm86-9.8v6.87h-30v20.73H123.1v6.62H98.84v21.34h30v6.88H90.35V437.68Zm73.3,56.26a41.56,41.56,0,0,0,4.65-.24,29.22,29.22,0,0,0,4-.71,28.63,28.63,0,0,0,3.53-1.13c1.1-.45,2.21-.95,3.31-1.52V476.52h-9.67a1.83,1.83,0,0,1-1.32-.48,1.58,1.58,0,0,1-.51-1.17v-4.79h19.17v24a35.93,35.93,0,0,1-4.9,3,33.92,33.92,0,0,1-5.44,2.1,39.77,39.77,0,0,1-6.22,1.27,59,59,0,0,1-7.18.41A32.53,32.53,0,0,1,189,498.48a28.66,28.66,0,0,1-9.75-6.54,29.43,29.43,0,0,1-6.37-10.08,35.51,35.51,0,0,1-2.29-12.95,36.11,36.11,0,0,1,2.25-13,27.95,27.95,0,0,1,16.46-16.61A35.94,35.94,0,0,1,202.54,437a40,40,0,0,1,6.87.56,31.64,31.64,0,0,1,5.92,1.57,27.59,27.59,0,0,1,5,2.51,30.9,30.9,0,0,1,4.32,3.31l-2.4,3.78a2.21,2.21,0,0,1-1.92,1.16,3.08,3.08,0,0,1-1.52-.48c-.72-.4-1.54-.9-2.44-1.48a20.71,20.71,0,0,0-3.28-1.68,25.72,25.72,0,0,0-4.57-1.36,29.94,29.94,0,0,0-6.25-.58,25.41,25.41,0,0,0-9.54,1.72,20.14,20.14,0,0,0-7.27,4.92,21.62,21.62,0,0,0-4.62,7.75,33.51,33.51,0,0,0,.08,20.77,22.13,22.13,0,0,0,4.71,7.86,20.41,20.41,0,0,0,7.23,4.93,24.35,24.35,0,0,0,9.23,1.7Zm93.67-.53a17.48,17.48,0,0,0,6.93-1.31,14.54,14.54,0,0,0,5.17-3.65,16.12,16.12,0,0,0,3.22-5.62,22.22,22.22,0,0,0,1.1-7.19V437.72h8.4v38a28.36,28.36,0,0,1-1.71,10,23.52,23.52,0,0,1-4.91,8,22.64,22.64,0,0,1-7.83,5.3,28.94,28.94,0,0,1-20.73,0,23,23,0,0,1-7.84-5.3,23.26,23.26,0,0,1-4.93-8,28.37,28.37,0,0,1-1.73-10v-38h8.4V475.6a22.22,22.22,0,0,0,1.12,7.19,16.08,16.08,0,0,0,3.22,5.61,14.63,14.63,0,0,0,5.19,3.68,17.17,17.17,0,0,0,6.93,1.33Zm81.93-19.33v26.08h-8.41V437.68h17.64a38.35,38.35,0,0,1,10.22,1.21,19.37,19.37,0,0,1,7.13,3.45,13.65,13.65,0,0,1,4.15,5.47,18.36,18.36,0,0,1,1.35,7.17,17.93,17.93,0,0,1-1,6.2,16.41,16.41,0,0,1-3,5.16,18.33,18.33,0,0,1-4.83,3.91,24,24,0,0,1-6.48,2.44,8.84,8.84,0,0,1,2.79,2.65l18.2,24.82h-7.49a3.7,3.7,0,0,1-3.4-1.78L388.32,476a4.88,4.88,0,0,0-1.61-1.5,5.91,5.91,0,0,0-2.62-.46Zm0-6.18h8.83a21.73,21.73,0,0,0,6.52-.89,13.25,13.25,0,0,0,4.71-2.52,10.48,10.48,0,0,0,2.83-3.9,12.61,12.61,0,0,0,1-5q0-5.57-3.67-8.38t-10.95-2.83H377.7ZM513.78,469a35.92,35.92,0,0,1-2.23,12.88,29.22,29.22,0,0,1-6.26,10.09,28.2,28.2,0,0,1-9.72,6.56A33,33,0,0,1,483,500.81a32.6,32.6,0,0,1-12.53-2.33,28.2,28.2,0,0,1-9.72-6.56,29.54,29.54,0,0,1-6.27-10.09,38.67,38.67,0,0,1,0-25.77,30.06,30.06,0,0,1,6.27-10.12,28.33,28.33,0,0,1,9.72-6.61A32.23,32.23,0,0,1,483,437a32.63,32.63,0,0,1,12.58,2.35,28.33,28.33,0,0,1,9.72,6.61,29.73,29.73,0,0,1,6.26,10.12A35.93,35.93,0,0,1,513.78,469Zm-8.67,0a32,32,0,0,0-1.56-10.34,22.16,22.16,0,0,0-4.44-7.76,19.33,19.33,0,0,0-7-4.85,25.2,25.2,0,0,0-18.25,0,19.54,19.54,0,0,0-7,4.85,21.91,21.91,0,0,0-4.47,7.76,34.74,34.74,0,0,0,0,20.65,22,22,0,0,0,4.47,7.73,19.36,19.36,0,0,0,7,4.83,25.62,25.62,0,0,0,18.25,0,19.16,19.16,0,0,0,7-4.83,22.21,22.21,0,0,0,4.44-7.73A31.81,31.81,0,0,0,505.11,469Zm85.49-21.47a3.27,3.27,0,0,1-.83,1,1.83,1.83,0,0,1-1.13.34,3,3,0,0,1-1.71-.75,28.11,28.11,0,0,0-2.48-1.64,20.21,20.21,0,0,0-3.62-1.63,15.71,15.71,0,0,0-5.12-.73,15.08,15.08,0,0,0-5,.75,10.62,10.62,0,0,0-3.62,2.08,8.48,8.48,0,0,0-2.21,3.05,9.74,9.74,0,0,0-.74,3.82,7,7,0,0,0,1.29,4.33,10.79,10.79,0,0,0,3.4,2.94,25.15,25.15,0,0,0,4.79,2.11L579.1,465c1.86.64,3.69,1.35,5.48,2.15a19.29,19.29,0,0,1,4.79,3,13.6,13.6,0,0,1,3.39,4.49,14.85,14.85,0,0,1,1.28,6.53,21,21,0,0,1-1.39,7.67,17.77,17.77,0,0,1-4.06,6.26,19,19,0,0,1-6.58,4.18,24.37,24.37,0,0,1-8.87,1.52,27,27,0,0,1-11-2.2,25.73,25.73,0,0,1-8.52-6l2.44-4a3,3,0,0,1,.85-.82,2.06,2.06,0,0,1,1.11-.33,3.44,3.44,0,0,1,2.09,1c.78.65,1.77,1.36,2.94,2.15a22.62,22.62,0,0,0,4.27,2.16,16.91,16.91,0,0,0,6.11,1,16.17,16.17,0,0,0,5.36-.83,11.39,11.39,0,0,0,4-2.33,9.92,9.92,0,0,0,2.49-3.59,11.84,11.84,0,0,0,.87-4.66,7.78,7.78,0,0,0-1.27-4.64,10.63,10.63,0,0,0-3.38-3,24,24,0,0,0-4.76-2.08l-5.49-1.74a53.26,53.26,0,0,1-5.49-2.06,17.74,17.74,0,0,1-4.77-3.05,14.07,14.07,0,0,1-3.37-4.69,17.1,17.1,0,0,1,3.72-18.82,18,18,0,0,1,6-3.83,22,22,0,0,1,8.24-1.44,26.29,26.29,0,0,1,9.54,1.67,21.89,21.89,0,0,1,7.53,4.82Zm0,0" transform="translate(-4.93 -2.91)"/><g class="cls-7"><path class="cls-4" d="M592.45,365.85c1,61-89.51,61-88.5,0-.92-61.13,89.43-61.11,88.5,0Zm-12.47,0c1.83-47.31-65.43-47.26-63.63,0-1.82,47.11,65.5,47.15,63.63,0Zm0,0" transform="translate(-4.93 -2.91)"/></g><g class="cls-7"><rect class="cls-4" x="2.48" y="317.98" width="12.15" height="89.81"/></g><g class="cls-7"><path class="cls-8" d="M42.84,447.48c-2.66,3.72-6.22-2.4-9.77-2.71-8.3-3.52-21.12,3.79-15.42,13.3,7.13,8.1,22.35,5.72,27.35,16.58,8.66,24.14-24.83,34.69-39.18,18,1.41-2.05,3.28-7.36,6.49-4.16,8.93,9.86,31.82,5.11,24.76-10.77C32.62,472,24.14,472,18,468.81c-26.23-16.21,5.85-45.26,26.92-25.34Zm86-9.8v6.87h-30v20.73H123.1v6.62H98.84v21.33h30v6.89H90.35V437.68Zm73.3,56.26a31.26,31.26,0,0,0,15.46-3.6V476.52c-1-.19-10.45.48-11-.48-1-.61-.35-5-.51-6h19.17v24c-28.5,19.43-64.77-4-52.36-38.16,7-20.36,36.68-25,51.79-11-5,10.38-7.6.6-16.13-.07C174.05,435.89,167.7,493.83,202.1,493.94Zm93.67-.53c25.15.86,14.17-41.22,16.42-55.69h8.4c-1.46,21.15,8.75,63.53-24.82,63.18-33.56.37-23.43-42.07-24.86-63.18h8.4C281.55,452.34,270.59,494.14,295.77,493.41Zm81.93-19.33v26.08h-8.41V437.68c10.16.51,26.84-2.12,35,4.66,11.2,9.37,4.25,28.5-9.87,30.35,1.7,0,19.5,25.9,21,27.47-2.56-.41-9.49,1.24-10.89-1.78-.4-.27-17.62-25.05-17.8-23.83C385.29,473.68,379.43,474.23,377.7,474.08Zm0-6.18c9.35.52,24.19.44,23.85-12.3.38-12.68-14.57-11.3-23.85-11.21ZM513.78,469c1,42.24-62.57,42.24-61.52,0-1-42.36,62.51-42.35,61.52,0Zm-8.67,0c1.57-32.78-45.78-32.73-44.24,0-1.54,32.62,45.82,32.65,44.24,0Zm85.49-21.47c-2.65,3.72-6.22-2.41-9.77-2.71-8.29-3.52-21.11,3.79-15.41,13.3,7.12,8.1,22.36,5.72,27.34,16.58,8.69,24.13-24.84,34.69-39.17,18,1.41-2,3.28-7.37,6.49-4.16,8.94,9.86,31.8,5.12,24.76-10.77-4.45-5.71-12.93-5.76-19.11-8.9-26.24-16.2,5.85-45.26,26.92-25.34Zm0,0" transform="translate(-4.93 -2.91)"/></g></g><g id="I"><path class="cls-2" d="M100.29,7.61H26a20.54,20.54,0,0,0-14.79,6.23A20.54,20.54,0,0,0,4.93,28.62V270.7a19.93,19.93,0,0,0,6.23,14.79A20.57,20.57,0,0,0,26,291.71h74.34a20.57,20.57,0,0,0,14.78-6.22,20,20,0,0,0,6.23-14.79V28.62a20.58,20.58,0,0,0-6.23-14.78,20.54,20.54,0,0,0-14.78-6.23Zm0,0" transform="translate(-4.93 -2.91)"/></g><g id="M"><path class="cls-3" d="M133.36,24.34a16.1,16.1,0,0,0-3.5-1.94,33.92,33.92,0,0,1,.78,6.22v73.17l73.94,54.09a156.29,156.29,0,0,0,31.53,17.91c10.51,4.28,20.24,7,26.85,7H336.9c2,0,3.12,0,3.9-.39a15.34,15.34,0,0,0-.78-2.34c-2.34-3.89-7.4-8.95-15.18-14.79L146.6,32.91a97.37,97.37,0,0,0-13.24-8.57Zm0,0" transform="translate(-4.93 -2.91)"/></g><g id="Layer_7" data-name="Layer 7"><path class="cls-9" d="M402.71,72.18c-.82.37-1.58.73-2.27,1.06-5.59,2.68-13,4.39-18.85,1.62-3.6-1.7-6.06-4.34-9.11-6.7-2.46-1.91-4.86-4-7.38-5.79a101.65,101.65,0,0,1-9.51-8c-4.5-4.2-6.73-9.77-10.9-14.19-1.12-1.18-2.7-1.85-4.15-2.89-2.18-1.56-5.12-5.1-5.64-7.71-.13-.67.1-2.14-.94-1.75s-.42,4.15-.35,4.93a44.12,44.12,0,0,0,1.33,6.91c.78,3.14,1,6.77,2.82,9.51,1.71,2.56,4.35,4.42,6.47,6.64,2.35,2.46,4.32,3.45,5.33,6.64,1.69,5.37,5,10,8.71,14.33s6.5,9,10.75,12.94c3,2.76,5.7,6.09,9.89,7.19,4.47,1.17,9.33.42,13.88.2,4.36-.21,8.78-3.11,12.91-4.56,2.49-.87,5.14-1.65,7.67-2.53,4.26-1.48,8.87-2.57,13-4.13,5.64-2.12,10.87-6.15,12.94-11.75,1.78-4.8-3.45-8.2-7.83-9-9.56-1.63-20.33,3.14-28.74,7Z" transform="translate(-4.93 -2.91)"/><polygon class="cls-9" points="336.16 55.05 305.11 58.24 293.82 17.63 324.93 13.91 336.16 55.05"/><path class="cls-9" d="M173.63,102.78c-6.9.92-12.15-3.24-12.25-9.77-.16-11.15-10-20-8-31.62.42-2.41,4-4.62,6-3,2.46,2,1.5,6.18,3,8.71,2.06,3.5,5.3,5.39,8.2,8.1,2.14,2,3.76,4.51,5.94,6.49s3.67,2,6.39,2.27c4.32.46,8.76,1.34,13,2.1,9.9,1.78,20,1.39,30,1.5a154.06,154.06,0,0,0,24.39-1.33c7.89-1.16,16.25-2.65,24-.23,4.31,1.33,8.14,3.55,12.3,5.18s8.93,2,13.32,3.25c4.87,1.36,9.76,3.24,14.77,4,12.49,1.87,34.82,6.52,25.18,22.45-5.85,9.67-14.91,12.73-26.12,12.84-7.31.08-9.26-.95-14.79-5.38-5-4-10.39-7.8-16.56-10.14-4.3-1.64-8.95-2.27-13.34-3.65-5.68-1.79-12.26-3.62-18.18-1.7a76.8,76.8,0,0,1-26.61,3.91c-7.12-.3-15.21-2.69-21.77-5.26-7.94-3.12-18-11.13-27-9.12C174.92,102.57,174.26,102.69,173.63,102.78Z" transform="translate(-4.93 -2.91)"/><path class="cls-9" d="M467.9,21c-.85-5.89-6.81-13.3-12.63-15.43C442.74,1,427,2.73,418,13c-1.75,2-1.77,2.58-1.76,4.92,0,1,1.88,1.39,1.94,2.63s-1.66,3.5-2,4.91c-.55,2.34,1.34,4.27,1.1,6.23-.18,1.49-2.08,4.2-2.81,5.77-.33.72-2,2.33-1.8,3,.42,1.84,2.64,1.45,4,2,1.14.46,1.5,2,1.3,3.11a11.83,11.83,0,0,0-.36,1.73,1.25,1.25,0,0,0,.11.66c.1.16.32.23.37.43s-.14.31-.16.5c0,.4.4,1,.53,1.39a3.85,3.85,0,0,1,.25,1.71,7.11,7.11,0,0,0,0,3.08A4.31,4.31,0,0,0,419.88,57,8.36,8.36,0,0,0,424,58.85c1,.2,2.12.52,3.36.89-1.11,5.89-5.56,6.55-10.62,9.15C410,72.36,403.39,76,396.79,79.73c-4.53,2.52-8.05,6.41-12.36,9s-9.69,3.51-14.27,5.85a56.59,56.59,0,0,0-11.07,8.07c-6.38,5.56-16.23,5.54-24.45,6.32a35.93,35.93,0,0,1-7.56-.09c-9-1-17.49-4-26.67-5.41-5-.75-9.9-2.62-14.77-4-4.39-1.22-9.07-1.59-13.32-3.26s-8-3.84-12.3-5.18c-7.78-2.41-16.14-.93-24,.24a155.25,155.25,0,0,1-24.39,1.32c-10-.11-20.11.28-30-1.49-3.92-.71-7.9-1.11-11.82-1.87-1.63-.31-4.12-.48-5.53-1.3-1.61-.93-2.2-2.8-3.28-4.18-1.48-1.9-3.41-2.9-5.47-4.2A23.6,23.6,0,0,1,148,72.17c-1.48-2.53-.53-6.7-3-8.71-2-1.67-5.58.53-6,2.95-2,11.67,7.81,20.47,8,31.62.1,6.52,5.35,10.69,12.25,9.76.64-.08,1.29-.2,1.95-.35,9-2,19.08,6,27,9.11,6.56,2.58,14.65,5,21.77,5.27a77.13,77.13,0,0,0,26.62-3.91c5.91-1.93,12.49-.09,18.17,1.69,4.39,1.38,9,2,13.34,3.65,9.59,3.64,17.34,10.72,24.87,17.19,6.59,5.66,13.11,11.61,21.13,15.42,9.68,4.6,20.84,5.73,31.55,4.8a75.56,75.56,0,0,0,15.52-2.8,210.54,210.54,0,0,0,26-9.79c5.45-2.51,10.35-6,15.74-8.63,13.49-6.6,28.36-11.35,39.06-22.09,6.9-6.93,11.46-15.64,14.92-24.5,2.58-6.62,5.33-13.76,2.64-20.69-2.58-6.65-.65-14.48-2.29-21.59,1.23-4.37,1.21-9.14,3.5-13.24C463.64,32.23,468.79,27.19,467.9,21Z" transform="translate(-4.93 -2.91)"/><polygon class="cls-9" points="331.23 55.46 300.18 58.65 288.89 18.05 320 14.32 331.23 55.46"/><path class="cls-9" d="M443.89,75.33c3.64,4.75,3.61,7.59.35,12.8s-8.17,8.65-12,13.36c-3.32,4.09-5.44,7.88-10.11,10.91-12.4,8-26.42,12.35-40.75,14.08-5.78.7-11.89,2.74-16.35-.32-5.76-3.94-8.3-8.61-10.65-14.64-3.87-9.92-9.2-19.24-13-29.13-1.68-4.34-3.14-10.22-7.22-12.59s-8.76-3-11.44-6.66c-.64-.88-3.09-6.22-.75-6.34.13-1.09-.47-1.53.2-2.5.79-1.15.89-.89.8-2.36a3.46,3.46,0,0,1,1-2.5c.23-.34.51-.14.64-.56.06-.23-.3-.87-.35-1.13C324,46.16,324.5,45,326.4,45c2.44,0,4.31,2.13,6.81,1.87-.69-1.08-1.54-3.34.86-2.84,1.55.32,4.74,2.64,6.05,3.66a17.31,17.31,0,0,1,4.43,5.64c2.21,4.13,3.27,8.69,4.82,13.06,3.07,8.64,8.85,17.14,14.53,24.68,2.9,3.85,6.33,8.68,10.47,11.4,7.58,5,14.76-5.64,19.83-9.77a87.69,87.69,0,0,1,20.66-12.77c3.23-1.4,7.61-3.16,10.34-5.33C430.54,70.35,439.07,69,443.89,75.33Z" transform="translate(-4.93 -2.91)"/></g><g id="Layer_6" data-name="Layer 6"><path class="cls-3" d="M590.22,6.44h-74c-6.62,0-16.34,2.73-26.85,7a157.14,157.14,0,0,0-31.52,17.9L310.4,139.53l21,15.18c8.18,6.23,13.63,11.68,16.74,16.35,1.56,2.72,2.72,5.06,2.72,7a91.1,91.1,0,0,0,17.51-5.83,176.24,176.24,0,0,0,31.53-17.52L578.16,24c7.78-5.84,12.84-10.9,15.18-14.78a5.76,5.76,0,0,0,.77-2.34c-.77-.39-2-.39-3.89-.39Zm0,0" transform="translate(-4.93 -2.91)"/></g><g id="Layer_5" data-name="Layer 5"><path class="cls-3" d="M594.15,22.4a4.6,4.6,0,0,1-1.94,1.94,70.77,70.77,0,0,1-9.73,8.18L478.18,108.8V270.31c0,5.83,2.72,10.89,6.23,14.79a21.45,21.45,0,0,0,15.18,6.22h74.33a21.24,21.24,0,0,0,21-21V28.24A29.9,29.9,0,0,0,594.15,22.4Z" transform="translate(-4.93 -2.91)"/></g></svg>