<?xml version="1.0" encoding="UTF-8"?>
<!DOCTYPE svg PUBLIC "-//W3C//DTD SVG 1.1//EN" "http://www.w3.org/Graphics/SVG/1.1/DTD/svg11.dtd">
<!-- Creator: CorelDRAW 2019 (64-Bit) -->
<svg xmlns="http://www.w3.org/2000/svg" xml:space="preserve" width="150mm" height="150mm" version="1.1" style="shape-rendering:geometricPrecision; text-rendering:geometricPrecision; image-rendering:optimizeQuality; fill-rule:evenodd; clip-rule:evenodd"
viewBox="0 0 15000 15000"
 xmlns:xlink="http://www.w3.org/1999/xlink">
 <defs>
  <style type="text/css">
   <![CDATA[
    .fil0 {fill:none}
    .fil1 {fill:#FEFEFE;fill-rule:nonzero}
   ]]>
  </style>
 </defs>
 <g id="Layer_x0020_1">
  <metadata id="CorelCorpID_0Corel-Layer"/>
  <rect class="fil0" x="-17.74" y="-14.81" width="15032.53" height="15032.53"/>
  <g id="_2603647368496">
   <path class="fil1" d="M4978.25 7303.02c0,0 -833.47,39.71 -793.81,-357.2 39.7,-238.13 436.61,-317.5 595.33,-238.13 79.41,39.7 238.14,119.06 158.78,238.13 -119.07,119.07 119.06,198.48 119.06,198.48l-79.36 158.72z"/>
   <path class="fil1" d="M10058.45 7303.02c0,0 793.77,39.71 754.11,-357.2 0,-238.13 -396.91,-317.5 -555.68,-238.13 -79.36,39.7 -238.13,119.06 -158.72,238.13 79.36,119.07 -119.07,198.48 -119.07,198.48l79.36 158.72z"/>
   <path class="fil1" d="M5097.32 11629.16l-396.91 0c-158.77,0 -277.84,-119.07 -277.84,-277.84l0 -833.47 952.54 0 0 833.47c0,158.77 -119.07,277.84 -277.79,277.84z"/>
   <path class="fil1" d="M10336.29 11629.16l-436.61 0c-158.73,0 -277.79,-119.07 -277.79,-277.84l0 -833.47 992.19 0 0 833.47c0,158.77 -158.72,277.84 -277.79,277.84z"/>
   <path class="fil1" d="M5811.72 8652.47c0,158.77 -119.06,238.14 -238.13,238.14 -119.07,0 -238.14,-79.37 -238.14,-238.14 0,-119.07 119.07,-198.43 238.14,-198.43 119.07,0 238.13,79.36 238.13,198.43z"/>
   <path class="fil1" d="M5335.45 8573.11c0,158.72 -158.77,317.5 -317.54,317.5 -198.43,0 -317.5,-158.78 -317.5,-317.5 0,-158.77 119.07,-317.55 317.5,-317.55 158.77,0 317.54,158.78 317.54,317.55z"/>
   <path class="fil1" d="M9224.98 8652.47c0,158.77 79.36,238.14 238.13,238.14 119.07,0 198.43,-79.37 198.43,-238.14 0,-119.07 -79.36,-198.43 -198.43,-198.43 -158.77,0 -238.13,79.36 -238.13,198.43z"/>
   <path class="fil1" d="M9701.25 8573.11c0,158.72 158.77,317.5 317.5,317.5 158.77,0 317.54,-158.78 317.54,-317.5 0,-158.77 -158.77,-317.55 -317.54,-317.55 -158.73,0 -317.5,158.78 -317.5,317.55z"/>
   <path class="fil1" d="M8947.14 6271.12c-119.07,-198.43 -277.79,-357.2 -357.2,-555.63 -79.37,-158.78 -79.37,-317.55 -79.37,-515.98 -238.13,119.07 -436.56,357.2 -396.9,635.04 -119.07,-39.7 -119.07,-277.84 -238.14,-555.68 -158.72,-396.86 -317.5,-476.27 -396.86,-793.76 -119.07,-357.21 -39.7,-754.11 -79.41,-1111.32 -39.66,39.71 -119.07,158.78 -198.43,198.48 -79.36,119.07 -158.77,198.43 -238.13,277.79 -198.44,238.14 -317.5,555.68 -396.91,833.48 -119.07,396.9 -158.73,1071.6 39.7,1389.15 -238.13,-198.48 -357.2,-476.27 -515.97,-754.11 0,198.43 0,317.5 -39.66,476.27 -79.41,158.77 -158.77,238.13 -198.48,396.91 -119.07,238.13 -79.36,555.63 0,793.77 277.84,754.11 714.41,1071.6 1151.02,1230.38 -39.7,-79.41 -39.7,-158.78 -39.7,-158.78 0,-198.43 39.7,-396.9 0,-595.33 -39.71,-79.37 -79.37,-158.78 -79.37,-277.84 0,-79.37 0,-198.43 39.66,-277.8 39.71,-119.07 119.07,-198.47 119.07,-277.84 39.7,-119.07 0,-198.43 0,-277.84 39.7,39.71 79.41,79.41 119.07,158.77 39.7,39.71 0,158.78 39.7,198.44 39.71,-119.07 39.71,-198.44 39.71,-277.8 39.65,-119.07 79.36,-198.48 119.06,-277.84 39.66,-119.07 39.66,-317.5 0,-396.91 39.66,79.41 79.37,158.78 119.07,198.48 39.66,119.07 39.66,198.43 39.66,317.5 39.7,158.77 0,357.2 39.7,515.97 0,-198.47 238.14,-238.13 238.14,-436.61 39.7,119.07 39.7,277.84 39.7,396.91 -39.7,158.77 -119.06,238.14 -119.06,396.91 0,0 0,39.66 0,39.66 0,158.77 396.86,277.84 396.86,714.4 0,79.41 -39.66,158.77 -39.66,238.14 79.36,-39.66 158.72,-79.37 238.13,-119.07 158.73,-119.07 357.21,-238.14 555.64,-357.2 119.06,-79.37 277.84,-198.43 317.49,-357.21 158.78,-357.2 -39.65,-754.06 -238.13,-1031.9z"/>
   <path class="fil1" d="M10415.65 8573.11c-79.36,634.99 -1071.6,357.2 -1071.6,357.2 0,0 -79.37,0 -119.07,-39.7 -1150.97,158.77 -2301.99,158.77 -3413.26,0 -79.41,39.7 -119.06,39.7 -119.06,39.7 0,0 -992.25,277.79 -1071.61,-357.2 -79.41,-436.61 277.79,-357.2 277.79,-357.2 0,0 952.54,39.65 1031.95,357.2l0 0c1031.91,158.72 2103.51,158.72 3135.42,0l39.7 0c79.36,-317.55 1031.9,-357.2 1031.9,-357.2 0,0 317.55,-79.41 277.84,357.2zm-952.54 1944.74c-635.04,0 -1944.78,0 -1944.78,0 0,0 -1309.75,0 -1944.74,0 -635.04,0 -674.75,-635 -674.75,-635l1666.95 0 -39.66 -39.7 0 -238.14c0,-79.36 79.36,-119.07 119.07,-119.07l1706.6 0c79.41,0 119.07,39.71 119.07,119.07l0 238.14 0 39.7 1666.94 0c0,0 -39.65,635 -674.7,635zm1150.97 -2182.88c-119.06,-198.47 -317.49,-555.68 -436.56,-714.4 -158.77,-198.48 -119.07,-515.98 -198.43,-635.04 -79.41,-119.07 -436.61,-1428.82 -674.75,-1468.52 -198.43,-39.66 -436.56,-39.66 -634.99,-39.66 39.65,39.66 39.65,119.07 79.36,158.73 39.7,119.06 119.07,238.13 198.43,317.54 317.54,39.66 555.68,39.66 555.68,39.66l317.5 1031.95c39.7,158.73 -39.71,277.79 -198.43,277.79 0,0 -79.41,0 -238.14,0 -39.7,39.71 -39.7,39.71 -39.7,79.41 -79.37,198.43 -277.84,317.5 -396.91,396.86 -79.36,79.41 -158.73,119.07 -238.14,198.48 -119.06,79.36 -238.13,119.07 -317.49,198.43 -119.07,79.36 -238.14,119.07 -396.91,158.77 -79.36,39.66 -158.73,39.66 -238.14,79.37 -119.06,0 -198.43,0 -317.49,0 -79.37,0 -158.78,0 -238.14,0l-277.84 -39.71c-357.2,-119.07 -793.77,-396.86 -1150.97,-1071.61 -238.14,0 -396.91,0 -396.91,0 -119.07,0 -238.13,-119.06 -198.43,-277.79l317.5 -1031.95c0,0 119.07,0 277.84,0 0,-39.66 0,-39.66 39.7,-79.36 0,-39.71 39.66,-119.07 79.37,-158.78 39.7,-79.36 39.7,-158.72 39.7,-238.13 -119.07,0 -198.48,0 -238.13,0 -238.14,39.7 -555.68,1349.45 -635.05,1468.52 -79.36,119.06 -79.36,436.56 -238.13,635.04 -119.07,158.72 -317.5,515.93 -396.91,714.4 -79.36,79.37 -79.36,238.14 -79.36,317.5l0 1508.17c0,476.27 357.2,635.05 833.47,635.05l4683.34 0c476.27,0 833.47,-158.78 833.47,-635.05l0 -1508.17c0,-79.36 -39.7,-238.13 -79.41,-317.5z"/>
   <path class="fil1" d="M9105.91 10636.91l-3175.12 0c-396.91,0 -714.4,-119.06 -714.4,-238.13 0,-158.73 317.49,-238.14 714.4,-238.14l3175.12 0c396.91,0 714.41,79.41 714.41,238.14 0,119.07 -317.5,238.13 -714.41,238.13z"/>
  </g>
 </g>
</svg>
