<?xml version="1.0" encoding="UTF-8"?>
<!DOCTYPE svg PUBLIC "-//W3C//DTD SVG 1.1//EN" "http://www.w3.org/Graphics/SVG/1.1/DTD/svg11.dtd">
<!-- Creator: CorelDRAW 2017 -->
<svg xmlns="http://www.w3.org/2000/svg" xml:space="preserve" width="295px" height="295px" version="1.1" style="shape-rendering:geometricPrecision; text-rendering:geometricPrecision; image-rendering:optimizeQuality; fill-rule:evenodd; clip-rule:evenodd"
viewBox="0 0 295 295"
 xmlns:xlink="http://www.w3.org/1999/xlink">
 <defs>
  <style type="text/css">
   <![CDATA[
    .str0 {stroke:#373435;stroke-width:2;stroke-miterlimit:22.9256}
    .fil1 {fill:#FEFEFE}
    .fil0 {fill:#D53438}
   ]]>
  </style>
 </defs>
 <g id="Layer_x0020_1">
  <metadata id="CorelCorpID_0Corel-Layer"/>
  <rect class="fil0 str0" width="295" height="295"/>
  <path class="fil1" d="M127 86l41 0c1,0 2,1 2,2l0 25 40 0c1,0 2,1 2,2l0 25 17 0c2,0 3,2 3,3l0 63c0,2 -2,3 -3,3l-162 0c-2,0 -3,-2 -3,-3l0 -63c0,-2 2,-3 3,-3l17 0 0 -25c0,-1 1,-2 2,-2l40 0 0 -25c0,-1 1,-2 2,-2l0 0zm60 82c-1,0 -1,1 -1,1l0 9c0,1 1,1 1,1l32 0c1,0 1,-1 1,-1l0 -9c0,-1 -1,-1 -1,-1l-32 0 0 0zm-18 -45c-1,0 -1,1 -1,1l0 9c0,1 1,1 1,1l32 0c1,0 1,-1 1,-1l0 -9c0,-1 -1,-1 -1,-1l-32 0 0 0zm18 29c-1,0 -1,1 -1,1l0 9c0,1 1,1 1,1l32 0c1,0 1,-1 1,-1l0 -9c0,-1 -1,-1 -1,-1l-32 0 0 0zm-77 16c-1,0 -1,1 -1,1l0 9c0,1 1,1 1,1l32 0c1,0 1,-1 1,-1l0 -9c0,-1 -1,-1 -1,-1l-32 0 0 0zm-18 -45c-1,0 -1,1 -1,1l0 9c0,1 1,1 1,1l32 0c1,0 1,-1 1,-1l0 -9c0,-1 -1,-1 -1,-1l-32 0 0 0zm18 29c-1,0 -1,1 -1,1l0 9c0,1 1,1 1,1l32 0c1,0 1,-1 1,-1l0 -9c0,-1 -1,-1 -1,-1l-32 0 0 0zm39 16c-1,0 -1,1 -1,1l0 9c0,1 1,1 1,1l32 0c1,0 1,-1 1,-1l0 -9c0,-1 -1,-1 -1,-1l-32 0 0 0zm-18 -45c-1,0 -1,1 -1,1l0 9c0,1 1,1 1,1l32 0c1,0 1,-1 1,-1l0 -9c0,-1 -1,-1 -1,-1l-32 0 0 0zm18 29c-1,0 -1,1 -1,1l0 9c0,1 1,1 1,1l32 0c1,0 1,-1 1,-1l0 -9c0,-1 -1,-1 -1,-1l-32 0 0 0zm-77 16c-1,0 -1,1 -1,1l0 9c0,1 1,1 1,1l32 0c1,0 1,-1 1,-1l0 -9c0,-1 -1,-1 -1,-1l-32 0 0 0zm0 -16c-1,0 -1,1 -1,1l0 9c0,1 1,1 1,1l32 0c1,0 1,-1 1,-1l0 -9c0,-1 -1,-1 -1,-1l-32 0 0 0zm74 -60c-1,0 -1,0 -1,1l0 4 -4 0c-1,0 -1,0 -1,1l0 4c0,1 0,1 1,1l4 0 0 4c0,1 0,1 1,1l4 0c1,0 1,0 1,-1l0 -4 4 0c1,0 1,0 1,-1l0 -4c0,-1 0,-1 -1,-1l-4 0 0 -4c0,-1 0,-1 -1,-1l-4 0z"/>
 </g>
</svg>
