<?xml version="1.0" encoding="utf-8"?>
<!-- Generator: Adobe Illustrator 24.2.3, SVG Export Plug-In . SVG Version: 6.00 Build 0)  -->
<svg version="1.1" id="Layer_1" xmlns="http://www.w3.org/2000/svg" xmlns:xlink="http://www.w3.org/1999/xlink" x="0px" y="0px"
	 viewBox="0 0 541.4 453.5" style="enable-background:new 0 0 541.4 453.5;" xml:space="preserve">
<style type="text/css">
	.st0{fill-rule:evenodd;clip-rule:evenodd;fill:#494949;}
	.st1{fill-rule:evenodd;clip-rule:evenodd;fill:#DDDDDD;}
	.st2{fill:#919191;}
</style>
<g id="Layer_x0020_1">
	<g id="_2392475048528">
		<g>
			<path class="st0" d="M173.5,17.1h194.4c13.5,0,24.8,4.8,34.2,14.2c9.7,9.4,14.5,21,14.5,34.5v194.4c0,13.2-4.8,24.8-14.5,34.2
				c-9.4,9.4-20.6,14.2-34.2,14.2H173.5c-13.5,0-25.2-4.8-34.5-14.2c-9.4-9.4-14.2-21-14.2-34.2V65.8c0-13.5,4.8-25.2,14.2-34.5
				C148.3,22,159.9,17.1,173.5,17.1z"/>
			<path class="st1" d="M347.6,182.6h15.8l19.3-19.7h-21.3L347.6,182.6z M341.8,187.4L341.8,187.4h-22.6v42.2
				c0,11.3,2.9,19.7,8.4,25.2c4.8,4.8,11.3,7.1,19.3,7.1c11.3,0,19.7-4.5,24.8-13.2h0.3v11.6h20v-72.9h-22.6V230
				c0,1.9-0.3,3.5-0.6,4.5c-2.6,6.1-7.1,9.4-13.9,9.4c-8.7,0-13.2-6.1-13.2-18.1V187.4L341.8,187.4z M283.8,211.6L283.8,211.6
				c-14.8,0-26.1,2.3-33.9,7.1c-8.1,4.8-12.3,11.9-12.3,21.3c0,5.8,2.3,11,6.4,15.2c4.8,4.5,11,6.8,18.4,6.8c10,0,17.4-3.2,22.6-9.4
				h0.6v7.7h20.6v-42.9c0-9.7-2.6-17.1-7.4-22.6c-5.8-6.1-14.5-9.4-26.1-9.4c-11.9,0-21.9,2.3-29.7,7.1l4.2,14.2
				c6.4-3.9,13.5-5.8,21.6-5.8c10,0,14.8,3.2,14.8,10L283.8,211.6L283.8,211.6z M228.6,187.4L228.6,187.4h-13.9v-24.5h-21.9v24.5
				h-10.3v16.8h10.3v29.3c0,10,1.9,17.4,6.1,21.6c4.2,4.5,10.3,6.8,17.7,6.8c4.8,0,8.7-0.6,12.3-1.9l-0.3-17.1c-0.6,0.6-1.9,1-4.2,1
				c-3.5,0-6.1-1.3-7.7-3.9c-1.3-1.9-1.9-5.2-1.9-10v-25.8h13.9L228.6,187.4L228.6,187.4z M258.6,238L258.6,238
				c0-8.7,8.7-12.6,25.8-12.3v7.7l-0.3,4.2c-1,2.9-2.9,5.2-5.5,6.8c-2.6,2.3-5.8,3.2-9.4,3.2C262.2,247.7,258.6,244.5,258.6,238z
				 M149,162.9L149,162.9v97.4h22.9v-97.4L149,162.9L149,162.9z"/>
		</g>
		<g>
			<path class="st2" d="M77.5,388.2c4.3,2.9,11.2,5.3,17.8,5.3c8.8,0,13.4-4.8,13.4-11.8c0-6.8-4-10.8-13.1-15.4
				c-12.5-6.1-20.2-15-20.2-27.3c0-15.5,10.6-27.4,28.5-27.4c7.8,0,13.9,2.1,17.7,4.3l-3.3,14.9c-2.9-1.7-7.9-4.1-14.7-4.1
				c-8.4,0-12.1,5.2-12.1,10.4c0,6.8,4.1,9.8,14.2,15.1c13.2,6.8,19.1,15.5,19.1,27.9c0,16.5-10.8,28.5-30.1,28.5
				c-8.2,0-16.4-2.6-20.3-5.3C74.4,403.5,77.5,388.2,77.5,388.2z"/>
			<path class="st2" d="M148,378.8c0.4,11.7,7.7,16.3,16.3,16.3c5.9,0,10.5-1.2,14.6-2.8l2.3,12.5c-4.9,2.5-11.9,3.9-19.3,3.9
				c-18.5,0-29-13.3-29-34.5c0-19.7,9.9-36.6,27.4-36.6c14.5,0,23.9,11.8,23.9,33.9c0,2.7-0.1,5.3-0.4,7.3H148L148,378.8z
				 M169.4,366.1L169.4,366.1c0.1-7.1-2.4-15.9-10.2-15.9c-7.6,0-10.8,9.1-11.3,15.9H169.4z"/>
			<path class="st2" d="M232.6,339.2h13.9c-0.3,4.9-0.5,10.9-0.5,20.4v38.6c0,13.4-1.1,38.2-30.2,38.2c-7,0-14.2-1.6-18.9-4.7
				l3.1-13.9c3.5,2.2,9.1,4.4,15.5,4.4c8.9,0,14.8-5.8,14.8-18.9v-5H230c-3,5.4-8.4,8.7-14.9,8.7c-14.2,0-23.1-14.6-23.1-33.3
				c0-22.6,11.5-36,24.7-36c7.5,0,12.4,4.2,15,9.6h0.2L232.6,339.2L232.6,339.2z M230,365.7L230,365.7c0-8.7-4.6-13.8-10-13.8
				c-7.2,0-12,8.4-12,21.3c0,11.9,4.4,20,11.9,20c3.7,0,10.1-2.7,10.1-14.3V365.7z"/>
			<path class="st2" d="M310.8,339.1v47.6c0,8.1,0.3,15.1,0.5,20.9h-13.9l-0.8-9.1h-0.3c-2.5,4.4-7.9,10.4-17.2,10.4
				c-11.4,0-19.1-8.5-19.1-29v-40.8H276v38.1c0,10.3,2.6,16.8,9.1,16.8c5.2,0,9.8-5,9.8-12.8v-42.1H310.8L310.8,339.1z"/>
			<path class="st2" d="M339.4,351c2.8-8.8,9.2-13.4,14.8-13.4c1.5,0,2.5,0.1,3.5,0.4v17.3c-1.2-0.2-2.5-0.4-4.1-0.4
				c-7.2,0-12.7,5.5-12.7,17.2v35.4h-15.9v-47.1c0-8.5-0.2-15.2-0.4-21.4h13.6L339,351L339.4,351L339.4,351z"/>
			<path class="st2" d="M418.8,372.7c0,26-14.6,36.1-27.9,36.1c-16.1,0-27.7-13-27.7-35.3c0-23,12.1-36,28.4-36
				C408.3,337.6,418.8,352,418.8,372.7z M391.2,351L391.2,351c-8.8,0-11.9,11.8-11.9,22.2c0,12.2,4.1,22.2,11.8,22.2
				c7.5,0,11.6-10.2,11.6-22.4C402.7,362.4,399.4,351,391.2,351L391.2,351z"/>
			<path class="st2" d="M429.7,391.1c3.1,2.1,9,4.5,14,4.5c5.6,0,8.3-2.7,8.3-6.9c0-4.2-2-6.4-8.6-9.6
				c-11.2-5.2-15.2-12.4-15.2-19.9c0-12.3,8.6-21.6,21.9-21.6c6.1,0,11.4,1.7,14.8,3.8l-3,12.8c-2.6-1.6-6.8-3.6-11.3-3.6
				c-4.8,0-7.4,2.8-7.4,6.5c0,3.8,2.3,5.8,9.1,9.1c10.1,4.8,14.8,11.4,14.8,20.9c0,13-8.6,21.6-23.5,21.6c-6.6,0-12.9-1.8-16.9-4.5
				L429.7,391.1L429.7,391.1z"/>
		</g>
	</g>
</g>
</svg>
