<?xml version="1.0" encoding="utf-8"?>
<!-- Generator: Adobe Illustrator 24.2.3, SVG Export Plug-In . SVG Version: 6.00 Build 0)  -->
<svg version="1.1" id="Layer_1" xmlns="http://www.w3.org/2000/svg" xmlns:xlink="http://www.w3.org/1999/xlink" x="0px" y="0px"
	 viewBox="0 0 541.4 453.5" style="enable-background:new 0 0 541.4 453.5;" xml:space="preserve">
<style type="text/css">
	.st0{fill-rule:evenodd;clip-rule:evenodd;fill:#494949;}
	.st1{fill-rule:evenodd;clip-rule:evenodd;fill:#FEFEFE;}
	.st2{fill:#989898;}
	.st3{fill-rule:evenodd;clip-rule:evenodd;fill:#989898;}
</style>
<g id="Layer_x0020_1">
	<g id="_2428730223920">
		<path class="st0" d="M110.2,300.1c16.9-26.4,38.4-48.6,81.7-50.3c1.5-14.9,1-29.8-2.7-44.7c5.7-6.8,11.5-13.7,17.2-20.5
			c-6.9,2.5-13.8,4.9-20.7,7.4c-1.6-3.4-3.4-6.7-5.5-9.9c2.1-6.8,4.2-13.3,6.3-20.1c-4.4,3.5-9,6.8-13.4,10.3
			c-7.5-7.1-14.9-11.3-22.2-12.9c-1.7-5.3-3.1-10.7-4.8-16c-1.2,4.7-2.8,9.3-4,14c-14.1-2.7-26.7,1.2-38.4,9.4
			c-1.6-4-3.3-8.1-4.9-12.1c12.3-13-1.1-22.7,3.9-25.5c-0.7-2.1-2.8-2.4-5.4-2c-5.4-7.1,27.3-7.6,11.2-25.5
			c-2.3,3.8-5.3,5.7-9.2,5.9c0-4.5-1.7-5.9-3.7-6.9c-0.7,2.1-3.4,4.1-6.8,3.4c-11.4-2.5-31.4-1.5-21.4,19.5
			c-1.3,1.2-2.5,2.4-3.8,3.6c-1.5-0.9-3-1.5-4.5-1.3c0.9,1.1,1.3,2.5,1.3,4.4c-7.3,13.3-3.8,19.9,3.6,24.2c-2,1.9-1.1,3.3,1.7,4.3
			c-1.3,4,0.6,6.5,3.9,8.3c0.2,1.8,0.4,3.6,0.6,5.4c-2.3,3.5-1.5,5.9,2.3,7.3c1.1,4.8,4.6,6.8,10.7,6.1c0.3,3,0.7,5.9,1,8.9
			c-11.2,27.9-10.2,74.7,16.5,100.1c13.8-23.1,31.2-34.6,50.5-39.6c-19.2,9.2-34.7,22.8-45.8,41.9C107,298,108.6,299.1,110.2,300.1
			L110.2,300.1z"/>
		<g>
			<path class="st1" d="M142.2,184c3.6-0.7,7.2-0.4,10.9,1c-2.3-11.5-4.5-23-6.8-34.5C144.9,161.6,143.5,172.8,142.2,184L142.2,184z
				"/>
			<path class="st1" d="M127.8,194.5c-5.3-8.8-10.6-17.6-15.9-26.3c7.2,6.2,14.3,12.4,21.5,18.6
				C130.9,188.5,128.8,190.8,127.8,194.5z"/>
			<path class="st1" d="M162,189c6.9-7,13.8-13.9,20.7-20.9c-4.2,9.2-8.4,18.3-12.6,27.5C167.8,192.9,165.1,190.7,162,189L162,189z"
				/>
			<path class="st1" d="M175.5,199.7c1.9,3.1,3.3,6.2,4.2,9.3c6.8-6.5,13.6-12.9,20.4-19.4C191.9,193,183.7,196.4,175.5,199.7z"/>
			<path class="st1" d="M127.8,212.8c-1.8-2.8-1.4-5.6,1.4-8.4c-1-9.5,3.1-14.1,9.4-16.5c10.3-2.6,21.2,1.1,32.9,13.8
				c3,4.5,3,5.7,2.5,6.7c-1.8-2-3.6-4-5.4-5.9c-1.1,1.1-2.1,2.3-3.2,3.4c2.1,1.9,4.2,3.8,6.3,5.7c-4.6,2.1-8.6,0.7-12.3-2.2
				c-1.8-1.6-3-5.1-5.3-4.9c-6.7-2.2-13.1-2.3-19.6-0.4c0.4,1,0.9,1.9,1.3,2.9c7.4-2.7,15.2-0.8,23.7,7.7c2.5,2.8,4.5,2.1,6.5,0.5
				c0.2,1.1,0.5,2.2,0.7,3.3c0.3,0.3,0.5,0.7,0.8,1c3.2-1.9,5.2-2.2,3.5,0.3c-2.2,1.8-3.9,5-6.5,4.4c-1.5-0.6-2,0.1-1.5,2.3
				c2.8,6.6,5.7,13.2,8.5,19.8c-8.3,0.5-16.7,2.7-25.3,6.8c-1-2.8-2-5.6-3-8.4c1.6-2.3,3.2-4.9,4.8-7.5c-7.8,3.8-10.5,2.3-10.7-2.1
				c0-2,0.3-2.4,1.7-1.9c1.4-0.1,2.4-1.9,0.4-1.8c-1,0.2-1.4,0.2-2.4,0.4c-1.4,0.2-1.9-1.8-1-1.8c1.5,0.3,2.9,0.3,4.4,0.1
				c1.8-0.4,1.1-2.5-3.6-1.7c-1.2,0.2-1.8-0.7-1.2-1.4c1.1-0.9,2.6-1.2,3.3-2.3c-1.8-0.4-2.8-1.9-5.3-1.1c-0.1-2.7,0.9-5.2,1.1-7.8
				c0.5-1.2,0.3-1.9-0.8-1.3c-2.2,1.7-3.5,2.1-3.2,0.1c-0.4-2.2,0.2-4.2,1.2-5.2c2.1-1.6,2.1-3.6,0.9-3.6
				C130,206.6,128.7,209.1,127.8,212.8z M134.8,194.8c-2.5,1.9-3.4,4.4-2.9,7.4c1.4-1.6,2.9-2.7,4.5-3.5
				C135.9,197.4,135.3,196.1,134.8,194.8z M137.7,192.6c0.8,1.7,1.6,3.3,2.5,5c3.3-0.4,6.6-0.5,9.8,0.2c0.3-1.7,0.7-3.4,1-5.1
				C146.6,190.6,142.2,190.3,137.7,192.6L137.7,192.6z M154,198.9l2-4.8l9.1,5.9l-2.8,4L154,198.9L154,198.9z M140.8,215.6
				c-0.5-0.5-0.9-1-1.6-1.3c-1.2-0.8-1.6-1.6-0.6-2.7c4.4-3.1,10.6-2.2,12.8,0.9c1.7,0.8,1.3,1.8,0.5,1.7c-1.3,0.1-3.1,1.1-3.7,0.1
				c-2,0-3.9,0-5.9,0C142.6,215.8,142.6,216.9,140.8,215.6L140.8,215.6z"/>
			<path class="st1" d="M124.8,204.9c-0.7,2.4-1.1,4.8-1.2,7.2c-2.3-1.6-4.6-3.1-6.9-4.7c0-2.2,0.1-4.4,0.1-6.6
				C119.5,202.1,122.2,203.5,124.8,204.9L124.8,204.9z"/>
			<path class="st1" d="M175.3,221.1c-3.6,3-8.1,5.7-4.9,10.7c2.3,4.3,4.6,8.7,6.9,13c2.2,0.1,4.4,0.1,6.7,0.2
				c-2.8-4.8-5.6-9.7-7.8-15.1C174.9,226.9,174.8,224,175.3,221.1L175.3,221.1z"/>
			<path class="st1" d="M142.2,253.4c-2.2,0-4.3-0.9-5.6-4.5c-1.5-3.5-3-7.2-4.5-10.7c-17.6-0.9-11.8,20.8-17.6,31.3
				C121.2,263.5,130.1,258.1,142.2,253.4L142.2,253.4z"/>
			<path class="st1" d="M125.7,223.2c-32.5-1.8-17.6,40.6-26.4,60.9c21.8-18.2,6-49.9,32.2-49.5C129.5,230.8,127.6,227,125.7,223.2z
				"/>
			<path class="st1" d="M116.4,219.4c-2.5-4.2-3.8-8.9-4.1-14c-0.7-3.6-2.3-7.3-3.7-10.9c-5.2-13.5-10.4-27.1-15.5-40.6
				c-0.9-3-2.8-4.9-5.6-5.8c-2.3-0.3-4.5-0.9-6.8-1.8c-1.1-0.9-2.2,1-1.5,2.7c0.6,1.6,2,2.7,4.6,3c1.4,0.3,2.2,0.9,1.8,2.7
				c0.5,3.5-1.1,9.3,1.4,10.1c2.2-0.1,3,1,0.7,1.8c0.5,12.4,1,24.9,1.5,37.3c0.5,2.6,1,4.9,2,7.8c2.8,8.8,5.6,17.6,8.4,26.4
				C102.7,226.9,108.2,220.5,116.4,219.4L116.4,219.4z"/>
			<path class="st1" d="M76.6,147.8c-2.6,0.6-5.4,1.6-8.1,2.9c-0.2,0.8-0.2,1.6,1.6,2.5c-0.7,0.1-1.4,0.1-2,0.2
				c-0.1,1.2-0.1,2.3-0.2,3.5c1.3,0,2.6,0,3.9,0c-0.8,0.7-1.6,1.4-2.4,2.1c-0.5,0.6-0.3,1.3-0.1,1.9c0.7,1.1,1.4,2.3,2.1,3.4
				c0.7-3.6,2.5-4.9,5.1-5.5c0-1-0.1-1.9-0.1-2.9c0.8,0,1.6,0,2.4,0c0-1.2,0-2.4,0.1-3.6c-1.3,0-2.7-0.1-4-0.1
				c0.7-0.4,1.4-1,2.1-1.3C76.8,149.8,76.7,148.9,76.6,147.8z"/>
			<path class="st1" d="M75.3,172.9c0-2.8,0-5.6-0.1-8.3c0-1.5,0.3-2.7,1.1-3.3c1.3-0.9,2.5-1.9,3.8-2.8c1.3,1.6,2.6,3.3,3.8,4.9
				c0.8,1.2,1,2.5,1,3.9c0,1.9,0,3.9,0.1,5.8c2.5,1.9,1.4,4.8-0.2,3.4c-3-1.5-6-1.9-9-0.1C73.6,177,73.1,173.8,75.3,172.9z"/>
			<path class="st1" d="M71.6,146.6c0-1.3,0-2.5-0.1-3.8c6.1-5.7,13.3-5.1,17.9,0.8c-0.1,1.1-0.1,2.2-0.2,3.3
				C83.6,142.1,77.7,142,71.6,146.6z"/>
			<path class="st1" d="M62.4,144.1c-1.2-1.9-1.6-3.9-0.9-5.9c2.4-3.2,2.4-5.7,1.4-7.8c2.9-1.4,4.1,3.8,7-4c3.7,0.5,6.1,3.1,9-0.9
				c0.5-1.1,1.7-2.2,2.8,0.1c1.2,2.1,3.5,2.8,6.5,1c2.9-2,3.6,0.1,3.9,2.2c-0.4,2.9,3.1,2.3,5.9,1.6c-2.3,2.5,3.4,9,0.7,13.6
				C96.6,129.4,64.5,129.5,62.4,144.1z"/>
			<path class="st1" d="M71.8,120.3c-2.5-6.5,0.8-11.1,5-12.6c5.7-2.2,11.2,3.9,17.7-1.4c0.3,1.5,0,3-0.8,4.5
				c5.4,2.2,10.2,1.6,14.3-2.6c1.5,10.8-15,8.1-16.6,15.2c-0.8-0.6-1.6-1.3-2.5-1.9c-2.6,2.6-4.9,2.4-6.8-0.6
				c-0.7-0.8-1.8-1-3.3-0.5c-1.6,0.5-2,1.6-3.3,2.4C74.3,123.5,73,123.2,71.8,120.3L71.8,120.3z"/>
		</g>
		<path class="st2" d="M221.3,160.9v-2.8c5.8,0.3,10.3,0.4,13.5,0.4c3.3,0,7.7-0.1,13.2-0.4v2.8c-4.7,0.8-7.2,1.3-7.6,1.5
			c-0.7,0.4-1,1.5-1,3.3l-0.1,9.8v31.8h12.3c2,0,3.4-0.1,4.1-0.5c0.9-0.4,1.8-1.2,2.7-2.3c0.9-1.1,2.4-3.7,4.5-7.8h3
			c-1.5,4.7-3,9.9-4.4,15.5c-9.6-0.3-17.6-0.4-23.9-0.4c-5.2,0-10.6,0.1-16.2,0.4v-2.8c4-0.9,6.2-1.5,6.6-1.8c0.4-0.3,0.7-1,0.8-1.9
			c0.1-0.9,0.1-7,0.1-18.3l0-13.9v-2.5c0-4.1-0.1-6.5-0.4-7.3c-0.2-0.6-0.5-1-0.9-1.3C227.1,162.2,225,161.7,221.3,160.9
			L221.3,160.9z"/>
		<path class="st2" d="M275,156.6c1.7,0,3.2,0.6,4.4,1.8c1.2,1.2,1.8,2.7,1.8,4.4c0,1.7-0.6,3.2-1.8,4.4c-1.2,1.2-2.7,1.8-4.4,1.8
			c-1.7,0-3.2-0.6-4.4-1.8c-1.2-1.2-1.8-2.7-1.8-4.4c0-1.7,0.6-3.2,1.8-4.4C271.8,157.2,273.3,156.6,275,156.6z M263.9,182.3v-2.8
			c5.8-1,10.8-2.8,15-5.3l1.9,1c-0.4,3.1-0.6,5.8-0.7,8.3c-0.2,3.6-0.3,9.3-0.3,17c0,3.3,0.1,5.3,0.3,6.2c0.2,0.6,0.5,1,0.9,1.3
			c0.4,0.3,2,0.8,4.6,1.5v2.7c-3.5-0.3-6.8-0.4-9.7-0.4c-2.8,0-6.9,0.1-12.3,0.4v-2.7l1-0.2c2.2-0.5,3.6-1,4-1.3
			c0.4-0.4,0.7-1,0.8-2c0.2-2.4,0.3-7.4,0.3-15c0-4.4-0.1-6.9-0.3-7.6c-0.3-0.9-1-1.4-2.2-1.4C266.3,182,265.2,182.1,263.9,182.3
			L263.9,182.3z"/>
		<path class="st2" d="M284,164.2v-2.7c5.5-1.1,11.1-2.9,16.6-5.4l2.1,1.2c-0.8,4.8-1.1,11.7-1.1,20.7c0,0.8,0,2.1,0,3.7
			c3.5-3.1,6-5,7.6-5.8c1.6-0.8,3.3-1.2,5.1-1.2c3.6,0,6.6,1.3,9,4c2.5,2.6,3.7,6.6,3.7,11.8c0,6.7-2.4,12.2-7.1,16.4
			c-4.7,4.2-10.8,6.3-18.2,6.3c-3.6,0-7.5-0.7-11.6-2.2c0.2-7.2,0.4-16,0.4-26.6c0-11.8-0.1-18-0.2-18.6c-0.3-1.3-1.2-1.9-2.7-1.9
			C286.9,163.9,285.7,164,284,164.2L284,164.2z M301.6,206.7c2,1,3.8,1.5,5.5,1.5c2.5,0,4.4-0.8,5.7-2.4c1.9-2.2,2.8-5.7,2.8-10.5
			c0-4.9-0.9-8.5-2.7-10.9c-1.2-1.6-2.8-2.3-4.8-2.3c-1.8,0-3.4,0.7-4.6,2.2c-1.3,1.5-1.9,3.9-1.9,7.3V206.7z"/>
		<path class="st2" d="M363.1,201.9l2.1,2.9c-4.3,3.4-8.3,5.8-12,7.4c-1.6,0.7-3.6,1-6,1c-5.1,0-9.1-1.4-11.8-4.2
			c-3.4-3.5-5.1-8.2-5.1-14.1c0-6.1,2-11,5.9-14.8c3.9-3.8,8.8-5.7,14.6-5.7c5.3,0,9.2,1.5,11.6,4.4c1.6,1.9,2.6,5,2.8,9
			c-1.4,0.8-2.7,1.8-3.8,2.9c-2.9-0.1-5.9-0.2-8.9-0.2c-3.9,0-7.6,0.1-10.9,0.2c0,0.6,0,1,0,1.4c0,3.6,0.9,6.8,2.7,9.5
			s4.5,4.1,8,4.1c1.7,0,3.4-0.3,5-0.8C358.8,204.4,360.8,203.4,363.1,201.9L363.1,201.9z M341.7,186.8c1.5,0.1,2.8,0.1,3.8,0.1
			c2.4,0,5.3-0.1,8.7-0.3c-0.2-3.2-0.7-5.4-1.8-6.5c-1-1.1-2.4-1.6-4.2-1.6c-1.7,0-3.2,0.6-4.4,1.9
			C342.7,181.7,341.9,183.8,341.7,186.8L341.7,186.8z"/>
		<path class="st2" d="M366.8,182.6v-2.7c6.7-1.4,12.1-3.1,16.1-5.2l1.9,1c-0.5,2.7-0.7,5.6-0.8,8.8c2.8-4.1,4.8-6.6,6.1-7.5
			c1.3-0.9,2.9-1.4,4.7-1.4c1.2,0,2.6,0.3,4,0.9c-0.8,3.2-1.5,6.5-2,9.9h-2.8c-0.1-1-0.5-1.8-1.1-2.3c-0.6-0.5-1.3-0.7-2-0.7
			c-1.2,0-2.3,0.5-3.4,1.6c-1.6,1.6-2.7,3.6-3.3,5.9c-0.3,1.2-0.5,3.3-0.5,6.2c0,5.2,0.1,8.1,0.2,8.9c0.1,0.8,0.4,1.4,0.9,1.7
			c0.5,0.4,2,0.8,4.5,1.4c0.4,0.1,0.9,0.2,1.6,0.4v2.7c-5.2-0.3-9.3-0.4-12.5-0.4c-3.4,0-7.3,0.1-11.7,0.4v-2.7
			c3.3-0.6,5.1-1.3,5.5-2.1c0.6-1.1,0.9-6.3,0.9-15.7c0-5-0.2-7.8-0.6-8.5c-0.4-0.7-1.1-1-2.2-1
			C369.7,182.3,368.4,182.4,366.8,182.6L366.8,182.6z"/>
		<path class="st2" d="M427.9,177.5l0.4,0.3c-0.8,1.4,1.5,1,0.9,2.5c-2.7-0.3-10.9,0.2-14,0.1L415,185l-0.1,5.2l-0.1,5.2
			c0,4.9,0.4,7.9,1.2,9.2c0.8,1.2,1.9,1.9,3.1,1.9c1,0,2.6-0.5,4.8-1.4l1.4,2.8c-3.8,2.3-6.4,3.7-7.7,4.2c-1.7,0.6-3.3,0.9-4.9,0.9
			c-2.4,0-4.3-0.7-5.7-2.3c-1.4-1.5-2.1-3.7-2.1-6.6l0.2-8.8l0.3-14.6l-3.1-0.1c-0.3,0-1.1,0-2.4,0.1v-2.8c2.4-0.9,4.7-2.3,6.7-4.2
			c2-2,4.1-4.9,6.2-8.7h3.4c-0.7,4.2-1.1,9-1.1,12.4C419.1,177.2,423.9,177.5,427.9,177.5L427.9,177.5z"/>
		<path class="st2" d="M423.6,180l0.2-2.7c4.6,0.3,8.5,0.1,11,0.1c2.6,0,6.1-0.1,10.4-0.4v2.6c-0.4,0.1-0.7,0.1-0.9,0.1
			c-1.6,0.3-2.5,0.5-2.9,0.8c-0.4,0.3-0.5,0.7-0.5,1.1c0,0.4,0.3,1.2,0.8,2.5l5.7,14l4.5-13.2c0.5-1.4,0.7-2.5,0.7-3.2
			c0-0.4-0.2-0.8-0.5-1.1c-0.3-0.3-1.2-0.7-2.6-1.1V177c2.9,0.3,5.3,0.4,7.1,0.4c2,0,4.1-0.1,6.3-0.4v2.6c-1.9,0.6-3.1,1.1-3.7,1.6
			c-0.6,0.4-1.1,1.4-1.8,2.7c-0.6,1.4-2.6,6.4-5.8,15.1c-4.1,11-6.7,17.7-8,20.2c-1.7,3.5-6.3,13.8-8.3,15.2c-3,2-7.2,2.6-10.7,1.9
			l0.7-9.3c3.2,2.5,6,2.5,10.9-1.1c1.4-1.1,4.6-10.3,6.1-14.6l-10.9-24.1c-1.3-3-2.4-4.9-3.1-5.5C427.8,181,427.6,179.9,423.6,180
			L423.6,180z"/>
		<path class="st2" d="M251.4,259.4H248c-0.8-4.5-1.9-7.6-3.4-9.1c-1.5-1.5-3.6-2.3-6.2-2.3c-2.3,0-4.1,0.6-5.4,1.9
			c-1.3,1.3-1.9,2.9-1.9,4.8c0,1.7,0.6,3.3,1.8,4.7c1.2,1.5,4,3.2,8.5,5.4c4.5,2.1,7.6,4.4,9.4,6.7c1.8,2.4,2.7,5.4,2.7,8.9
			c0,4.3-1.5,8-4.6,11.2c-3,3.2-8,4.8-14.8,4.8c-2.4,0-4.7-0.2-6.9-0.6c-1.7-0.3-3.7-0.8-6.1-1.6c0.4-4.2,0.6-8.3,0.6-12.3v-2.4h3.3
			c0.9,4.7,1.9,7.8,3.2,9.4c1.7,2.2,4,3.2,7,3.2c2.4,0,4.3-0.7,5.7-2.2c1.4-1.5,2.2-3.4,2.2-5.7c0-1.5-0.3-2.8-0.9-3.9
			c-0.6-1.1-1.5-2.2-2.7-3.1c-1.2-0.9-3.3-2.1-6.4-3.7c-4.8-2.4-8-4.6-9.6-6.8c-1.6-2.2-2.4-4.7-2.4-7.7c0-4.3,1.5-8,4.6-10.8
			c3.1-2.9,7.5-4.3,13.3-4.3c3.8,0,8,0.8,12.5,2.3c-0.1,3.7-0.2,6.3-0.2,7.7C251.2,255.6,251.2,257.4,251.4,259.4L251.4,259.4z"/>
		<path class="st2" d="M286.1,286.1l2,2.6c-4,3-7.6,5.2-10.9,6.6c-1.4,0.6-3.3,0.9-5.5,0.9c-4.7,0-8.2-1.3-10.7-3.8
			c-3.1-3.1-4.7-7.3-4.7-12.5c0-5.4,1.8-9.8,5.4-13.2c3.6-3.4,8-5.1,13.3-5.1c4.8,0,8.4,1.3,10.6,4c1.5,1.7,2.3,4.4,2.6,8.1
			c-1.3,0.8-2.4,1.6-3.5,2.6c-2.7-0.1-5.3-0.1-8.1-0.1c-3.6,0-6.9,0-10,0.1c0,0.5,0,0.9,0,1.3c0,3.2,0.8,6,2.4,8.5
			c1.6,2.4,4.1,3.6,7.3,3.6c1.6,0,3.1-0.2,4.5-0.7C282.2,288.3,284,287.4,286.1,286.1L286.1,286.1z M266.6,272.6
			c1.4,0,2.6,0.1,3.5,0.1c2.2,0,4.8-0.1,7.9-0.3c-0.2-2.9-0.7-4.8-1.6-5.8c-0.9-1-2.2-1.4-3.8-1.4c-1.6,0-2.9,0.6-4,1.7
			C267.5,268.1,266.8,270,266.6,272.6L266.6,272.6z"/>
		<path class="st2" d="M330.3,263.6l0.4,0.7c-0.9,1.4-1.7,2.9-2.3,4.5c-1.7-0.3-3.5-0.5-5.3-0.5c1.4,2.4,2.1,4.7,2.1,7
			c0,2.5-0.6,4.8-1.9,6.9c-1.3,2.1-3.2,3.8-5.8,5c-2.6,1.2-5.3,1.9-8.1,1.9c-0.6,0-1.3,0-2.2-0.1c-0.8-0.1-1.8-0.2-2.9-0.3
			c-1.7,1.5-2.5,2.7-2.5,3.6c0,0.5,0.3,0.9,0.9,1.2c1,0.5,3.3,0.7,7.2,0.7l6.6-0.1c5.4,0,9,0.7,10.7,2.1c1.7,1.4,2.6,3.5,2.6,6.4
			c0,2.8-0.9,5.4-2.6,7.8c-1.7,2.3-4.4,4.2-8.2,5.7c-3.8,1.4-8.2,2.1-13.2,2.1c-5.5,0-9.7-1-12.5-2.9c-2-1.4-2.9-3.1-2.9-5
			c0-0.8,0.2-1.5,0.5-2c0.3-0.5,1.1-1.1,2.1-1.8c2.2-1.4,4.2-2.7,5.9-4c-2-0.7-3.5-1.6-4.3-2.7c-0.8-1.1-1.3-2.3-1.3-3.8
			c0-0.8,0.1-1.5,0.3-1.9c0.2-0.4,0.7-0.9,1.5-1.6c2.8-2.1,4.7-3.8,6-4.9c-2.3-1.1-3.9-2.3-4.9-3.8c-1.5-2-2.2-4.5-2.2-7.3
			c0-4.1,1.4-7.4,4.2-10c2.8-2.6,6.8-3.9,12-3.9c1.3,0,2.6,0.1,3.9,0.4c1.3,0.2,2.6,0.6,3.9,1.1c3,0.1,4.6,0.1,4.7,0.1
			C325.2,264.2,327.8,264,330.3,263.6L330.3,263.6z M304.5,274.8c0,4,0.7,7.1,2.1,9.1c0.8,1.2,2,1.8,3.5,1.8c1.2,0,2.3-0.6,3.2-1.9
			c0.9-1.3,1.3-3.6,1.3-7.1c0-4.1-0.6-7-1.9-8.9c-0.8-1.2-2-1.8-3.5-1.8c-1.3,0-2.4,0.6-3.4,1.9C305,269.2,304.5,271.5,304.5,274.8
			L304.5,274.8z M302.9,303.1c-2.5,1.9-3.8,3.8-3.8,5.6c0,1.2,0.8,2.4,2.2,3.5c1.5,1.1,3.7,1.7,6.8,1.7c4,0,7.2-0.7,9.5-2.2
			c2.3-1.4,3.4-3,3.4-4.9c0-1.1-0.4-1.9-1.2-2.5c-1-0.7-3.2-1.1-6.5-1.1l-5,0.1C307.5,303.3,305.7,303.3,302.9,303.1z"/>
		<path class="st2" d="M376.7,290v2.6c-3.8,0.4-6.8,0.9-9,1.4c-2.2,0.5-4.5,1.2-6.7,2.1l-1.8-1.1c0.3-1.6,0.6-3.3,0.7-5
			c-3.3,2.7-5.7,4.4-7,5c-1.3,0.6-2.8,0.9-4.6,0.9c-2,0-3.7-0.3-5.1-1c-1.4-0.6-2.5-1.5-3.2-2.5s-1.2-2.3-1.4-3.9
			c-0.1-1-0.1-3.7-0.1-8l0-7c0-3.8-0.3-6.1-0.9-6.7c-0.6-0.6-2.4-1.1-5.4-1.3v-2.3c6-0.4,11.1-1.2,15.5-2.3l1.8,1
			c-0.2,1.2-0.4,2.9-0.5,5.2c-0.2,4.1-0.3,7.8-0.3,10.9c0,4.8,0.4,7.9,1.1,9.3c0.7,1.4,2.1,2.1,4.1,2.1c1.6,0,2.9-0.4,4-1.3
			c1.1-0.9,1.9-2.2,2.2-4.1c0.2-1.1,0.3-4.8,0.3-11c0-3.6-0.2-5.7-0.7-6.2c-0.5-0.5-2.3-0.9-5.5-1.2v-2.3c4.6-0.4,7.8-0.8,9.8-1.1
			c2-0.3,3.9-0.7,5.8-1.2l1.8,1c-0.4,2.1-0.6,4.1-0.7,6c-0.2,3.1-0.3,7.8-0.3,14c0,4.1,0.1,6.4,0.4,7c0.3,0.8,1.2,1.1,2.5,1.1h0.4
			C374.5,290,375.5,290,376.7,290L376.7,290z"/>
		<path class="st2" d="M377.4,266v-2.6c6.2-1.3,11.1-3,14.8-5l1.8,1c-0.4,2.6-0.7,5.4-0.7,8.4c2.5-3.9,4.4-6.3,5.6-7.2
			c1.2-0.9,2.6-1.3,4.3-1.3c1.1,0,2.4,0.3,3.7,0.9c-0.8,3-1.4,6.2-1.8,9.5h-2.5c-0.1-1-0.4-1.7-1-2.2c-0.5-0.5-1.1-0.7-1.9-0.7
			c-1.1,0-2.1,0.5-3.1,1.5c-1.5,1.5-2.5,3.4-3.1,5.7c-0.3,1.1-0.4,3.1-0.4,5.9c0,5,0.1,7.8,0.2,8.6c0.1,0.7,0.4,1.3,0.8,1.7
			c0.4,0.4,1.8,0.8,4.1,1.3c0.3,0.1,0.8,0.2,1.5,0.4v2.6c-4.7-0.3-8.5-0.4-11.4-0.4c-3.1,0-6.7,0.1-10.7,0.4v-2.6
			c3-0.6,4.7-1.3,5.1-2c0.6-1,0.9-6,0.9-15c0-4.8-0.2-7.4-0.6-8.1c-0.4-0.6-1-1-2-1C380,265.7,378.9,265.8,377.4,266L377.4,266z"/>
		<path class="st2" d="M409.3,278.4c0-5.2,1.7-9.3,5.2-12.5c3.5-3.2,8.1-4.7,13.9-4.7c5.7,0,10.2,1.5,13.4,4.4
			c3.2,2.9,4.8,7,4.8,12.1c0,5.9-1.7,10.6-5.1,13.9c-3.4,3.3-8,4.9-13.9,4.9c-5.9,0-10.4-1.5-13.5-4.6
			C410.8,288.8,409.3,284.3,409.3,278.4L409.3,278.4z M420.6,276.5c0,6.5,1,11.2,3,14.1c1.1,1.7,2.8,2.5,4.9,2.5
			c2,0,3.5-0.7,4.5-2.1c1.5-2,2.3-5.5,2.3-10.5c0-6.3-1-10.8-2.8-13.5c-1.2-1.7-2.8-2.5-4.9-2.5c-2,0-3.5,0.7-4.6,2.2
			C421.4,268.6,420.6,271.9,420.6,276.5L420.6,276.5z"/>
		<path class="st2" d="M450.3,284.2h3.3c0.6,3.1,1.7,5.3,3.1,6.6c1.5,1.3,3.1,2,5.1,2c1.5,0,2.6-0.4,3.5-1.1
			c0.9-0.7,1.3-1.6,1.3-2.7c0-1-0.4-1.9-1.3-2.8c-0.9-0.9-3-2.3-6.4-4.1c-3.5-1.9-5.8-3.6-6.9-5.1c-1.2-1.5-1.8-3.2-1.8-5.1
			c0-2.8,1.2-5.1,3.6-7c2.4-1.9,5.8-2.9,10.3-2.9c3.2,0,6.5,0.7,9.9,2c-0.3,1.2-0.7,4-1,8.4l-3.1-0.1c-0.5-2.7-1.4-4.6-2.6-5.7
			c-1.2-1.1-2.6-1.7-4.2-1.7c-1.3,0-2.4,0.3-3.1,1c-0.7,0.6-1.1,1.5-1.1,2.5c0,0.9,0.3,1.7,1,2.4c0.9,1,2.9,2.3,6,3.9
			c3.9,2,6.4,3.8,7.6,5.3c1.2,1.5,1.8,3.2,1.8,5.2c0,2.7-1.1,5.2-3.3,7.5c-2.2,2.3-6,3.4-11.4,3.4c-3.1,0-6.6-0.5-10.3-1.6
			C450.1,290.6,450.3,287.2,450.3,284.2L450.3,284.2z"/>
		<polygon class="st3" points="221.9,225.8 416.6,225.8 416.6,229.5 221.9,229.5 		"/>
		<polygon class="st3" points="446.2,225.8 485.6,225.8 485.6,229.5 446.2,229.5 		"/>
	</g>
</g>
</svg>
