<svg id="Layer_1" data-name="Layer 1" xmlns="http://www.w3.org/2000/svg" xmlns:xlink="http://www.w3.org/1999/xlink" viewBox="0 0 574.41 174.35"><defs><style>.cls-1,.cls-5,.cls-8{fill:none;}.cls-2,.cls-6,.cls-9{fill:#00488b;}.cls-2,.cls-3,.cls-7{fill-rule:evenodd;}.cls-3{fill:#008bc9;}.cls-4{clip-path:url(#clip-path);}.cls-5{stroke:#00488b;stroke-width:2.13px;}.cls-7{fill:#008ac8;}.cls-8{stroke:#008bc9;stroke-width:0.53px;}.cls-9{font-size:40px;font-family:TitilliumWeb-SemiBold, Titillium Web;font-weight:600;}.cls-10{fill:#265a99;}.cls-11{fill:#fff;}.cls-12{fill:#09c;stroke:#09c;stroke-miterlimit:10;stroke-width:2px;opacity:0.5;}</style><clipPath id="clip-path" transform="translate(-15.04 -11.32)"><rect class="cls-1" x="15.26" y="11.94" width="200" height="168.51"/></clipPath></defs><path class="cls-2" d="M32.51,117.82H28.16a.75.75,0,0,0-.76.75v30.57a.75.75,0,0,0,.76.75h4.35a.75.75,0,0,0,.53-.22.72.72,0,0,0,.22-.53V118.57A.75.75,0,0,0,33,118a.79.79,0,0,0-.53-.22Zm0,0" transform="translate(-15.04 -11.32)"/><path class="cls-3" d="M61.05,149.14V120.82l-5.86,8.37v19.95a.72.72,0,0,0,.23.53.72.72,0,0,0,.53.22H60.3a.73.73,0,0,0,.53-.22.72.72,0,0,0,.22-.53Zm0,0" transform="translate(-15.04 -11.32)"/><path class="cls-3" d="M46.24,136.93,34.79,120.57v7.9l5.31,7.59a3.12,3.12,0,0,0,.95.85,2.16,2.16,0,0,0,1,.34h4.36a1.7,1.7,0,0,0-.17-.32Zm0,0" transform="translate(-15.04 -11.32)"/><path class="cls-3" d="M61.21,117.88H56.85a2.18,2.18,0,0,0-1,.33,3.2,3.2,0,0,0-1,.86l-9.66,13.79,2.24,3.2a3.11,3.11,0,0,1,.36.66,2.83,2.83,0,0,0,.72-.7L61,118.19a1.67,1.67,0,0,0,.17-.31Zm0,0" transform="translate(-15.04 -11.32)"/><path class="cls-2" d="M214.42,133.78a17.66,17.66,0,0,1-1.08,6.28,14.23,14.23,0,0,1-3.06,4.92,13.84,13.84,0,0,1-4.74,3.2,16,16,0,0,1-6.13,1.14,15.8,15.8,0,0,1-6.11-1.14,13.74,13.74,0,0,1-4.74-3.2,14.23,14.23,0,0,1-3.06-4.92,18.83,18.83,0,0,1,0-12.57,14.55,14.55,0,0,1,3.06-4.93,13.79,13.79,0,0,1,4.74-3.22,15.8,15.8,0,0,1,6.11-1.15,16,16,0,0,1,6.13,1.15,13.88,13.88,0,0,1,4.74,3.22,14.55,14.55,0,0,1,3.06,4.93,17.75,17.75,0,0,1,1.08,6.29Zm-4.23,0a15.47,15.47,0,0,0-.76-5,10.62,10.62,0,0,0-2.17-3.78,9.28,9.28,0,0,0-3.39-2.37,12.34,12.34,0,0,0-8.9,0,9.4,9.4,0,0,0-3.4,2.37,10.64,10.64,0,0,0-2.18,3.78,16.85,16.85,0,0,0,0,10.07,10.77,10.77,0,0,0,2.18,3.77,9.47,9.47,0,0,0,3.4,2.35,12.48,12.48,0,0,0,8.9,0,9.35,9.35,0,0,0,3.39-2.35,10.75,10.75,0,0,0,2.17-3.77,15.41,15.41,0,0,0,.76-5Zm0,0" transform="translate(-15.04 -11.32)"/><g class="cls-4"><path class="cls-5" d="M214.42,133.78a17.66,17.66,0,0,1-1.08,6.28,14.23,14.23,0,0,1-3.06,4.92,13.7,13.7,0,0,1-4.74,3.2,16,16,0,0,1-6.13,1.14,15.8,15.8,0,0,1-6.11-1.14,13.6,13.6,0,0,1-4.74-3.2,14.23,14.23,0,0,1-3.06-4.92,18.83,18.83,0,0,1,0-12.57,14.55,14.55,0,0,1,3.06-4.93,13.79,13.79,0,0,1,4.74-3.22,15.8,15.8,0,0,1,6.11-1.15,16,16,0,0,1,6.13,1.15,13.88,13.88,0,0,1,4.74,3.22,14.55,14.55,0,0,1,3.06,4.93,17.75,17.75,0,0,1,1.08,6.29Zm-4.23,0a15.47,15.47,0,0,0-.76-5,10.62,10.62,0,0,0-2.17-3.78,9.28,9.28,0,0,0-3.39-2.37,12.34,12.34,0,0,0-8.9,0,9.4,9.4,0,0,0-3.4,2.37,10.64,10.64,0,0,0-2.18,3.78,16.85,16.85,0,0,0,0,10.07,10.77,10.77,0,0,0,2.18,3.77,9.47,9.47,0,0,0,3.4,2.35,12.48,12.48,0,0,0,8.9,0,9.35,9.35,0,0,0,3.39-2.35,10.75,10.75,0,0,0,2.17-3.77,15.45,15.45,0,0,0,.76-5Zm0,0" transform="translate(-15.04 -11.32)"/></g><path class="cls-2" d="M162.15,149H159a1.36,1.36,0,0,1-.9-.28,1.82,1.82,0,0,1-.51-.7l-2.84-7.34H141.07L138.22,148a1.65,1.65,0,0,1-.51.68,1.33,1.33,0,0,1-.89.3h-3.18l12.16-30.44H150Zm-19.94-11.27h11.36l-4.77-12.4a22.07,22.07,0,0,1-.92-2.86c-.15.58-.3,1.11-.45,1.6s-.3.92-.44,1.28Zm0,0" transform="translate(-15.04 -11.32)"/><path class="cls-5" d="M162.15,149H159a1.36,1.36,0,0,1-.9-.28,1.82,1.82,0,0,1-.51-.7l-2.84-7.34H141.07L138.22,148a1.65,1.65,0,0,1-.51.68,1.33,1.33,0,0,1-.89.3h-3.18l12.16-30.44H150Zm-19.94-11.27h11.36l-4.77-12.39a22.79,22.79,0,0,1-.92-2.87c-.15.58-.3,1.11-.45,1.6s-.3.92-.44,1.28Zm0,0" transform="translate(-15.04 -11.32)"/><path class="cls-2" d="M118.48,133.76A17.19,17.19,0,0,1,117.4,140a14.14,14.14,0,0,1-3.06,4.81,13.69,13.69,0,0,1-4.74,3.08,16.41,16.41,0,0,1-6.11,1.1H92.11V118.54h11.38a16.41,16.41,0,0,1,6.11,1.09,13.59,13.59,0,0,1,4.74,3.1,14.24,14.24,0,0,1,3.06,4.81,17.17,17.17,0,0,1,1.08,6.22Zm-4.23,0a15.22,15.22,0,0,0-.76-5,10.4,10.4,0,0,0-2.17-3.73,9.06,9.06,0,0,0-3.39-2.33,11.7,11.7,0,0,0-4.44-.81H96.25v23.73h7.24a11.7,11.7,0,0,0,4.44-.8,9.28,9.28,0,0,0,3.39-2.32,10.4,10.4,0,0,0,2.17-3.73,15.24,15.24,0,0,0,.76-5Zm0,0" transform="translate(-15.04 -11.32)"/><path class="cls-5" d="M118.48,133.76A17.19,17.19,0,0,1,117.4,140a14.14,14.14,0,0,1-3.06,4.81,13.69,13.69,0,0,1-4.74,3.08,16.41,16.41,0,0,1-6.11,1.1H92.11V118.54h11.38a16.41,16.41,0,0,1,6.11,1.09,13.59,13.59,0,0,1,4.74,3.1,14.24,14.24,0,0,1,3.06,4.81,17.17,17.17,0,0,1,1.08,6.22Zm-4.23,0a15.22,15.22,0,0,0-.76-5,10.4,10.4,0,0,0-2.17-3.73,9.21,9.21,0,0,0-3.39-2.34,11.9,11.9,0,0,0-4.44-.8H96.25v23.74h7.24a11.7,11.7,0,0,0,4.44-.81,9.28,9.28,0,0,0,3.39-2.32,10.4,10.4,0,0,0,2.17-3.73,15.24,15.24,0,0,0,.76-5Zm0,0" transform="translate(-15.04 -11.32)"/><path class="cls-2" d="M183.91,118.49V122h-9.83v27H170V122h-9.87v-3.48Zm0,0" transform="translate(-15.04 -11.32)"/><path class="cls-5" d="M183.91,118.49V122h-9.83v27H170V122h-9.87v-3.48Zm0,0" transform="translate(-15.04 -11.32)"/><rect class="cls-6" x="109.81" y="107.21" width="4.12" height="30.44"/><rect class="cls-5" x="109.81" y="107.21" width="4.12" height="30.44"/><path class="cls-2" d="M86.19,118.54v3.35H71.58V132H83.41v3.23H71.58v10.4H86.19V149H67.44V118.54Zm0,0" transform="translate(-15.04 -11.32)"/><path class="cls-5" d="M86.19,118.54v3.35H71.58V132H83.41v3.23H71.58v10.41H86.19V149H67.44V118.54Zm0,0" transform="translate(-15.04 -11.32)"/><rect class="cls-6" x="1.06" y="107.21" width="4.12" height="30.44"/><g class="cls-4"><rect class="cls-5" x="1.06" y="107.21" width="4.12" height="30.44"/></g><path class="cls-7" d="M28.11,161.45a1.35,1.35,0,0,1-.28.33.66.66,0,0,1-.38.11,1,1,0,0,1-.59-.25,8.21,8.21,0,0,0-.84-.55,6.33,6.33,0,0,0-1.22-.56,5.52,5.52,0,0,0-1.74-.25,5.19,5.19,0,0,0-1.7.26,3.67,3.67,0,0,0-1.23.7,2.8,2.8,0,0,0-.74,1,3.27,3.27,0,0,0-.26,1.29,2.4,2.4,0,0,0,.44,1.47,3.88,3.88,0,0,0,1.15,1,9.08,9.08,0,0,0,1.63.71l1.86.63c.63.22,1.25.46,1.86.73a6.76,6.76,0,0,1,1.62,1,4.6,4.6,0,0,1,1.15,1.52,5.06,5.06,0,0,1,.44,2.21,7,7,0,0,1-.48,2.6,6,6,0,0,1-1.37,2.13A6.44,6.44,0,0,1,25.2,179a8.12,8.12,0,0,1-3,.52,9.12,9.12,0,0,1-3.74-.75,8.65,8.65,0,0,1-2.89-2l.83-1.36a1.28,1.28,0,0,1,.29-.28.7.7,0,0,1,.37-.11,1.13,1.13,0,0,1,.71.34c.27.22.6.46,1,.73a7.82,7.82,0,0,0,1.45.73,5.69,5.69,0,0,0,2.07.33,5.59,5.59,0,0,0,1.81-.28,4,4,0,0,0,1.36-.79,3.34,3.34,0,0,0,.84-1.22,4,4,0,0,0,.3-1.58,2.56,2.56,0,0,0-.44-1.57,3.55,3.55,0,0,0-1.14-1,8.06,8.06,0,0,0-1.62-.7l-1.85-.59a16.55,16.55,0,0,1-1.86-.7,6.13,6.13,0,0,1-1.62-1,4.76,4.76,0,0,1-1.14-1.59,6,6,0,0,1,0-4.52,5.29,5.29,0,0,1,1.26-1.86,5.9,5.9,0,0,1,2-1.3,7.37,7.37,0,0,1,2.8-.49,8.8,8.8,0,0,1,3.23.57,7.33,7.33,0,0,1,2.55,1.63Zm29.14-3.32v2.33H47.09v7h8.23v2.25H47.09V177H57.25v2.33h-13V158.13ZM82.1,177.2a15.09,15.09,0,0,0,1.57-.08,10.5,10.5,0,0,0,1.35-.24,9.76,9.76,0,0,0,1.19-.39c.38-.15.75-.32,1.13-.51v-4.69H84.06a.62.62,0,0,1-.45-.16.54.54,0,0,1-.17-.4v-1.62h6.5v8.13a13.63,13.63,0,0,1-1.66,1,11.63,11.63,0,0,1-1.85.71,14.3,14.3,0,0,1-2.11.43,20.15,20.15,0,0,1-2.43.14,11.13,11.13,0,0,1-4.22-.79,9.84,9.84,0,0,1-3.31-2.22,10.18,10.18,0,0,1-2.16-3.42,13,13,0,0,1,0-8.8,9.5,9.5,0,0,1,5.58-5.63,12.2,12.2,0,0,1,4.48-.78,14.18,14.18,0,0,1,2.33.19,10.63,10.63,0,0,1,2,.53,9.62,9.62,0,0,1,3.16,2l-.81,1.28a.74.74,0,0,1-.65.39,1.08,1.08,0,0,1-.51-.16c-.25-.14-.53-.31-.83-.51a7.61,7.61,0,0,0-1.11-.56,8.65,8.65,0,0,0-1.55-.47,10.89,10.89,0,0,0-2.12-.19,8.61,8.61,0,0,0-3.24.58,6.8,6.8,0,0,0-2.46,1.67,7.43,7.43,0,0,0-1.57,2.63,11.44,11.44,0,0,0,0,7,7.45,7.45,0,0,0,1.6,2.66A6.81,6.81,0,0,0,79,176.62a8.12,8.12,0,0,0,3.13.58Zm31.75-.18a6,6,0,0,0,2.35-.44,5,5,0,0,0,1.75-1.24,5.36,5.36,0,0,0,1.09-1.91,7.55,7.55,0,0,0,.38-2.43V158.14h2.84V171a9.58,9.58,0,0,1-.58,3.39,7.86,7.86,0,0,1-1.66,2.71,7.54,7.54,0,0,1-2.66,1.8,9.8,9.8,0,0,1-7,0,7.64,7.64,0,0,1-2.66-1.8A7.73,7.73,0,0,1,106,174.4a9.58,9.58,0,0,1-.59-3.39V158.14h2.85V171a7.57,7.57,0,0,0,.38,2.44,5.47,5.47,0,0,0,1.09,1.9,5,5,0,0,0,1.76,1.25,5.83,5.83,0,0,0,2.35.45Zm27.77-6.55v8.84h-2.85V158.13h6a12.7,12.7,0,0,1,3.47.41,6.46,6.46,0,0,1,2.41,1.17,4.61,4.61,0,0,1,1.41,1.85,6.16,6.16,0,0,1,.46,2.43,6,6,0,0,1-.36,2.1,5.3,5.3,0,0,1-1,1.75,6.17,6.17,0,0,1-1.64,1.33,7.9,7.9,0,0,1-2.19.82,3.08,3.08,0,0,1,.94.9l6.17,8.42h-2.54a1.25,1.25,0,0,1-1.15-.61l-5.49-7.57a1.71,1.71,0,0,0-.54-.51,2.07,2.07,0,0,0-.89-.15Zm0-2.1h3a7.43,7.43,0,0,0,2.21-.3,4.49,4.49,0,0,0,1.59-.86,3.32,3.32,0,0,0,1-1.32,4.18,4.18,0,0,0,.33-1.69,3.36,3.36,0,0,0-1.25-2.84,6,6,0,0,0-3.71-1h-3.13Zm46.13.36a12.24,12.24,0,0,1-.75,4.36,9.81,9.81,0,0,1-2.13,3.42,9.45,9.45,0,0,1-3.29,2.23,11.31,11.31,0,0,1-4.27.79,11.12,11.12,0,0,1-4.24-.79,9.58,9.58,0,0,1-3.3-2.23,9.94,9.94,0,0,1-2.12-3.42,13.08,13.08,0,0,1,0-8.73,10.07,10.07,0,0,1,2.12-3.43,9.61,9.61,0,0,1,3.3-2.24,10.93,10.93,0,0,1,4.24-.8,11.12,11.12,0,0,1,4.27.8,9.47,9.47,0,0,1,3.29,2.24,9.94,9.94,0,0,1,2.13,3.43,12.26,12.26,0,0,1,.75,4.37Zm-2.94,0a10.69,10.69,0,0,0-.53-3.51,7.36,7.36,0,0,0-1.5-2.63,6.51,6.51,0,0,0-2.37-1.64,8.52,8.52,0,0,0-6.18,0,6.68,6.68,0,0,0-2.37,1.64,7.38,7.38,0,0,0-1.51,2.63,10.69,10.69,0,0,0-.53,3.51,10.57,10.57,0,0,0,.53,3.49,7.42,7.42,0,0,0,1.51,2.62,6.68,6.68,0,0,0,2.37,1.64,8.66,8.66,0,0,0,6.18,0,6.51,6.51,0,0,0,2.37-1.64,7.4,7.4,0,0,0,1.5-2.62,10.57,10.57,0,0,0,.53-3.49Zm29-7.28a1.35,1.35,0,0,1-.28.33.66.66,0,0,1-.38.11,1,1,0,0,1-.58-.25,9.5,9.5,0,0,0-.84-.55,6.44,6.44,0,0,0-1.23-.56,5.52,5.52,0,0,0-1.74-.25,5.17,5.17,0,0,0-1.69.26,3.57,3.57,0,0,0-1.23.7,3,3,0,0,0-.75,1,3.26,3.26,0,0,0-.25,1.29,2.34,2.34,0,0,0,.44,1.47,3.76,3.76,0,0,0,1.15,1,9.3,9.3,0,0,0,1.62.71l1.86.63c.63.22,1.26.46,1.86.73a6.39,6.39,0,0,1,1.62,1,4.6,4.6,0,0,1,1.15,1.52,4.92,4.92,0,0,1,.44,2.21,7.19,7.19,0,0,1-.47,2.6,6.21,6.21,0,0,1-1.38,2.13,6.44,6.44,0,0,1-2.23,1.41,8.08,8.08,0,0,1-3,.52,9.15,9.15,0,0,1-3.74-.75,8.61,8.61,0,0,1-2.88-2l.82-1.36a1.28,1.28,0,0,1,.29-.28.73.73,0,0,1,.38-.11,1.13,1.13,0,0,1,.7.34c.27.22.61.46,1,.73a8.15,8.15,0,0,0,1.45.73,5.76,5.76,0,0,0,2.07.33,5.66,5.66,0,0,0,1.82-.28,4.08,4.08,0,0,0,1.35-.79,3.49,3.49,0,0,0,.85-1.22,4.19,4.19,0,0,0,.29-1.58,2.63,2.63,0,0,0-.43-1.57,3.59,3.59,0,0,0-1.15-1,8.22,8.22,0,0,0-1.61-.7l-1.86-.59a17.32,17.32,0,0,1-1.86-.7,6.29,6.29,0,0,1-1.62-1,4.9,4.9,0,0,1-1.14-1.59,6,6,0,0,1,0-4.52,5.57,5.57,0,0,1,1.26-1.86,5.85,5.85,0,0,1,2-1.3,7.35,7.35,0,0,1,2.79-.49,8.8,8.8,0,0,1,3.23.57,7.37,7.37,0,0,1,2.56,1.63Zm0,0" transform="translate(-15.04 -11.32)"/><g class="cls-4"><path class="cls-8" d="M28.11,161.45a1.35,1.35,0,0,1-.28.33.66.66,0,0,1-.38.11,1,1,0,0,1-.59-.25c-.22-.17-.5-.35-.84-.56a7,7,0,0,0-1.22-.55,5.52,5.52,0,0,0-1.74-.25,5.19,5.19,0,0,0-1.7.26,3.67,3.67,0,0,0-1.23.7,2.8,2.8,0,0,0-.74,1,3.27,3.27,0,0,0-.26,1.29,2.4,2.4,0,0,0,.44,1.47,3.88,3.88,0,0,0,1.15,1,9.08,9.08,0,0,0,1.63.71l1.86.63c.63.22,1.25.46,1.86.73a6.76,6.76,0,0,1,1.62,1,4.6,4.6,0,0,1,1.15,1.52,5.06,5.06,0,0,1,.44,2.21,7,7,0,0,1-.48,2.6,6,6,0,0,1-1.37,2.13A6.44,6.44,0,0,1,25.2,179a8.12,8.12,0,0,1-3,.52,9.12,9.12,0,0,1-3.74-.75,8.65,8.65,0,0,1-2.89-2l.83-1.36a1.06,1.06,0,0,1,.29-.27.63.63,0,0,1,.37-.12,1.18,1.18,0,0,1,.71.34c.27.22.6.46,1,.73a7.82,7.82,0,0,0,1.45.73,5.69,5.69,0,0,0,2.07.33,5.59,5.59,0,0,0,1.81-.28,4,4,0,0,0,1.36-.79,3.34,3.34,0,0,0,.84-1.22,4,4,0,0,0,.3-1.58,2.56,2.56,0,0,0-.44-1.57,3.55,3.55,0,0,0-1.14-1,8.06,8.06,0,0,0-1.62-.7l-1.85-.59a16.55,16.55,0,0,1-1.86-.7,6.13,6.13,0,0,1-1.62-1,4.76,4.76,0,0,1-1.14-1.59,6,6,0,0,1,0-4.52,5.29,5.29,0,0,1,1.26-1.86,5.9,5.9,0,0,1,2-1.3,7.37,7.37,0,0,1,2.8-.49,8.8,8.8,0,0,1,3.23.57,7.33,7.33,0,0,1,2.55,1.63Zm29.14-3.32v2.33H47.09v7h8.23v2.25H47.09V177H57.25v2.33h-13V158.13ZM82.1,177.2a15.09,15.09,0,0,0,1.57-.08,10.5,10.5,0,0,0,1.35-.24,9.76,9.76,0,0,0,1.19-.39c.38-.15.75-.32,1.13-.51v-4.69H84.06a.62.62,0,0,1-.45-.16.54.54,0,0,1-.17-.4v-1.62h6.5v8.13a13.63,13.63,0,0,1-1.66,1,11.63,11.63,0,0,1-1.85.71,14.3,14.3,0,0,1-2.11.43,20.15,20.15,0,0,1-2.43.14,11.13,11.13,0,0,1-4.22-.79,9.84,9.84,0,0,1-3.31-2.22,10.18,10.18,0,0,1-2.16-3.42,13,13,0,0,1,0-8.8,9.61,9.61,0,0,1,2.17-3.42,9.76,9.76,0,0,1,3.41-2.21,12.2,12.2,0,0,1,4.48-.78,14.18,14.18,0,0,1,2.33.19,10.63,10.63,0,0,1,2,.53,9.62,9.62,0,0,1,3.16,2l-.81,1.28a.74.74,0,0,1-.65.39,1.08,1.08,0,0,1-.51-.16c-.25-.14-.53-.31-.83-.51a8.71,8.71,0,0,0-1.11-.57,9.6,9.6,0,0,0-1.55-.46,10.89,10.89,0,0,0-2.12-.19,8.61,8.61,0,0,0-3.24.58,6.93,6.93,0,0,0-2.46,1.67,7.43,7.43,0,0,0-1.57,2.63,11.44,11.44,0,0,0,0,7,7.45,7.45,0,0,0,1.6,2.66A6.81,6.81,0,0,0,79,176.62a8.12,8.12,0,0,0,3.13.58Zm31.75-.18a6,6,0,0,0,2.35-.44,5,5,0,0,0,1.75-1.24,5.36,5.36,0,0,0,1.09-1.91,7.55,7.55,0,0,0,.38-2.43V158.14h2.84V171a9.58,9.58,0,0,1-.58,3.39,7.86,7.86,0,0,1-1.66,2.71,7.54,7.54,0,0,1-2.66,1.8,9.8,9.8,0,0,1-7,0,7.64,7.64,0,0,1-2.66-1.8A7.73,7.73,0,0,1,106,174.4a9.58,9.58,0,0,1-.59-3.39V158.14h2.85V171a7.57,7.57,0,0,0,.38,2.44,5.47,5.47,0,0,0,1.09,1.9,4.87,4.87,0,0,0,1.76,1.25,5.83,5.83,0,0,0,2.35.45Zm27.77-6.55v8.84h-2.85V158.13h6a13.11,13.11,0,0,1,3.47.41,6.61,6.61,0,0,1,2.41,1.17,4.61,4.61,0,0,1,1.41,1.85,6.16,6.16,0,0,1,.46,2.43,6,6,0,0,1-.36,2.1,5.3,5.3,0,0,1-1,1.75,6.17,6.17,0,0,1-1.64,1.33,7.9,7.9,0,0,1-2.19.82,3.08,3.08,0,0,1,.94.9l6.17,8.42h-2.54a1.25,1.25,0,0,1-1.15-.61l-5.49-7.57a1.71,1.71,0,0,0-.54-.51,2.07,2.07,0,0,0-.89-.15Zm0-2.1h3a7.43,7.43,0,0,0,2.21-.3,4.49,4.49,0,0,0,1.59-.86,3.32,3.32,0,0,0,1-1.32,4.21,4.21,0,0,0,.33-1.69,3.36,3.36,0,0,0-1.25-2.84,6,6,0,0,0-3.71-1h-3.13Zm46.13.36a12.24,12.24,0,0,1-.75,4.36,9.81,9.81,0,0,1-2.13,3.42,9.45,9.45,0,0,1-3.29,2.23,11.31,11.31,0,0,1-4.27.79,11.12,11.12,0,0,1-4.24-.79,9.58,9.58,0,0,1-3.3-2.23,9.94,9.94,0,0,1-2.12-3.42,13.08,13.08,0,0,1,0-8.73,10.07,10.07,0,0,1,2.12-3.43,9.61,9.61,0,0,1,3.3-2.24,10.93,10.93,0,0,1,4.24-.8,11.12,11.12,0,0,1,4.27.8,9.47,9.47,0,0,1,3.29,2.24,9.94,9.94,0,0,1,2.13,3.43,12.26,12.26,0,0,1,.75,4.37Zm-2.94,0a10.69,10.69,0,0,0-.53-3.51,7.36,7.36,0,0,0-1.5-2.63,6.51,6.51,0,0,0-2.37-1.64,8.52,8.52,0,0,0-6.18,0,6.68,6.68,0,0,0-2.37,1.64,7.38,7.38,0,0,0-1.51,2.63,10.69,10.69,0,0,0-.53,3.51,10.57,10.57,0,0,0,.53,3.49,7.42,7.42,0,0,0,1.51,2.62,6.68,6.68,0,0,0,2.37,1.64,8.66,8.66,0,0,0,6.18,0,6.51,6.51,0,0,0,2.37-1.64,7.4,7.4,0,0,0,1.5-2.62,10.57,10.57,0,0,0,.53-3.49Zm29-7.28a1.35,1.35,0,0,1-.28.33.66.66,0,0,1-.38.11,1,1,0,0,1-.58-.25c-.22-.17-.51-.35-.84-.56a7.14,7.14,0,0,0-1.23-.55,5.52,5.52,0,0,0-1.74-.25,5.17,5.17,0,0,0-1.69.26,3.57,3.57,0,0,0-1.23.7,3,3,0,0,0-.75,1,3.26,3.26,0,0,0-.25,1.29,2.34,2.34,0,0,0,.44,1.47,3.76,3.76,0,0,0,1.15,1,9.3,9.3,0,0,0,1.62.71l1.86.63c.63.22,1.26.46,1.86.73a6.39,6.39,0,0,1,1.62,1,4.6,4.6,0,0,1,1.15,1.52,4.92,4.92,0,0,1,.44,2.21,7.19,7.19,0,0,1-.47,2.6,6.21,6.21,0,0,1-1.38,2.13,6.44,6.44,0,0,1-2.23,1.41,8.08,8.08,0,0,1-3,.52,9.15,9.15,0,0,1-3.74-.75,8.61,8.61,0,0,1-2.88-2l.82-1.36a1.06,1.06,0,0,1,.29-.27.66.66,0,0,1,.38-.12,1.18,1.18,0,0,1,.7.34c.27.22.61.46,1,.73a8.15,8.15,0,0,0,1.45.73,5.76,5.76,0,0,0,2.07.33,5.66,5.66,0,0,0,1.82-.28,4.08,4.08,0,0,0,1.35-.79,3.49,3.49,0,0,0,.85-1.22,4.19,4.19,0,0,0,.29-1.58,2.63,2.63,0,0,0-.43-1.57,3.59,3.59,0,0,0-1.15-1,8.22,8.22,0,0,0-1.61-.7l-1.86-.59a17.32,17.32,0,0,1-1.86-.7,6.29,6.29,0,0,1-1.62-1,4.9,4.9,0,0,1-1.14-1.59,6,6,0,0,1,0-4.52,5.57,5.57,0,0,1,1.26-1.86,5.85,5.85,0,0,1,2-1.3,7.35,7.35,0,0,1,2.79-.49,8.8,8.8,0,0,1,3.23.57,7.37,7.37,0,0,1,2.56,1.63Zm0,0" transform="translate(-15.04 -11.32)"/></g><path class="cls-2" d="M47.58,12.34H22.38a7.21,7.21,0,0,0-7.12,7.12v82.06a6.77,6.77,0,0,0,2.11,5,7,7,0,0,0,5,2.11h25.2a7,7,0,0,0,5-2.11,6.81,6.81,0,0,0,2.11-5V19.46a7.21,7.21,0,0,0-7.13-7.12Zm0,0" transform="translate(-15.04 -11.32)"/><path class="cls-3" d="M58.8,18a5.9,5.9,0,0,0-1.19-.66,11.81,11.81,0,0,1,.26,2.11V44.27L82.94,62.6a52.8,52.8,0,0,0,10.69,6.07c3.56,1.45,6.86,2.38,9.1,2.38h25.06a3.35,3.35,0,0,0,1.32-.13,5.1,5.1,0,0,0-.26-.8,20.5,20.5,0,0,0-5.15-5L63.28,20.92A33,33,0,0,0,58.8,18Zm0,0" transform="translate(-15.04 -11.32)"/><path class="cls-3" d="M215,17.35a1.56,1.56,0,0,1-.66.66,23.93,23.93,0,0,1-3.3,2.77L175.68,46.64v54.75a7.54,7.54,0,0,0,2.12,5,7.25,7.25,0,0,0,5.14,2.11h25.2a7.21,7.21,0,0,0,7.12-7.12V19.33A10.34,10.34,0,0,0,215,17.35Z" transform="translate(-15.04 -11.32)"/><path class="cls-3" d="M213.66,11.94H188.6c-2.25,0-5.54.93-9.11,2.38a53,53,0,0,0-10.68,6.07l-50,36.67,7.12,5.15a25,25,0,0,1,5.67,5.54,5.41,5.41,0,0,1,.93,2.37,30.31,30.31,0,0,0,5.93-2,59.52,59.52,0,0,0,10.69-5.93l60.42-44.33a20.5,20.5,0,0,0,5.15-5,1.93,1.93,0,0,0,.26-.79,3.12,3.12,0,0,0-1.32-.14Zm0,0" transform="translate(-15.04 -11.32)"/><text class="cls-9" transform="translate(299.89 33.7)">(11) 3230-1422</text><g id="Layer_1-2" data-name="Layer_1"><path class="cls-10" d="M264.36,180.37l3.6-10.75a20.09,20.09,0,0,1-2.81-10.4,20.33,20.33,0,1,1,20.33,20.45,20.12,20.12,0,0,1-9.47-2.38l-11.56,3.08Z" transform="translate(-15.04 -11.32)"/><path class="cls-11" d="M296.87,166.27c-.88-1.67-4.12-3.61-4.12-3.61a1.39,1.39,0,0,0-2,.26s-1.05,1.24-1.31,1.5a2.42,2.42,0,0,1-3.51-.35l-5.34-5.38a2.52,2.52,0,0,1-.35-3.52,17.33,17.33,0,0,1,1.49-1.32c.79-.44.7-1.32.26-2,0,0-1.93-3.26-3.59-4.14a1.87,1.87,0,0,0-2.19.35l-1.14,1.15c-3.77,3.79-1.93,8,1.84,11.81l6.83,6.87c3.77,3.79,8,5.64,11.74,1.85l1.14-1.14a2,2,0,0,0,.35-2.21Z" transform="translate(-15.04 -11.32)"/><path class="cls-11" d="M270.15,168.83l-3.25,9.69-1-.35,3.24-9.69,1-.09.08.44Zm-.09-.44.09.18-.09.26-.09-.44Zm-3.51-9.17h1.05v2.38l.09.27.09.26.09.27.09.26.08.26.09.27.09.26.09.27.08.26.09.27.09.26.09.27.08.26.09.26.09.27.09.26.08.27.09.26.09.27.09.26.17.26.18.27.17.26.18.27-.88.53-.17-.27-.18-.26-.17-.27-.18-.26-.17-.27-.18-.26-.09-.26-.08-.27-.09-.26-.09-.27-.09-.26-.09-.27-.08-.26-.09-.26-.09-.27-.09-.26-.08-.27-.09-.26-.09-.35-.09-.36-.08-.35-.09-.35-.09-.35-.09-.36v-2.82h0Zm18.84-18.94v1.05h-.88l-.87.09-.88.09-.88.18-.87.17-.88.27-.79.26-.78.35-.79.36-.79.35-.79.44-.7.44-.7.53-.7.53-.62.53-.61.61-.61.62-.53.62-.52.7-.53.71-.44.7-.44.8-.35.79-.35.79-.35.79-.26.8-.26.88-.18.88-.17.88-.09.88-.09.88v.89h-1.05v-1l.09-1,.09-1,.17-1,.18-.88.26-.88.26-.89.35-.88.35-.88.44-.79.44-.79.52-.8.53-.7.53-.71.61-.7.61-.62.62-.62.7-.61.7-.53.7-.53.79-.53.79-.44.78-.44.88-.35.88-.36.87-.26.88-.27.87-.17,1-.18,1-.09,1-.08Zm18.83,18.94h-1.05v-.88l-.08-.88-.09-.88-.18-.88-.17-.88-.27-.88-.26-.8-.35-.79-.35-.79-.35-.8-.44-.79-.44-.7-.52-.71-.53-.7-.52-.62-.62-.62-.61-.62-.61-.52-.7-.53-.7-.53-.71-.44-.78-.44-.79-.36-.79-.35-.79-.35-.79-.27-.87-.26-.88-.18-.88-.17-.87-.09-.88-.09h-.87v-1.06h1l1,.09,1,.09,1,.18.88.17.87.27.88.26.88.35.87.36.79.44.79.44.79.53.7.53.7.52.7.62.61.62.62.62.61.7.52.71.53.7.53.79.43.8.44.79.35.88.35.88.27.88.26.88.17.89.18,1,.09,1,.08,1v1Zm-18.83,18.95v-1.06h.87l.88-.08.88-.09.87-.18.88-.18.88-.26.78-.26.79-.36.79-.35.79-.35.79-.44.7-.44.7-.53.7-.53.61-.53.62-.62.61-.61.53-.62.52-.7.53-.71.43-.7.44-.8.35-.79.35-.79.35-.8.27-.79.26-.88.17-.88.18-.88.09-.89.09-.88v-.88h1.05v1l-.09,1-.09,1-.17,1-.18.88-.26.88-.26.88-.36.88-.35.89-.43.79-.44.79-.53.8-.52.7-.53.71-.61.7-.62.62-.61.61-.7.62-.7.53-.7.53-.79.53-.79.44-.79.44-.87.35-.88.35-.87.27-.88.26-.88.18-1,.17-1,.09-1,.09ZM277,176.06l-.26-1h.35l.26.08.26.09.26.09.27.09.26.09.26.09.27.08.26.09.26.09.26.09.27.09.26.08.26.09.27.09.26.09.26.09.26.08.27.09.26.09.26.09.27.09.26.09h2.63v1.05h-2.63l-.26-.09-.27-.08-.26-.09-.26-.09-.27-.09-.26-.09-.26-.08-.26-.09-.27-.09-.26-.09-.26-.09-.27-.08-.26-.09-.26-.09-.26-.09-.27-.09-.26-.09-.26-.08-.27-.09-.26-.09-.26-.09-.26-.09h.35Zm-.26-1,.17-.09.18.09Zm-10.43,2.73,10.43-2.73.26,1-10.43,2.73-.61-.71.35-.35Zm.26,1-1,.26.26-.88.62.71Z" transform="translate(-15.04 -11.32)"/></g><g id="Layer_1-3" data-name="Layer_1"><g id="_2428334055728" data-name=" 2428334055728"><path class="cls-10" d="M305.83,32.71A20.69,20.69,0,1,1,285.14,12,20.72,20.72,0,0,1,305.83,32.71Z" transform="translate(-15.04 -11.32)"/><path class="cls-11" d="M280,28.07l-6.4-6.4L276,19.21a1.06,1.06,0,0,1,1.4,0l5,5a1,1,0,0,1,0,1.4l-2.1,2.11a1.87,1.87,0,0,0-.35.44Zm5.26,10.43c-1.05-.88-2-1.84-3.07-2.81s-1.93-2-2.8-3.06a3.42,3.42,0,0,1-.53-3.16l-6.57-6.57a4.69,4.69,0,0,0-1.06,3.33,12.86,12.86,0,0,0,1.41,5.61A25,25,0,0,0,275.24,36a40.46,40.46,0,0,0,3.15,3.59,31.07,31.07,0,0,0,3.6,3.16,25.26,25.26,0,0,0,4.12,2.63c3.42,1.66,7.27,1.84,8.85.35l-6.57-6.58a3.18,3.18,0,0,1-3.16-.52Zm13.41,1.93-5-5a1.08,1.08,0,0,0-1.41,0l-1.05,1.14-1.05,1a1.65,1.65,0,0,1-.44.35l6.4,6.4,2.45-2.45a1,1,0,0,0,0-1.4Z" transform="translate(-15.04 -11.32)"/></g></g><text class="cls-9" transform="translate(299.89 97.1)">(21) 4042-1811</text><g id="Layer_1-4" data-name="Layer_1"><g id="_2428334055728-2" data-name=" 2428334055728"><path class="cls-10" d="M305.83,96.12a20.69,20.69,0,1,1-20.69-20.69A20.73,20.73,0,0,1,305.83,96.12Z" transform="translate(-15.04 -11.32)"/><path class="cls-11" d="M280,91.47l-6.4-6.4L276,82.62a1.06,1.06,0,0,1,1.4,0l5,5a1.06,1.06,0,0,1,0,1.41l-2.1,2.1a1.87,1.87,0,0,0-.35.44Zm5.26,10.43c-1.05-.87-2-1.84-3.07-2.8s-1.93-2-2.8-3.07a3.41,3.41,0,0,1-.53-3.16l-6.57-6.57a4.71,4.71,0,0,0-1.06,3.33,12.83,12.83,0,0,0,1.41,5.61,24.61,24.61,0,0,0,2.63,4.12,37.82,37.82,0,0,0,3.15,3.59,30.16,30.16,0,0,0,3.6,3.16,25.26,25.26,0,0,0,4.12,2.63c3.42,1.67,7.27,1.84,8.85.35l-6.57-6.57a3.18,3.18,0,0,1-3.16-.53Zm13.41,1.93-5-5a1.08,1.08,0,0,0-1.41,0L291.19,100,290.14,101a2.17,2.17,0,0,1-.44.35l6.4,6.4,2.45-2.46a1,1,0,0,0,0-1.4Z" transform="translate(-15.04 -11.32)"/></g></g><text class="cls-9" transform="translate(299.89 162.35)">(11) 4171-8837</text><line class="cls-12" x1="223.77" y1="0.7" x2="223.77" y2="169.14"/></svg>