<?xml version="1.0" encoding="UTF-8"?>
<!DOCTYPE svg PUBLIC "-//W3C//DTD SVG 1.1//EN" "http://www.w3.org/Graphics/SVG/1.1/DTD/svg11.dtd">
<!-- Creator: CorelDRAW 2017 -->
<svg xmlns="http://www.w3.org/2000/svg" xml:space="preserve" width="591px" height="354px" version="1.1" style="shape-rendering:geometricPrecision; text-rendering:geometricPrecision; image-rendering:optimizeQuality; fill-rule:evenodd; clip-rule:evenodd"
viewBox="0 0 591 355"
 xmlns:xlink="http://www.w3.org/1999/xlink">
 <defs>
  <style type="text/css">
   <![CDATA[
    .str0 {stroke:#FEFEFE;stroke-width:1;stroke-miterlimit:10}
    .fil0 {fill:#FEFEFE}
   ]]>
  </style>
 </defs>
 <g id="Layer_x0020_1">
  <metadata id="CorelCorpID_0Corel-Layer"/>
  <path class="fil0 str0" d="M425 250c0,4 -3,8 -8,8l-52 0c-4,0 -8,-3 -8,-8l0 -25c0,-4 3,-8 8,-8l52 0c4,0 8,3 8,8l0 25zm-193 0c0,4 -3,8 -8,8l-52 0c-4,0 -8,-3 -8,-8l0 -25c0,-4 3,-8 8,-8l52 0c4,0 8,3 8,8l0 25zm-61 -86l27 -66c3,-8 13,-14 21,-14l152 0c8,0 18,6 21,14l27 66c3,8 -1,14 -10,14l-230 0c-8,0 -13,-7 -10,-14zm76 -96l0 -25c0,0 0,0 0,0l-11 0c0,0 -1,0 -1,0l0 -6c0,0 0,0 1,0l32 0c0,0 1,0 1,0l0 6c0,0 0,0 -1,0l-11 0c0,0 0,0 0,0l0 25c0,0 0,0 0,0l-9 0c0,0 0,0 0,0zm31 -32l11 0c0,0 1,0 1,0l13 32 12 -14c0,0 0,-1 0,-1l-11 -17c0,0 0,0 0,0l10 0c0,0 0,0 1,0l6 9c0,0 0,0 0,0l6 -9c0,0 0,0 1,0l10 0c0,0 0,0 0,0l-11 17c0,0 0,0 0,1l12 14c0,0 0,0 0,0l-10 0c0,0 0,0 0,0l-7 -10 0 0 -7 10c0,0 0,0 0,0l-20 0c0,0 0,0 0,0l-2 -7c0,0 0,0 -1,0l-12 0c0,0 -1,0 -1,0l-2 7c0,0 0,0 0,0l-10 0c0,0 0,0 0,0l13 -32c0,0 0,0 1,0zm64 0c0,0 0,0 0,0l9 0c0,0 0,0 0,0l0 32c0,0 0,0 0,0l-10 0c0,0 0,0 0,0l0 -32zm-88 203l82 0c2,0 3,1 3,3l0 7c0,1 -2,2 -3,2l-82 0c-2,0 -3,-1 -3,-2l0 -7c0,-1 1,-3 3,-3zm0 -15l82 0c2,0 3,1 3,2l0 7c0,1 -2,3 -3,3l-82 0c-2,0 -3,-1 -3,-3l0 -7c0,-1 1,-2 3,-2zm201 -93c-1,0 -3,0 -5,1l-17 4 -18 -44c-5,-13 -21,-24 -35,-24l-12 0 0 -36c0,-7 -5,-12 -11,-12l-122 0c-7,0 -12,5 -12,12l0 36 -12 0c-14,0 -30,11 -35,24l-18 44 -17 -4c-2,-1 -3,-1 -5,-1 -9,0 -15,7 -15,15l0 9c0,11 9,19 19,19l1 0 -2 6c-5,12 -9,33 -9,46l0 87c0,11 9,19 19,19l23 0c11,0 19,-9 19,-19l0 -21 208 0 0 21c0,11 9,19 19,19l23 0c11,0 19,-9 19,-19l0 -87c0,-13 -4,-34 -9,-46l-2 -6 1 0c11,0 19,-9 19,-19l0 -9c0,-9 -6,-15 -15,-15z"/>
 </g>
</svg>
