<?xml version="1.0" encoding="UTF-8"?>
<!DOCTYPE svg PUBLIC "-//W3C//DTD SVG 1.1//EN" "http://www.w3.org/Graphics/SVG/1.1/DTD/svg11.dtd">
<!-- Creator: CorelDRAW 2017 -->
<svg xmlns="http://www.w3.org/2000/svg" xml:space="preserve" width="591px" height="354px" version="1.1" style="shape-rendering:geometricPrecision; text-rendering:geometricPrecision; image-rendering:optimizeQuality; fill-rule:evenodd; clip-rule:evenodd"
viewBox="0 0 591 355"
 xmlns:xlink="http://www.w3.org/1999/xlink">
 <defs>
  <style type="text/css">
   <![CDATA[
    .str0 {stroke:white;stroke-width:1;stroke-miterlimit:10}
    .fil0 {fill:#FEFEFE;fill-rule:nonzero}
   ]]>
  </style>
 </defs>
 <g id="Layer_x0020_1">
  <metadata id="CorelCorpID_0Corel-Layer"/>
  <g id="_1914796394976">
   <path class="fil0 str0" d="M22 254c1,4 5,7 10,7l52 0c0,0 0,0 0,0 0,0 0,0 0,0 0,-10 3,-19 7,-27 10,-18 29,-30 50,-30 32,0 57,26 57,57 0,0 0,0 0,0l186 0c0,0 0,0 0,0 0,-32 26,-57 57,-57 32,0 57,26 57,57 0,0 0,0 0,0l26 0c7,0 13,-4 16,-10l24 0c7,0 12,-6 12,-12l0 -16c0,-7 -6,-12 -12,-12l-7 0c2,-6 3,-12 2,-17 -2,-32 -14,-102 -21,-134 -1,-7 -8,-12 -15,-12l-368 0c-8,0 -15,4 -19,11l-57 93 -37 16c-7,3 -11,10 -11,17l0 33 -13 0c-4,0 -7,4 -6,7l8 29zm265 -182l89 0c5,0 10,4 10,10l0 61 131 0c4,0 8,3 8,8l0 1c0,4 -3,8 -8,8l-131 0 0 51c0,5 -4,10 -10,10l-130 0c-2,0 -5,-1 -6,-3 -1,-2 -2,-4 -1,-7l37 -128c1,-5 6,-9 12,-9zm-89 -4l46 2c3,0 6,3 5,7l-15 50c-1,4 -5,7 -9,7l-60 6c-3,0 -5,-3 -4,-5l28 -60c2,-4 5,-6 9,-6zm-79 69l33 -53c2,-3 6,-6 10,-5l4 0c3,0 5,4 4,6l-23 48c-2,4 -5,6 -10,7l-16 1c-3,0 -5,-3 -3,-5zm-77 58c0,-1 1,-2 2,-2l40 0c1,0 1,1 1,2l-9 18c-1,1 -2,2 -3,2l-29 0c-1,0 -2,-1 -2,-2l0 -18z"/>
   <path class="fil0 str0" d="M141 215c-25,0 -46,21 -46,46 0,0 0,0 0,0 0,25 21,46 46,46 25,0 46,-21 46,-46 0,0 0,0 0,0 0,-25 -21,-46 -46,-46zm26 46c0,15 -12,26 -26,26 -15,0 -26,-12 -26,-26 0,0 0,0 0,0 0,-15 12,-26 26,-26 15,0 26,12 26,26 0,0 0,0 0,0z"/>
   <path class="fil0 str0" d="M488 261c0,-25 -21,-46 -46,-46 -25,0 -46,21 -46,46 0,0 0,0 0,0 0,25 21,46 46,46 25,0 46,-21 46,-46 0,0 0,0 0,0zm-20 0c0,15 -12,26 -26,26 -15,0 -26,-12 -26,-26 0,0 0,0 0,0 0,-15 12,-26 26,-26 15,0 26,12 26,26 0,0 0,0 0,0z"/>
   <path class="fil0 str0" d="M83 280c0,-4 -3,-7 -7,-7l-36 0c-4,0 -7,3 -7,7 0,4 3,7 7,7l36 0c4,0 7,-3 7,-7z"/>
   <path class="fil0 str0" d="M513 273c-4,0 -7,3 -7,7 0,4 3,7 7,7l18 0c4,0 7,-3 7,-7 0,-4 -3,-7 -7,-7l-18 0z"/>
   <path class="fil0 str0" d="M375 288c4,0 7,-3 7,-7 0,-4 -3,-7 -7,-7l-164 0c-4,0 -7,3 -7,7 0,4 3,7 7,7l164 0z"/>
   <path class="fil0 str0" d="M245 215l130 0c3,0 6,-3 6,-6l0 -128c0,-3 -3,-6 -6,-6l-89 0c-4,0 -7,2 -8,6l-37 128c0,1 0,2 1,3 1,1 2,2 3,2zm30 -83l11 0c3,0 5,2 5,5 0,3 -2,5 -5,5l-11 0c-3,0 -5,-2 -5,-5 0,-3 2,-5 5,-5z"/>
  </g>
 </g>
</svg>
