<?xml version="1.0" encoding="UTF-8"?>
<!DOCTYPE svg PUBLIC "-//W3C//DTD SVG 1.1//EN" "http://www.w3.org/Graphics/SVG/1.1/DTD/svg11.dtd">
<!-- Creator: CorelDRAW 2017 -->
<svg xmlns="http://www.w3.org/2000/svg" xml:space="preserve" width="591px" height="354px" version="1.1" style="shape-rendering:geometricPrecision; text-rendering:geometricPrecision; image-rendering:optimizeQuality; fill-rule:evenodd; clip-rule:evenodd"
viewBox="0 0 591 355"
 xmlns:xlink="http://www.w3.org/1999/xlink">
 <defs>
  <style type="text/css">
   <![CDATA[
    .str0 {stroke:white;stroke-width:1;stroke-miterlimit:10}
    .fil0 {fill:white}
   ]]>
  </style>
 </defs>
 <g id="Layer_x0020_1">
  <metadata id="CorelCorpID_0Corel-Layer"/>
  <g id="_1914779180032">
   <path class="fil0 str0" d="M295 208l0 0c48,0 88,-39 88,-88 0,-48 -39,-88 -88,-88l0 0c-48,0 -88,39 -88,88 0,48 39,88 88,88zm0 -193l0 0 0 0c58,0 105,47 105,105 0,75 -61,163 -105,219 -44,-56 -105,-144 -105,-219 0,-58 47,-105 105,-105z"/>
   <path class="fil0 str0" d="M252 93l-29 0 0 29 29 0 0 -29zm29 29l0 29 -29 0 0 -29 29 0zm29 -29l-29 0 0 29 29 0 0 -29zm29 29l0 29 -29 0 0 -29 29 0zm29 -29l-29 0 0 29 29 0 0 -29z"/>
  </g>
 </g>
</svg>
