<?xml version="1.0" encoding="UTF-8"?>
<!DOCTYPE svg PUBLIC "-//W3C//DTD SVG 1.1//EN" "http://www.w3.org/Graphics/SVG/1.1/DTD/svg11.dtd">
<!-- Creator: CorelDRAW 2017 -->
<svg xmlns="http://www.w3.org/2000/svg" xml:space="preserve" width="591px" height="354px" version="1.1" style="shape-rendering:geometricPrecision; text-rendering:geometricPrecision; image-rendering:optimizeQuality; fill-rule:evenodd; clip-rule:evenodd"
viewBox="0 0 591 355"
 xmlns:xlink="http://www.w3.org/1999/xlink">
 <defs>
  <style type="text/css">
   <![CDATA[
    .str0 {stroke:#FEFEFE;stroke-width:1;stroke-miterlimit:10}
    .fil0 {fill:#FEFEFE;fill-rule:nonzero}
   ]]>
  </style>
 </defs>
 <g id="Layer_x0020_1">
  <metadata id="CorelCorpID_0Corel-Layer"/>
  <g id="_1914711586528">
   <path class="fil0 str0" d="M421 315l13 7c1,1 2,0 3,-1l1 -2c3,1 6,2 9,3l0 2c0,1 1,2 2,2l15 2c1,0 2,-1 2,-2l0 -2c3,0 7,0 10,-1l0 2c0,1 1,2 2,1l14 -3c1,0 2,-1 1,-2l0 -2c0,0 0,0 1,0 3,-1 6,-2 8,-4l1 1c1,1 2,1 3,0l12 -9c1,-1 1,-2 0,-3l-1 -1c2,-2 5,-5 7,-7l1 1c1,1 2,0 3,-1l8 -12c1,-1 0,-2 -1,-3l-2 -1c1,-3 3,-6 4,-9l2 0c1,0 2,0 2,-1l1 -5 2 -10c0,-1 0,-2 -1,-2l-2 0c1,-8 0,-15 -2,-23l2 -1c1,0 1,-1 1,-2l-3 -7 -3 -7c0,-1 -1,-1 -2,-1l-2 1c-2,-3 -3,-6 -5,-8l1 -1c1,-1 1,-2 0,-3l-10 -11c-1,-1 -2,-1 -3,0l-1 1c0,0 0,0 0,0 -2,-2 -5,-4 -8,-6l1 -2c0,-1 0,-2 -1,-2l-13 -6c-1,0 -2,0 -2,1l-1 2c-3,-1 -6,-2 -9,-2l0 -2c0,-1 -1,-2 -2,-2l-15 -1c-1,0 -2,1 -2,2l0 2c-3,0 -6,1 -10,1l-1 -2c0,-1 -1,-1 -2,-1l-5 2 -2 -5c-2,-4 -5,-6 -9,-7l-11 -22 -1 -2 0 -1 1 0 -1 -1c13,-8 27,-13 43,-13 18,0 38,7 58,23 1,0 1,1 2,1 1,0 2,-1 2,-2 1,-2 0,-4 -1,-6 -21,-22 -43,-33 -67,-33 -15,0 -30,4 -46,12l-1 -2 -1 -2 -3 -6 8 -4c4,-11 -6,-30 -17,-34l-8 4 -4 -7 5 -3 -15 -28 -2 -4 -2 -4 0 -2c0,-2 -1,-3 -3,-3 0,0 -1,0 -1,0 -6,2 -12,3 -19,3 -11,0 -23,-3 -31,-8 0,0 -1,0 -1,0 -1,0 -2,1 -2,2l0 16c0,2 2,4 4,4 0,0 0,0 0,0l27 0 1 2 1 2 19 34 6 -3 24 47 1 2 1 2 -3 2c0,0 0,0 -1,0 0,0 -1,0 -1,-1l-6 -8c0,0 0,-1 0,-1 1,-1 1,-2 0,-3l-16 -28c-1,-1 -2,-2 -3,-2 -1,0 -1,0 -2,1l-9 6c0,0 0,0 -1,0 0,0 -1,0 -1,-1 -2,-4 -5,-7 -13,-8 0,0 0,0 0,0 -3,0 -5,1 -8,2l-16 6c-22,9 -50,18 -84,18 -26,0 -56,-5 -87,-21 -2,-1 -4,-1 -6,-1 -1,0 -1,0 -2,0l-80 9c-1,0 -2,1 -2,3 0,2 1,3 3,3 39,5 80,9 87,17 0,0 0,1 -1,1 0,0 0,0 0,0l-35 -1c0,0 0,0 0,0 -2,0 -5,2 -5,4l-1 5c-1,2 0,5 2,6l75 47c2,1 5,2 8,2 3,0 6,0 9,0 13,0 25,0 37,-1 0,0 0,0 0,0 1,0 2,0 2,1l8 11c0,1 0,1 0,2l-1 2c-2,2 -2,5 -1,7l10 36c1,3 3,4 5,5 14,4 28,5 43,5 9,0 18,-1 27,-2 3,0 5,-2 7,-4 12,-14 17,-32 21,-51 0,0 0,-1 1,-1 0,0 0,0 0,0 1,0 2,0 3,0 3,0 6,-1 8,-4 10,-19 24,-36 39,-48l1 2 1 2 10 20c-2,3 -2,8 0,11l2 4 -11 9c-1,1 -1,2 0,3l1 1c-2,2 -4,5 -6,8l-2 -1c-1,0 -2,0 -3,1l-7 13c0,1 0,2 1,2l2 1c-1,3 -2,6 -3,9l-2 0c-1,0 -2,1 -2,2l-2 15c0,1 1,2 2,2l2 0c0,3 0,6 1,10l-2 0c-1,0 -2,1 -1,2l4 14c0,1 1,2 2,1l2 -1c1,3 3,6 4,9l-1 1c-1,1 -1,2 0,3l9 12c1,1 2,1 3,0l1 -1c2,2 5,4 7,6l-1 2c-1,1 0,2 1,3zm-264 -193c0,0 -3,-8 -33,-10 0,0 35,-3 50,2 11,4 -16,8 -16,8zm134 120c-10,0 -19,-8 -19,-19 0,-5 9,-8 19,-8 9,0 19,3 19,8 0,10 -8,19 -19,19zm29 -46c-1,2 -4,4 -6,3l-24 -10c-2,-1 -4,-4 -3,-6 1,-2 4,-4 6,-3l24 10c2,1 4,4 3,6zm19 -10c-1,2 -4,4 -6,3l-24 -10c-2,-1 -4,-4 -3,-6 1,-2 4,-4 6,-3l24 10c2,1 4,4 3,6zm23 -7c-1,2 -4,4 -6,3l-24 -10c-2,-1 -4,-4 -3,-6 1,-2 4,-4 6,-3l24 10c2,1 4,4 3,6zm77 43l8 15c-5,6 -6,15 -3,23 5,13 19,19 31,14 13,-5 19,-19 14,-31 -3,-9 -11,-14 -19,-15l-8 -16c18,-2 36,8 42,25 8,21 -2,44 -23,52 -21,8 -44,-2 -52,-23 -6,-16 -2,-33 10,-44z"/>
   <path class="fil0 str0" d="M201 257l-2 0c0,-3 0,-6 0,-10l40 -5c2,0 4,-2 3,-5l-4 -19c0,-2 -3,-4 -5,-3l-37 9 -3 -7c0,-1 -1,-1 -2,-1l-2 1c-2,-3 -3,-6 -5,-8l1 -1c1,-1 1,-2 0,-3l-10 -11c-1,-1 -2,-1 -3,0l-1 1c0,0 0,0 0,0 -2,-2 -5,-4 -8,-6l1 -2c0,-1 0,-2 -1,-2l-13 -6c-1,0 -2,0 -2,1l-1 2c-3,-1 -6,-2 -9,-2l0 -2c0,-1 -1,-2 -2,-2l-15 -1c-1,0 -2,1 -2,2l0 2c-3,0 -6,1 -10,1l-1 -2c0,-1 -1,-1 -2,-1l-6 2 -9 3c-1,0 -1,1 -1,2l1 2c-3,1 -6,3 -9,5l-1 -1c-1,-1 -2,-1 -3,0l-11 10c-1,1 -1,2 0,3l1 1c-2,2 -4,5 -6,8l-2 -1c-1,0 -2,0 -3,1l-7 13c0,1 0,2 1,2l2 1c-1,3 -2,6 -3,9l-2 0c-1,0 -2,1 -2,2l-2 15c0,1 1,2 2,2l2 0c0,3 0,6 1,10l-2 0c-1,0 -2,1 -1,2l4 14c0,1 1,2 2,1l2 -1c1,3 3,6 4,9l-1 1c-1,1 -1,2 0,3l9 12c1,1 2,1 3,0l1 -1c2,2 5,4 7,6l-1 2c-1,1 0,2 1,3l13 7c1,1 2,0 3,-1l1 -2c3,1 6,2 9,3l0 2c0,1 1,2 2,2l15 2c1,0 2,-1 2,-2l0 -2c3,0 7,0 10,-1l0 2c0,1 1,2 2,1l14 -3c1,0 2,-1 1,-2l0 -2c0,0 0,0 1,0 3,-1 6,-2 8,-4l1 1c1,1 2,1 3,0l12 -9c1,-1 1,-2 0,-3l-1 -1c2,-2 5,-5 7,-7l1 1c1,1 2,0 3,-1l8 -12c1,-1 0,-2 -1,-3l-2 -1c1,-3 3,-6 4,-9l2 0c1,0 2,0 2,-1l1 -5 2 -10c0,-1 0,-2 -1,-2zm-61 32c-21,8 -44,-2 -52,-23 -8,-21 2,-44 23,-52 19,-7 41,1 50,19l-16 4c-6,-8 -18,-12 -28,-8 -13,5 -19,19 -14,31 5,13 19,19 31,14 9,-3 15,-12 15,-21l16 -2c0,16 -10,32 -26,38z"/>
  </g>
 </g>
</svg>
