<?xml version="1.0" encoding="UTF-8"?>
<!DOCTYPE svg PUBLIC "-//W3C//DTD SVG 1.1//EN" "http://www.w3.org/Graphics/SVG/1.1/DTD/svg11.dtd">
<!-- Creator: CorelDRAW 2017 -->
<svg xmlns="http://www.w3.org/2000/svg" xml:space="preserve" width="591px" height="354px" version="1.1" style="shape-rendering:geometricPrecision; text-rendering:geometricPrecision; image-rendering:optimizeQuality; fill-rule:evenodd; clip-rule:evenodd"
viewBox="0 0 591 355"
 xmlns:xlink="http://www.w3.org/1999/xlink">
 <defs>
  <style type="text/css">
   <![CDATA[
    .str0 {stroke:#FEFEFE;stroke-width:1;stroke-miterlimit:10}
    .fil0 {fill:#FEFEFE;fill-rule:nonzero}
   ]]>
  </style>
 </defs>
 <g id="Layer_x0020_1">
  <metadata id="CorelCorpID_0Corel-Layer"/>
  <g id="_1914767067408">
   <path class="fil0 str0" d="M58 243c2,5 7,8 12,8l8 0c-1,-4 -2,-9 -2,-13 0,-29 24,-53 53,-53 29,0 53,24 53,53 0,5 -1,9 -2,13l216 0c-1,-4 -2,-9 -2,-13 0,-29 24,-53 53,-53 29,0 53,24 53,53 0,5 -1,9 -2,13l36 0 0 0 7 0c5,0 8,-4 8,-8l0 -34c0,-5 -4,-8 -8,-9l-7 0 0 -6c-26,-59 -80,-94 -119,-107 -22,-7 -46,-12 -71,-12 -58,0 -84,6 -100,14 -28,9 -71,37 -93,55 -52,2 -89,21 -107,51 -3,4 -3,10 -1,15l15 33zm284 -67l-29 0c-3,0 -5,-2 -5,-5 0,-3 2,-5 5,-5l29 0c3,0 5,2 5,5 0,3 -2,5 -5,5zm31 -71c31,7 57,20 77,37 2,2 1,6 -3,6l-53 0c-5,0 -10,-3 -12,-7l-15 -30c-2,-3 1,-7 5,-6zm-157 30c30,-22 58,-34 113,-34 1,0 1,0 2,0 5,0 10,3 12,8l16 32c2,3 -1,8 -5,8l-136 0c-3,0 -5,-2 -5,-5 0,-3 2,-7 4,-9zm-163 62c2,-4 7,-11 13,-15 2,-1 4,0 4,2 1,7 1,20 -10,27 -2,1 -5,0 -6,-2l-2 -4c-1,-2 -1,-5 0,-7z"/>
   <path class="fil0 str0" d="M129 194c-23,0 -43,19 -43,43 0,5 1,9 2,13 6,17 22,29 40,29 19,0 35,-12 40,-29 1,-4 2,-9 2,-13 0,-23 -19,-43 -43,-43zm20 56c-4,7 -12,11 -20,11 -9,0 -16,-4 -20,-11 -3,-4 -4,-8 -4,-13 0,-13 11,-24 24,-24 13,0 24,11 24,24 0,5 -1,9 -4,13z"/>
   <path class="fil0 str0" d="M447 194c-23,0 -43,19 -43,43 0,5 1,9 2,13 6,17 22,29 40,29 19,0 35,-12 40,-29 1,-4 2,-9 2,-13 0,-23 -19,-43 -43,-43zm20 56c-4,7 -12,11 -20,11 -9,0 -16,-4 -20,-11 -3,-4 -4,-8 -4,-13 0,-13 11,-24 24,-24 13,0 24,11 24,24 0,5 -1,9 -4,13z"/>
   <path class="fil0 str0" d="M198 263c-4,0 -8,3 -8,7 0,4 3,7 8,7l185 0c4,0 7,-3 7,-7 0,-4 -3,-7 -7,-7l-185 0z"/>
  </g>
 </g>
</svg>
