<?xml version="1.0" encoding="utf-8"?>
<!-- Generator: Adobe Illustrator 24.2.3, SVG Export Plug-In . SVG Version: 6.00 Build 0)  -->
<svg version="1.1" id="Layer_1" xmlns="http://www.w3.org/2000/svg" xmlns:xlink="http://www.w3.org/1999/xlink" x="0px" y="0px"
	 viewBox="0 0 541.4 453.5" style="enable-background:new 0 0 541.4 453.5;" xml:space="preserve">
<style type="text/css">
	.st0{fill-rule:evenodd;clip-rule:evenodd;fill:#535353;}
</style>
<g id="Layer_x0020_1">
	<g id="_2428734326240">
		<path class="st0" d="M101.6,168.8c24.9,0,45,20.2,45,45c0,24.9-20.2,45-45,45c-24.9,0-45-20.2-45-45
			C56.6,189,76.7,168.8,101.6,168.8z M101.6,173.1c-22.5,0-40.7,18.2-40.7,40.7c0,22.5,18.2,40.7,40.7,40.7s40.7-18.2,40.7-40.7
			C142.3,191.4,124.1,173.1,101.6,173.1L101.6,173.1z"/>
		<path class="st0" d="M103.8,222.6v13.8h-4.4v-13.8c-2.1,0-4.9,0-5.9,0l-14.6,0c-1.2,0.1-2.5-0.2-3.7-0.9c-2.2-1.3-3.4-3.7-3.3-6
			c0-0.4,0-0.7,0.1-0.9c0.5-2.9,1.5-5.8,3.1-8.5c1.6-2.7,3.6-5.1,5.8-7c1.5-1.1,3.7-1.7,5.6-1.4c0.6-1.9,1.9-3.4,3.6-4.3
			c0.3-0.2,0.6-0.3,0.9-0.4c3.3-1.2,6.9-1.9,10.6-1.9c3.7,0,7.3,0.7,10.7,1.9c1.9,0.8,3.6,2.6,4.3,4.7c1.9-0.4,3.8,0,5.4,1.2
			c2.3,1.9,4.6,4.5,6.2,7.2c1.6,2.7,2.6,5.6,3.1,8.5c0,0.2,0.1,0.6,0.1,0.9c0.1,2.4-1.1,4.8-3.3,6c-1.1,0.7-2.4,0.9-3.7,0.9l-14.6,0
			C108.7,222.6,105.9,222.6,103.8,222.6L103.8,222.6z M119.4,202.6c-0.7-0.5-1.7-0.6-2.5-0.2c-0.4,0.2-0.7,0.6-0.9,1l-7.4,12.9
			c-0.2,0.3-0.3,0.8,0,1.2c0.2,0.4,0.6,0.6,1.1,0.6l14.9,0c0.4,0,0.9-0.1,1.3-0.3c0.8-0.4,1.2-1.3,1.1-2.1c0-0.1,0-0.1,0-0.2
			c-0.4-2.4-1.3-4.8-2.6-7.1C123,206.2,121.4,204.2,119.4,202.6C119.4,202.6,119.4,202.6,119.4,202.6L119.4,202.6z M83.8,202.6
			c0.7-0.5,1.7-0.6,2.5-0.2c0.4,0.2,0.7,0.6,0.9,1l7.4,12.9c0.2,0.3,0.3,0.8,0,1.2c-0.2,0.4-0.6,0.6-1.1,0.6l-14.9,0
			c-0.4,0-0.9-0.1-1.3-0.3c-0.8-0.4-1.2-1.3-1.1-2.1c0-0.1,0-0.1,0-0.2c0.4-2.4,1.3-4.8,2.6-7.1C80.2,206.2,81.8,204.2,83.8,202.6
			C83.7,202.6,83.8,202.6,83.8,202.6z M110.9,197.4c1,0.4,1.7,1.4,1.7,2.5c0,0.6-0.2,1.2-0.5,1.6l-9.2,15.8
			c-0.2,0.5-0.7,0.8-1.2,0.8c-0.6,0-1-0.3-1.2-0.8l-9.2-15.8c-0.3-0.4-0.5-1-0.5-1.6c0-1.1,0.6-2.1,1.6-2.5c0.1,0,0.1-0.1,0.2-0.1
			c2.8-1,5.9-1.6,9.1-1.6c3.2,0,6.3,0.6,9.2,1.6C110.8,197.4,110.8,197.4,110.9,197.4L110.9,197.4z"/>
		<polygon class="st0" points="185.7,190.3 196.7,212.8 207.7,190.3 224.3,190.3 224.3,235.3 207.7,235.3 207.7,212.8 196.7,235.3 
			185.7,212.8 185.7,235.3 169.1,235.3 169.1,190.3 		"/>
		<path class="st0" d="M257.3,197l-6.7,23.5H264L257.3,197z M229.7,235.3l12.9-45H272l12.9,45h-16.6l-2.1-7.4h-17.7l-2.1,7.4H229.7
			L229.7,235.3z"/>
		<path class="st0" d="M310.7,195.4c3.7,0,7.4,2,7.4,6.1c0,4.1-3.2,7.4-7.4,7.4h-3.6v-13.5H310.7z M321.3,190.3
			c7.2,0,13.1,5.9,13.1,13.1c0,7.2-5.9,13.1-13.1,13.1h-14.5v18.7h-16.6v-45L321.3,190.3L321.3,190.3z"/>
		<polygon class="st0" points="340.2,190.3 384.4,190.3 384.4,197.7 356.8,197.7 356.8,209.1 384.4,209.1 384.4,216.5 356.8,216.5 
			356.8,235.3 340.2,235.3 		"/>
		<polygon class="st0" points="457.3,227.9 484.8,227.9 484.8,235.3 440.6,235.3 440.6,190.3 484.8,190.3 484.8,197.7 457.3,197.7 
			457.3,209.1 484.8,209.1 484.8,216.5 457.3,216.5 		"/>
		<path class="st0" d="M410.7,195.5c3.7,0,7.4,2,7.4,6.1c0,4.1-3.3,7.4-7.4,7.4h-3.6v-13.5H410.7z M434.4,223.7v0.4
			C434.4,223.9,434.4,223.8,434.4,223.7z M434.4,224v11.2h-11.3h-5.1v-10.9c0-0.1,0-0.2,0-0.4c0-4.1-3.3-7.4-7.4-7.4h-3.6v18.6
			l-16.9,0v-22.5v-22.5h18.5h14.5c6.2,0,11.3,5,11.3,11.2s-5,11.3-11.3,11.3c6.1,0,11.1,4.8,11.3,10.9
			C434.4,223.8,434.4,223.9,434.4,224L434.4,224z"/>
		<path class="st0" d="M191.2,274.7c0-2.9-0.8-5.3-2.6-7c-1.4-1.3-3.3-2.1-6.3-2.6l-3.9-0.6c-1.3-0.2-2.4-0.7-3.1-1.3
			c-0.7-0.6-1-1.5-1-2.4c0-2.3,1.7-4.2,5.1-4.2c2.2,0,4.7,0.3,6.8,2.3l4.1-4c-2.8-2.7-6.1-3.9-10.7-3.9c-7.1,0-11.5,4.1-11.5,10
			c0,2.8,0.8,4.9,2.4,6.5c1.5,1.4,3.6,2.3,6.4,2.7l4,0.6c1.5,0.2,2.3,0.6,2.9,1.2c0.7,0.6,1,1.6,1,2.8c0,2.6-2,4.1-5.8,4.1
			c-3.1,0-5.9-0.7-8-2.8l-4.2,4.2c3.2,3.3,7.1,4.4,12.1,4.4C185.9,284.7,191.2,281.1,191.2,274.7L191.2,274.7z"/>
		<polygon class="st0" points="219,284.4 219,278.7 203.7,278.7 203.7,270.7 216.8,270.7 216.8,264.9 203.7,264.9 203.7,257.2 
			219,257.2 219,251.4 197.3,251.4 197.3,284.4 		"/>
		<path class="st0" d="M248.9,270.9v-4.8h-12.5v5.4h6.1v1.3c0,1.7-0.4,3.2-1.5,4.4c-1.1,1.2-2.6,1.9-4.6,1.9c-1.8,0-3.2-0.6-4.1-1.7
			c-1.3-1.4-1.6-3-1.6-9.3c0-6.4,0.3-7.9,1.6-9.3c0.9-1.1,2.4-1.8,4.1-1.8c3.3,0,5.2,1.7,5.9,4.8h6.5c-0.9-5.6-4.8-10.6-12.4-10.6
			c-3.7,0-6.6,1.3-8.9,3.6c-3.3,3.3-3.2,7.5-3.2,13.2c0,5.7-0.1,9.8,3.2,13.2c2.3,2.3,5.3,3.6,8.9,3.6c3.5,0,6.7-1,9.3-3.8
			C248,278.5,248.9,275.7,248.9,270.9L248.9,270.9z"/>
		<path class="st0" d="M279.2,273.1v-21.7h-6.4v21.5c0,3.8-2.3,6.1-5.8,6.1s-5.7-2.3-5.7-6.1v-21.5h-6.4v21.7
			c0,7,5.4,11.6,12.2,11.6C273.8,284.7,279.2,280.1,279.2,273.1z"/>
		<path class="st0" d="M311.4,284.4l-7.4-14.2c3.2-1.2,6-4,6-8.7c0-5.5-4-10.1-10.7-10.1h-12.9v33h6.4v-13.2h4.6l6.4,13.2H311.4z
			 M303.6,261.5c0,2.6-1.9,4.4-4.7,4.4h-6.1v-8.7h6.1C301.8,257.2,303.6,259,303.6,261.5L303.6,261.5z"/>
		<path class="st0" d="M340,267.9c0-5.7,0-9.8-3.3-13.2c-2.3-2.3-5.1-3.6-8.9-3.6c-3.8,0-6.6,1.3-9,3.6c-3.3,3.3-3.2,7.5-3.2,13.2
			c0,5.7-0.1,9.8,3.2,13.2c2.3,2.3,5.2,3.6,9,3.6c3.8,0,6.6-1.3,8.9-3.6C340.1,277.8,340,273.6,340,267.9z M333.6,267.9
			c0,6.4-0.4,7.9-1.6,9.3c-0.9,1.1-2.4,1.8-4.1,1.8c-1.8,0-3.2-0.7-4.2-1.8c-1.3-1.4-1.6-2.9-1.6-9.3c0-6.4,0.3-7.9,1.6-9.3
			c0.9-1.1,2.4-1.8,4.2-1.8c1.8,0,3.2,0.7,4.1,1.8C333.2,260,333.6,261.6,333.6,267.9z"/>
		<path class="st0" d="M367.9,274.7c0-2.9-0.8-5.3-2.6-7c-1.4-1.3-3.3-2.1-6.3-2.6l-3.9-0.6c-1.3-0.2-2.4-0.7-3.1-1.3
			c-0.7-0.6-1-1.5-1-2.4c0-2.3,1.7-4.2,5.1-4.2c2.2,0,4.7,0.3,6.8,2.3l4.1-4c-2.8-2.7-6.1-3.9-10.7-3.9c-7.1,0-11.5,4.1-11.5,10
			c0,2.8,0.8,4.9,2.4,6.5c1.5,1.4,3.6,2.3,6.4,2.7l4,0.6c1.5,0.2,2.3,0.6,2.9,1.2c0.7,0.6,1,1.6,1,2.8c0,2.6-2,4.1-5.8,4.1
			c-3.1,0-5.9-0.7-8-2.8l-4.2,4.2c3.2,3.3,7.1,4.4,12.1,4.4C362.6,284.7,367.9,281.1,367.9,274.7L367.9,274.7z"/>
	</g>
</g>
</svg>
