<?xml version="1.0" encoding="UTF-8"?>
<!DOCTYPE svg PUBLIC "-//W3C//DTD SVG 1.1//EN" "http://www.w3.org/Graphics/SVG/1.1/DTD/svg11.dtd">
<!-- Creator: CorelDRAW 2019 (64-Bit) -->
<svg xmlns="http://www.w3.org/2000/svg" xml:space="preserve" width="150mm" height="150mm" version="1.1" style="shape-rendering:geometricPrecision; text-rendering:geometricPrecision; image-rendering:optimizeQuality; fill-rule:evenodd; clip-rule:evenodd"
viewBox="0 0 15000 15000"
 xmlns:xlink="http://www.w3.org/1999/xlink">
 <defs>
  <style type="text/css">
   <![CDATA[
    .fil0 {fill:none}
    .fil1 {fill:#FEFEFE;fill-rule:nonzero}
   ]]>
  </style>
 </defs>
 <g id="Layer_x0020_1">
  <metadata id="CorelCorpID_0Corel-Layer"/>
  <rect class="fil0" x="-17.74" y="-14.81" width="15032.53" height="15032.53"/>
  <path class="fil1" d="M6429.89 6048.29c70.68,0 142.86,27.06 195.89,81.55l849.76 849.76 239.29 -239.29 -1102.65 -1102.62c242.03,-486.75 214.82,-1086.31 -118.28,-1562.16 -326.43,-463.63 -860.74,-692.05 -1386.92,-645.81l703.04 1001.88c96.42,138.82 62.43,327.78 -74.89,424.32l-759.88 534.31c-138.67,96.43 -327.82,63.9 -424.21,-74.88l-704.38 -1003.26c-221.49,481.28 -188.85,1061.68 135.96,1525.31 386.25,549.42 1066.05,768.33 1679.1,592.94l1181.62 1181.46 240.48 -239.29 -849.71 -849.72c-108.65,-108.91 -108.65,-284.15 0,-392.95 53.14,-54.49 125.06,-81.55 195.78,-81.55zm4806.15 3175.85c-376.61,-547.76 -1044.04,-774.83 -1651.77,-614.39l-1133.91 -1133.91 -239.45 239.29 761.55 761.23c108.6,108.91 108.6,284.15 0,393.07 -54.42,54.38 -125.1,81.58 -197.29,81.58 -70.72,0 -141.28,-27.2 -195.78,-81.58l-761.23 -762.74 -239.29 240.68 1035.86 1035.87c-254.09,486.71 -237.94,1093.25 93.96,1577.23 320.84,467.71 853.81,700.07 1381.34,660.76l-693.52 -1010.16c-95.04,-138.82 -59.7,-326.32 78.85,-422.97l765.59 -526.03c138.66,-95.16 327.66,-59.81 424.05,77.5l692.01 1010.16c227.08,-477.19 200.02,-1059.26 -120.97,-1525.59z"/>
  <path class="fil1" d="M7310.9 8923.81c-51.53,51.52 -135.43,51.52 -186.96,0l-857.35 -857.36c-51.68,-51.64 -51.68,-135.27 0,-186.95l45.94 -45.94c51.41,-51.53 135.28,-51.53 186.96,0l857.35 857.51c51.53,51.52 51.53,135.38 0,186.91l-45.94 45.83z"/>
  <path class="fil1" d="M6930.32 9114.15l-1873.64 2043.48 -231 251.51c-72.03,72.07 -153.78,126.3 -243.5,161.68 -67.98,28.67 -137.31,44.86 -207.88,50.41 -23.12,2.73 -46.21,4.08 -70.68,4.08 -189,1.24 -378.11,-70.68 -522.25,-214.93 -289.59,-289.47 -289.59,-757.31 0,-1045.39l250.32 -229.77 2043.32 -1874.87 855.31 853.8z"/>
  <path class="fil1" d="M10768.32 4748.39l-356.07 560.29 -315.44 134.58 -2829.42 2830.54 -350.79 -350.79 2830.65 -2830.5 134.62 -314.1 560.29 -356.33 29.75 30.06 -413.14 345.31c-72.22,72.07 -39.58,227.08 32.6,300.5 74.66,73.41 233.71,116.77 307.28,43.51l338.53 -424.21 31.14 31.14z"/>
 </g>
</svg>
