<?xml version="1.0" encoding="UTF-8"?>
<!DOCTYPE svg PUBLIC "-//W3C//DTD SVG 1.1//EN" "http://www.w3.org/Graphics/SVG/1.1/DTD/svg11.dtd">
<!-- Creator: CorelDRAW 2019 (64-Bit) -->
<svg xmlns="http://www.w3.org/2000/svg" xml:space="preserve" width="150mm" height="150mm" version="1.1" style="shape-rendering:geometricPrecision; text-rendering:geometricPrecision; image-rendering:optimizeQuality; fill-rule:evenodd; clip-rule:evenodd"
viewBox="0 0 15000 15000"
 xmlns:xlink="http://www.w3.org/1999/xlink">
 <defs>
  <style type="text/css">
   <![CDATA[
    .fil0 {fill:none}
    .fil1 {fill:#FEFEFE;fill-rule:nonzero}
   ]]>
  </style>
 </defs>
 <g id="Layer_x0020_1">
  <metadata id="CorelCorpID_0Corel-Layer"/>
  <rect class="fil0" x="-17.74" y="-14.81" width="15032.53" height="15032.53"/>
  <path class="fil1" d="M7475.7 3334.69l-3648.66 0c-211.81,0 -382.88,170.87 -382.88,382.88l0 7798.31 4413.43 0 0 -7798.31c0,-212.01 -170.86,-382.88 -381.89,-382.88zm-168.9 2915.98l-3311.85 0 0 -2170.3 3311.85 0 0 2170.3zm2303.37 5417.58c-906.31,0 -1453.95,-623.83 -1508.28,-1709.08 -18.7,-428.54 86.81,-900.6 200.79,-1400.01 84.05,-377.17 173.62,-764.77 217.32,-1163.2 40.36,-399.42 -22.24,-534.66 -62.4,-580.52 -79.13,-84.06 -304.33,-84.06 -520.87,-84.06l-106.3 0 0 -529.33 106.3 0c317.32,0 677.76,0 913.98,260.43 181.7,200.79 244.3,518.12 195.09,990.37 -45.87,428.35 -135.44,832.49 -225.01,1222.84 -105.71,463.99 -206.3,900.61 -186.81,1256.32 37.4,800.01 365.95,1206.9 976.19,1206.9 670.28,0 1011.82,-425.59 1011.82,-1261.23 0,-688.59 -214.37,-1228.95 -358.27,-1583.88l-56.89 -143.7c-146.65,-388.19 -165.35,-735.44 -181.3,-1261.83 -13.78,-512.6 -8.46,-1060.64 132.68,-1600.6 141.14,-542.53 436.82,-808.48 922.25,-1247.46l116.74 -106.3 355.71 391.15 -119.69 108.27c-452.76,409.65 -658.86,596.66 -762.6,990.16 -124.22,474.42 -129.73,976.59 -116.54,1448.84 16.73,515.16 35.43,788.98 149.41,1090.17l53.94 132.68c146.85,372.24 393.9,990.16 393.9,1782.5 0,1120.48 -575.2,1790.57 -1541.16,1790.57zm683.47 -4690.41l-13.19 -531.89c0,0 409.66,-7.68 642.93,-10.63 4.92,-94.89 4.92,-241.35 4.92,-395.68l0 -79.33c0,-634.45 -100,-718.51 -213.79,-816.54 -40.94,-31.89 -84.05,-70.28 -122.24,-113.78l390.36 -357.69c25,26.97 51.97,48.63 76.18,70.08 225.2,193.12 398.82,404.14 398.82,1217.93l0 79.33c0,297.84 0,461.03 -27.16,585.25 -43.11,214.56 -192.33,339.76 -404.14,339.76 -170.87,0 -732.69,13.19 -732.69,13.19z"/>
 </g>
</svg>
