<?xml version="1.0" encoding="utf-8"?>
<!-- Generator: Adobe Illustrator 24.2.3, SVG Export Plug-In . SVG Version: 6.00 Build 0)  -->
<svg version="1.1" id="Layer_1" xmlns="http://www.w3.org/2000/svg" xmlns:xlink="http://www.w3.org/1999/xlink" x="0px" y="0px"
	 viewBox="0 0 400 400" style="enable-background:new 0 0 400 400;" xml:space="preserve">
<style type="text/css">
	.st0{fill:#FFFFFF;}
</style>
<g>
	<path class="st0" d="M50.3,135.8c1.1-1,10.8-9.9,24.6-9.1c19.8,1.2,30.1,21.1,32.5,25.7c1.9,3.6,12.8,24.6,1.9,43.5
		c-1.2,2-8.1,14.2-21.6,17c-17.9,3.8-35.1-11.4-42.4-25.4C37.4,172.3,36.4,149,50.3,135.8z"/>
	<path class="st0" d="M196.4,181.6c38-2.4,65.9,23.1,71.1,28c7.1,6.5,47.1,45.1,33.3,90.8c-10.1,33.5-42.2,48-48.4,50.7
		c-12.4,2.6-30.8,5.6-53.4,6.1c-24.5,0.5-38,0.8-53.3-5.7c-18.9-8-38.7-25.5-45.4-47.3C85,254.9,137.1,185.3,196.4,181.6z"/>
	<path class="st0" d="M132.2,45.2c1.6-0.6,15.6-5.9,30.2,0.6c21,9.3,24.4,34.2,25.2,40c0.6,4.5,4.3,30.7-14.9,46
		c-2.1,1.6-14.3,11.4-30,8.9c-21-3.3-33.6-26.1-36.1-43.6C103.9,77.9,111.9,53.2,132.2,45.2z"/>
	<path class="st0" d="M237.9,46.6c1.5-0.6,15-5.8,28.6,0.6c19.5,9.2,21.7,33.9,22.2,39.7c0.4,4.5,2.7,30.4-16.1,45.5
		c-2,1.6-14,11.3-28.8,8.8c-19.7-3.3-30.7-25.9-32.3-43.3C209.8,78.8,218.4,54.4,237.9,46.6z"/>
	<path class="st0" d="M324.6,126.9c1.5-0.1,14.6-1.1,24.9,8.1c14.8,13.2,10.6,35.2,9.6,40.4c-0.8,4-5.2,27.2-25.4,35.4
		c-2.2,0.9-15.1,6.1-27.5,0c-16.5-8.1-20.5-30.7-17.6-46.1C291.8,147.6,305.5,128.6,324.6,126.9z"/>
</g>
<path d="M219.9,386.7"/>
</svg>
