<?xml version="1.0" encoding="UTF-8"?>
<!DOCTYPE svg PUBLIC "-//W3C//DTD SVG 1.1//EN" "http://www.w3.org/Graphics/SVG/1.1/DTD/svg11.dtd">
<!-- Creator: CorelDRAW 2017 -->
<svg xmlns="http://www.w3.org/2000/svg" xml:space="preserve" width="9567px" height="9567px" version="1.1" style="shape-rendering:geometricPrecision; text-rendering:geometricPrecision; image-rendering:optimizeQuality; fill-rule:evenodd; clip-rule:evenodd"
viewBox="0 0 9567 9567"
 xmlns:xlink="http://www.w3.org/1999/xlink">
 <defs>
  <style type="text/css">
   <![CDATA[
    .fil0 {fill:#231F20;fill-rule:nonzero}
    .fil1 {fill:whitesmoke;fill-rule:nonzero}
   ]]>
  </style>
 </defs>
 <g id="Layer_x0020_1">
  <metadata id="CorelCorpID_0Corel-Layer"/>
  <g id="_2017741832176">
   <path class="fil0" d="M9054 3779l-8540 0c90,293 142,637 142,1005 0,368 -52,711 -142,1005l8540 0c-90,-293 -142,-637 -142,-1005 0,-368 52,-711 142,-1005z"/>
   <path class="fil1" d="M1903 4928l-1079 -61 3 -18 1141 -62 -1140 -62 -3 -19 1078 -61 -1096 -62 -3 -19 1034 -61 -1052 -62 -3 -19 990 -61 -1008 -63 -3 -18 946 -61 -964 -62 -3 -18 902 -61 -919 -63 -3 -18 857 -62 -875 -63 0 0 -102 -9c0,0 116,496 116,925 0,442 -116,919 -116,919l102 -10 875 -63 -857 -62 2 -17 920 -63 -902 -61 3 -17 964 -62 -946 -61 3 -17 1008 -62 -990 -61 3 -18 1053 -62 -1035 -61 3 -18 1097 -62z"/>
   <path class="fil1" d="M7663 4928l1079 -61 -3 -18 -1141 -62 1140 -62 3 -19 -1078 -61 1096 -62 3 -19 -1034 -61 1052 -62 3 -19 -990 -61 1008 -63 3 -18 -946 -61 964 -62 3 -18 -902 -61 919 -63 3 -18 -857 -62 875 -63 0 0 102 -9c0,0 -116,496 -116,925 0,442 116,919 116,919l-102 -10 -875 -63 857 -62 -2 -17 -920 -63 902 -61 -3 -17 -964 -62 946 -61 -3 -17 -1008 -62 990 -61 -3 -18 -1053 -62 1035 -61 -3 -18 -1097 -62z"/>
   <polygon class="fil0" points="4783,1265 5185,1618 5662,1376 5963,1818 6486,1701 6667,2205 7202,2222 7253,2755 7766,2904 7683,3433 8144,3706 7932,4197 8309,4576 7982,4999 8254,5459 7831,5788 7980,6302 7489,6515 7506,7049 6977,7134 6860,7656 6327,7606 6084,8082 5580,7902 5226,8302 4783,8002 4341,8302 3986,7902 3483,8082 3240,7606 2707,7656 2590,7134 2061,7049 2078,6515 1587,6302 1736,5788 1313,5459 1585,4999 1258,4576 1635,4197 1423,3706 1884,3433 1801,2904 2314,2755 2365,2222 2900,2205 3081,1701 3604,1818 3905,1376 4382,1618 "/>
   <path class="fil1" d="M7859 4784c0,1698 -1377,3075 -3075,3075 -1698,0 -3075,-1377 -3075,-3075 0,-1698 1377,-3075 3075,-3075 1698,0 3075,1377 3075,3075z"/>
   <path class="fil1" d="M7617 4784c0,1565 -1269,2833 -2834,2833 -1565,0 -2833,-1269 -2833,-2833 0,-1565 1269,-2834 2833,-2834 1565,0 2834,1269 2834,2834z"/>
   <path class="fil0" d="M4783 7662c-769,0 -1492,-300 -2036,-843 -544,-544 -843,-1267 -843,-2036 0,-769 299,-1492 843,-2035 544,-544 1267,-843 2036,-843 769,0 1492,299 2036,843 544,544 843,1266 843,2035 0,769 -299,1492 -843,2036 -544,544 -1267,843 -2036,843zm0 -5667c-1537,0 -2788,1251 -2788,2788 0,1537 1251,2788 2788,2788 1537,0 2788,-1251 2788,-2788 0,-1537 -1251,-2788 -2788,-2788z"/>
   <path class="fil0" d="M4816 3303c125,36 183,63 282,94 39,-343 21,-749 -154,-1132 0,0 -58,147 -149,352 26,170 51,545 21,686z"/>
   <path class="fil0" d="M7065 4978c-121,-34 -982,-326 -872,-539 53,-103 58,-119 14,-206 -229,-448 -930,-741 -1403,-884 -16,66 -67,177 -93,248 118,-440 55,-1013 -120,-1395 0,0 -270,690 -570,1160 -510,325 -456,1093 -461,1118 -125,729 -1179,1248 -1103,1305 1338,1016 2657,843 2657,843 0,0 -179,-867 225,-969l-622 -230c0,0 703,236 1586,307 254,21 355,48 422,41 245,-27 265,-224 445,-402 79,-78 131,-180 131,-260 -7,-35 -35,-81 -238,-137z"/>
  </g>
 </g>
</svg>
