<?xml version="1.0" encoding="UTF-8"?>
<!DOCTYPE svg PUBLIC "-//W3C//DTD SVG 1.1//EN" "http://www.w3.org/Graphics/SVG/1.1/DTD/svg11.dtd">
<!-- Creator: CorelDRAW 2017 -->
<svg xmlns="http://www.w3.org/2000/svg" xml:space="preserve" width="2126px" height="2126px" version="1.1" style="shape-rendering:geometricPrecision; text-rendering:geometricPrecision; image-rendering:optimizeQuality; fill-rule:evenodd; clip-rule:evenodd"
viewBox="0 0 2126 2126"
 xmlns:xlink="http://www.w3.org/1999/xlink">
 <defs>
  <style type="text/css">
   <![CDATA[
    .fil22 {fill:#FEFEFE;fill-rule:nonzero}
    .fil21 {fill:#373435;fill-rule:nonzero}
    .fil83 {fill:#D16C4C;fill-rule:nonzero}
    .fil15 {fill:#F7EEEB;fill-rule:nonzero}
    .fil42 {fill:#F3C155;fill-rule:nonzero}
    .fil73 {fill:#EB8146;fill-rule:nonzero}
    .fil72 {fill:#E7553E;fill-rule:nonzero}
    .fil74 {fill:#B94836;fill-rule:nonzero}
    .fil85 {fill:#EDC5A8;fill-rule:nonzero}
    .fil14 {fill:#ECAE7A;fill-rule:nonzero}
    .fil68 {fill:#E89085;fill-rule:nonzero}
    .fil69 {fill:#E67869;fill-rule:nonzero}
    .fil62 {fill:#E45F58;fill-rule:nonzero}
    .fil91 {fill:#9E5D3E;fill-rule:nonzero}
    .fil32 {fill:#E38F55;fill-rule:nonzero}
    .fil89 {fill:#DB5438;fill-rule:nonzero}
    .fil96 {fill:#A76943;fill-rule:nonzero}
    .fil29 {fill:#E0844A;fill-rule:nonzero}
    .fil43 {fill:#DC5A46;fill-rule:nonzero}
    .fil26 {fill:#DD5A43;fill-rule:nonzero}
    .fil27 {fill:#BF503C;fill-rule:nonzero}
    .fil13 {fill:#E09E6D;fill-rule:nonzero}
    .fil86 {fill:#E09D65;fill-rule:nonzero}
    .fil23 {fill:#DF8F57;fill-rule:nonzero}
    .fil41 {fill:#DDAB54;fill-rule:nonzero}
    .fil17 {fill:#D78048;fill-rule:nonzero}
    .fil37 {fill:#D4705E;fill-rule:nonzero}
    .fil49 {fill:#D5DEEC;fill-rule:nonzero}
    .fil50 {fill:#B5BDC9;fill-rule:nonzero}
    .fil87 {fill:#89553B;fill-rule:nonzero}
    .fil40 {fill:#D49541;fill-rule:nonzero}
    .fil39 {fill:#D49141;fill-rule:nonzero}
    .fil38 {fill:#D28240;fill-rule:nonzero}
    .fil16 {fill:#D5C8AE;fill-rule:nonzero}
    .fil36 {fill:#BD463F;fill-rule:nonzero}
    .fil90 {fill:#B8343E;fill-rule:nonzero}
    .fil88 {fill:#CA8557;fill-rule:nonzero}
    .fil51 {fill:#A64A3D;fill-rule:nonzero}
    .fil97 {fill:#9E6036;fill-rule:nonzero}
    .fil47 {fill:#AB4340;fill-rule:nonzero}
    .fil44 {fill:#953D39;fill-rule:nonzero}
    .fil30 {fill:#A46B3F;fill-rule:nonzero}
    .fil2 {fill:#9F683D;fill-rule:nonzero}
    .fil1 {fill:#815635;fill-rule:nonzero}
    .fil0 {fill:#5E422B;fill-rule:nonzero}
    .fil92 {fill:#BB774C;fill-rule:nonzero}
    .fil59 {fill:#714436;fill-rule:nonzero}
    .fil31 {fill:#89563C;fill-rule:nonzero}
    .fil24 {fill:#85533A;fill-rule:nonzero}
    .fil18 {fill:#734A35;fill-rule:nonzero}
    .fil52 {fill:#53392A;fill-rule:nonzero}
    .fil12 {fill:#4E3629;fill-rule:nonzero}
    .fil65 {fill:#652D50;fill-rule:nonzero}
    .fil60 {fill:#7E93B5;fill-rule:nonzero}
    .fil25 {fill:#636B71;fill-rule:nonzero}
    .fil95 {fill:#5C6369;fill-rule:nonzero}
    .fil5 {fill:#545B60;fill-rule:nonzero}
    .fil58 {fill:#617F9B;fill-rule:nonzero}
    .fil9 {fill:#4B6175;fill-rule:nonzero}
    .fil3 {fill:#474B4F;fill-rule:nonzero}
    .fil4 {fill:#3D4043;fill-rule:nonzero}
    .fil6 {fill:#383A3A;fill-rule:nonzero}
    .fil35 {fill:#104956;fill-rule:nonzero}
    .fil11 {fill:url(#id0)}
    .fil93 {fill:url(#id1)}
    .fil77 {fill:url(#id2)}
    .fil10 {fill:url(#id3)}
    .fil45 {fill:url(#id4)}
    .fil78 {fill:url(#id5)}
    .fil64 {fill:url(#id6)}
    .fil33 {fill:url(#id7)}
    .fil79 {fill:url(#id8)}
    .fil56 {fill:url(#id9)}
    .fil57 {fill:url(#id10)}
    .fil80 {fill:url(#id11)}
    .fil70 {fill:url(#id12)}
    .fil75 {fill:url(#id13)}
    .fil34 {fill:url(#id14)}
    .fil7 {fill:url(#id15)}
    .fil61 {fill:url(#id16)}
    .fil94 {fill:url(#id17)}
    .fil82 {fill:url(#id18)}
    .fil81 {fill:url(#id19)}
    .fil46 {fill:url(#id20)}
    .fil55 {fill:url(#id21)}
    .fil63 {fill:url(#id22)}
    .fil84 {fill:url(#id23)}
    .fil67 {fill:url(#id24)}
    .fil71 {fill:url(#id25)}
    .fil8 {fill:url(#id26)}
    .fil66 {fill:url(#id27)}
    .fil20 {fill:url(#id28)}
    .fil19 {fill:url(#id29)}
    .fil28 {fill:url(#id30)}
    .fil48 {fill:url(#id31)}
    .fil76 {fill:url(#id32)}
    .fil53 {fill:url(#id33)}
    .fil54 {fill:url(#id34)}
   ]]>
  </style>
  <linearGradient id="id0" gradientUnits="userSpaceOnUse" x1="1247" y1="715" x2="1533" y2="715">
   <stop offset="0" style="stop-opacity:1; stop-color:#617F9B"/>
   <stop offset="1" style="stop-opacity:1; stop-color:#4B6175"/>
  </linearGradient>
  <linearGradient id="id1" gradientUnits="userSpaceOnUse" x1="1571" y1="1142" x2="1582" y2="1142">
   <stop offset="0" style="stop-opacity:1; stop-color:#60B27C"/>
   <stop offset="1" style="stop-opacity:1; stop-color:#4A763D"/>
  </linearGradient>
  <linearGradient id="id2" gradientUnits="userSpaceOnUse" xlink:href="#id1" x1="942" y1="1269" x2="943" y2="1261">
  </linearGradient>
  <linearGradient id="id3" gradientUnits="userSpaceOnUse" xlink:href="#id0" x1="976" y1="692" x2="1402" y2="692">
  </linearGradient>
  <linearGradient id="id4" gradientUnits="userSpaceOnUse" x1="803" y1="894" x2="842" y2="1126">
   <stop offset="0" style="stop-opacity:1; stop-color:#D15644"/>
   <stop offset="0.478431" style="stop-opacity:1; stop-color:#AF4B38"/>
   <stop offset="1" style="stop-opacity:1; stop-color:#DC5A47"/>
  </linearGradient>
  <linearGradient id="id5" gradientUnits="userSpaceOnUse" xlink:href="#id1" x1="957" y1="1281" x2="964" y2="1278">
  </linearGradient>
  <linearGradient id="id6" gradientUnits="userSpaceOnUse" x1="1191" y1="1739" x2="1061" y2="1809">
   <stop offset="0" style="stop-opacity:1; stop-color:#E78159"/>
   <stop offset="1" style="stop-opacity:1; stop-color:#ECAE7A"/>
  </linearGradient>
  <linearGradient id="id7" gradientUnits="userSpaceOnUse" x1="741" y1="404" x2="761" y2="385">
   <stop offset="0" style="stop-opacity:1; stop-color:#3EB7E3"/>
   <stop offset="1" style="stop-opacity:1; stop-color:#1B416F"/>
  </linearGradient>
  <linearGradient id="id8" gradientUnits="userSpaceOnUse" xlink:href="#id1" x1="962" y1="1272" x2="969" y2="1271">
  </linearGradient>
  <linearGradient id="id9" gradientUnits="userSpaceOnUse" x1="340" y1="1111" x2="634" y2="1111">
   <stop offset="0" style="stop-opacity:1; stop-color:#E78159"/>
   <stop offset="0.14902" style="stop-opacity:1; stop-color:#E99769"/>
   <stop offset="1" style="stop-opacity:1; stop-color:#ECAE7A"/>
  </linearGradient>
  <linearGradient id="id10" gradientUnits="userSpaceOnUse" xlink:href="#id7" x1="429" y1="1214" x2="429" y2="1189">
  </linearGradient>
  <linearGradient id="id11" gradientUnits="userSpaceOnUse" xlink:href="#id1" x1="978" y1="1281" x2="985" y2="1277">
  </linearGradient>
  <linearGradient id="id12" gradientUnits="userSpaceOnUse" x1="937" y1="1869" x2="937" y2="1931">
   <stop offset="0" style="stop-opacity:1; stop-color:#FEFEFE"/>
   <stop offset="0.0392157" style="stop-opacity:1; stop-color:#E0E4E7"/>
   <stop offset="1" style="stop-opacity:1; stop-color:#C2CAD0"/>
  </linearGradient>
  <linearGradient id="id13" gradientUnits="userSpaceOnUse" xlink:href="#id1" x1="832" y1="1229" x2="837" y2="1221">
  </linearGradient>
  <linearGradient id="id14" gradientUnits="userSpaceOnUse" xlink:href="#id7" x1="885" y1="510" x2="888" y2="483">
  </linearGradient>
  <linearGradient id="id15" gradientUnits="userSpaceOnUse" xlink:href="#id0" x1="1114" y1="1245" x2="770" y2="1169">
  </linearGradient>
  <linearGradient id="id16" gradientUnits="userSpaceOnUse" xlink:href="#id6" x1="324" y1="1259" x2="295" y2="1259">
  </linearGradient>
  <linearGradient id="id17" gradientUnits="userSpaceOnUse" xlink:href="#id1" x1="1541" y1="1196" x2="1552" y2="1196">
  </linearGradient>
  <linearGradient id="id18" gradientUnits="userSpaceOnUse" x1="1055" y1="1501" x2="1014" y2="1248">
   <stop offset="0" style="stop-opacity:1; stop-color:#EDC9A9"/>
   <stop offset="0.278431" style="stop-opacity:1; stop-color:#ECAE7A"/>
   <stop offset="1" style="stop-opacity:1; stop-color:#C9805B"/>
  </linearGradient>
  <linearGradient id="id19" gradientUnits="userSpaceOnUse" xlink:href="#id1" x1="948" y1="1290" x2="952" y2="1279">
  </linearGradient>
  <linearGradient id="id20" gradientUnits="userSpaceOnUse" xlink:href="#id4" x1="793" y1="894" x2="834" y2="1128">
  </linearGradient>
  <linearGradient id="id21" gradientUnits="userSpaceOnUse" xlink:href="#id7" x1="542" y1="1164" x2="542" y2="1145">
  </linearGradient>
  <linearGradient id="id22" gradientUnits="userSpaceOnUse" xlink:href="#id6" x1="1049" y1="1694" x2="900" y2="1805">
  </linearGradient>
  <linearGradient id="id23" gradientUnits="userSpaceOnUse" x1="848" y1="1345" x2="998" y2="1345">
   <stop offset="0" style="stop-opacity:1; stop-color:#EDC9A9"/>
   <stop offset="1" style="stop-opacity:1; stop-color:#ECAE7A"/>
  </linearGradient>
  <linearGradient id="id24" gradientUnits="userSpaceOnUse" x1="1029" y1="914" x2="1029" y2="891">
   <stop offset="0" style="stop-opacity:1; stop-color:#C15739"/>
   <stop offset="1" style="stop-opacity:1; stop-color:#562E23"/>
  </linearGradient>
  <linearGradient id="id25" gradientUnits="userSpaceOnUse" xlink:href="#id12" x1="1125" y1="1869" x2="1125" y2="1926">
  </linearGradient>
  <linearGradient id="id26" gradientUnits="userSpaceOnUse" x1="1510" y1="972" x2="1327" y2="1236">
   <stop offset="0" style="stop-opacity:1; stop-color:#617F9B"/>
   <stop offset="1" style="stop-opacity:1; stop-color:#91A8BE"/>
  </linearGradient>
  <linearGradient id="id27" gradientUnits="userSpaceOnUse" xlink:href="#id24" x1="892" y1="910" x2="893" y2="888">
  </linearGradient>
  <linearGradient id="id28" gradientUnits="userSpaceOnUse" xlink:href="#id24" x1="1073" y1="408" x2="1046" y2="415">
  </linearGradient>
  <linearGradient id="id29" gradientUnits="userSpaceOnUse" xlink:href="#id24" x1="1232" y1="378" x2="1205" y2="384">
  </linearGradient>
  <linearGradient id="id30" gradientUnits="userSpaceOnUse" xlink:href="#id6" x1="708" y1="1530" x2="719" y2="1968">
  </linearGradient>
  <linearGradient id="id31" gradientUnits="userSpaceOnUse" x1="585" y1="899" x2="583" y2="814">
   <stop offset="0" style="stop-opacity:1; stop-color:#F27157"/>
   <stop offset="1" style="stop-opacity:1; stop-color:#DC5A47"/>
  </linearGradient>
  <linearGradient id="id32" gradientUnits="userSpaceOnUse" xlink:href="#id1" x1="936" y1="1284" x2="939" y2="1274">
  </linearGradient>
  <radialGradient id="id33" gradientUnits="userSpaceOnUse" gradientTransform="matrix(0.843739 -0.836639 -0.869905 -0.811451 1199 2738)" cx="470" cy="1294" r="30" fx="470" fy="1294">
   <stop offset="0" style="stop-opacity:1; stop-color:#E78159"/>
   <stop offset="1" style="stop-opacity:1; stop-color:#ECAE7A"/>
  </radialGradient>
  <radialGradient id="id34" gradientUnits="userSpaceOnUse" gradientTransform="matrix(-0.894551 -0.273215 -0.263246 0.928426 1474 254)" xlink:href="#id33" cx="607" cy="1229" r="29" fx="607" fy="1229">
  </radialGradient>
 </defs>
 <g id="Layer_x0020_1">
  <metadata id="CorelCorpID_0Corel-Layer"/>
  <path class="fil0" d="M1149 1959c0,0 -22,27 34,17 56,-10 109,-4 109,-4 0,0 11,-45 -144,-13z"/>
  <path class="fil1" d="M1230 1901c0,0 -114,6 -100,49 14,43 73,0 156,7 0,0 -6,-50 -56,-56z"/>
  <path class="fil0" d="M1243 1938c0,0 -10,29 5,42 13,11 43,28 44,3 0,0 -7,39 67,42 74,3 76,-24 67,-38 0,0 -98,58 -182,-49z"/>
  <path class="fil2" d="M1237 1949c0,0 -2,22 53,40 71,46 159,18 133,-17 -26,-34 -64,-112 -184,-65l-2 41z"/>
  <path class="fil3" d="M1041 1204c0,0 95,549 156,686 0,0 9,25 38,22 0,0 93,-32 124,-6 0,0 84,-606 71,-677 0,0 -231,-35 -389,-25z"/>
  <path class="fil4" d="M1182 1331c0,0 -47,-11 -58,-36 -11,-25 -15,356 96,600 0,0 -15,-546 -38,-564z"/>
  <path class="fil5" d="M1201 1315c0,0 -2,221 50,258 52,38 131,-106 108,-304 0,0 -294,-67 -158,46z"/>
  <path class="fil6" d="M1429 1252c0,0 -256,-46 -382,-22l-6 -25 387 19c0,0 6,18 1,28z"/>
  <path class="fil7" d="M790 886c-26,-19 20,-66 26,-151 0,0 97,-20 170,-63 74,-43 222,-94 350,-74 128,21 289,149 106,411l-11 225c0,0 -342,-40 -397,-21 0,0 -22,-129 -58,-344 0,0 -138,51 -185,17z"/>
  <path class="fil8" d="M1493 690c0,0 -110,-58 -122,134 0,0 -54,167 -197,298 0,0 99,81 100,104 0,0 109,-53 221,-276 88,-175 -2,-260 -2,-260z"/>
  <path class="fil9" d="M1301 600c0,-4 -5,-13 -12,-13 -27,-1 -101,0 -160,21 -3,1 -9,8 -9,15 1,23 12,70 82,67 84,-3 100,-51 99,-91z"/>
  <path class="fil10" d="M974 737c-6,23 3,24 3,24 102,-35 411,-30 411,-30l14 -20c-174,-35 -428,26 -428,26zm5 76l1 27c0,0 328,-25 391,-16l3 -36c0,0 -257,-1 -395,25zm6 119c0,0 299,-40 348,-24l12 -26c0,0 -269,2 -366,21l5 29zm10 54l3 17c0,0 260,-27 287,-11l13 -20c0,0 -229,-1 -302,14zm15 96c0,0 199,-26 220,-21 0,0 14,-9 22,-25 0,0 -190,5 -245,22l3 24z"/>
  <path class="fil11" d="M1532 793c-73,-101 -144,-63 -144,-63l-6 22c74,-45 151,57 151,57l-1 -17zm-160 16c1,10 -2,23 -2,23 106,-19 129,110 129,110l6 -13c-40,-140 -133,-121 -133,-121zm-21 66l-10 19c99,0 118,126 118,126l7 -15c-7,-113 -115,-130 -115,-130zm-42 75l-7 17c72,4 103,131 103,131l15 -21c-51,-147 -110,-127 -110,-127zm-47 77l-16 18c71,-21 107,116 107,116l11 -13c-40,-161 -103,-121 -103,-121z"/>
  <path class="fil12" d="M972 266c0,0 -24,40 16,68 0,0 -11,-65 11,-69 0,0 -5,-16 -28,1z"/>
  <path class="fil13" d="M1149 582c0,0 1,69 52,63 51,-6 76,-55 72,-101 0,0 -76,36 -124,38z"/>
  <path class="fil14" d="M1329 333c0,0 1,-33 22,-25 21,8 25,82 -14,99 0,0 5,135 -87,167 -93,32 -158,17 -179,-18 0,0 -45,-47 -82,-196 -4,-15 -5,-63 -6,-71 -2,-26 8,-85 222,-140 0,0 70,-7 124,185z"/>
  <path class="fil15" d="M1200 375c0,0 -23,-27 2,-45 25,-18 62,-12 67,15 5,26 -45,47 -70,30z"/>
  <path class="fil16" d="M1195 367c0,0 -17,-29 20,-43 37,-14 52,11 54,16 0,0 -20,-12 -47,-5 -28,7 -26,32 -26,32z"/>
  <path class="fil13" d="M1110 337c0,0 -3,-35 -106,-3 0,0 -25,24 18,45 0,0 3,-25 27,-26 24,-1 48,-6 55,21 7,26 20,66 26,68 0,0 -20,-57 -20,-106z"/>
  <path class="fil14" d="M1102 372c-72,-37 -72,24 -72,24 0,0 -19,-34 7,-45 53,-22 65,21 65,21z"/>
  <path class="fil15" d="M1029 396c0,0 -13,-37 36,-40 49,-3 42,43 19,55 -19,9 -42,10 -55,-15z"/>
  <path class="fil16" d="M1102 383c0,0 -15,-23 -52,-13 -27,7 -18,28 -18,28 0,0 -13,-16 5,-33 18,-17 69,-15 65,18z"/>
  <path class="fil13" d="M1166 293c0,0 -21,43 22,62 0,0 -2,-29 32,-35 34,-6 50,19 50,19 0,0 67,-70 -6,-74 -73,-3 -98,28 -98,28z"/>
  <path class="fil13" d="M1187 443c0,0 4,-17 -11,-8 -15,9 -7,27 -28,19 -35,-13 -16,14 2,7 18,-7 28,-5 36,-18z"/>
  <path class="fil13" d="M1210 165c0,0 -129,126 -164,119 -8,-2 4,-20 4,-20 0,0 -23,45 -53,35 -30,-10 -7,-34 -7,-34l220 -118c0,0 52,28 72,68 20,40 42,114 42,114 0,0 -27,28 -53,-44 -26,-71 -33,-89 -63,-120z"/>
  <path class="fil17" d="M1109 333c1,30 4,62 14,91 4,13 11,26 24,32 16,7 24,-6 27,-20 0,-1 -3,-3 -3,-2 -2,8 -6,21 -15,22 -5,1 -10,-1 -14,-4 -12,-10 -17,-31 -20,-45 -5,-23 -8,-47 -8,-71 0,-1 -3,-3 -3,-2l0 0z"/>
  <path class="fil17" d="M1179 424c8,3 15,11 8,19 0,0 3,3 3,3 10,-10 -5,-20 -14,-24 -1,0 2,2 3,3l0 0z"/>
  <path class="fil17" d="M1126 440c0,5 0,10 2,15 3,7 10,9 17,6 1,0 -2,-3 -3,-3 -3,1 -6,3 -9,1 -2,-1 -3,-5 -3,-7 -1,-3 -1,-7 0,-10 0,-1 -3,-3 -3,-2l0 0z"/>
  <path class="fil17" d="M1249 474c1,1 2,2 4,3 1,1 2,2 3,3 0,1 1,1 1,2 0,0 0,1 0,1 0,1 -1,2 -1,2 0,1 1,-1 2,-1 4,-6 -1,-11 -6,-14 -1,-1 -3,3 -2,4l0 0z"/>
  <path class="fil17" d="M1110 510c0,-2 1,-3 1,-4 0,-1 1,-3 1,-4 0,-1 1,-1 1,-2 0,0 1,-1 1,-1 1,0 2,0 3,0 1,-1 -1,-1 -1,-1 -7,-2 -9,6 -10,11 0,1 4,2 4,0l0 0z"/>
  <path class="fil18" d="M1171 293c-8,3 -5,-5 -5,-5 0,0 7,-22 12,-24 5,-2 61,-30 105,-18 24,6 18,24 -12,21 -22,-3 -77,17 -101,26z"/>
  <path class="fil18" d="M1094 324c0,0 -6,-16 -18,-16 -10,0 -67,2 -91,14 -1,4 0,12 1,16 11,11 53,-13 108,-14z"/>
  <path class="fil19" d="M1228 353c2,10 -3,19 -12,21 -8,1 -17,-6 -19,-16 -2,-10 3,-19 12,-21 8,-1 17,6 19,16z"/>
  <path class="fil20" d="M1067 383c3,10 -1,20 -9,23 -8,2 -17,-4 -21,-14 -3,-10 1,-20 9,-23 8,-2 17,4 21,14z"/>
  <path class="fil21" d="M1220 355c1,5 -2,10 -6,11 -4,1 -9,-3 -10,-8 -1,-5 2,-10 6,-11 4,-1 9,3 10,8z"/>
  <path class="fil21" d="M1060 385c2,5 0,9 -4,11 -4,1 -8,-2 -10,-6 -2,-5 0,-9 4,-11 4,-1 8,2 10,6z"/>
  <path class="fil12" d="M1207 152c0,0 42,37 48,61 5,24 38,132 73,117 0,0 3,-24 13,-24 9,0 31,0 22,70 0,0 83,-191 -100,-270 0,0 -9,27 -55,45z"/>
  <path class="fil18" d="M1209 160c0,0 -5,33 -210,135 0,0 -30,-4 42,-57 0,0 -63,50 -67,49 -5,-1 12,-24 12,-24 0,0 -56,39 -35,-2 21,-40 131,-185 249,-151 0,0 -13,-13 -2,-20 11,-7 32,27 32,27 0,0 -11,-24 -4,-24 7,0 23,22 23,22 0,0 24,-32 34,-20 10,12 -36,41 -36,41 0,0 34,20 -7,11 0,0 19,31 -31,11z"/>
  <path class="fil13" d="M1146 531c3,4 9,5 13,5 21,2 44,-11 61,-22 1,-1 -2,-4 -3,-3 -16,10 -34,20 -54,21 -4,0 -13,0 -15,-3 -1,-1 -4,-2 -2,1l0 0z"/>
  <path class="fil22" d="M1056 383c1,3 6,4 11,2 5,-1 9,-5 8,-7 -1,-3 -6,-4 -11,-2 -5,1 -9,5 -8,7z"/>
  <path class="fil22" d="M1214 353c1,3 6,3 11,2 5,-2 8,-5 7,-8 -1,-3 -6,-3 -11,-2 -5,2 -8,5 -7,8z"/>
  <path class="fil14" d="M1191 351c0,0 -16,-20 14,-38 30,-18 60,13 63,23 0,0 -17,-25 -52,-14 -28,9 -24,29 -24,29z"/>
  <path class="fil23" d="M1345 334c0,0 4,18 -8,32 0,0 15,-3 17,6 0,0 1,-11 -8,-11 7,-6 19,-28 -1,-27z"/>
  <path class="fil13" d="M1119 510c0,0 9,4 19,-3 10,-7 26,-1 26,-1 0,0 9,-11 17,-13 8,-2 43,-3 72,-15 0,0 -103,56 -134,31z"/>
  <path class="fil17" d="M1110 505c13,18 40,15 58,10 19,-6 38,-13 56,-20 11,-4 22,-9 31,-16 1,-1 2,-4 1,-3 -23,17 -53,24 -79,33 -19,7 -50,13 -64,-7 -1,-1 -3,2 -2,3l0 0z"/>
  <path class="fil18" d="M1292 131c0,0 69,22 76,130 0,0 -9,-35 -21,-46 -12,-10 26,46 6,77 -20,31 -19,-24 -19,-24 0,0 -8,31 -14,19 -6,-11 -1,-44 -1,-44 0,0 -20,22 -23,0 -3,-22 -33,-66 -49,-68 0,0 22,-2 38,13 0,0 -13,-20 -27,-24 0,0 47,2 61,23 -18,-32 -32,-43 -58,-50 0,0 27,10 31,-7z"/>
  <path class="fil24" d="M1201 116c0,0 -51,-33 -136,35 -86,69 -85,98 -81,97 4,-2 31,-29 31,-29 0,0 -27,23 -15,30 13,7 44,-32 44,-32 0,0 -21,20 -17,25 4,5 38,-30 38,-30 0,0 2,20 -18,30 0,0 26,-15 32,-34 0,0 10,15 21,3 11,-12 20,-45 31,-46 11,-1 -17,23 0,23 17,-1 41,-40 41,-40 0,0 23,21 -10,43 0,0 31,-9 41,-30 0,0 -28,-8 -11,-15 0,0 21,-5 27,5 6,10 -16,-17 1,-19 17,-2 -56,9 -17,-15z"/>
  <path class="fil13" d="M1348 397c0,0 -18,2 -19,-12 0,0 -1,172 -106,195 0,0 114,-8 113,-178 0,0 3,3 13,-6z"/>
  <path class="fil18" d="M1103 378c-1,-11 -9,-20 -20,-24 -14,-5 -33,-2 -46,5 -14,8 -14,22 -9,35 0,1 4,8 2,3 -9,-24 12,-35 33,-38 8,-1 32,0 37,11 1,2 2,6 2,7l1 0z"/>
  <path class="fil18" d="M1194 365c-6,-14 2,-28 14,-35 16,-9 51,-10 60,10 0,1 1,0 -1,-2 -8,-13 -21,-21 -38,-21 -26,0 -49,19 -39,44 0,1 4,8 3,5l0 0z"/>
  <path class="fil17" d="M1170 453c0,0 5,-14 11,-13 6,1 -3,13 -11,13z"/>
  <path class="fil17" d="M1151 459c0,0 -15,-8 -13,0 2,6 13,0 13,0z"/>
  <path class="fil9" d="M1169 1120c0,0 3,-13 13,-13 9,0 4,-13 10,-17 6,-4 106,46 120,117 0,0 -30,31 -42,23 -13,-7 -11,-16 -11,-16l4 -9c0,0 -62,-65 -93,-86z"/>
  <path class="fil6" d="M1120 1277c0,0 46,43 67,35 20,-8 35,485 50,590 1,5 -17,14 -21,0 -18,-65 -28,-217 -49,-554 0,0 -50,-26 -47,-71z"/>
  <path class="fil6" d="M1323 1227c0,0 -40,107 94,111 0,0 -46,-8 -75,-42 -29,-33 -19,-69 -19,-69z"/>
  <path class="fil6" d="M1380 1231c0,0 -15,521 -35,665 0,0 53,-439 35,-665z"/>
  <path class="fil5" d="M1232 1604c0,0 78,31 107,33 29,3 7,46 -47,24 -54,-22 39,36 40,83 1,47 -31,25 -46,38 -15,13 53,57 47,93 -6,36 -19,-49 -79,3 0,0 13,-44 26,-47 14,-3 -22,-21 -33,-22 -11,-1 -31,-125 -15,-204z"/>
  <path class="fil25" d="M1251 1434c16,-93 10,-150 -30,-140 0,0 5,16 5,27 0,11 -15,179 40,229 0,0 -26,-51 -15,-116z"/>
  <path class="fil25" d="M1234 1517c0,0 -3,67 37,56 39,-11 -19,-9 -37,-56z"/>
  <path class="fil0" d="M1197 1905c-1,0 -3,3 -2,4 2,2 4,4 5,7 1,2 -2,-2 -3,-2 -4,-4 -8,-8 -15,-8 -1,0 -3,3 -2,4 3,3 4,9 -1,5 -2,-1 -5,-3 -7,-5 0,0 -3,3 -2,4 2,2 9,10 12,6 2,-3 3,-6 2,-10 4,1 6,4 9,7 1,1 4,6 6,4 3,-3 3,-7 1,-11 6,1 12,5 15,11 0,0 3,-3 2,-4 -4,-8 -12,-11 -20,-11zm-6 -7c-6,-2 -12,-4 -18,-7 -5,-2 -9,-5 -13,-10 -4,-5 -3,-18 5,-15 13,4 22,24 28,35 1,1 3,-2 2,-3 -4,-7 -25,-46 -36,-34 -14,16 4,28 19,34 -2,0 -4,0 -6,0 -4,0 -27,2 -23,-5 4,-9 -3,-19 -13,-17 -1,0 -3,4 -2,4 7,-1 16,6 12,14 -1,2 -2,4 -1,7 4,4 19,2 24,2 6,0 12,0 19,0 1,0 3,-3 2,-4zm192 6c-7,17 -33,-1 -43,-1 -1,0 -1,0 -2,0 12,-9 28,-23 20,-31 -10,-10 -24,3 -28,11 -3,6 -6,12 -7,18 -1,-8 -4,-15 -8,-21 -6,-8 -28,-15 -35,-5 -9,12 18,28 30,36 -4,1 -8,1 -13,1 -9,-1 -13,-7 -16,-15 -2,-4 -5,-7 -10,-7 -5,1 -19,10 -21,-1 0,0 -2,2 -2,3 1,4 8,7 12,6 4,-2 8,-5 13,-4 4,1 6,7 7,10 5,13 22,13 33,9 1,0 2,-3 2,-4 -5,-3 -42,-29 -35,-33 12,-6 28,1 35,12 4,6 6,15 6,22 0,0 2,-2 2,-3 2,-16 11,-40 31,-33 12,5 -10,22 -20,30 -4,1 -7,3 -10,7 -1,1 -2,4 0,2 1,-2 3,-3 4,-4 0,1 0,2 -1,2 1,-1 3,-2 5,-3 17,-4 43,21 53,-4 1,-2 -2,0 -2,1zm-34 51c-1,1 -3,2 -4,2 -5,-1 10,-12 11,-13 4,-2 8,-4 13,-6 1,0 3,-3 2,-4 -18,-7 -33,0 -49,7 -3,1 3,-5 5,-7 2,-2 5,-3 7,-5 4,-2 9,-3 13,-4 6,-1 13,-2 19,-2 1,0 3,-4 2,-4 -18,-5 -48,-9 -60,11 -1,1 -1,4 0,1 9,-14 29,-14 46,-11 -14,2 -27,8 -34,20 -3,6 0,5 5,2 13,-6 26,-10 40,-6 -9,4 -20,10 -21,20 -1,5 2,3 5,1 11,-7 21,-10 33,-5 1,0 3,-3 2,-4 -12,-5 -23,-2 -34,5z"/>
  <path class="fil1" d="M1389 2011c0,0 47,-6 35,-23 -13,-18 -64,10 -64,10 0,0 -14,16 29,14z"/>
  <path class="fil26" d="M800 925c0,0 43,-13 29,-74 0,0 107,36 151,49l-12 -80c-20,-8 -43,-17 -52,-26 0,0 -178,-192 -350,-86 0,0 -58,-6 -114,179 -56,185 -84,215 -84,215 0,0 34,-1 46,15 0,0 103,-100 131,-219 0,0 6,60 17,113 13,61 -27,93 -23,176 0,0 169,52 278,-63 0,0 -16,-44 -53,-74 0,0 1,-4 -6,-11 -7,-7 6,-8 6,-22 0,-14 35,-90 35,-90z"/>
  <path class="fil27" d="M980 897c-71,-23 -168,-105 -169,-98 -1,7 -15,5 -15,5 16,40 61,63 78,69 58,23 90,31 107,32l-1 -9z"/>
  <path class="fil27" d="M674 626c0,0 -32,27 -30,47 2,20 16,78 72,48 56,-30 57,-125 -42,-95z"/>
  <path class="fil28" d="M586 1534c0,0 23,53 17,86 -6,34 -13,101 47,257 0,0 23,35 -42,73 -65,38 14,48 43,29 29,-19 42,-25 42,-100 0,-74 28,-343 -7,-361 -35,-18 -100,16 -100,16z"/>
  <path class="fil29" d="M591 1547c0,0 55,-24 70,-1 15,23 15,58 4,82 -10,24 -20,76 10,213 27,122 -4,125 -42,139 -52,19 44,11 57,-7 14,-19 -25,-272 -13,-331 13,-59 29,-98 7,-122 -22,-25 -90,6 -94,28z"/>
  <path class="fil30" d="M683 646c0,0 -18,57 -41,-6 0,0 -11,-1 -9,16 2,17 -13,13 -13,13 0,0 -23,-106 -23,-131 0,0 -9,64 8,127 0,0 -27,16 -38,-25 -10,-41 -4,-143 -4,-143 0,0 -19,61 -7,125 0,0 -16,17 -21,-29l-2 31c0,0 -46,-53 -4,-191 42,-138 205,-216 294,-215 89,1 74,39 74,39 0,0 136,35 115,236 -22,201 -128,268 -153,268 0,0 39,-46 28,-56 -10,-10 -30,36 -72,31 0,0 72,-55 76,-74 0,0 -44,66 -108,44 -65,-22 -100,-59 -100,-59z"/>
  <path class="fil31" d="M992 360c0,0 70,253 -121,394 0,0 49,-55 69,-93 20,-38 -37,55 -46,28 -9,-28 129,8 98,-328z"/>
  <path class="fil31" d="M936 571c0,0 -58,178 -208,104 0,0 -51,-47 -64,-31 -13,17 -13,7 -17,-36 0,0 -4,47 -19,25 -15,-22 -42,-169 6,-225 47,-56 306,63 303,163z"/>
  <path class="fil14" d="M655 367c0,0 -41,-19 -42,22 -1,26 27,20 27,20 0,0 -51,64 3,170 40,57 28,45 32,99 3,53 42,28 52,7 10,-21 8,-32 8,-32 0,0 140,49 214,-61 74,-110 -5,-214 -5,-214 0,0 -156,-153 -290,-11z"/>
  <path class="fil13" d="M992 465c0,0 -40,-17 -48,-66 0,0 -39,46 -86,39 0,0 65,-32 71,-46 0,0 -78,20 -86,11 0,0 51,-7 75,-24 0,0 -82,14 -84,-37 0,0 -75,62 -179,24 0,0 124,-111 226,-54 102,58 111,151 111,151z"/>
  <path class="fil15" d="M898 537c0,0 -48,-2 -47,-29 1,-29 53,-46 79,-26 26,19 13,56 -32,56z"/>
  <path class="fil16" d="M852 501c0,0 11,-32 60,-27 34,3 33,39 31,38 -2,-1 -9,-23 -26,-26 -29,-5 -48,0 -65,15z"/>
  <path class="fil15" d="M728 377c0,0 -22,18 -7,52 15,34 43,31 53,24 10,-7 26,-40 -5,-69 -25,-23 -41,-7 -41,-7z"/>
  <path class="fil16" d="M720 391c0,0 18,-13 36,0 24,16 33,33 16,61 0,0 33,-18 -4,-69 0,0 -34,-33 -49,7z"/>
  <path class="fil23" d="M862 486c0,0 44,-51 75,-18 21,22 7,38 7,38 0,0 2,-58 -82,-20z"/>
  <path class="fil23" d="M730 375c0,0 13,-22 37,-14 20,7 33,35 22,68 0,0 -2,-67 -59,-54z"/>
  <path class="fil32" d="M726 376c-33,28 6,100 48,80 9,-4 13,-17 15,-26 3,-16 -5,-33 -17,-44 -11,-10 -31,-23 -45,-9 0,0 3,3 3,2 17,-17 42,6 50,21 9,15 8,43 -9,54 -6,4 -15,4 -22,3 -16,-3 -25,-18 -29,-32 -5,-15 -3,-35 9,-46 0,0 -3,-3 -3,-2z"/>
  <path class="fil32" d="M897 535c-13,-1 -29,-4 -39,-13 -19,-19 11,-40 26,-45 21,-7 56,-2 58,26 2,24 -27,33 -45,33 -2,0 1,3 3,3 23,0 54,-13 45,-41 -7,-24 -38,-29 -59,-24 -18,4 -50,27 -31,48 11,12 29,16 45,17 1,0 -1,-3 -3,-3z"/>
  <path class="fil33" d="M784 409c4,10 1,21 -8,25 -8,4 -19,-2 -23,-12 -4,-10 -1,-21 8,-25 8,-4 19,2 23,12z"/>
  <path class="fil34" d="M915 482c11,1 20,8 19,17 -1,9 -10,15 -21,14 -11,-1 -20,-8 -19,-17 1,-9 10,-15 21,-14z"/>
  <path class="fil21" d="M916 490c5,0 8,4 8,7 0,4 -4,6 -9,6 -5,0 -8,-4 -8,-7 0,-4 4,-6 9,-6z"/>
  <path class="fil21" d="M777 410c2,4 0,9 -3,10 -3,1 -8,-1 -9,-6 -2,-4 0,-9 3,-10 3,-1 8,1 9,6z"/>
  <path class="fil21" d="M965 463c-6,-17 -22,-28 -39,-30 -4,-1 -10,4 -12,3 17,2 33,13 38,30 0,1 12,-3 12,-3l0 0z"/>
  <path class="fil16" d="M809 597c0,0 -12,23 -59,8 -47,-14 -32,-76 -32,-76 0,0 25,56 91,68z"/>
  <path class="fil15" d="M717 529c0,0 11,100 91,68 0,0 -65,-17 -91,-68z"/>
  <path class="fil35" d="M782 410c3,9 3,23 -10,24 -7,1 -13,-5 -16,-11 -5,-9 -3,-24 9,-25 8,-1 14,7 17,13 1,1 4,-1 3,-3 -4,-9 -15,-17 -25,-12 -10,5 -13,17 -9,27 3,9 15,17 25,12 10,-5 13,-17 9,-27 -1,-2 -4,1 -4,2z"/>
  <path class="fil35" d="M914 484c7,1 13,4 17,10 7,11 -8,19 -17,18 -7,0 -13,-4 -17,-10 -7,-11 8,-19 17,-18 1,0 4,-3 2,-3 -10,0 -21,4 -24,14 -4,12 10,19 19,20 10,1 21,-4 24,-14 4,-12 -10,-19 -19,-20 -2,0 -4,3 -2,3z"/>
  <path class="fil21" d="M909 470c-11,-1 -39,6 -42,13 0,0 65,-29 76,23 0,0 4,11 10,7 4,-3 0,-39 -45,-44z"/>
  <path class="fil22" d="M765 408c-1,3 -6,3 -10,1 -4,-2 -6,-6 -5,-8 1,-3 6,-3 10,-1 4,2 6,6 5,8z"/>
  <path class="fil22" d="M908 493c0,3 -4,4 -9,4 -4,-1 -7,-4 -7,-6 0,-3 4,-4 9,-4 4,1 7,4 7,6z"/>
  <path class="fil21" d="M768 457c0,0 -42,18 -53,-57 0,0 -5,-5 -7,-3 -2,3 12,77 63,55l-3 4z"/>
  <path class="fil21" d="M852 513c0,0 17,36 76,15 0,0 4,0 4,3 0,3 -54,27 -80,-18z"/>
  <path class="fil32" d="M643 390c0,0 -10,-4 -11,4 0,0 -8,-13 3,-14 11,-2 3,-12 -13,-4 -16,8 35,-29 21,14z"/>
  <path class="fil36" d="M726 561c-2,-7 1,-12 2,-14 -8,-10 -11,-18 -11,-18 0,0 -12,47 17,69 -11,-12 -13,-30 -13,-33 0,-4 5,-4 5,-4zm6 -10c15,27 61,44 61,44 15,4 -7,7 -7,7 -3,6 -15,5 -20,6 34,5 43,-12 43,-12 -38,-7 -63,-28 -77,-45z"/>
  <path class="fil37" d="M808 598c0,0 -26,15 -56,3 -30,-12 -35,-74 -35,-74 0,0 -5,9 -5,26 0,19 11,70 59,62 38,-6 36,-17 36,-17z"/>
  <path class="fil37" d="M717 526c0,0 14,63 98,73 0,0 18,-5 -18,-13 -36,-8 -80,-60 -80,-60z"/>
  <path class="fil36" d="M724 556l1 0c0,0 11,47 54,47l0 0c3,0 8,0 12,0l0 1 -2 0c-4,1 -7,1 -10,1l0 0c-44,0 -55,-48 -55,-48l0 0z"/>
  <path class="fil30" d="M1001 470c0,0 -38,-19 -49,-83 0,0 15,-4 -51,-27 0,0 -74,21 -11,-26 30,-23 -142,61 -241,27 0,0 93,-143 249,-65 134,68 103,174 103,174z"/>
  <path class="fil38" d="M983 413c0,0 -43,25 -68,23 0,0 55,-17 57,-38 2,-21 -25,16 -41,13l23 -32c0,0 -72,70 -117,57 0,0 -9,-8 19,-18 28,-9 82,-43 92,-59 0,0 -50,50 -132,39 0,0 77,2 124,-41 0,0 -70,40 -184,-25 0,0 126,26 180,4 0,0 88,36 48,77z"/>
  <path class="fil21" d="M771 380c11,11 25,41 14,59 0,0 5,-73 -57,-62 0,0 -8,-5 -6,-12 1,-4 30,-2 49,15z"/>
  <path class="fil39" d="M898 257c0,0 -18,-81 -204,2 -187,83 -158,176 -158,176 0,0 67,-90 122,-78 55,12 194,-37 204,-63 9,-26 61,41 61,41 0,0 162,182 -23,320 0,0 -28,58 -58,66 0,0 51,-17 81,-44l-38 58c0,0 275,-316 13,-478z"/>
  <path class="fil40" d="M591 344c0,0 -87,77 -66,266 0,0 -15,-147 40,-211 0,0 -46,121 -20,211 0,0 -15,-133 23,-184 0,0 -18,63 -14,77 5,14 18,-46 18,-46 0,0 -18,162 12,201 0,0 -21,-158 8,-216 29,-58 -29,-34 6,-70 35,-37 20,-63 -8,-28z"/>
  <path class="fil41" d="M909 295c10,-14 8,-28 40,3 49,48 12,104 -10,106 0,0 29,-28 25,-44 -5,-17 -11,55 -124,70 0,0 101,-31 107,-71 6,-40 4,41 -120,33 0,0 100,-5 109,-46 9,-41 -5,67 -158,-14 0,0 104,57 139,-3 0,0 -25,-11 -54,1 15,-12 36,-22 45,-34z"/>
  <path class="fil13" d="M807 528c0,0 -41,-29 -32,-12 9,17 29,15 32,12z"/>
  <path class="fil17" d="M814 510c0,7 -3,16 -10,18 -10,3 -24,-5 -30,-12 -1,-1 -4,1 -3,3 7,9 23,17 34,12 9,-3 12,-14 13,-22 0,-2 -4,0 -4,1l0 0z"/>
  <path class="fil42" d="M894 262c0,0 3,-44 -98,-32 0,0 52,0 66,14 14,14 -15,-21 -90,23 0,0 58,-23 92,-9 0,0 -81,38 -150,54l135 -26c0,0 -89,43 -211,44 0,0 103,20 211,-32 0,0 -40,66 -145,61 0,0 94,19 157,-58 0,0 17,8 11,18 0,0 10,-6 10,-21 0,0 31,24 33,52 0,0 14,-41 -16,-53 0,0 59,24 84,125 0,0 6,-77 -72,-126 0,0 35,6 67,49 0,0 -20,-51 -70,-63l21 -2c0,0 -7,-11 -34,-18z"/>
  <path class="fil42" d="M630 301c0,0 -61,27 -79,84 0,0 23,-36 30,-35 7,1 -30,30 -28,57l21 -28c0,0 4,72 -7,85 0,0 32,-40 22,-57 -10,-18 -14,-26 2,-43 16,-17 80,-18 80,-18 0,0 -50,-8 -81,10 0,0 1,-20 42,-20 0,0 -17,-13 -41,0 -24,13 50,-21 91,-34l-75 22c0,0 -4,-1 24,-24z"/>
  <path class="fil42" d="M993 475c0,0 9,153 -97,255 0,0 123,-99 97,-255z"/>
  <path class="fil14" d="M678 1513c0,0 13,44 7,79 -6,35 -41,102 -1,268 10,94 -10,120 -10,120 0,0 38,50 91,2 0,0 -24,-43 -34,-62 -10,-19 6,-70 19,-109 13,-40 32,-108 25,-208 0,0 2,-61 14,-96 12,-35 -113,-37 -113,6z"/>
  <path class="fil29" d="M618 1579c0,0 2,35 15,40 13,4 15,28 0,15 -15,-13 -21,-40 -15,-55z"/>
  <path class="fil32" d="M711 1629c0,0 33,30 46,-47 0,0 7,69 -34,66 -41,-3 -21,-33 -12,-19z"/>
  <path class="fil43" d="M614 1947c0,0 -72,23 -59,53 13,30 81,15 119,-18 0,0 -101,3 -60,-35z"/>
  <path class="fil43" d="M676 1977c0,0 -34,53 35,57 69,4 65,-49 51,-57 0,0 -44,41 -86,0z"/>
  <path class="fil44" d="M544 1189c0,0 191,29 273,-67 57,56 -15,393 -29,394 0,0 1,-62 -123,0 -86,43 -85,29 -85,29 0,0 -93,-266 -37,-356z"/>
  <path class="fil27" d="M540 1182l0 18c0,0 132,55 288,-62 0,0 7,-13 -11,-19 0,0 -73,98 -278,63z"/>
  <path class="fil27" d="M566 709c0,0 39,86 -6,151l-15 38 18 -31c0,0 50,-58 3,-158z"/>
  <path class="fil45" d="M809 1122c0,0 -16,-44 -53,-74 0,0 1,-4 -6,-11 -7,-7 6,-8 6,-22 0,-14 43,-90 43,-90 0,0 -12,6 -36,9 -30,4 -78,4 -118,7 -82,14 -53,-97 -53,-97 0,0 -32,10 -25,53 2,13 6,23 11,30 5,17 14,38 30,62 48,73 -67,87 -1,199 59,3 139,2 201,-64z"/>
  <path class="fil46" d="M583 789c0,0 -45,20 -73,129 -28,109 -99,192 -99,192l4 5c0,0 89,-94 111,-168 23,-74 61,-111 56,-158z"/>
  <path class="fil47" d="M586 1250c0,0 32,82 168,-7 0,0 -26,43 -64,69 -38,26 19,10 49,-3 29,-13 -25,33 -53,35 -28,1 58,6 8,24 -50,18 -74,4 -89,-8 -15,-13 18,-1 36,-13 18,-11 -8,-1 -33,-17 -25,-15 -6,-29 6,-29 11,0 -31,18 -28,-51z"/>
  <path class="fil48" d="M610 840c0,0 -56,73 27,69 58,-3 116,-7 133,-8 18,-1 76,10 58,-49 -18,-60 -232,-239 -218,-12z"/>
  <path class="fil49" d="M656 1374c-31,-3 -60,31 -96,31 -11,0 -22,3 -33,7 -26,-13 -64,-23 -119,-19 0,0 -30,-2 -60,106 -30,108 -31,176 -31,176 0,0 99,60 211,22 0,0 27,-135 22,-186 98,-40 100,-59 100,-59 58,-34 6,-78 6,-78z"/>
  <path class="fil50" d="M516 1407c0,0 -72,-37 -117,-11 -28,17 16,36 44,40 29,4 63,-17 74,-29z"/>
  <path class="fil51" d="M377 1975c0,0 -11,19 22,27 33,8 115,2 124,-26 9,-28 -38,-44 -61,-38 0,0 -14,42 -85,37z"/>
  <path class="fil18" d="M564 1107c-11,-8 -57,1 -57,1 0,0 58,-30 18,-22 -26,6 -40,12 -46,16l33 -25c0,0 -29,2 -55,16 3,-10 4,-18 -6,-9 -11,9 -17,19 -20,26 3,-10 -2,0 -26,7 -21,6 -27,5 -32,21 -12,6 -24,19 -37,45 -35,74 156,-42 205,-57 0,0 34,-11 23,-19z"/>
  <path class="fil52" d="M518 1125c0,0 58,-13 38,-15 -19,-1 -38,7 -38,7l7 -8c0,0 -6,0 -26,1 -20,1 36,-17 34,-20 -2,-3 -52,21 -55,25 -3,5 10,-13 10,-13 0,0 -16,7 -20,13 -5,7 3,-16 33,-32 0,0 -32,10 -45,39 0,0 6,-23 -5,-23 -11,0 -16,34 -16,34l-5 -15c0,0 -18,8 -28,33 -10,25 24,-20 117,-27z"/>
  <path class="fil14" d="M382 1330c0,0 -49,1 -49,19 1,18 41,18 41,18 0,0 47,51 85,47 38,-4 32,-28 32,-28 0,0 117,9 143,-106 20,-87 -57,-118 -57,-118 0,0 -39,-107 -177,-6 -139,101 -18,174 -18,174z"/>
  <path class="fil15" d="M567 1147c0,0 -35,-6 -44,11 -9,17 19,36 53,31 34,-5 8,-49 -9,-42z"/>
  <path class="fil16" d="M588 1182c0,0 3,-17 -18,-26 -21,-9 -38,-1 -48,7 0,0 4,-26 50,-17 30,11 16,35 16,35z"/>
  <path class="fil15" d="M486 1240c0,0 -23,24 -58,17 -35,-7 -41,-43 -7,-62 34,-19 81,10 65,45z"/>
  <path class="fil16" d="M485 1238c0,0 -4,-30 -29,-36 -25,-6 -52,15 -56,26 0,0 0,-42 55,-38 0,0 46,12 30,48z"/>
  <path class="fil31" d="M515 1135c8,-7 21,-5 30,-1 2,1 1,-2 -1,-3 -10,-5 -23,-8 -33,0 -1,1 2,4 3,3l0 0z"/>
  <path class="fil14" d="M652 1371c0,0 9,-28 7,-32 -3,-4 -7,-15 1,-15 8,0 17,8 16,27 0,17 7,-14 35,-28 8,-4 20,7 9,15 -8,5 -16,14 -20,19 -2,2 1,5 4,4 5,-2 18,-11 25,-13 4,-1 13,9 7,14 -5,5 -17,14 -27,18 0,0 0,4 3,4 8,0 23,-3 23,7 0,7 -25,12 -25,12 0,0 -6,4 3,6 8,2 12,1 12,6 1,5 -5,11 -25,4 -20,-7 -28,5 -28,5 0,0 -22,8 -21,-52l1 0z"/>
  <path class="fil53" d="M514 1303c-3,17 -26,28 -50,23 -24,-5 -41,-23 -37,-40 3,-17 26,-28 50,-23 24,5 41,23 37,40z"/>
  <path class="fil54" d="M597 1195c14,-4 29,8 35,27 6,19 -1,37 -14,41 -14,4 -29,-8 -35,-27 -6,-19 1,-37 14,-41z"/>
  <path class="fil13" d="M557 1255c0,0 -24,13 -22,1 3,-12 25,-38 27,-30 2,7 -5,29 -5,29z"/>
  <path class="fil32" d="M539 1217c3,-1 5,-2 8,-3 8,-2 13,2 14,10 1,10 -2,21 -6,30 0,1 3,3 3,3 5,-11 11,-30 2,-41 -6,-8 -17,-5 -24,-1 0,0 2,3 3,3l0 0z"/>
  <path class="fil31" d="M525 1158c0,0 14,-22 61,-3 0,0 -2,-16 -29,-16 -18,0 -31,18 -31,18z"/>
  <path class="fil55" d="M584 1154c0,6 -7,11 -17,11 -9,0 -17,-5 -17,-11 0,-6 7,-11 17,-11 9,0 17,5 17,11z"/>
  <path class="fil21" d="M575 1151c0,3 -3,5 -7,5 -4,0 -7,-2 -7,-5 0,-3 3,-5 7,-5 4,0 7,2 7,5z"/>
  <path class="fil56" d="M409 1331c-24,-17 -28,-43 -34,-64 5,-39 25,-104 96,-147 0,0 -51,14 -89,53 -1,0 -2,1 -4,1 -50,45 -50,84 -36,112 0,1 0,3 0,4l2 1c14,25 38,39 38,39 0,0 -11,0 -22,2 3,2 6,5 9,7 -9,0 -27,1 -25,13 0,0 5,-2 12,-4 0,7 16,11 10,7 -5,-3 -2,-7 0,-9 5,-1 10,-1 13,0 0,0 0,0 0,0 4,9 7,10 18,14 6,39 51,48 75,49 19,1 19,-15 17,-24 2,0 3,0 5,1 13,0 74,-1 113,-48 23,-33 27,-72 27,-72 -21,94 -144,122 -225,65z"/>
  <path class="fil18" d="M377 1303c-8,-29 -9,-96 25,-152 0,0 -83,-33 -102,88 -12,74 25,103 47,96 2,0 3,0 5,0 3,0 6,0 9,0 1,5 4,9 8,9 9,-1 15,-11 7,-41z"/>
  <path class="fil24" d="M390 1138c0,0 22,-17 27,-23 -29,3 -33,31 -33,31 -8,-1 -15,3 -21,10 -16,-1 -40,2 -51,33 0,0 -25,30 -13,49 0,0 0,-23 10,-28 10,-5 -10,37 0,47 0,0 -1,-19 6,-27 7,-8 -3,26 10,38 0,0 2,-28 14,-31 -1,27 4,46 14,34 25,-29 15,-48 15,-48 10,-1 12,23 12,23 12,-40 3,-52 3,-52 0,0 11,9 12,1 1,-8 5,-20 1,-32 -1,-3 5,14 5,9 4,-25 -11,-33 -11,-33z"/>
  <path class="fil31" d="M479 1203c0,0 -30,-29 -65,-2 0,0 -17,10 -14,34 0,0 -15,-22 13,-40 32,-20 66,8 66,8z"/>
  <path class="fil31" d="M430 1166c-12,-3 -22,6 -28,15 -1,1 3,4 3,3 6,-8 16,-17 27,-15 2,0 0,-3 -2,-3l0 0z"/>
  <path class="fil52" d="M307 1293c0,0 4,34 31,40 27,6 -13,-6 -13,-20 0,0 28,19 33,19 6,0 -12,-16 -12,-16 0,0 19,32 28,21 8,-11 1,-38 -5,-49 0,0 7,26 2,31 -5,5 -13,-23 -13,-23l3 23c0,0 -20,-10 -23,-31 -3,-21 -9,18 3,30 12,12 -41,-22 -31,-72 0,0 -14,16 -2,49z"/>
  <path class="fil36" d="M544 1295c10,5 21,1 29,-5 8,-6 14,-16 19,-23 2,-2 3,-5 5,-7 0,-1 -3,-3 -3,-3 -3,7 -9,14 -14,20 -8,10 -22,24 -37,17 -2,-1 0,2 1,2l0 0z"/>
  <path class="fil57" d="M477 1203c0,8 -9,14 -20,14 -11,0 -20,-6 -20,-14 0,-8 9,-14 20,-14 11,0 20,6 20,14z"/>
  <path class="fil21" d="M466 1200c0,3 -4,6 -8,6 -5,0 -8,-3 -8,-6 0,-3 4,-6 8,-6 5,0 8,3 8,6z"/>
  <path class="fil35" d="M582 1153c-1,13 -29,15 -30,2 -1,-13 29,-15 30,-2 0,1 3,3 3,2 -2,-16 -35,-19 -37,-2 -1,6 8,11 13,12 8,2 22,0 23,-10 0,-1 -3,-3 -3,-2z"/>
  <path class="fil35" d="M475 1202c-1,16 -31,19 -36,4 -4,-16 34,-22 36,-3 0,1 4,3 3,2 -2,-20 -41,-23 -42,-2 -1,9 10,14 17,16 10,2 24,-2 25,-14 0,-1 -3,-3 -3,-2z"/>
  <path class="fil22" d="M563 1154c0,2 -3,5 -8,5 -5,1 -9,0 -9,-2 0,-2 3,-5 8,-5 5,-1 9,0 9,2z"/>
  <path class="fil22" d="M452 1201c1,2 -3,6 -8,8 -5,2 -10,2 -11,-1 -1,-2 3,-6 8,-8 5,-2 10,-2 11,1z"/>
  <path class="fil58" d="M527 1412c0,0 -83,50 -101,212 0,0 8,131 -24,125 -33,-6 1,-323 125,-337z"/>
  <path class="fil58" d="M398 1396c0,0 -85,78 -85,295 0,11 9,42 17,1 8,-41 -3,-208 68,-295z"/>
  <path class="fil58" d="M539 1688c0,0 -92,44 -233,-22 0,0 -26,85 -19,137 0,0 -74,36 -75,108 0,0 45,18 91,47 0,0 62,-79 65,-128 0,0 -22,143 24,152 45,9 132,-22 77,-46 0,0 61,-139 71,-249z"/>
  <path class="fil9" d="M313 1711c0,0 -25,62 92,110 0,0 -3,22 -49,4 0,0 22,28 -54,134l-8 -12c0,0 60,-88 36,-142 -24,-54 -32,-58 -17,-94z"/>
  <path class="fil50" d="M651 1371c0,0 4,68 24,48 0,0 5,12 -25,33 0,0 -29,-11 -19,-73 0,0 16,-10 20,-7z"/>
  <path class="fil50" d="M551 1524l-1 -14c-51,3 -59,40 -59,40 5,-9 12,-16 19,-22 11,-5 28,-11 41,-5z"/>
  <path class="fil58" d="M551 1511l-41 201c0,0 25,67 41,-201z"/>
  <path class="fil59" d="M316 1986c0,0 -24,21 -78,-5 -54,-26 -44,-71 -25,-67 19,4 103,72 103,72z"/>
  <path class="fil51" d="M298 1990c67,4 31,-34 23,-35 -8,-1 -53,-18 -78,-37 -25,-19 -37,-2 -37,-2 0,0 22,5 35,27 13,22 58,47 58,47z"/>
  <path class="fil9" d="M442 1724c0,0 20,40 59,47 0,0 -31,135 -57,176 0,0 35,8 88,-245 0,0 -17,60 -27,62 -10,2 -18,2 -63,-40z"/>
  <path class="fil9" d="M426 1692c0,0 -1,44 -24,40 0,0 30,19 24,-40z"/>
  <path class="fil9" d="M330 1677c0,0 4,28 -12,23 0,0 21,14 12,-23z"/>
  <path class="fil9" d="M409 1696c-1,0 -2,0 -2,1 3,1 5,6 4,12 0,5 -2,9 -5,11 1,0 1,0 2,0 4,0 7,-5 7,-11 0,-6 -2,-12 -6,-12z"/>
  <path class="fil9" d="M322 1676c-1,0 -1,0 -2,0 2,1 4,5 3,9 0,4 -2,7 -4,9 0,0 1,0 1,0 3,0 6,-4 6,-9 0,-5 -2,-10 -5,-10z"/>
  <path class="fil60" d="M410 1708c0,6 -2,11 -5,11 -3,0 -5,-5 -5,-11 0,-6 2,-11 5,-11 3,0 5,5 5,11z"/>
  <path class="fil60" d="M323 1684c0,5 -2,9 -5,9 -3,0 -5,-4 -5,-9 0,-5 2,-9 5,-9 3,0 5,4 5,9z"/>
  <path class="fil61" d="M322 1146c0,0 -15,4 -16,17 0,0 -13,5 -25,26 -12,21 10,39 10,39 0,0 -4,-19 2,-31 6,-11 2,15 9,29 7,14 5,24 5,24 0,0 13,7 14,-30 2,-37 -13,-61 1,-74z"/>
  <path class="fil14" d="M375 1090c0,0 -15,13 -19,21 -5,8 -57,40 -42,61 0,0 -5,24 -4,42 1,19 9,22 3,34 0,0 12,7 14,-49 1,-43 32,-31 32,-31 0,0 -26,22 -24,46 2,24 22,-24 35,-30 14,-6 21,-33 18,-45 -3,-12 25,-31 25,-31 0,0 -2,-18 -39,-19z"/>
  <path class="fil27" d="M373 1091c0,0 2,-9 9,-11 0,0 36,0 45,30 0,0 -13,15 -19,3l6 -4c0,0 -7,-17 -41,-18z"/>
  <path class="fil30" d="M999 1264c-45,-4 -122,-5 -152,-69 0,0 -70,-242 -17,-343 54,-101 174,-117 241,-88 67,29 103,129 104,225 1,96 -10,117 9,165 15,37 -35,122 -185,110z"/>
  <path class="fil39" d="M816 968c0,0 6,144 36,203 0,0 -3,-27 -7,-51 -4,-24 0,33 22,46 0,0 -47,-142 -39,-191l-13 -7z"/>
  <path class="fil39" d="M1171 974c0,0 -23,108 -8,154 15,46 13,65 2,77 0,0 12,-27 -3,-54 -15,-27 -15,-95 -9,-108 5,-14 -18,66 5,119 0,0 -30,-33 -13,-127 18,-94 -2,-67 -2,-67 0,0 27,-32 28,6z"/>
  <path class="fil31" d="M836 984c0,0 10,102 52,151 42,49 -6,-14 -9,-40 -3,-26 13,38 45,45 32,7 -8,-44 -8,-44 0,0 161,56 194,55 32,-1 6,2 7,-50 1,-52 34,-121 32,-131 -2,-11 -69,98 -313,14z"/>
  <path class="fil62" d="M1169 1654c0,0 -28,13 -63,16 -116,7 -274,56 -229,-2 158,-128 292,-14 292,-14z"/>
  <path class="fil63" d="M896 1878c0,0 -12,-102 2,-221 0,0 65,-35 87,-30 0,0 -38,213 -71,258l-18 -7z"/>
  <path class="fil64" d="M1069 1870c0,0 -39,-160 -45,-248 0,0 56,-29 85,6 0,0 10,174 -2,242 0,0 -22,32 -38,0z"/>
  <path class="fil65" d="M1098 1113c0,0 -109,-82 -216,24 0,0 21,90 31,115 10,25 159,10 159,10 0,0 25,-51 26,-149z"/>
  <path class="fil14" d="M1179 929c-10,-14 -24,-6 -36,5 1,-21 -3,-38 -5,-48 -6,-26 -70,-105 -157,-101 -87,4 -132,96 -132,96 0,0 -9,24 -12,55 -9,-8 -24,-16 -32,1 -10,21 17,41 34,50 5,26 19,52 46,71 25,17 49,27 73,32 2,7 7,20 7,28 1,12 11,19 26,15 14,-3 18,-15 26,-44 33,-7 62,-25 85,-51 16,-18 27,-37 33,-56 19,-6 59,-33 44,-54z"/>
  <path class="fil15" d="M944 902c0,0 -16,-28 -50,-6 -32,21 -11,49 10,50 18,1 61,-14 40,-44z"/>
  <path class="fil16" d="M878 920c0,0 -5,-28 30,-33 35,-4 41,24 41,24 0,0 -23,-18 -45,-13 -14,3 -22,10 -27,21z"/>
  <path class="fil31" d="M1029 839c18,-2 41,2 52,18 1,2 4,2 2,0 -12,-18 -36,-24 -56,-21 -1,0 1,3 2,3l0 0z"/>
  <path class="fil31" d="M949 836c-15,1 -39,3 -47,17 0,1 3,3 3,3 8,-14 32,-16 47,-17 0,0 -2,-3 -2,-3l0 0z"/>
  <path class="fil36" d="M930 1021c3,1 6,1 10,1 -1,0 -2,0 -3,0 8,16 24,27 42,26 14,-1 30,-6 43,-12 4,-2 8,-5 10,-9 2,-4 -3,-5 -5,-6 -1,0 -5,0 -4,1 8,4 4,9 -2,13 -12,8 -36,15 -50,12 -13,-2 -24,-14 -29,-25 0,-1 -2,0 -3,0 -1,0 -3,0 -4,0 -1,0 -4,0 -4,1l0 0z"/>
  <path class="fil15" d="M1076 893c0,0 -36,-15 -50,16 -14,31 30,38 43,36 19,-3 50,-32 7,-52z"/>
  <path class="fil66" d="M939 898c1,7 -7,14 -17,16 -10,1 -20,-4 -21,-11 -1,-7 7,-14 17,-16 10,-1 20,4 21,11z"/>
  <path class="fil21" d="M929 900c0,3 -3,6 -8,7 -5,1 -9,-2 -9,-5 0,-3 3,-6 8,-7 5,-1 9,2 9,5z"/>
  <path class="fil30" d="M1003 794c-5,-1 -10,-1 -16,-2 0,0 -72,65 -112,83 -40,18 -41,44 -41,44 0,0 -20,-120 147,-145 167,-25 168,148 168,148 0,0 -9,25 -15,26 0,0 6,-10 4,-22 -2,-11 -31,-115 -135,-131z"/>
  <path class="fil21" d="M950 912c0,0 -29,-54 -72,1 0,0 -17,-23 33,-28 34,-3 40,28 40,28z"/>
  <path class="fil22" d="M941 909c-1,2 -5,2 -10,0 -5,-2 -8,-5 -7,-7 1,-2 5,-2 10,0 5,2 8,5 7,7z"/>
  <path class="fil16" d="M1024 913c0,0 11,-33 47,-24 28,7 26,30 26,30 0,0 -15,-24 -35,-24 -20,0 -38,17 -38,17z"/>
  <path class="fil67" d="M1074 904c-1,8 -9,14 -20,13 -10,-1 -18,-8 -18,-16 1,-8 9,-14 20,-13 10,1 18,8 18,16z"/>
  <path class="fil21" d="M1063 902c0,4 -4,6 -9,6 -5,0 -8,-4 -8,-7 0,-4 4,-6 9,-6 5,0 8,4 8,7z"/>
  <path class="fil21" d="M1024 913c0,0 29,-54 72,1 0,0 17,-23 -33,-28 -34,-3 -40,28 -40,28z"/>
  <path class="fil22" d="M1080 909c-1,2 -5,2 -10,0 -5,-2 -8,-5 -7,-7 1,-2 5,-2 10,0 5,2 8,5 7,7z"/>
  <path class="fil68" d="M890 1370c0,0 -41,118 -20,313 0,0 49,-49 157,-54 108,-5 130,30 130,30 0,0 66,40 -94,-289l-174 0z"/>
  <path class="fil69" d="M904 1466c0,0 -10,151 11,189l22 -9c0,0 -39,-86 -33,-180zm80 167l12 -3c-29,-45 -50,-178 -50,-178 0,125 38,181 38,181zm55 -6l19 1c0,0 -35,-58 -39,-132 0,0 1,87 20,131zm29 -98c0,0 18,86 30,101l24 6c0,0 -35,-49 -54,-107z"/>
  <path class="fil70" d="M880 1862c0,0 4,11 8,15 4,4 -7,33 -4,42 3,10 19,4 19,4 0,0 14,-29 20,-40 6,-10 11,-20 -2,-11 0,0 -9,-14 -12,-6 -3,9 -6,2 -12,-3 -5,-5 -11,-9 -9,-1 2,8 -9,-2 -9,-2z"/>
  <path class="fil71" d="M1069 1859c0,0 -26,-11 -16,0 10,11 22,44 33,72 11,28 24,5 24,5 0,0 3,-69 6,-73 3,-4 -9,-9 -12,-2 -3,8 -10,4 -12,-3 -3,-6 -5,-18 -8,-6 -2,12 -5,12 -10,12 -4,-1 -3,-20 -6,-8 -3,12 -1,3 -1,3z"/>
  <path class="fil43" d="M908 1920c0,0 -12,22 -10,24 3,2 53,52 5,65 -48,13 -98,-12 -69,-48 28,-36 34,-24 39,-30 5,-6 6,-17 6,-17 0,0 17,0 28,5z"/>
  <path class="fil44" d="M890 1946c-10,1 -26,8 -31,17 -1,3 2,2 3,1 7,-2 13,-5 20,-6 8,-2 17,-1 23,6 5,5 -7,4 -10,4 -10,0 -19,-1 -29,-2 -1,0 -3,2 -3,3 3,10 21,11 29,11 1,0 4,-3 3,-3 -8,0 -26,0 -29,-10 -1,1 -2,2 -3,3 6,1 48,8 46,-5 -1,-5 -7,-8 -11,-9 -7,-2 -15,-1 -22,1 -4,1 -13,3 -15,6 6,-7 17,-13 27,-13 1,0 4,-3 2,-3l0 0z"/>
  <path class="fil43" d="M1076 1932c0,0 3,12 4,19 1,7 -56,-4 -57,36 -1,40 41,26 61,20 20,-6 38,5 38,-5 1,-10 -9,-51 -6,-67 0,0 -28,-19 -40,-3z"/>
  <path class="fil44" d="M1102 1986c-5,-11 -11,-23 -22,-29 -5,-3 -19,-1 -11,5 5,4 12,8 12,14 0,3 1,1 0,0 -1,-1 -2,-2 -3,-4 -3,-3 -7,-6 -11,-8 -4,-2 -11,-3 -14,1 -5,5 4,10 7,13 1,1 3,-3 3,-3 -3,-3 -7,-6 -8,-10 0,0 9,1 10,2 6,2 10,8 14,12 2,2 3,1 5,-1 2,-3 1,-8 -1,-10 -3,-4 -8,-7 -12,-10 -2,-2 0,0 -2,0 1,0 3,0 4,0 4,0 7,3 10,5 7,7 13,17 17,26 0,0 3,-2 3,-3l0 0z"/>
  <path class="fil14" d="M912 1186c-3,-19 -12,-42 -31,-49 0,0 -38,26 -59,72 9,-11 21,-20 35,-23 18,-5 37,-4 54,0z"/>
  <path class="fil23" d="M834 967c0,0 -2,-12 -12,-5 0,0 -20,-21 -7,-21 13,1 19,3 20,26z"/>
  <path class="fil23" d="M1144 951c0,0 7,0 4,9 -4,9 45,-17 24,-23 -21,-6 -27,14 -27,14z"/>
  <path class="fil72" d="M1012 1411c0,0 -56,54 -44,79l6 6c0,0 -2,28 17,19 0,0 9,16 16,0 7,-16 4,-42 36,-59 0,0 20,-60 -31,-47z"/>
  <path class="fil72" d="M823 1350c0,0 -50,95 -7,122 0,0 9,19 25,5 0,0 23,2 13,-18 0,0 -18,-44 15,-79 0,0 -7,-43 -46,-30z"/>
  <path class="fil72" d="M902 1414c0,0 -21,52 -7,99 8,26 20,4 20,4 0,0 -1,9 11,6 12,-3 8,-13 8,-13 0,0 15,18 24,-4 9,-22 -13,-16 -13,-16 0,0 13,-50 -1,-71 -15,-20 -42,-4 -42,-4z"/>
  <path class="fil73" d="M1007 1235c0,0 -79,-67 -149,-49 -70,18 -73,145 -38,169 35,24 54,28 98,29 0,0 22,23 80,6 0,0 21,34 39,38 0,0 3,36 26,49 0,0 -60,67 -20,87 39,19 80,-99 80,-99 0,0 39,-35 49,-7 9,27 7,63 42,87 35,23 50,40 41,54 -8,14 -56,-10 -54,34 2,44 96,61 126,-32 30,-93 -73,-80 -102,-114 -29,-34 -55,-98 -43,-122 21,-42 -14,-171 -175,-131z"/>
  <path class="fil15" d="M885 1267c0,0 -55,-30 -57,-36 -2,-6 15,-18 40,2 24,19 17,34 17,34z"/>
  <path class="fil15" d="M986 1316c0,0 -47,-22 -59,-23 -12,-2 5,-27 29,-17 24,9 35,27 30,41z"/>
  <path class="fil14" d="M989 1257c0,0 48,-17 67,9 19,26 -37,37 -37,37 0,0 17,-26 -29,-46z"/>
  <path class="fil72" d="M1001 1234c0,0 -25,4 -16,23 0,0 62,-25 76,21 0,0 5,-43 -60,-44z"/>
  <path class="fil72" d="M1099 1359c0,0 -76,12 -63,69 0,0 -14,-4 -23,-19 -9,-14 17,-63 86,-50z"/>
  <path class="fil74" d="M828 1322c7,9 18,14 29,12 8,-1 20,-9 22,-15 -2,4 -2,9 -3,13 -2,20 11,30 29,33 9,1 19,-2 23,-10 1,-2 0,-2 -1,0 -8,14 -36,5 -44,-4 -8,-9 -6,-24 -3,-34 0,-1 0,-1 -1,0 -10,12 -23,18 -38,12 -5,-2 -10,-6 -13,-10 0,0 -3,3 -2,4l0 0z"/>
  <path class="fil74" d="M876 1296c0,0 -10,-3 -6,3 4,5 3,10 9,15 5,5 9,-5 12,-6 3,-1 16,-4 -15,-12z"/>
  <path class="fil72" d="M835 1276c-27,-18 -64,-20 -90,0 -1,1 -2,4 -1,3 26,-20 62,-18 89,0 0,0 3,-3 2,-4zm-6 12c1,-1 2,-3 2,-4 -19,-13 -45,-12 -64,-1 -1,0 -2,4 -1,3 19,-11 43,-12 62,0 -20,-8 -44,-1 -62,8 -1,1 -2,4 -2,4 19,-10 46,-17 66,-6 1,0 3,-3 2,-4 -1,0 -1,-1 -2,-1zm-51 18c-1,1 -2,4 -1,3 12,-10 29,-14 45,-10 1,0 2,-4 2,-4 -16,-3 -33,0 -46,11z"/>
  <path class="fil72" d="M922 1317c33,-2 65,14 78,45 0,1 0,4 -1,4 -12,-31 -45,-47 -77,-45 -1,0 -1,-4 0,-4zm-1 13c0,-1 0,-4 0,-4 23,-2 45,12 56,32 0,1 0,5 -1,4 -11,-19 -31,-32 -53,-31 21,3 39,21 50,39 1,1 0,4 0,4 -12,-18 -31,-38 -54,-39 -1,0 -1,-4 0,-4 1,0 2,0 2,0zm35 41c0,1 0,4 -1,4 -6,-15 -19,-27 -34,-32 -1,0 0,-4 0,-4 15,5 28,17 34,32z"/>
  <path class="fil75" d="M867 1233c-8,-6 -15,-9 -21,-10 -1,7 -1,17 6,25 6,7 18,2 26,-3 -3,-4 -6,-8 -12,-12z"/>
  <path class="fil76" d="M951 1295c8,1 16,-5 22,-11 -5,-3 -11,-6 -17,-9 -3,-1 -6,-2 -9,-2 -3,7 -5,21 5,22z"/>
  <path class="fil77" d="M990 1227c0,0 -72,-50 -92,-32 -20,18 59,27 59,27 0,0 -58,-4 -59,9 -2,13 67,6 67,6 0,0 11,-2 26,-10z"/>
  <path class="fil78" d="M1070 1231c0,0 -22,96 -11,99 11,3 36,-39 37,-97 0,0 -17,-7 -26,-2z"/>
  <path class="fil79" d="M1116 1236c0,0 -5,49 -15,68 -9,18 -6,60 16,19 22,-41 18,-74 18,-74l-20 -13z"/>
  <path class="fil80" d="M1159 1276c0,0 -43,79 -31,92 11,14 51,-41 47,-67 0,0 -8,-20 -16,-25z"/>
  <path class="fil81" d="M1285 1516c-18,8 -40,20 -27,33 14,13 41,-3 58,-16 -8,-7 -19,-13 -31,-17zm45 38c-22,1 -56,5 -52,19 4,14 35,12 54,9 2,-11 1,-20 -1,-28zm-91 -57c-12,13 -23,28 -16,34 7,7 25,-10 41,-24 -9,-3 -18,-7 -25,-11zm-15 -13c-4,-5 -9,-11 -13,-17 -11,11 -26,27 -18,34 7,6 21,-5 31,-16z"/>
  <path class="fil73" d="M823 1442c-13,1 -10,22 -9,29 0,1 4,-1 4,-2 -1,-7 -2,-14 0,-21 0,-1 2,-4 3,-4 1,0 4,-3 2,-3zm16 5c1,0 3,-3 1,-2 -3,2 -6,4 -8,7 -6,8 0,19 6,25 1,1 4,-2 3,-2 -6,-7 -13,-23 -2,-28zm91 45c0,-1 0,-3 0,-4 0,0 1,-1 0,-1 2,-2 -2,-1 -3,0 -5,6 2,19 4,25 0,1 4,-1 3,-2 -3,-6 -5,-11 -6,-18zm-19 -6c0,-2 -3,0 -3,1 -3,11 -2,23 4,33 1,1 4,-1 3,-2 -6,-9 -7,-22 -4,-32zm89 -6c-13,8 -15,24 -11,38 0,0 4,-1 3,-2 -3,-10 -4,-28 7,-34 1,-1 3,-3 0,-1zm-28 17c0,1 3,-1 3,-2 0,-6 1,-12 4,-18 1,-1 2,-3 3,-3 1,0 4,-3 3,-3 -11,1 -12,18 -13,26z"/>
  <path class="fil72" d="M1043 1565c0,0 4,-1 3,-2 -2,-8 -5,-28 4,-34 2,-1 2,-2 0,-1 -11,8 -9,26 -7,37zm30 -34c-12,6 -11,19 -5,29 1,1 4,-1 3,-2 -4,-7 -8,-21 1,-24 1,-1 3,-4 1,-2z"/>
  <path class="fil14" d="M861 1213c0,0 -23,-45 -45,-36 -22,9 3,59 3,59 0,0 3,-33 42,-23z"/>
  <path class="fil72" d="M882 1197c0,0 -46,-42 -71,-18 0,0 20,-20 50,34 0,0 24,7 21,-16z"/>
  <path class="fil21" d="M866 1231c-3,-2 -5,-4 -7,-5 -3,3 -6,9 -5,18 0,0 13,0 13,-14z"/>
  <path class="fil21" d="M963 1278c-2,-1 -4,-2 -7,-3 0,0 -1,0 -1,0 -2,5 -3,12 -2,17 0,0 7,-6 10,-14z"/>
  <path class="fil22" d="M968 1291c-1,2 -4,1 -7,0 -3,-2 -4,-4 -3,-6 1,-2 4,-1 7,0 3,2 4,4 3,6z"/>
  <path class="fil22" d="M873 1249c-1,2 -4,1 -7,0 -3,-2 -4,-4 -3,-6 1,-2 4,-1 7,0 3,2 4,4 3,6z"/>
  <path class="fil82" d="M1094 1111c-9,1 -37,67 -11,98 9,11 79,39 97,106 24,88 -36,125 -36,125 0,0 -27,-8 -32,-11 -6,-3 -36,-14 -17,4 18,16 32,15 32,15 0,0 -18,12 -50,8 -32,-4 -44,11 -23,12 34,2 52,5 52,5 0,0 -59,2 -55,9 5,7 16,9 57,5 0,0 -31,6 -29,11 2,5 44,-4 44,-4 0,0 -18,6 -16,9 3,4 13,10 53,-19 39,-28 91,-107 48,-216 -43,-109 -104,-159 -113,-158z"/>
  <path class="fil83" d="M945 1668c8,5 4,17 2,24 -1,3 -12,26 -16,18 -1,-2 -1,-5 -1,-7 0,-1 -3,1 -3,3 0,3 0,7 2,9 4,3 10,-6 11,-8 5,-8 21,-34 7,-42 -1,-1 -4,2 -3,3l0 0z"/>
  <path class="fil83" d="M1054 1681c2,4 6,8 11,9 8,1 13,-11 15,-16 3,-8 6,-21 -2,-27 -3,-2 -8,-2 -11,-1 -1,0 -3,3 -2,3 9,-3 16,4 15,13 0,7 -4,30 -15,24 -3,-2 -5,-5 -7,-8 0,-1 -4,2 -3,3l0 0z"/>
  <path class="fil84" d="M961 1395c0,0 18,-6 29,-13 11,-8 13,-15 7,-13 -15,5 -28,10 -33,12 -7,3 -31,8 -9,-6 22,-14 26,-24 18,-23 -8,2 -28,14 -55,31 -30,-1 -49,-3 -69,-12 5,7 11,14 17,21 0,0 11,27 67,29 6,2 21,8 34,5 12,-3 4,-5 -7,-6 3,0 7,-1 11,-1 23,-8 31,-17 13,-14 -17,2 -14,3 -30,5 0,0 45,-13 46,-18 1,-6 -7,-1 -37,3z"/>
  <path class="fil39" d="M979 757c0,0 -110,11 -143,104 0,0 17,-30 49,-48 32,-18 -52,41 -53,79 0,0 41,-46 61,-58 20,-13 -13,26 -27,34 -14,7 107,-48 116,-76 1,-3 9,-7 -4,-5 -13,1 -39,15 -39,15l44 -24c0,0 -46,-1 -55,11 -9,13 55,-24 55,-24l-43 6 40 -14z"/>
  <path class="fil42" d="M927 777c0,0 -22,3 -28,11 -7,8 14,2 14,2 0,0 -8,-1 -14,10 -6,11 9,7 14,6 5,-1 7,0 -2,14 -9,14 25,11 26,1 1,-10 5,-5 -6,-18 -10,-14 -3,-26 -3,-26z"/>
  <path class="fil39" d="M1002 757c0,0 117,-31 160,154 0,0 -19,-61 -32,-66 0,0 19,42 19,50 0,0 -17,-47 -42,-61 0,0 36,55 22,44 -15,-10 -39,-61 -64,-68 0,0 -35,-28 -61,-26 0,0 18,-5 44,2 0,0 -36,-10 -51,-9 0,0 26,-7 55,1 0,0 -33,-13 -56,-10 0,0 38,-13 53,-2 0,0 -25,-8 -48,-8z"/>
  <path class="fil42" d="M1050 765c0,0 30,1 49,24l-24 -10c0,0 23,17 27,32l-27 -20c0,0 26,27 20,35 -6,8 -31,-40 -59,-39l27 7c0,0 -20,-15 -28,-15 -8,0 31,2 31,2 0,0 -46,-22 -16,-16z"/>
  <path class="fil30" d="M995 791c0,0 5,61 -99,81 0,0 -42,6 -51,15 0,0 5,-4 52,-18 59,-18 106,-56 84,-85 11,-3 14,8 14,8z"/>
  <path class="fil39" d="M988 787c0,0 23,58 -107,82 0,0 115,-31 102,-79 -10,-8 5,-3 5,-3z"/>
  <path class="fil42" d="M823 981c-2,12 -2,24 -1,36 1,9 2,18 5,27 2,8 7,14 8,22 6,27 -6,72 23,89 1,1 2,-3 1,-4 -28,-16 -17,-61 -22,-88 -1,-6 -4,-12 -6,-17 -4,-9 -6,-20 -6,-31 -1,-12 -1,-23 1,-35 0,-3 -2,-1 -2,1l0 0z"/>
  <path class="fil42" d="M1163 975c3,36 -24,69 -21,105 2,20 12,38 22,54 4,7 9,14 11,21 3,13 -1,29 -5,42 0,1 0,5 0,2 5,-15 10,-35 5,-50 -2,-8 -8,-16 -12,-23 -6,-10 -12,-21 -16,-32 -15,-42 20,-81 17,-123 0,-1 -1,3 -1,3l0 0z"/>
  <path class="fil42" d="M829 990c7,25 -3,52 5,77 4,14 13,25 21,35 3,4 7,8 9,14 4,8 4,21 4,30 0,1 1,3 1,2 0,-11 0,-26 -5,-36 -3,-5 -7,-10 -11,-14 -5,-6 -10,-13 -14,-21 -15,-28 -1,-60 -10,-89 0,0 0,2 0,3l0 0z"/>
  <path class="fil13" d="M1002 987c0,0 -14,-17 -37,-3 0,0 5,15 37,3z"/>
  <path class="fil23" d="M959 974c1,5 5,10 8,13 10,9 23,7 34,1 0,0 -2,-4 -3,-3 -13,6 -32,9 -37,-9 0,-1 -3,-3 -3,-2l0 0z"/>
  <path class="fil14" d="M1266 1205c0,0 -61,-71 -112,-93 0,0 -41,-43 -58,-7 -10,20 26,27 26,27 0,0 -63,36 -63,68 0,5 20,29 31,15 11,-14 37,-45 49,-48 0,0 -49,53 -45,61 4,8 19,20 34,16 3,-1 48,-53 48,-53 0,0 -38,42 -41,64 -1,4 14,19 23,13 8,-6 19,-24 35,-38 0,0 -29,33 -27,41 2,8 8,16 16,16 8,0 40,-29 40,-29 0,0 29,-15 32,-31 3,-16 14,-21 14,-21z"/>
  <path class="fil13" d="M1119 1135c0,0 10,-11 27,-11 18,1 -27,-33 -45,-16 -18,17 18,27 18,27z"/>
  <path class="fil13" d="M1134 1155c0,0 9,4 22,2 0,0 -38,20 -48,36 -11,16 -25,33 -30,25 -4,-8 43,-62 56,-63z"/>
  <path class="fil13" d="M1113 1246c0,0 15,9 66,-60 0,0 -12,-1 -15,-10 -3,-10 -18,57 -51,70z"/>
  <path class="fil13" d="M1212 1210c0,0 -18,4 -20,-2 -2,-6 -51,57 -45,60 6,3 37,-34 65,-57z"/>
  <path class="fil13" d="M1250 1212c0,0 2,12 -18,13 -29,3 -29,50 -60,56 0,0 7,15 54,-31 0,0 30,-11 24,-38z"/>
  <path class="fil85" d="M1076 1188c0,0 -15,11 -13,17 1,6 4,5 4,5l15 -20 -6 -2z"/>
  <path class="fil85" d="M1115 1213c0,0 -17,15 -15,22 2,6 5,4 5,4l15 -24c0,0 1,-2 -5,-2z"/>
  <path class="fil85" d="M1148 1241c0,0 -13,14 -13,17 0,4 3,3 3,3l12 -19c0,0 2,-2 -3,-2z"/>
  <path class="fil85" d="M1175 1260c0,0 -9,7 -8,13 0,5 0,5 0,5 0,0 15,-17 8,-18z"/>
  <path class="fil86" d="M1076 1186c-9,0 -14,9 -16,17 -1,3 2,0 2,-1 2,-6 6,-12 14,-12 15,2 12,19 6,28 -1,2 0,3 1,1 4,-6 7,-14 6,-21 -1,-6 -7,-11 -13,-11zm42 25c-11,-4 -19,9 -23,18 -1,3 1,1 2,0 4,-8 10,-17 20,-13 4,1 8,3 10,7 5,6 1,16 -2,22 -1,3 1,1 2,0 3,-7 6,-15 3,-23 -2,-6 -8,-9 -13,-11zm38 30c-8,-7 -17,5 -20,11 -1,2 0,3 1,1 3,-6 10,-13 17,-8 7,5 5,16 1,22 -1,2 0,3 1,1 4,-8 7,-20 -1,-27zm24 18c-5,-6 -11,5 -13,9 -1,2 1,-1 2,-2 1,-1 3,-4 5,-5 4,-2 7,4 8,7 2,5 1,12 -1,17 -1,2 2,-2 2,-2 2,-8 3,-18 -2,-24z"/>
  <path class="fil87" d="M1710 1696c0,0 18,91 60,102 41,11 24,41 24,85 0,44 -14,115 -68,115 0,0 -13,2 -19,-6 0,0 -15,4 -21,-9 0,0 -14,-1 -13,-18 1,-17 18,-48 48,-21 0,0 12,-73 -11,-107 -23,-33 -75,13 -95,-109 -19,-121 96,-33 96,-33z"/>
  <path class="fil88" d="M1412 1331c0,0 -53,-62 -66,-87 -13,-25 -56,-75 -67,-42 0,0 -38,-12 -28,27 0,0 -26,2 -14,31 11,29 48,48 57,63 9,16 67,116 95,142 0,0 -1,76 53,153 55,77 37,70 42,105 5,35 16,108 45,130 29,23 -6,-20 -6,-20 0,0 26,39 41,41 15,3 -6,-14 -6,-14 0,0 19,14 25,7 0,0 14,14 28,14 0,0 4,49 3,56 -1,7 -23,-34 -31,-5 0,0 -19,0 -18,27 2,27 12,24 12,24 0,0 2,16 36,16 34,0 62,-13 82,-99 19,-86 6,-78 -9,-85 -15,-8 -65,-29 -43,-109 0,0 87,36 77,-29 -11,-65 -33,-50 -33,-50 0,0 16,-6 -4,-24 0,0 11,14 16,4 4,-11 -53,-75 -53,-75 0,0 27,27 33,24 6,-3 -51,-74 -51,-74 0,0 -3,-14 11,1 14,15 38,40 38,29 1,-10 -73,-100 -73,-100 0,0 -104,-93 -193,-82z"/>
  <path class="fil87" d="M1435 1146c0,0 -29,-62 -60,-29 0,0 -36,0 -24,21 0,0 -32,2 -19,25 13,23 21,28 32,37 11,9 67,90 67,90l59 -13c0,0 -19,-90 -55,-131z"/>
  <path class="fil89" d="M1413 1231c0,0 -79,-2 -71,49 8,52 41,-3 57,3 16,6 63,51 92,40 30,-11 -5,-81 -78,-93z"/>
  <path class="fil90" d="M1468 1300c-35,-13 -64,-57 -104,-18 -7,7 -12,12 -16,15 13,19 38,-19 51,-14 16,6 63,51 92,40 0,0 1,0 1,-1 1,-6 -3,-15 -25,-23z"/>
  <path class="fil91" d="M1608 1179c0,0 -115,-95 -160,-68 -45,27 -64,110 -14,161 0,0 58,21 58,30 0,9 -2,27 -33,11 -31,-16 -65,-49 -64,-24 1,25 14,95 104,103 89,8 120,62 120,62 0,0 63,-146 -11,-276z"/>
  <path class="fil92" d="M1555 1150c0,0 -64,-51 -98,-36 -34,15 -39,89 -24,104 15,15 1,63 133,90 132,27 30,-138 -11,-158z"/>
  <path class="fil87" d="M1714 1681c0,0 40,6 60,-11 21,-18 40,-48 3,-73 -37,-26 -59,16 -59,16 0,0 -9,-47 51,-41 0,0 -33,-18 -23,-27 10,-9 47,-32 88,42 0,0 -31,-51 -14,-51 18,1 36,21 39,75 0,0 1,-61 14,-58 13,3 29,24 16,70 0,0 13,-41 23,-36 11,5 12,33 -1,72 0,0 18,-10 19,4 1,14 -22,69 -112,81 0,0 -77,27 -157,-62 0,0 3,-23 54,0z"/>
  <path class="fil15" d="M1601 1193c0,0 17,-22 -11,-40 -28,-18 -43,-10 -43,-4 1,6 14,28 54,44z"/>
  <path class="fil93" d="M1594 1168c-3,4 -10,4 -17,0 -7,-4 -10,-11 -7,-15 3,-4 10,-4 17,0 7,4 10,11 7,15z"/>
  <path class="fil21" d="M1589 1165c-1,2 -6,2 -10,0 -4,-2 -6,-6 -4,-9 2,-2 6,-2 10,0 4,2 6,6 4,9z"/>
  <path class="fil88" d="M1635 1649c0,0 -7,149 178,133 0,0 65,-5 70,-32 5,-27 -19,0 -30,4 -11,4 -46,2 -46,2 0,0 65,-8 77,-41 12,-33 -27,11 -36,15l-2 -5c0,0 50,-33 56,-42 6,-9 25,-50 -56,26 0,0 52,-39 42,-70 -10,-31 -15,-6 -15,-6 0,0 -26,60 -62,68 0,0 59,-36 40,-82 -19,-46 2,20 -15,37 -17,17 -16,18 -28,33 -11,14 17,-45 -1,-40 -18,5 -12,34 -20,35 -8,1 -71,45 -109,-21 0,0 -36,-63 -43,-14z"/>
  <path class="fil22" d="M1600 1166c-1,2 -4,2 -8,0 -4,-2 -6,-5 -5,-6 1,-2 4,-2 8,0 4,2 6,5 5,6z"/>
  <path class="fil15" d="M1571 1247c0,0 17,-22 -11,-40 -28,-18 -43,-10 -43,-4 1,6 14,28 54,44z"/>
  <path class="fil94" d="M1564 1222c-3,4 -10,4 -17,0 -7,-4 -10,-11 -7,-15 3,-4 10,-4 17,0 7,4 10,11 7,15z"/>
  <path class="fil21" d="M1559 1218c-1,2 -6,2 -10,0 -4,-2 -6,-6 -4,-9 1,-2 6,-2 10,0 4,2 6,6 4,9z"/>
  <path class="fil22" d="M1570 1219c-1,2 -4,2 -8,0 -4,-2 -6,-5 -5,-6 1,-2 4,-2 8,0 4,2 6,5 5,6z"/>
  <path class="fil3" d="M1407 1219c0,0 -20,-63 18,-109 0,0 15,-23 29,-12 15,11 20,26 -36,104 -2,3 -7,32 -12,17z"/>
  <path class="fil95" d="M1419 1203c0,0 1,-116 41,-96 0,0 27,12 -41,96z"/>
  <path class="fil92" d="M1656 1649c-22,-15 24,62 71,78 47,16 123,6 175,-52 0,0 -28,27 -57,30 -29,2 28,-33 29,-58 1,-25 -26,46 -50,56 0,0 22,-24 18,-40 0,0 -14,29 -35,37 -20,8 21,-31 -14,-27 0,0 20,6 -1,25 -21,19 -60,4 -136,-49z"/>
  <path class="fil92" d="M1497 1719c0,0 2,83 21,100 19,18 -7,-52 -7,-52 0,0 18,62 34,71 15,9 -22,-71 -22,-71 0,0 23,71 51,81 28,10 -25,-69 -25,-69 0,0 12,65 52,72 40,7 -22,-69 -22,-69 0,0 30,18 37,16 7,-2 -5,-40 -8,-40 -2,0 -9,16 -9,18 1,2 -20,-33 -27,-18 -7,15 5,40 6,41 1,1 -18,-29 -27,-59 -10,-30 -10,35 -10,35 0,0 -14,-44 -18,-52 -4,-8 -1,29 -1,29 0,0 -23,-5 -23,-35l0 1z"/>
  <path class="fil92" d="M1441 1450c0,0 -21,102 -1,132 20,30 3,-88 3,-88 0,0 13,55 23,80 11,25 -4,-73 -4,-73l10 7c0,0 23,99 33,124 10,26 -13,-98 -13,-98l11 29c0,0 14,85 26,89 12,3 -14,-97 -14,-97l15 31c0,0 18,69 29,71 10,2 -20,-70 -20,-70 0,0 25,79 46,90 22,11 6,-63 6,-63 0,0 10,53 60,64 50,11 -16,-56 -16,-56 0,0 41,8 53,13 0,0 5,-19 -12,-23 -17,-4 -15,-24 -4,-22 12,2 -9,-16 -31,-29 -22,-13 -2,-8 13,-3 16,5 -16,-23 -25,-30 -9,-6 5,-12 20,-4 15,9 -20,-28 -44,-36 -24,-9 1,-29 13,-31 13,-3 -50,-40 -53,-9 -3,31 10,42 32,54 22,13 -15,5 -53,-15 -38,-20 -33,18 -27,26 6,9 -6,-15 -20,-26 -13,-11 -13,6 -2,22 11,17 -26,-64 -28,-45 -2,18 -23,-95 -27,-16z"/>
  <path class="fil96" d="M1432 1351c0,0 -48,96 -29,114 19,18 35,-91 35,-91 0,0 -23,84 -6,101 16,17 10,-79 10,-79 0,0 18,108 28,111 10,3 -8,-49 -8,-49 0,0 12,76 36,84 23,9 -13,-64 -13,-64 0,0 30,57 52,56 22,-1 -13,-40 -13,-40 0,0 42,46 62,44 20,-2 -12,-36 -12,-36 0,0 37,35 42,26 5,-9 -31,-42 -31,-42 0,0 5,1 23,10 18,9 -8,-24 -21,-28 -13,-3 4,-4 6,-21 2,-17 33,-85 -19,-76 -52,10 -1,17 -5,46 -4,29 -34,-65 -49,-51 -14,14 14,48 14,48 0,0 -40,-61 -46,-38 -6,23 18,47 18,47 0,0 -71,-136 -72,-74z"/>
  <path class="fil87" d="M1513 1334c-39,61 -116,-30 -105,-2 11,28 24,39 63,58 -1,7 -1,14 0,22 4,37 17,5 23,-14 1,0 2,1 3,1 -1,24 -1,76 9,83 9,6 13,-46 14,-75 0,0 0,0 0,0 0,32 4,93 32,95 15,1 17,-14 14,-33 8,16 18,28 30,24 21,-7 15,-41 8,-64 3,0 6,1 8,1 6,8 11,12 10,4 0,-1 0,-2 0,-4 13,-1 12,-9 5,-19 15,-51 45,-160 -115,-77z"/>
  <path class="fil88" d="M1555 1291c0,0 -106,79 -99,172 0,0 1,18 15,-22 14,-40 32,-62 32,-62 0,0 -36,78 -25,88 10,10 25,-65 25,-65 0,0 -19,65 -14,68 4,3 17,-1 22,-23 6,-22 5,10 9,0 4,-10 8,-55 8,-55 0,0 2,49 -14,89 0,0 3,19 11,6 8,-13 21,-82 21,-82 0,0 -8,48 6,49 13,1 4,-43 21,-71 17,-28 25,-60 34,-60 9,0 15,-56 -49,-31z"/>
  <path class="fil88" d="M1642 1187c0,0 -25,-58 -33,-58 -8,0 19,48 19,48 0,0 -68,-90 -86,-73 -18,17 47,41 55,48 8,8 18,34 14,43 -4,9 -70,-67 -78,-48 -8,19 63,76 63,76 0,0 -57,-47 -71,-39 -14,8 46,49 46,49 0,0 -45,-28 -40,-19 6,9 40,36 40,36 0,0 -58,-39 -60,-31 -2,8 34,54 34,54 0,0 -23,-20 -25,-13 -1,7 24,52 43,58 19,5 43,1 41,32 -2,30 -19,94 6,50 24,-44 13,-80 13,-80 0,0 8,63 -1,79 0,0 26,-29 20,-79 0,0 -3,55 3,56 5,1 10,-67 10,-67 0,0 -1,78 10,81 10,3 19,-67 11,-76 0,0 17,-25 -3,-67 0,0 27,56 26,102 0,0 12,0 7,-39 0,0 10,-4 3,-23 -8,-19 -39,-119 -65,-98z"/>
  <path class="fil96" d="M1621 1210c0,0 -65,-52 -105,-48 0,0 62,21 89,48 0,0 -43,-13 -66,-11 0,0 42,2 52,23 0,0 -54,-15 -47,20 0,0 -8,-25 44,-15 0,0 -18,-12 -40,40 0,0 27,-41 45,-33 0,0 -40,25 -40,62 0,0 19,-46 44,-56 0,0 -37,43 -32,62 5,18 39,-56 39,-56 0,0 14,41 11,76 0,0 11,-30 -4,-78 0,0 28,30 32,69 4,39 19,-48 -26,-72 0,0 50,34 53,63 0,0 11,-19 -14,-42 0,0 18,11 15,-2 -2,-12 -34,-29 -34,-29 0,0 37,-27 58,39 0,0 -4,-71 -65,-51 0,0 10,-59 -70,-102 0,0 48,23 62,94z"/>
  <path class="fil97" d="M1503 1115c17,6 34,16 50,25 0,0 1,0 1,1 -1,0 -1,0 -2,0 -4,1 -5,3 -6,5 -3,-2 -7,-3 -11,-3 -8,0 -4,11 -3,15 2,5 5,10 9,15 1,0 1,0 2,0 -4,-5 -8,-11 -10,-18 -4,-12 8,-10 15,-6 21,12 36,33 56,46 7,5 8,0 7,-8 -2,-12 -7,-28 -16,-36 -9,-9 -68,-28 -54,-45 13,-16 50,29 57,37 10,11 19,22 28,34 0,0 3,2 2,1 -4,-7 -8,-14 -11,-22 -3,-6 -5,-11 -7,-17 -1,-2 -3,-12 2,-8 9,8 14,22 19,33 4,7 7,15 10,22 0,1 2,3 3,2 21,-16 41,41 46,53 5,12 9,24 14,36 3,8 10,24 -1,29 0,0 0,0 0,0 1,5 5,34 -4,38 0,-34 -11,-69 -26,-100 0,-1 -3,-3 -2,-1 9,19 16,47 3,67 0,0 0,1 1,1 4,5 3,14 3,20 0,8 -1,17 -2,25 -1,7 -3,15 -5,22 -1,3 -5,12 -8,5 -5,-13 -5,-30 -5,-45 0,-11 -1,-21 -1,-32 0,-1 -3,-3 -3,-2 -1,21 -2,43 -7,63 -1,5 -2,6 -2,1 -1,-5 -1,-11 -1,-16 2,-12 2,-24 1,-34 0,-1 -3,-3 -3,-2 0,3 -1,18 0,32 -2,14 -6,28 -14,40 0,0 0,-1 0,-1 -1,4 -2,7 -4,11 0,0 1,0 1,0 9,-10 15,-23 18,-37 0,2 0,3 1,4 0,0 -1,-1 -1,-2 0,0 0,0 0,0 -4,29 -10,60 -22,87 0,0 0,0 0,0 0,0 0,1 0,1 0,0 0,0 0,1 0,0 2,2 2,2 3,-8 19,-65 21,-84 1,3 2,5 4,5 3,-1 3,-7 3,-9 2,-8 2,-16 3,-23 0,-2 0,-4 1,-6 0,12 1,23 3,35 1,5 2,15 8,18 7,2 10,-15 11,-18 3,-14 5,-29 5,-43 0,-4 0,-9 -2,-13 -1,-3 -1,-1 0,-4 6,-11 6,-25 4,-37 0,-1 0,-2 -1,-3 9,24 15,50 15,76 0,1 1,2 2,2 3,0 5,-3 6,-5 2,-4 2,-9 3,-13 0,-3 -2,-20 0,-21 8,-5 4,-18 2,-24 -3,-8 -6,-16 -9,-24 -5,-13 -32,-93 -57,-76 -3,-8 -7,-16 -11,-23 -5,-10 -10,-22 -18,-31 -4,-4 -8,-5 -7,2 3,12 9,23 15,34 1,1 1,2 2,3 -6,-8 -13,-16 -20,-24 -9,-10 -18,-20 -28,-29 -7,-7 -16,-14 -25,-17 -6,-2 -14,2 -13,9 2,9 12,15 19,20 11,7 23,13 35,19 8,4 11,12 14,20 3,6 7,19 4,25 0,1 -2,-1 -6,-3 6,-9 4,-21 -2,-30 -9,-12 -30,-23 -46,-22 -21,-13 -43,-26 -67,-32 -8,-2 -17,-4 -26,-3 0,1 1,2 1,3 13,-2 28,3 40,7zm101 55c2,6 1,14 -3,20 -14,-10 -40,-33 -43,-35 -2,-2 -5,-4 -9,-6 1,-1 2,-3 4,-4 16,-7 46,12 51,25z"/>
  <path class="fil97" d="M1590 1689c1,0 -1,-2 -2,-2 -16,-5 -24,-29 -29,-43 -1,-4 -2,-7 -4,-11 0,-1 -2,-3 -2,-2 1,3 2,7 3,10 0,1 1,2 1,3 2,6 4,12 3,19 0,4 -3,4 -6,1 -3,-4 -6,-9 -8,-13 -5,-11 -9,-23 -13,-34 0,-1 -2,-2 -2,-2 2,10 4,20 4,30 0,5 1,12 -3,16 -4,6 -9,-7 -10,-10 -3,-9 -6,-18 -8,-28 -2,-13 -4,-25 -7,-38 0,0 0,0 0,0l0 0c0,0 0,0 0,0 0,-1 -2,-2 -2,-2 2,11 4,22 6,33 0,0 0,0 0,1 0,1 0,2 1,3 1,8 2,15 1,23 -1,8 -6,10 -11,3 -11,-16 -15,-40 -18,-58 -2,-12 -4,-25 -6,-37 0,-1 -2,-2 -2,-2 1,11 2,22 3,33 0,7 0,14 -1,21 0,2 -1,4 -2,5 -3,2 -6,-5 -6,-7 -7,-15 -11,-32 -15,-48 -3,-11 -5,-22 -7,-33 0,-1 -2,-2 -2,-2 2,15 4,30 4,46 0,9 1,19 -1,28 -1,2 -1,5 -4,7 -4,2 -7,-5 -8,-8 -8,-21 -7,-46 -7,-68 0,-15 0,-30 1,-45 0,-1 -2,-2 -2,-2 -1,18 -1,35 -1,53 0,13 1,27 3,40 1,9 2,18 7,26 2,3 6,8 10,6 5,-3 5,-17 5,-22 0,-12 -1,-24 -2,-37 1,5 2,10 4,15 3,10 5,20 9,30 2,6 4,13 8,18 9,12 10,-7 10,-14 0,-3 0,-6 0,-10 1,4 2,9 3,13 4,18 7,40 20,54 2,2 7,6 10,3 3,-4 3,-11 2,-17 2,8 5,16 9,23 1,2 3,5 6,6 5,1 6,-6 6,-9 1,-8 0,-17 -1,-26 1,4 3,8 5,12 3,9 8,20 15,26 7,6 6,-5 5,-10 0,-1 0,-2 -1,-3 1,2 2,4 3,7 5,11 13,24 25,28z"/>
  <path class="fil97" d="M1657 1637c8,7 14,16 19,24 10,17 23,31 41,37 0,-1 -1,-1 -1,-2 -16,-5 -28,-18 -37,-33 -7,-11 -17,-30 -31,-33 1,1 2,2 3,3 2,1 4,2 7,4z"/>
  <path class="fil97" d="M1716 1953c-4,-1 -9,-1 -13,2 -10,8 -1,28 2,37 0,1 2,2 2,2 -4,-9 -12,-29 -1,-37 3,-2 8,-2 12,-1 0,0 -1,-2 -2,-2z"/>
  <path class="fil97" d="M1883 1740c-5,-6 -12,1 -17,4 -4,3 -9,7 -14,9 -5,3 -12,3 -17,3 -5,0 -11,0 -16,0 16,-3 34,-8 48,-18 -7,3 -14,6 -21,8 -13,5 -27,8 -39,10 0,0 1,2 2,2 11,1 23,1 35,0 13,-1 20,-9 31,-15 2,-1 5,-3 7,-3 3,0 1,10 0,11 -1,6 -6,11 -11,14 -11,8 -25,11 -38,14 -51,10 -113,6 -154,-29 -13,-11 -23,-26 -31,-42 -1,0 -1,-1 -2,-1 0,1 1,1 1,2 -1,-1 -1,-1 -2,-2 -1,0 -2,-1 -3,-1 0,0 0,0 0,0 -8,29 -9,61 11,85 9,12 23,21 37,27 4,2 10,3 12,7 4,8 2,20 1,29 -3,21 -7,42 -13,63 -5,18 -11,36 -21,52 -10,15 -23,26 -41,29 -11,2 -23,2 -33,-1 -6,-1 -15,-5 -16,-12 0,0 0,0 0,0 0,-10 0,-27 13,-30 5,-1 10,1 14,3 2,1 1,-1 0,-2 -4,-3 -9,-4 -14,-4 -14,1 -15,20 -15,31 -10,2 -17,-47 7,-48 8,0 16,5 21,11 1,1 2,1 1,-1 -5,-6 -13,-11 -20,-12 2,-5 4,-9 10,-8 5,1 9,6 12,10 1,1 8,9 8,5 1,-10 -1,-20 -1,-30 -1,-8 -1,-17 -2,-25 0,-1 -1,-2 -2,-2 -10,0 -20,-6 -27,-13 0,0 -1,-1 -1,-1 -6,6 -19,-3 -24,-7 -2,-1 0,1 0,2 3,3 6,5 9,8 4,5 -1,5 -4,4 -4,-1 -8,-4 -11,-7 -4,-4 -8,-8 -12,-12 0,0 -1,-1 -1,-1 -4,-7 -10,-13 -15,-20 0,-1 -3,-2 -2,0 5,7 10,15 16,21 1,1 1,3 1,4 0,2 -5,-2 -5,-2 -4,-3 -8,-6 -11,-10 -12,-13 -18,-31 -23,-48 -5,-17 -9,-34 -11,-51 -2,-12 -4,-24 -5,-36 0,-6 0,-13 0,-19 -1,-8 -4,-15 -8,-22 -7,-15 -17,-29 -26,-42 -15,-21 -28,-42 -38,-66 -8,-18 -13,-37 -17,-56 -2,-11 -4,-23 -4,-34 0,-7 -1,-7 -6,-12 -21,-22 -37,-50 -54,-76 -10,-15 -19,-31 -28,-46 -6,-10 -11,-19 -19,-27 -18,-17 -40,-30 -48,-55 -2,-7 -1,-14 2,-19 0,0 0,0 0,0 1,-2 3,-3 4,-4 0,0 0,0 1,0 11,-7 28,6 36,13 1,1 2,1 1,-1 -6,-6 -18,-16 -29,-17 -2,-11 -2,-23 11,-26 5,-1 10,-1 15,1 10,5 18,15 23,23 0,0 3,3 2,1 -5,-8 -13,-18 -22,-24 9,-22 33,0 43,10 11,11 18,25 26,38 0,-1 0,-2 1,-2 -8,-13 -17,-26 -27,-38 -8,-8 -17,-18 -29,-20 -4,-1 -8,0 -11,2 -3,2 -4,8 -6,8 0,0 0,0 0,0 -6,-3 -13,-4 -19,0 0,0 0,0 0,1 0,0 -1,0 -1,0 -4,2 -6,5 -8,8 -1,2 -2,19 1,19 -1,0 -3,0 -4,1 -2,0 -4,1 -5,2 -3,2 -5,4 -7,8 -5,13 4,28 12,39 10,13 23,23 36,34 9,7 13,16 19,25 15,25 30,50 46,74 8,12 17,25 26,36 3,4 7,9 11,13 2,2 3,3 5,5 0,0 0,0 0,0 0,24 6,47 12,70 6,21 15,40 26,59 11,20 25,37 37,57 11,17 19,32 19,52 0,24 5,50 11,73 7,30 16,65 44,83 5,4 6,1 5,-2 0,0 0,0 0,0 6,6 18,22 28,18 3,-1 -2,-7 -6,-11 2,1 4,2 6,3 4,2 10,4 14,1 7,7 16,13 26,13 1,16 3,32 3,48 0,2 1,8 -2,5 -3,-2 -5,-5 -7,-8 -3,-3 -10,-9 -15,-7 -3,2 -5,5 -6,8 0,1 -1,2 -2,2 -3,0 -6,1 -8,3 0,0 0,0 0,1 -5,4 -8,10 -8,17 -1,9 0,22 7,30 1,2 4,4 6,4 4,16 32,17 44,16 22,-1 39,-12 51,-30 9,-14 15,-31 19,-47 6,-21 11,-43 14,-64 2,-12 6,-32 -7,-40 -4,-2 -9,-4 -13,-6 -7,-4 -15,-8 -21,-13 -26,-22 -28,-57 -21,-88 1,-5 0,-6 4,-4 0,1 1,1 1,2 19,40 57,64 99,71 24,4 49,4 73,1 19,-2 43,-6 58,-20 5,-5 10,-17 5,-23z"/>
  <path class="fil97" d="M1700 1946c-21,-7 -17,26 -16,37 0,1 2,3 2,2 -2,-10 -5,-43 15,-36 1,0 -1,-2 -2,-2z"/>
  <path class="fil97" d="M1363 1119c11,-3 25,-1 33,8 1,1 3,2 1,0 -9,-10 -23,-14 -36,-10 -1,0 1,3 2,2z"/>
  <path class="fil97" d="M1339 1141c14,-9 28,4 36,15 1,1 3,2 2,0 -8,-12 -24,-28 -40,-18 -1,0 1,3 2,2z"/>
  <path class="fil14" d="M450 811c0,0 -23,9 -4,44 19,35 33,-8 27,-19 -6,-11 -17,-2 -23,-24z"/>
  <path class="fil14" d="M470 776c0,0 -24,-7 -23,29 1,36 32,42 41,37 9,-5 7,-18 -1,-25 -8,-7 -16,-35 -17,-41z"/>
  <path class="fil14" d="M511 795c0,0 6,30 -16,28 -22,-3 -32,-53 -24,-73 7,-20 23,-3 23,-3l18 48z"/>
  <path class="fil14" d="M523 797c-7,4 -21,-4 -30,-37 -9,-33 -4,-48 18,-48 22,1 21,19 14,25 -5,5 30,41 -2,59z"/>
  <path class="fil14" d="M559 711c-3,-6 -19,-43 -41,-26 -18,14 0,37 10,47 15,-17 26,-21 31,-22z"/>
  <path class="fil85" d="M519 765l13 17 -5 5c0,0 -23,-20 -8,-22z"/>
  <path class="fil85" d="M493 791l15 18 -6 6c0,0 -22,-20 -9,-24z"/>
  <path class="fil85" d="M474 818l11 13 -4 5c0,0 -20,-19 -7,-18z"/>
  <path class="fil85" d="M456 842c0,0 3,9 10,11l-1 4c0,0 -20,-11 -9,-14z"/>
  <path class="fil13" d="M448 813c0,0 3,23 26,30 0,0 -3,16 -23,-8 0,0 -9,-13 -3,-22z"/>
  <path class="fil13" d="M467 777c0,0 5,42 25,46 0,0 -10,10 -22,-11 -11,-22 -3,-34 -3,-34z"/>
  <path class="fil13" d="M489 744c0,0 2,32 21,50 0,0 -9,14 -21,-21 -12,-35 0,-29 0,-29z"/>
  <path class="fil13" d="M527 733l-3 5c0,0 19,37 8,49 0,0 -28,-60 -12,-60l7 7z"/>
  <path class="fil13" d="M532 728c0,0 -16,-22 -5,-25 12,-3 20,1 30,8 0,0 -15,5 -25,17z"/>
  <path class="fil86" d="M536 777c0,0 0,-1 0,-1 -3,-5 -8,-12 -14,-13 -10,-2 -18,11 -17,20 1,4 4,12 9,12 10,0 18,-8 22,-16 0,0 0,-1 0,-2zm-20 14c-4,1 -6,-1 -8,-5 -6,-9 8,-22 17,-18 4,2 7,5 9,9 -4,7 -10,12 -18,14zm-5 12c-3,-6 -7,-12 -14,-14 -10,-4 -18,8 -16,17 2,7 6,13 12,17 1,1 6,-3 7,-3 5,-3 9,-8 11,-13 0,0 0,-1 0,-2 0,-1 0,-1 0,-1zm-17 16c-3,1 -9,-8 -10,-10 -6,-10 7,-20 17,-15 4,2 7,6 9,10 -3,7 -9,12 -16,15zm-41 23c-6,3 -6,12 -3,17 2,4 8,6 12,7 0,0 0,0 0,0 0,0 0,0 0,0 4,-6 7,-12 5,-20 -2,-6 -10,-7 -15,-4zm13 12c-1,3 -3,6 -5,8 -3,0 -6,-1 -8,-3 -2,-1 -5,-4 -4,-7 0,-3 2,-5 5,-7 4,-2 9,-2 12,1 2,2 1,5 0,7zm13 -36c-8,-3 -15,3 -16,11 0,6 4,12 8,15 0,0 0,0 0,0 0,0 0,0 0,0 0,0 0,0 0,0 0,0 0,0 0,0 6,-2 12,-7 15,-13 3,-6 -3,-12 -8,-14zm2 17c-3,3 -6,5 -10,6 -4,-3 -8,-8 -6,-13 2,-6 9,-7 14,-6 2,1 4,2 5,4 2,3 -2,7 -4,9z"/>
 </g>
</svg>
