<?xml version="1.0" encoding="UTF-8"?>
<!DOCTYPE svg PUBLIC "-//W3C//DTD SVG 1.1//EN" "http://www.w3.org/Graphics/SVG/1.1/DTD/svg11.dtd">
<!-- Creator: CorelDRAW 2017 -->
<svg xmlns="http://www.w3.org/2000/svg" xml:space="preserve" width="2083px" height="2083px" version="1.1" style="shape-rendering:geometricPrecision; text-rendering:geometricPrecision; image-rendering:optimizeQuality; fill-rule:evenodd; clip-rule:evenodd"
viewBox="0 0 2083 2083"
 xmlns:xlink="http://www.w3.org/1999/xlink">
 <defs>
  <style type="text/css">
   <![CDATA[
    .fil20 {fill:#5A5654}
    .fil22 {fill:#707273}
    .fil19 {fill:#918B89}
    .fil18 {fill:#DFE4E6}
    .fil23 {fill:#ED1C24}
    .fil21 {fill:white}
    .fil12 {fill:black;fill-rule:nonzero}
    .fil14 {fill:#1A1A1A;fill-rule:nonzero}
    .fil6 {fill:#333333;fill-rule:nonzero}
    .fil11 {fill:#520A00;fill-rule:nonzero}
    .fil9 {fill:#610B00;fill-rule:nonzero}
    .fil5 {fill:#666666;fill-rule:nonzero}
    .fil16 {fill:#707273;fill-rule:nonzero}
    .fil10 {fill:#801C0D;fill-rule:nonzero}
    .fil17 {fill:#A9AAAB;fill-rule:nonzero}
    .fil4 {fill:#AD651F;fill-rule:nonzero}
    .fil1 {fill:#AEB1B3;fill-rule:nonzero}
    .fil13 {fill:#BA4432;fill-rule:nonzero}
    .fil8 {fill:#CCCCCC;fill-rule:nonzero}
    .fil0 {fill:#DFE4E6;fill-rule:nonzero}
    .fil24 {fill:#F4685B;fill-rule:nonzero}
    .fil7 {fill:#F7FDFF;fill-rule:nonzero}
    .fil2 {fill:#FBB03B;fill-rule:nonzero}
    .fil3 {fill:#FFCE6B;fill-rule:nonzero}
    .fil15 {fill:white;fill-rule:nonzero}
   ]]>
  </style>
 </defs>
 <g id="Layer_x0020_1">
  <metadata id="CorelCorpID_0Corel-Layer"/>
  <g id="_2017668969744">
   <path class="fil0" d="M1124 1681c121,8 208,-84 210,-143 50,-6 91,-48 97,-58 21,-34 30,-87 25,-126 -22,-172 -183,-258 -245,-409 -55,-133 38,-258 47,-391 5,-77 -27,-196 -111,-204 -11,-1 -24,0 -37,3l0 0c-34,7 -64,27 -77,40 -37,37 -49,91 -37,141 12,52 44,96 68,142 25,48 37,103 34,158 -6,98 -72,168 -135,235 -85,91 -244,300 -117,427 36,36 80,43 80,43 0,0 0,129 199,142z"/>
   <path class="fil1" d="M1220 631c1,35 -19,119 -21,154 1,-3 20,-56 20,-60 3,-17 7,-32 14,-48 28,-57 38,-131 21,-193 -8,-29 -18,-58 -31,-85 -11,-24 -33,-50 -62,-48 92,90 74,199 58,279z"/>
   <path class="fil1" d="M1438 1360c3,23 3,48 -2,71 -8,33 -28,60 -46,87 14,-20 35,-23 48,-45 14,-24 23,-54 23,-82 2,-63 -20,-120 -34,-180l-78 -61c27,48 52,97 74,149 8,19 12,41 15,61z"/>
   <path class="fil1" d="M1329 1540c-11,1 -24,4 -35,2 -12,-2 -12,-9 -6,-18 8,-13 16,-25 21,-40 10,-30 17,-63 19,-94 5,-100 -45,-217 -123,-277 -71,-55 -150,-16 -207,42 -33,33 -60,74 -73,120 -11,41 -7,82 2,123 3,14 14,33 9,48 -4,13 -18,25 -30,28 -19,4 -37,-11 -47,-26 -10,-14 -16,-34 -20,-51 -14,-65 7,-148 44,-203 44,-64 111,-106 166,-157 56,-53 70,-118 63,-194 -4,-40 -12,-80 -23,-119 -17,-65 -51,-125 -61,-192 -12,-77 24,-126 74,-177 -57,19 -106,58 -112,124 -5,48 15,95 36,136 17,34 56,78 61,116 3,20 9,40 11,60 2,24 -6,46 -5,70 1,27 -13,57 -25,79 -63,112 -173,186 -235,299 -12,22 -20,49 -29,73 -9,26 -13,62 -10,89 10,69 68,118 116,131 19,5 23,30 41,39 33,16 77,14 104,44 12,13 26,26 44,26 10,0 17,-3 26,-7 19,-9 38,12 59,3 16,-7 28,-19 42,-30 14,-10 28,-18 40,-30 5,-6 11,-12 19,-13 9,-2 17,-1 26,-6 8,-4 14,-10 19,-17z"/>
   <path class="fil2" d="M1978 578c-43,-75 -107,-132 -199,-145 -72,-10 -126,47 -182,49 -29,3 -67,-12 -88,-19 -33,-22 -68,-42 -104,-56 -33,-13 -68,-22 -105,-24l0 0c-50,-3 -75,-33 -151,-40 -1,0 -2,0 -3,0 -70,-6 -96,18 -147,19 -55,-9 -112,0 -159,32 -36,15 -44,4 -78,-23 -42,-35 -82,-53 -133,-57 -128,-11 -232,6 -340,63 -13,7 -26,14 -39,22 -74,47 -196,110 -219,207 14,-26 59,-48 79,-64 27,-22 55,-50 84,-72 51,-37 103,-72 163,-91 232,-73 321,47 268,170l2 1c-2,4 -3,8 -5,12 -9,22 -19,45 -29,67 -9,19 -18,38 -27,57 -17,37 -40,79 -15,117l8 4c-8,21 -13,41 -10,50 2,8 24,33 23,106 0,5 0,10 0,15 0,1 0,2 0,3 0,6 -1,13 -1,19 -1,19 -2,37 -1,56 2,44 23,79 42,117 23,48 47,137 83,203 25,45 56,78 97,81 9,1 17,1 24,-1 -14,-28 -20,-61 -16,-98 13,-117 89,-208 165,-289 62,-66 128,-137 135,-235 4,-55 -9,-109 -34,-158 -24,-47 -56,-90 -68,-142 -11,-51 0,-105 37,-141 13,-13 43,-32 77,-40l0 0c13,-3 26,-4 37,-3 84,9 116,127 111,204 -9,132 -101,258 -47,391 62,151 222,236 245,409 5,41 -1,79 -16,110 18,8 34,9 51,-2 14,-10 26,-22 36,-36 21,-29 41,-58 61,-87 12,-19 27,-39 40,-60 19,-31 36,-64 41,-98 6,-41 8,-87 3,-131 0,0 0,0 0,0 2,-15 -1,-31 -4,-46l2 0c-11,-69 44,-97 83,-144 23,-28 29,-58 24,-94 -4,-31 -19,-73 4,-99l0 0c37,33 54,106 61,150 9,55 16,121 70,149 47,25 120,-30 150,-67 -8,-105 -31,-226 -84,-318z"/>
   <path class="fil3" d="M796 896c-34,-20 -64,-81 -99,-92 -47,-15 -51,90 -45,121 10,49 54,83 82,122 25,35 57,189 132,22 30,-67 74,-96 78,-141 5,-53 -112,-11 -148,-32z"/>
   <path class="fil3" d="M1388 1094c14,14 28,26 38,36 38,36 71,28 101,-13 23,-32 58,-73 74,-108 12,-27 31,-84 12,-111 -28,-42 -92,4 -124,17 -44,19 -121,25 -142,80 -13,36 13,71 41,100z"/>
   <path class="fil3" d="M1554 710c-12,-11 -24,-20 -36,-25 -16,-8 -35,-12 -52,-17 -11,-3 -22,-12 -31,-19 -11,-8 -20,-19 -32,-26 -5,-3 -10,-8 -16,-11 -6,-3 -12,-3 -17,-9 13,-2 24,-4 37,-2 16,2 33,11 48,17 25,10 49,23 72,38 22,14 37,30 54,50 9,11 17,25 24,37 9,15 20,29 23,47 2,12 3,24 2,36 0,6 1,24 -4,29 3,-45 -33,-107 -72,-143z"/>
   <path class="fil3" d="M679 588c-2,4 -21,34 -23,39 -17,32 -37,62 -57,92 -10,15 -19,31 -27,46 -5,10 -12,46 -23,50 3,-70 68,-173 143,-279 51,-72 88,-90 92,-89 11,3 -16,25 -23,32 -39,38 -66,76 -83,109z"/>
   <path class="fil3" d="M1930 537c-34,-31 -76,-60 -129,-75 -72,-20 -142,31 -195,21 -2,0 -7,-3 -8,-3 17,-5 35,-10 52,-15 12,-4 24,-8 35,-14 45,-25 94,-23 141,-7 59,20 100,43 131,100 2,4 4,9 6,13 1,2 1,12 3,14 -10,-8 -19,-18 -29,-27 -3,-3 -5,-5 -8,-8z"/>
   <path class="fil3" d="M1385 432c18,5 36,10 53,18 42,18 71,50 108,75 -5,-16 -14,-29 -27,-41 -8,-8 -15,-16 -24,-23 -14,-10 -25,-23 -40,-31 -13,-7 -29,-12 -43,-16 -8,-3 -16,-6 -25,-9 -10,-4 -19,-9 -29,-12 -12,-4 -23,-7 -35,-8 -14,-2 -29,-3 -43,-6 -15,-4 -29,-10 -44,-16 -13,-6 -27,-8 -40,-14 -5,-2 -6,-4 -12,-4 -8,0 -20,-6 -28,-2 17,5 34,13 48,22 11,7 19,17 28,25 21,20 51,24 78,27 24,3 49,7 73,13z"/>
   <path class="fil3" d="M1290 577c2,-26 -20,-117 -49,-136 4,9 3,17 5,27 2,11 6,22 8,34 4,23 4,47 0,71 -6,38 -12,78 -27,114 -18,45 -26,92 -34,140 -2,10 -4,19 -3,29 1,8 3,16 3,24 0,5 -1,10 0,15 2,16 9,33 15,47 3,7 6,13 9,20 -28,-155 68,-340 72,-383z"/>
   <path class="fil3" d="M697 760c27,-18 52,-38 76,-61 38,-37 75,-76 126,-92 1,0 2,0 2,-1 11,-4 22,-8 33,-9 -12,-15 -34,-24 -53,-28 -17,-4 -41,1 -57,7 -30,11 -57,33 -78,58 -44,53 -71,116 -125,162 -6,5 -3,20 -7,25 35,1 54,-41 82,-60z"/>
   <path class="fil4" d="M1596 482c56,-1 110,-59 182,-49 92,13 156,69 199,145 -59,-125 -152,-192 -347,-185 -95,4 -147,45 -227,13l0 0c37,15 71,35 104,56 21,7 60,22 88,19z"/>
   <path class="fil4" d="M618 729c14,-27 93,-168 102,-205 1,-5 -17,23 -18,25 -23,34 -47,83 -71,117 -23,32 -32,49 -50,85 -9,17 -37,68 -35,105 -25,-39 1,-134 18,-171 9,-19 18,-38 27,-57 10,-22 21,-44 29,-67 2,-4 3,-8 5,-12l-2 -1c53,-123 -35,-243 -268,-170 -59,19 -111,54 -163,91 -30,22 -57,50 -84,72 -20,16 -65,38 -79,64 -1,2 -2,4 -2,6 -19,60 60,23 87,8 11,-5 21,-10 31,-16 5,-2 11,-4 17,-6l0 0c13,-5 26,-7 39,-6l0 1c77,13 74,109 101,162 2,3 4,5 5,7 15,20 32,36 54,49 21,12 43,23 66,32 22,8 44,15 65,26 18,9 37,19 52,33 11,11 22,40 23,73 5,-25 7,-65 15,-98 8,-34 -22,-42 35,-147z"/>
   <path class="fil4" d="M2003 713c-30,-53 -86,-188 -165,-178 -34,4 -43,25 -60,48 -19,25 -50,35 -61,68 30,-14 55,5 78,30 21,23 36,80 43,110 8,34 8,50 14,84 5,30 30,76 59,88 56,22 150,-67 150,-67 0,0 -32,-135 -59,-183z"/>
   <path class="fil4" d="M1665 1026c2,90 -20,138 -50,204 -33,72 -83,220 -173,230 21,14 40,8 58,-9 41,-39 76,-95 108,-142 33,-49 61,-103 66,-164 3,-36 2,-75 -6,-108 -1,-3 -3,-7 -3,-11z"/>
   <path class="fil4" d="M719 1417c22,26 51,35 82,41 2,-9 -8,-20 -19,-30 -13,-12 -30,-22 -36,-28 -66,-62 -85,-159 -124,-239 -10,-21 -22,-44 -44,-55 0,0 -3,-1 -4,-1 27,62 56,121 79,184 6,17 12,34 20,50 13,27 25,55 45,78z"/>
   <path class="fil4" d="M1352 988c4,-12 8,-20 21,-21 46,-3 95,-3 135,-30 15,-10 29,-21 40,-34 11,-12 22,-23 29,-39 2,-5 7,-13 8,-18 -11,9 -22,16 -33,24 -5,4 -11,8 -17,11 -6,4 -14,7 -20,10 -12,5 -25,10 -37,14 -15,5 -34,7 -50,7 -22,0 -41,-9 -61,-17 -22,-9 -41,-19 -49,-43 -5,-15 -3,-32 -2,-48 0,-14 0,-29 1,-43 0,-11 3,-20 4,-31 2,-13 0,-27 1,-41 1,-14 2,-28 5,-42 3,-12 9,-23 11,-35 -16,4 -26,19 -35,32 -11,14 -19,31 -22,49 -4,25 -2,50 -9,74 -10,39 -32,79 -26,120 7,45 30,86 55,122 11,16 24,32 37,47 7,8 15,17 23,24 5,4 23,13 25,18 -8,-18 -16,-36 -24,-55 -8,-18 -15,-37 -9,-56z"/>
   <path class="fil4" d="M671 826c15,36 55,104 85,120 37,19 98,17 134,0 7,-3 15,-6 23,-8 10,-3 16,1 15,12 -2,24 -62,117 -62,117 0,0 78,-70 92,-94 23,-39 34,-78 36,-119 2,-34 -3,-68 -10,-103 -7,-32 -12,-66 -22,-97 -5,-14 -23,3 -25,10 -18,49 -20,90 -10,140 4,19 14,76 -1,86 -20,13 -55,4 -77,1 -42,-6 -80,-29 -122,-34 -14,-2 -64,-50 -56,-30z"/>
   <path class="fil4" d="M1612 588c-7,-9 -19,-40 -25,-51 -4,-8 -7,-16 -15,-22 -4,40 53,140 61,166 14,48 23,98 15,148 -2,16 -16,55 -9,79 4,13 19,67 24,80 0,-26 -1,-54 4,-79 7,-33 12,-66 15,-99 4,-46 -14,-89 -28,-132 -10,-32 -21,-65 -43,-92z"/>
   <path class="fil5" d="M993 1208c-15,30 -20,63 -30,94 -9,29 -22,56 -21,87 1,28 11,59 29,81 14,18 33,32 56,35 25,3 68,0 86,-50 22,33 47,59 89,47 28,-8 43,-26 61,-48 17,-21 29,-38 27,-68 -2,-22 -10,-43 -18,-64 -7,-20 -14,-40 -22,-61 -13,-35 -27,-69 -45,-102 -8,-14 -15,-31 -26,-42 -7,-7 -26,-15 -36,-9 -8,5 -13,17 -21,21 -8,4 -18,-2 -26,-3 -48,-8 -85,43 -103,81z"/>
   <path class="fil5" d="M1218 1586c8,-6 13,-17 20,-24 14,-15 35,-10 50,-23 -15,-4 -31,0 -46,-3 -6,-1 -22,-6 -22,-6 0,0 -8,12 -30,19 -37,12 -88,17 -122,6 -8,-3 -16,-7 -23,-13 -3,-2 -6,-5 -10,-7 -2,-1 -7,-6 -9,-5 -3,0 -5,1 -8,2 -3,1 -6,3 -9,4 -5,2 -10,2 -15,3 -9,2 -19,2 -28,2 -7,0 -19,0 -8,7 8,6 17,9 26,12 12,3 31,1 42,-4 2,-1 27,29 31,32 9,9 18,16 30,20 22,8 50,10 72,1 9,-4 17,-10 27,-12 11,-2 22,-4 32,-11z"/>
   <path class="fil5" d="M833 1169c-5,17 -9,30 -25,39 -17,10 -31,21 -39,41 -5,12 -6,25 -6,37 -1,19 -8,36 -10,55 -2,19 0,39 4,58 4,16 13,39 26,50 5,4 12,7 18,8 1,0 16,-2 15,-3 -7,-30 -25,-55 -22,-88 1,-16 4,-33 9,-48 14,-51 43,-96 72,-140 26,-40 60,-74 92,-109 33,-37 63,-76 92,-115 -21,29 -51,51 -76,75 -21,20 -42,39 -65,57 -29,23 -74,45 -86,84z"/>
   <path class="fil5" d="M613 819c5,8 18,10 26,10 14,0 26,-6 38,-12 -6,17 33,50 44,60 21,21 47,32 76,35 10,1 21,2 31,2 18,0 36,1 54,-5 25,-7 53,-23 64,-49 10,-23 5,-49 1,-73 -3,-22 -3,-45 -3,-67 0,-31 4,-67 -7,-97 -21,-56 -105,-5 -144,26 -22,17 -83,96 -102,116 -9,10 -56,33 -68,38 -6,2 -16,7 -11,15z"/>
   <path class="fil5" d="M1296 902c8,8 25,9 36,14 24,10 51,13 77,11 43,-4 86,-11 123,-37 10,-7 19,-15 27,-24 5,-6 11,-18 20,-19 8,-1 21,14 29,16 10,2 18,-4 12,-17 -6,-14 -66,-59 -82,-79 -14,-18 -21,-40 -32,-60 -13,-23 -12,-31 -35,-41 -18,-7 -52,-18 -69,-26 -10,-4 -17,-12 -26,-18 -9,-5 -21,1 -28,7 -10,7 -18,16 -24,27 -3,5 -3,9 -5,14 -2,6 -6,11 -8,17 -8,26 -5,53 0,79 7,31 -38,116 -15,138z"/>
   <path class="fil5" d="M1592 1200c-8,2 -14,6 -20,12 -6,5 -11,12 -19,13 -7,1 -14,-3 -21,-4 -8,-2 -16,-3 -24,-3 -10,0 -19,0 -29,3 -6,2 -13,5 -20,5 -14,-2 -26,-16 -29,-29 -4,-15 -11,-27 -21,-39 -5,-6 -11,-12 -17,-16 -6,-4 -13,-7 -19,-12 -11,-10 -19,-22 -29,-32 -20,-21 -38,-45 -59,-66 -19,-18 -38,-37 -54,-57 2,9 7,17 11,25 4,8 7,16 12,23 11,17 24,33 38,47 24,24 45,52 70,75 11,10 17,23 25,36 9,14 18,29 26,43 9,17 18,33 24,52 15,42 22,88 19,133 -2,21 -8,39 -19,57 11,-4 22,-12 29,-21 9,-12 16,-28 18,-43 2,-13 8,-21 20,-28 9,-5 15,-12 19,-21 4,-9 4,-19 5,-29 1,-12 2,-25 5,-36 2,-10 4,-14 13,-20 9,-6 16,-13 23,-22 7,-8 12,-18 19,-27 3,-4 10,-12 6,-17z"/>
   <path class="fil5" d="M1649 670c1,2 2,4 2,5 3,8 7,15 9,23 1,3 3,5 3,9 1,4 2,9 3,13 1,5 2,10 3,14 7,29 9,50 7,80 -2,28 -11,79 -8,107 30,-21 104,-84 83,-201 -8,-47 29,-56 29,-56 0,0 -13,-27 -3,-57 10,-29 37,-52 55,-71 -18,19 -46,33 -72,32 -35,-1 -71,-25 -105,-3 -9,6 -17,15 -21,25 -5,12 -4,25 -2,37 3,15 9,29 15,43z"/>
   <path class="fil5" d="M539 567c-4,40 -23,84 -38,119 -16,39 36,39 57,13 21,-26 30,-58 41,-89 9,-25 14,-38 25,-62 21,-45 25,-116 -18,-150 -33,-27 -59,-22 -92,-3 -30,18 -68,45 -37,84 26,33 67,32 62,87z"/>
   <path class="fil5" d="M352 751c6,1 9,2 10,2 0,0 0,-1 9,-1 18,0 37,8 53,15 34,14 129,98 146,188 2,-32 -11,-75 -25,-98 -17,-28 -43,-70 -69,-87 -32,-21 -53,-16 -90,-22 -22,-4 -37,-23 -38,-48 -3,-40 23,-49 60,-63 -11,2 -71,-8 -79,-6 -12,3 -19,8 -26,19 -19,33 3,100 48,101z"/>
   <path class="fil5" d="M362 753c0,0 1,0 0,0l0 0z"/>
   <path class="fil5" d="M1618 479c0,0 -35,-26 -43,-35 -8,-8 -57,-33 -57,-33 0,0 -34,6 -49,7 -16,1 -38,-3 -38,-3 74,48 91,61 155,68 19,2 32,-4 32,-4z"/>
   <path class="fil6" d="M842 1166c-7,12 -9,27 -15,40 -6,13 -16,22 -25,32 -9,10 -14,20 -15,34 0,13 1,25 -2,38 -3,13 -10,24 -12,37 -2,13 2,24 7,35 5,12 6,25 11,37 3,9 9,18 15,25 -1,-8 -3,-15 -5,-22 -3,-8 -3,-15 -4,-24 -1,-9 -2,-18 -1,-27 0,-5 1,-10 1,-15 -1,-10 1,-20 3,-30 9,-43 27,-82 50,-119 13,-20 25,-34 40,-52 12,-14 35,-32 40,-51 -1,2 -78,45 -88,61z"/>
   <path class="fil6" d="M1469 1304c-7,-8 -14,-17 -17,-27 -3,-11 -5,-22 -9,-33 -4,-14 -18,-14 -25,-25 -6,-11 -9,-23 -16,-34 -4,-5 -9,-9 -13,-14 -5,-5 -6,-10 -9,-16 -5,-14 -18,-18 -28,-27 -5,-5 -8,-9 -14,-13 -7,-5 -15,-8 -22,-13 3,2 4,7 7,10 3,3 5,7 8,10 6,6 11,11 16,17 6,7 12,14 17,21 6,9 14,17 19,27 7,12 14,24 21,37 25,42 49,88 54,138 2,20 -1,39 -4,59 -1,6 -3,12 -4,19 3,-4 4,-10 6,-14 4,-9 5,-19 9,-28 4,-9 10,-17 14,-26 4,-10 4,-25 3,-37 -1,-12 -7,-21 -14,-29z"/>
   <path class="fil6" d="M960 698c3,-30 22,-94 -16,-105 -69,-20 -146,53 -151,57 6,0 81,-3 97,16 13,16 20,38 22,59 -1,-17 -33,-38 -48,-37 -4,0 -10,3 -13,2 28,7 46,37 49,65 -9,-10 -13,-22 -25,-30 -9,-6 -21,-10 -32,-13 -39,-12 -79,0 -111,25 -34,27 -52,82 -102,82 -3,0 -13,-2 -14,3 -1,6 9,10 13,11 14,4 29,-2 43,-5 45,69 73,89 108,93 102,13 184,-19 191,-76 2,-16 0,-34 -5,-50 -11,-30 -8,-65 -4,-96zm-138 211c-25,4 -52,-2 -74,-14 -24,-13 -36,-32 -54,-52 -4,-5 -11,-10 -12,-17 -1,-7 12,-9 16,-14 8,9 18,16 27,24 13,11 25,23 39,31 14,8 29,14 45,19 7,2 13,3 20,4 4,1 11,2 12,7 1,9 -13,10 -19,11z"/>
   <path class="fil6" d="M1497 738c-20,-14 -40,-16 -57,-18 -33,-3 -75,11 -99,37 -1,-5 3,-16 5,-21 2,-8 7,-17 12,-24 5,-8 13,-19 22,-23 8,-3 17,-4 25,-8 -9,-2 -18,-4 -28,-2 -10,2 -18,7 -27,10 8,-19 42,-23 60,-24 21,-1 41,0 61,0 -15,-9 -30,-15 -45,-25 -7,-5 -14,-11 -21,-17 -15,-13 -33,-20 -52,-17 -42,5 -55,55 -52,92 2,20 6,73 11,91 6,21 -1,55 -4,76 -5,38 67,51 91,56 67,14 131,-12 178,-62 2,-2 5,-5 7,-8 -1,2 25,13 25,13 -54,-55 -70,-97 -112,-125zm-51 175c88,-32 124,-71 124,-71 0,11 -40,65 -124,71z"/>
   <path class="fil6" d="M1133 1480c-2,-3 -8,-10 -17,-22 23,15 61,7 68,-3 20,-29 19,-69 24,-103 5,-35 1,-65 -3,-100 -4,-34 1,-62 -14,-94 -9,-18 -23,-24 -41,-20 -9,2 -17,7 -25,7 -9,1 -18,-3 -28,-2 -25,3 -52,13 -66,36 -19,32 -17,74 -16,110 1,26 -13,44 -16,68 -1,5 -1,9 -1,14 1,16 6,33 18,43 16,14 22,36 42,46 16,8 33,13 51,-2 -9,32 -29,42 -40,49 -4,3 -8,6 -12,9 -4,3 -8,6 -13,7 -4,1 -12,2 -14,6 22,27 60,35 93,34 10,0 21,-2 31,-4 8,-1 17,-3 25,-6 9,-3 17,-7 25,-12 8,-4 12,-9 16,-14 -16,-2 -54,-23 -60,-28 -5,-4 -23,-17 -27,-21z"/>
   <path class="fil6" d="M1558 448c11,11 26,36 43,34 30,-3 85,-30 101,-37 -50,-1 -86,-39 -150,-39 -10,0 -53,11 -56,9 4,3 8,4 12,5 17,4 38,15 50,28z"/>
   <path class="fil6" d="M2038 740c-15,-38 -95,-151 -125,-176 -33,-27 -52,-32 -72,-29 -12,2 -23,7 -34,14 -10,7 -9,19 -46,19 17,7 43,6 61,-4 14,-7 41,7 52,19 19,20 61,71 67,235 4,113 -30,145 -30,145 0,0 47,4 64,-2 54,-19 86,-65 86,-65 0,0 -8,-115 -24,-156z"/>
   <path class="fil6" d="M1782 664c-1,-1 -1,-1 -2,-2 -32,-28 -46,34 -48,56 -1,17 2,34 5,51 3,17 9,33 5,50 -4,17 -21,33 -35,47 4,-33 2,-68 -2,-99 -6,-49 -17,-108 -45,-150 -7,-11 -24,-25 -15,-40 7,-12 25,-16 37,-19 13,-4 28,1 41,-5 11,-5 18,-18 23,-29 6,-15 16,-40 10,-57 1,3 -18,27 -20,30 -15,22 -33,27 -57,34 -18,5 -36,12 -50,25 -19,17 -12,33 -2,53 2,4 5,8 6,12 2,5 4,10 5,15 9,27 23,52 32,79 4,12 6,24 8,37 9,56 -16,109 -17,165 0,16 1,32 2,48 0,12 0,25 4,36 2,-9 2,-18 4,-27 0,-1 1,-3 1,-4 14,-58 69,-81 94,-130 14,-28 19,-60 11,-90 -5,-21 -11,-39 -6,-61 2,-10 6,-18 12,-25z"/>
   <path class="fil6" d="M433 629c-108,-13 -189,-57 -189,-57 0,0 83,-24 172,-92 41,-31 73,-49 120,-98 -98,24 -144,80 -197,121 -60,46 -110,31 -110,31 0,0 90,-124 233,-149 28,-5 85,-19 133,4 4,-5 -23,-15 -29,-17 -45,-16 -104,-19 -151,-11 -7,1 -13,2 -20,3 -70,12 -142,53 -196,100 -6,5 -11,11 -16,16 -21,20 -45,37 -68,55 -7,5 -13,10 -20,15 -20,15 -44,29 -60,49 -6,7 -9,16 -7,25 1,8 3,17 11,21 14,7 36,-8 48,-15 18,-9 35,-18 54,-25 38,-15 115,-17 149,9 34,26 119,30 145,16z"/>
   <path class="fil6" d="M548 719c8,-24 21,-45 32,-67 16,-33 36,-65 48,-100 11,-34 28,-66 38,-100 7,-23 24,-80 -5,-88 -14,-4 -17,59 -26,86 -7,21 -15,42 -23,63 -19,51 -41,105 -70,151 -4,7 -18,34 -29,30 -22,-8 -25,-136 -25,-136 -15,125 -46,185 -109,195 28,1 54,-6 79,8 36,20 64,45 79,75 1,3 7,17 10,17 0,0 0,0 0,-1 2,-17 8,-36 8,-36 0,0 -23,-27 -12,-75 2,-7 3,-14 6,-21z"/>
   <path class="fil7" d="M1164 850c-10,58 -14,121 14,175 30,56 89,87 124,138 31,45 55,98 64,153 4,24 6,52 0,77 -6,25 -24,48 -26,74 -1,13 12,13 21,11 69,-22 67,-121 51,-179 -30,-107 -116,-180 -170,-272 -66,-113 -68,-188 -35,-307 24,-86 63,-312 -69,-355 116,128 47,348 24,485z"/>
   <path class="fil8" d="M792 729c-45,9 -68,58 -102,85 8,7 15,25 24,35 12,17 28,28 46,37 7,4 14,7 22,9 39,12 82,8 118,-12 6,-3 12,-7 17,-12 -10,-37 -23,-84 -48,-113 -18,-22 -43,-35 -77,-30z"/>
   <path class="fil9" d="M811 732c-45,-3 -83,32 -86,79 -2,39 21,74 56,85 6,2 13,3 20,4 45,3 83,-32 86,-79 1,-23 -6,-45 -20,-61 -14,-16 -33,-27 -56,-28z"/>
   <path class="fil10" d="M810 748c-36,-2 -67,26 -70,64 -2,32 17,60 45,69 5,2 11,3 16,3 36,2 67,-26 70,-64 1,-19 -5,-36 -16,-49 -11,-13 -27,-22 -45,-23z"/>
   <path class="fil11" d="M810 747c-30,-2 -56,22 -58,53 -2,26 14,49 37,57 4,1 9,2 13,3 30,2 56,-22 58,-53 1,-16 -4,-30 -13,-41 -9,-11 -22,-18 -37,-19z"/>
   <path class="fil12" d="M809 759c-23,-1 -42,16 -43,40 -1,23 16,44 38,45 23,1 42,-16 43,-40 1,-23 -16,-44 -38,-45z"/>
   <path class="fil13" d="M735 816c1,7 4,27 24,34 -13,-30 -8,-72 16,-95 -13,2 -26,11 -34,22 -8,10 -7,26 -6,39z"/>
   <path class="fil8" d="M1496 754c-26,-20 -54,-24 -81,-16 -48,14 -89,67 -92,126 9,-1 29,19 43,27 34,19 77,18 113,7 18,-6 66,-29 90,-59 0,-1 -48,-61 -73,-86z"/>
   <path class="fil9" d="M1445 738c-10,-1 -19,1 -28,3 -32,10 -55,39 -58,75 -3,46 31,86 76,89 0,0 1,0 1,0 9,0 17,-1 26,-3 32,-9 57,-39 59,-76 3,-46 -31,-86 -76,-89z"/>
   <path class="fil10" d="M1444 754c-8,0 -16,0 -23,3 -26,8 -45,32 -47,61 -2,33 22,67 55,72 38,5 73,-23 76,-63 2,-37 -25,-70 -61,-72z"/>
   <path class="fil11" d="M1443 753c-15,-2 -30,3 -42,16 -8,9 -15,24 -16,37 -2,29 20,57 48,60 31,3 58,-21 60,-53 2,-32 -23,-56 -51,-60z"/>
   <path class="fil12" d="M1444 763c-23,-1 -42,16 -43,40 -1,23 16,44 38,45 23,1 42,-16 43,-40 1,-23 -16,-43 -38,-45z"/>
   <path class="fil13" d="M1378 789c-7,17 -9,52 22,73 -8,-18 -24,-69 15,-108 -22,7 -34,28 -38,36z"/>
   <path class="fil6" d="M1113 1166c-84,-3 -122,18 -146,56 -8,12 -14,30 -14,44 0,7 4,20 6,26 6,13 13,21 23,29 -3,8 -3,19 -1,27 3,15 13,29 24,39 6,6 13,10 20,13 19,8 40,8 59,14 14,5 24,17 29,33 0,-1 0,-2 0,-3 0,1 0,1 0,2 1,-10 7,-18 16,-22 11,-6 24,-8 36,-11 11,-2 25,-3 35,-8 27,-12 46,-47 46,-77 12,-3 24,-13 28,-29 23,-94 -86,-130 -162,-133z"/>
   <path class="fil12" d="M1043 1279c-9,1 -23,5 -25,16 -2,9 9,25 0,28 -5,1 -10,2 -14,2 -1,0 -1,0 -2,0 -4,0 -8,-1 -12,-3 0,0 0,0 0,0 0,0 0,0 0,1 0,0 0,0 0,0 9,6 23,9 33,11 21,2 57,-7 47,-37 -5,-13 -14,-20 -27,-18z"/>
   <path class="fil12" d="M1203 1316c2,-8 3,-18 -4,-25 -12,-10 -36,-11 -47,1 -12,13 -2,32 12,38 18,8 40,6 61,0 0,0 0,0 1,0 -10,-1 -24,-4 -22,-14z"/>
   <path class="fil5" d="M987 1250c14,7 129,16 185,-3 -4,-18 -35,-15 -48,-13 -12,1 -24,4 -36,5 -15,1 -30,-2 -45,-5 -18,-4 -46,0 -57,16z"/>
   <path class="fil5" d="M1264 1235c0,-3 -2,-6 -3,-9 -2,-3 -3,-5 -5,-8 -4,-6 -8,-12 -14,-17 -5,-4 -11,-5 -16,-9 -4,-3 -13,-13 -18,-12 3,7 2,23 -1,30 -4,8 -13,15 -22,17 -6,15 51,40 64,38 10,-2 17,-21 16,-31z"/>
   <path class="fil5" d="M1174 1334c-15,-5 -25,-13 -28,-27 0,0 -13,32 22,42 51,15 80,-21 80,-21l-27 3c0,0 -32,8 -47,3z"/>
   <path class="fil5" d="M1036 1339c-13,1 -54,-18 -54,-18 9,23 22,31 59,33 37,2 32,-37 32,-37 0,0 -23,20 -36,21z"/>
   <path class="fil5" d="M1018 1178c-10,4 -19,13 -28,20 -9,7 -18,15 -25,23 -6,7 -9,16 -10,25 0,1 0,3 0,4 0,-6 67,-51 63,-72z"/>
   <path class="fil14" d="M1147 1379c-22,-9 -13,-78 -44,-78 -32,0 -4,43 -37,70 -27,21 -70,-6 -86,-24 0,0 17,51 49,55 39,4 82,18 84,46 -3,-31 56,-33 84,-39 28,-6 46,-51 46,-51 -20,28 -74,31 -96,22z"/>
   <path class="fil14" d="M1087 1224c28,1 68,-3 94,-11 26,-8 -11,-31 -89,-25 -78,5 -99,44 -99,44 25,-17 66,-10 94,-8z"/>
   <path class="fil14" d="M1145 1302c23,-34 51,-12 58,-4 7,9 -3,19 3,26 6,7 31,5 31,5 -18,0 -15,-25 -15,-33 0,-7 -6,-25 -45,-28 -40,-3 -31,33 -31,33z"/>
   <path class="fil14" d="M1020 1320c5,-3 -7,-21 3,-29 10,-8 34,-24 52,11 0,0 9,-41 -37,-36 -32,3 -35,21 -34,36 1,12 -22,17 -33,8 0,0 22,26 49,10z"/>
   <path class="fil12" d="M1344 803c7,-13 19,-27 34,-39 -2,2 -3,4 -5,6 -14,18 -23,48 -14,79 5,20 20,39 40,51 -43,-10 -69,-39 -75,-35 6,-3 45,53 117,46 7,0 15,-1 21,-3 68,-14 102,-56 108,-67 19,16 35,20 39,22 -5,-4 -26,-12 -49,-39 -12,-13 -24,-30 -39,-48 -14,-19 -36,-40 -65,-44 -59,-7 -100,37 -116,69 -17,34 -16,60 -16,64 2,-5 3,-30 21,-62zm225 37c-7,7 -31,32 -75,49 9,-8 16,-17 21,-28 13,-29 9,-61 -3,-81 -2,-3 -4,-6 -6,-9 19,20 44,56 63,69zm-86 -86c9,7 18,19 24,29 10,20 13,48 1,74 -17,36 -60,52 -95,39 -10,-4 -20,-10 -28,-18 -8,-9 -16,-21 -19,-32 -8,-28 -2,-56 11,-73 25,-33 73,-46 106,-19z"/>
   <path class="fil12" d="M953 738c-2,32 8,51 11,56 -1,-5 -9,-24 -5,-55 -1,-31 22,-71 9,-124 -15,-25 -48,-26 -69,-21 -22,5 -41,14 -56,22 -30,17 -46,31 -49,35 5,-2 23,-15 53,-29 26,-11 83,-40 113,-2 12,44 -9,89 -6,120z"/>
   <path class="fil12" d="M1425 640c23,18 42,24 47,24 -5,-2 -21,-9 -44,-28 -11,-9 -24,-21 -43,-29 -18,-9 -45,-6 -63,12 -34,38 -23,86 -21,115 5,30 10,50 11,54 0,-5 -3,-25 -6,-55 -1,-28 -9,-75 21,-107 36,-34 76,0 97,15z"/>
   <path class="fil12" d="M916 872c-1,-8 -5,-29 -16,-60 -11,-29 -34,-89 -97,-88 -59,4 -82,60 -107,81 -24,26 -49,27 -53,28 4,1 25,2 48,-15 7,12 28,70 98,86 74,15 121,-22 127,-30 0,0 0,1 0,1 0,0 0,-1 0,-1 0,0 0,-1 0,-1 0,0 0,0 -1,0zm-224 -56c3,-2 6,-5 9,-8 10,-8 20,-20 31,-33 -9,18 -13,42 -7,67 3,10 7,19 14,28 -27,-21 -40,-48 -47,-54zm109 79c-34,-3 -60,-28 -69,-55 -8,-28 -2,-55 11,-73 23,-31 50,-33 62,-34 3,0 6,0 9,0 11,2 40,8 60,44 10,20 13,48 1,74 -13,26 -41,46 -74,44zm35 3c21,-8 37,-25 46,-43 8,-19 10,-40 6,-57 3,6 5,12 7,16 12,30 18,51 20,58 -6,5 -35,24 -79,26z"/>
   <path class="fil12" d="M1876 923c-22,-39 -25,-90 -35,-133 -9,-40 -17,-87 -47,-116 -17,-16 -55,-39 -78,-23 -1,1 -3,2 -4,3 25,-4 47,-5 67,14 -28,30 -4,84 -5,119 -1,57 -44,88 -78,126 -18,21 -26,41 -29,69 -2,-22 -4,-45 -3,-68 2,-27 8,-54 12,-81 4,-27 9,-54 5,-81 -4,-25 -15,-49 -25,-72 -16,-35 -43,-93 7,-113 26,-10 55,-4 81,1 21,4 40,7 58,-8 16,-13 30,-25 52,-23 19,2 36,11 51,22 3,2 5,4 8,6 -10,-14 -28,-23 -42,-30 -22,-10 -43,-9 -61,9 -8,7 -14,17 -25,20 -12,3 -25,-3 -36,-6 -26,-7 -53,-7 -79,2 -23,7 -43,25 -40,52 -16,-23 -27,-49 -42,-72 8,17 13,35 23,52 16,28 27,56 37,87 9,29 24,58 28,87 5,33 -9,68 -13,101 -5,35 -6,71 -4,107 -6,-31 -11,-41 -19,-61 4,15 7,30 10,44 15,72 30,142 16,216 -4,23 -11,45 -20,66 -42,77 -90,141 -123,189 -17,23 -36,40 -53,43 -12,2 -22,-1 -27,-3 17,-33 22,-74 16,-114 -12,-102 -88,-190 -162,-277 -35,-43 -67,-88 -85,-138 -19,-49 -16,-102 -6,-149 21,-95 58,-178 55,-256 -3,-76 -32,-139 -71,-165 -29,-19 -53,-17 -68,-14 -12,1 -25,4 -40,10 -43,12 -101,67 -94,149 3,82 78,148 98,245 10,48 10,102 -11,151 -20,50 -55,93 -94,135 -82,85 -157,173 -181,274 -12,49 -13,101 9,141 0,0 0,0 0,0 -15,1 -52,1 -86,-38 -38,-44 -65,-121 -97,-211 -16,-44 -41,-80 -51,-117 -10,-37 -6,-74 -5,-104 0,-62 11,-100 11,-108 -2,6 -8,26 -13,58 -1,-14 -3,-30 -8,-49 -2,-12 -12,-25 -13,-36 0,-13 6,-28 11,-43 12,-30 27,-62 49,-95 39,-64 74,-121 99,-164 24,-44 51,-63 54,-69 -5,5 -34,23 -59,66 -27,42 -62,98 -101,162 -21,32 -37,66 -48,97 -1,2 -1,4 -2,5 -5,-15 -17,-47 -4,-78 15,-38 42,-87 68,-148 23,-59 49,-109 60,-151 14,-43 -7,-73 -15,-69 9,-1 24,26 10,68 -8,24 -21,53 -35,85 3,-10 5,-23 5,-38 2,-38 -25,-95 -86,-114 -59,-20 -133,-10 -207,14 -75,27 -148,77 -216,139 -28,31 -68,43 -95,74 10,-26 30,-61 70,-92 33,-28 76,-55 124,-84 48,-29 101,-59 163,-77 64,-19 126,-24 182,-24 55,1 105,5 141,28 37,19 60,48 86,57 11,2 20,0 28,-2 -10,9 -16,15 -17,17 5,-1 37,-31 88,-45 38,-10 69,-9 85,-8 7,1 25,3 52,-3 29,-6 67,-17 111,-12 46,4 82,20 110,29 10,3 19,5 26,6 0,0 0,0 -1,0 8,2 82,5 163,50 61,46 122,54 149,51 20,-1 58,-12 106,-35 62,-30 165,-2 233,77 70,84 93,180 108,247 14,68 17,113 19,124 -1,-12 -1,-57 -14,-125 -11,-57 -29,-137 -78,-213 -7,-15 -17,-32 -30,-51 -34,-51 -106,-103 -203,-114 -92,-14 -174,3 -232,18 -32,7 -57,5 -76,1 -51,-24 -98,-30 -123,-31 -8,-1 -24,-3 -45,-11 -26,-10 -63,-29 -111,-33 -45,-6 -86,7 -114,15 -19,5 -33,6 -42,7 -13,-3 -48,-11 -95,1 -29,8 -52,22 -66,34 -8,3 -18,4 -30,2 -24,-9 -46,-38 -83,-59 -37,-24 -88,-29 -144,-31 -56,-1 -119,3 -185,23 -60,18 -111,46 -165,79 -48,29 -91,57 -124,87 -43,36 -62,75 -70,102 -2,3 -4,6 -6,9 -4,11 -9,24 1,36 12,9 24,5 34,3 21,-5 40,-14 57,-23 13,-6 25,-12 36,-20 7,-3 21,-8 39,-8 7,-1 14,0 22,1 14,6 38,20 51,55 10,23 15,53 26,85 11,33 39,61 72,80 36,20 75,33 113,49 14,6 30,12 43,21 34,25 48,58 46,99 -1,30 -7,67 4,106 10,39 35,75 50,118 29,81 76,268 191,247 21,40 57,64 91,76 8,3 15,5 23,7 -1,12 2,45 29,78 15,19 38,39 68,51 31,10 64,14 100,16 76,6 142,-24 169,-66 31,-36 40,-67 41,-76 35,-4 73,-22 98,-57 5,-6 7,-10 10,-17 5,3 14,8 31,6 18,-3 38,-23 57,-46 44,-62 90,-121 126,-188 26,-60 27,-123 22,-187 -4,-43 -8,-93 20,-128 8,-10 17,-19 27,-28 9,-9 19,-18 27,-27 18,-20 31,-43 33,-71 2,-23 -2,-44 -7,-66 -4,-20 -7,-47 5,-65 21,26 37,53 46,86 10,37 13,76 22,114 8,34 21,73 51,93 32,21 70,10 101,-8 24,-14 46,-33 63,-56 -24,22 -48,45 -78,58 -41,18 -85,9 -108,-32zm-370 -505c59,-14 139,-29 230,-15 94,11 165,60 200,109 2,2 3,4 5,7 -69,-80 -177,-107 -240,-75 -38,20 -69,31 -90,37 0,0 0,0 0,0 -9,4 -78,6 -159,-54 -4,-2 -8,-4 -12,-6 17,3 40,4 66,-1zm-964 478c-37,-37 -106,-49 -174,-87 -32,-19 -59,-45 -69,-75 -11,-31 -17,-61 -28,-85 -12,-29 -31,-43 -46,-50 19,4 41,11 64,20 77,35 139,18 144,11 -8,3 -65,15 -142,-20 -32,-12 -64,-22 -89,-21 40,-12 94,-30 152,-59 108,-71 176,-134 182,-147 -9,11 -78,68 -187,139 -74,37 -143,59 -182,73 46,-33 78,-76 110,-107 86,-85 165,-102 184,-102 -19,-1 -99,13 -187,98 -44,41 -86,101 -159,132 -18,9 -36,18 -55,23 -9,2 -21,4 -27,-1 -5,-5 -3,-17 0,-26 20,-37 71,-51 104,-87 67,-62 140,-112 213,-139 74,-24 146,-34 203,-15 59,18 85,72 84,109 0,19 -3,35 -6,46 -8,17 -16,35 -23,54 -5,10 -9,20 -13,30 0,-18 -6,-44 -31,-66 -39,-37 -76,-55 -80,-57 2,6 37,28 74,63 27,25 32,52 32,69 -20,43 -37,79 -48,110 -13,36 -1,76 7,86 -3,10 -6,20 -7,30 -8,-17 -24,-45 -54,-71 -27,-24 -56,-29 -76,-28 21,-11 41,-35 51,-66 24,-78 25,-135 29,-143 -7,7 -14,64 -37,140 -12,36 -36,62 -60,68 -23,7 -40,3 -43,5 3,0 20,7 45,1 0,0 1,0 1,0 17,-1 52,2 84,30 33,28 51,57 60,72 3,15 11,23 14,35 7,21 9,40 11,54 -3,-14 -10,-30 -26,-46zm746 718c-28,40 -89,66 -165,61 -35,-2 -70,-6 -98,-15 -28,-11 -51,-29 -66,-47 -28,-31 -32,-62 -32,-74 40,9 77,4 107,-8 -2,10 38,40 93,34 53,-1 89,-24 93,-34 31,10 68,15 110,12 1,0 2,0 3,0 -3,9 -13,38 -45,72zm-183 -220c1,18 3,32 5,42 -2,-5 -6,-11 -12,-18 -15,-14 -41,-14 -67,-22 -46,-19 -50,-65 -49,-76 1,1 3,1 4,2 1,0 1,0 2,1 5,4 15,10 30,13 11,2 24,3 39,-3 16,-3 27,-29 13,-46 -12,-17 -35,-14 -47,-5 -17,12 -2,33 -5,37 -10,4 -20,3 -26,2 -2,-1 -3,-1 -5,-2 -15,-6 -30,-28 -30,-55 -1,-27 20,-57 50,-74 30,-17 70,-20 111,-19 83,0 164,43 157,105 1,28 -10,50 -29,51 -8,2 -15,3 -21,2 -2,-2 -24,-1 -18,-18 9,-26 -35,-46 -59,-21 -12,17 0,36 11,42 12,6 24,6 33,6 16,-1 27,-6 31,-7 6,1 13,1 23,-1 -2,11 -10,55 -52,73 -25,7 -50,9 -65,18 -9,5 -13,12 -15,18 0,-10 0,-26 -1,-45 -2,-30 -7,-53 -9,-56 -2,3 -2,27 0,57zm-78 -105c10,-7 28,-9 35,3 20,33 -28,42 -44,38 -6,-1 -12,-2 -16,-3 5,0 12,-1 20,-4 5,-16 -8,-27 5,-34zm187 40c3,0 5,1 6,1 -6,1 -15,2 -28,2 -15,2 -52,-11 -38,-37 17,-16 54,-6 46,15 -4,12 9,20 13,19zm-102 120c7,24 43,61 105,81 -7,8 -41,25 -93,26 -54,5 -91,-18 -93,-26 16,-6 29,-14 40,-23 28,-18 38,-42 40,-58zm313 30c-24,34 -62,53 -96,57 -127,11 -205,-53 -216,-88 0,-1 0,-2 1,-3 2,-4 5,-15 18,-20 15,-7 38,-7 66,-15 49,-22 52,-71 50,-82 8,-2 17,-6 24,-16 6,-11 8,-23 9,-38 3,-29 -13,-65 -46,-83 -32,-19 -72,-29 -116,-31 -41,-1 -83,2 -115,21 -32,19 -54,51 -52,82 1,27 15,47 30,55 -6,10 -6,63 47,85 28,9 53,7 66,18 11,8 15,18 18,22 0,1 0,2 1,3 -3,16 -12,40 -41,58 -35,27 -98,47 -167,21 -34,-12 -68,-35 -88,-74 -21,-38 -20,-88 -8,-135 23,-98 97,-185 180,-270 39,-42 75,-86 96,-138 21,-51 21,-108 11,-157 -22,-101 -98,-165 -100,-245 -7,-80 48,-131 90,-144 33,-14 59,-12 73,-9 10,3 20,7 31,15 37,26 63,89 65,163 2,76 -35,158 -57,253 -11,48 -13,103 6,154 18,51 51,96 86,140 75,88 149,173 161,272 7,48 -1,96 -26,130z"/>
   <path class="fil15" d="M1495 768l-15 -20c3,21 5,42 -18,72 15,-1 42,-38 32,-52z"/>
   <path class="fil15" d="M1504 781c0,12 -9,28 -16,36 10,-4 21,-11 21,-22l-5 -15z"/>
   <path class="fil15" d="M1383 800c-1,3 -1,8 -2,12 0,0 13,3 31,1 -2,-4 -21,-10 -29,-13z"/>
   <path class="fil15" d="M1361 809c2,1 9,3 11,2 1,-4 2,-8 3,-13l-12 -3c-1,3 -1,10 -2,13z"/>
   <path class="fil15" d="M1423 804c0,0 0,0 -1,0 -3,3 -3,8 1,10 2,1 4,1 6,0 4,-2 4,-6 2,-10 -2,-3 -6,-3 -9,-1z"/>
   <path class="fil15" d="M740 799c-1,3 -2,8 -2,12 0,0 13,3 31,1 -2,-4 -21,-10 -29,-13z"/>
   <path class="fil15" d="M718 808c2,1 9,3 11,2 1,-4 1,-8 3,-13l-12 -3c-1,3 -1,10 -2,13z"/>
   <path class="fil15" d="M780 804c0,0 0,0 -1,0 -3,3 -3,8 1,10 2,1 4,1 6,0 4,-2 4,-6 2,-10 -2,-3 -6,-3 -9,-1z"/>
   <path class="fil15" d="M769 736c0,9 9,47 20,60 0,0 -7,-54 3,-65 -5,0 -18,-1 -23,5z"/>
   <path class="fil15" d="M757 736c-4,2 -7,14 -9,20 1,4 10,24 22,29 0,0 -16,-42 -13,-49z"/>
   <path class="fil15" d="M1058 1246c-4,-3 -8,-6 -12,-9 -4,-3 -13,3 -11,8 2,6 4,10 8,14 7,8 23,-8 15,-13z"/>
   <path class="fil15" d="M1077 1237c-3,-1 -10,1 -9,5 1,3 2,7 4,9 1,1 3,1 4,1 3,-1 6,-3 6,-7 0,0 0,0 0,0 0,-3 -2,-6 -4,-7z"/>
   <path class="fil15" d="M1093 1237c-2,-1 -5,1 -4,3 0,4 0,7 3,10 2,1 5,0 6,-1 2,-1 4,-4 3,-6 -1,-4 -5,-4 -8,-6z"/>
   <path class="fil15" d="M1116 1239c-3,-2 -7,-2 -7,2 0,4 2,8 6,8 4,0 6,-3 4,-7 -1,-1 -2,-3 -3,-4z"/>
   <path class="fil15" d="M1135 1241c-1,-2 -5,0 -6,2 -1,2 0,5 1,6 4,4 7,-3 5,-7 0,0 0,-1 -1,-1z"/>
   <path class="fil15" d="M1241 1241c-1,-1 -3,-2 -4,-3 -4,-2 -8,-4 -12,-6 -5,-2 -18,-11 -23,-9 -9,2 -4,11 0,15 12,11 29,21 46,16 4,-1 -6,-12 -7,-13z"/>
   <path class="fil7" d="M1545 1265c58,2 103,25 136,40 33,16 55,25 60,27 -5,-3 -26,-14 -58,-32 -32,-17 -78,-42 -138,-44 -114,-7 -199,30 -207,32 11,1 96,-30 207,-24z"/>
   <path class="fil7" d="M1347 1324c9,3 87,0 183,23 100,25 156,75 165,80 -7,-7 -60,-63 -163,-89 -97,-23 -176,-15 -185,-14z"/>
   <path class="fil7" d="M1474 1383c-76,-35 -144,-34 -150,-33 7,3 72,7 147,41 77,36 119,81 127,86 -6,-6 -44,-56 -124,-94z"/>
   <path class="fil7" d="M1445 1415c-82,-34 -152,-35 -159,-35 8,4 76,10 156,44 83,37 122,91 130,96 -5,-7 -41,-66 -127,-104z"/>
   <path class="fil7" d="M1435 1454c-68,-49 -137,-49 -143,-46 7,1 72,7 138,54 35,24 66,43 84,61 19,19 22,36 24,41 -1,-4 -2,-24 -20,-44 -18,-21 -48,-41 -83,-65z"/>
   <path class="fil7" d="M718 1181c120,8 196,75 203,80 -6,-8 -80,-81 -203,-89 -127,-9 -207,40 -217,45 12,-3 92,-45 217,-36z"/>
   <path class="fil7" d="M710 1242c116,9 203,47 207,59 -2,-16 -89,-59 -207,-68 -61,-3 -114,4 -150,19 -37,15 -49,41 -51,47 3,-5 16,-29 53,-41 35,-13 87,-19 148,-16z"/>
   <path class="fil7" d="M838 1300c37,-3 59,9 64,10 -4,-3 -27,-17 -64,-16 -37,0 -86,9 -140,24 -56,16 -102,36 -131,58 -32,21 -37,49 -36,55 0,-6 7,-31 39,-50 30,-20 75,-38 131,-54 53,-15 102,-25 138,-26z"/>
   <path class="fil7" d="M727 1394c-56,28 -99,63 -122,95 -25,33 -25,61 -26,67 2,-6 5,-33 30,-63 24,-31 66,-63 122,-91 107,-54 204,-51 213,-46 -9,-9 -108,-18 -217,38z"/>
   <path class="fil7" d="M932 1406c2,1 3,1 3,2 -1,-1 -2,-1 -3,-2z"/>
   <path class="fil7" d="M932 1406c-7,-3 -24,-9 -49,-5 -29,4 -66,21 -102,48 -75,58 -97,126 -95,136 2,-9 27,-72 100,-129 63,-53 129,-55 145,-50z"/>
   <path class="fil7" d="M780 1612c2,-6 9,-57 59,-103 46,-44 95,-60 100,-64 -6,0 -58,11 -106,57 -52,48 -55,104 -53,109z"/>
   <path class="fil7" d="M1400 1509c-59,-53 -120,-67 -125,-70 5,7 63,26 120,76 29,27 37,62 48,85 10,24 22,35 25,38 -2,-4 -12,-17 -20,-40 -10,-22 -16,-60 -47,-89z"/>
   <path class="fil16" d="M1937 1161c10,48 -26,98 -50,136 -36,59 -82,111 -131,161 -100,102 -233,197 -365,236 -18,5 15,72 32,63 123,-67 260,-180 364,-289 49,-51 95,-106 132,-167 25,-43 59,-96 47,-147 -4,-19 -29,6 -29,6z"/>
   <path class="fil17" d="M1419 1732c-2,-1 10,-19 74,-60 105,-68 149,-86 264,-199 47,-46 85,-89 156,-197 -80,166 -259,314 -494,456z"/>
   <path class="fil18" d="M1989 1187c0,4 -4,7 -7,7l-62 -4c-4,0 -7,-4 -7,-8l4 -64c0,-4 4,-7 8,-7l62 4c4,0 7,4 7,8l-4 64z"/>
   <path class="fil18" d="M1920 1152c-1,22 -16,40 -33,39 -17,-1 -30,-20 -29,-42 1,-22 16,-40 33,-39 17,1 30,20 29,42z"/>
   <path class="fil18" d="M1575 1630c-16,0 -31,12 -44,21 -14,10 -33,16 -43,31 -1,1 1,1 2,0 11,-9 25,-13 37,-21 15,-10 31,-19 47,-28 1,0 3,-3 1,-3z"/>
   <path class="fil19" d="M1423 1757c-3,-17 -19,-52 -32,-63 -14,-13 -70,6 -70,6l56 111c0,0 49,-35 46,-53z"/>
   <path class="fil18" d="M1399 1763c-2,-7 1,-11 4,-16 6,-9 0,-24 -7,-30 -5,-4 -10,-3 -16,-4 -6,-1 -7,-5 -9,-10 -2,-4 -6,-9 -10,-11 -7,-3 -39,7 -39,7l56 111c0,0 30,-21 28,-27 -2,-7 -5,-13 -7,-20z"/>
   <path class="fil20" d="M1307 1856c-32,16 -77,9 -89,-15l-16 -31c-12,-24 9,-65 41,-81l34 -17c38,-19 65,-13 78,12l23 46c12,24 1,50 -37,69l-34 17z"/>
   <path class="fil17" d="M1314 1717c-12,-1 -49,42 -54,53 -10,22 -3,50 -6,74 -1,6 -21,-26 -23,-28 -7,-15 -14,-27 -5,-43 12,-24 60,-57 88,-55z"/>
   <path class="fil21" d="M1391 1748c-4,-6 -7,-13 -10,-20 -2,-5 -4,-15 -11,-17 -11,-3 -8,15 -6,20 2,6 4,13 7,19 3,8 13,23 21,12 2,-3 2,-6 1,-9 -1,-2 -2,-4 -3,-6z"/>
   <path class="fil21" d="M1974 1168c-1,-1 -2,-1 -4,-2 -3,-1 -6,-1 -9,-1 -5,-1 -13,-2 -17,-6 -4,-4 -4,-11 -5,-16 -1,-5 -1,-10 -1,-15 0,-3 0,-8 -4,-8 -7,-1 -6,13 -6,17 -1,10 -2,19 -2,29 0,5 -3,14 4,15 9,1 18,1 27,1 5,0 12,2 16,-2 4,-3 3,-10 -1,-13z"/>
   <path class="fil21" d="M1905 1137c-1,5 -3,11 -4,15 -1,4 -3,7 -5,11 -4,6 -7,10 -14,13 -5,2 -2,4 2,5 5,0 14,-2 17,-7 5,-6 5,-16 6,-24 0,-2 1,-6 1,-9 0,-2 -1,-4 -3,-4z"/>
   <path class="fil12" d="M1966 1192c7,25 -60,174 -223,327 -153,150 -301,232 -320,239 16,-9 162,-95 315,-245 163,-153 232,-296 229,-321z"/>
   <path class="fil12" d="M1391 1694c20,-7 166,-54 322,-199 152,-137 225,-283 225,-304 5,19 -67,171 -220,309 -159,147 -307,190 -327,194z"/>
   <path class="fil12" d="M1924 1111c-9,-2 -6,17 -7,42 0,6 0,13 -1,21 0,9 -2,13 9,12 17,1 36,2 57,3 5,1 3,-12 4,-21 1,-9 1,-18 2,-27 0,-8 2,-19 1,-22 -1,-3 -12,-2 -17,-3 -26,-2 -43,-4 -47,-5 4,-1 21,-1 47,0 7,2 13,-3 23,5 4,11 0,17 1,26 0,9 -1,17 -1,27l-1 14c1,4 -3,15 -12,14 -21,-1 -40,-2 -57,-4 -3,0 -11,0 -14,-6 -2,-6 0,-9 0,-13 1,-8 1,-14 2,-21 2,-24 2,-46 12,-42z"/>
   <path class="fil12" d="M1404 1787c2,-3 -6,-23 -20,-50 -13,-26 -25,-46 -29,-46 5,-4 23,16 36,42 14,28 18,51 13,54z"/>
   <path class="fil12" d="M1891 1110c-3,0 -17,2 -25,19 -8,14 -8,50 19,57 27,1 30,-38 27,-52 -3,-20 -18,-23 -20,-24 2,-1 20,1 25,22 3,10 3,22 0,35 -2,12 -14,30 -33,26 -37,-12 -31,-53 -22,-67 11,-18 27,-18 29,-17z"/>
   <path class="fil12" d="M1367 1745c-2,-3 -6,-12 -14,-24 -6,-13 -25,-23 -47,-17 -21,6 -47,20 -72,35 -22,18 -44,54 -19,85 10,37 51,41 79,34 27,-11 54,-23 72,-37 18,-15 20,-37 13,-50 -6,-13 -10,-22 -11,-25 2,3 6,11 13,24 8,13 8,38 -12,55 -19,16 -44,28 -73,41 -28,9 -77,3 -88,-37 -10,-15 -17,-37 -8,-54 6,-17 18,-31 30,-40 28,-16 51,-29 75,-34 24,-5 45,8 50,21 7,13 10,21 12,25z"/>
   <path class="fil12" d="M1377 1810c2,-2 11,-10 24,-23 6,-7 15,-15 18,-25 1,-9 -6,-24 -12,-36 -6,-12 -13,-25 -21,-31 -10,-4 -22,-2 -31,-1 -19,3 -31,6 -34,6 2,-2 14,-7 33,-11 10,-2 21,-5 35,0 13,8 18,21 25,34 6,14 13,26 12,42 -5,13 -14,20 -21,27 -14,12 -25,18 -28,20z"/>
   <path class="fil22" d="M629 314c0,0 0,-27 71,-51 71,-24 265,-53 462,-41 220,13 417,50 493,123 77,73 31,64 31,64 0,0 -183,-74 -530,-90 -117,-5 -395,-14 -539,32 -144,45 12,-37 12,-37z"/>
   <path class="fil17" d="M1565 312c-14,-18 -198,-54 -292,-63 -28,-3 -149,-13 -212,-12 -87,2 -208,11 -312,32 20,6 194,-24 433,-11 175,10 357,53 381,56 1,0 3,-1 3,-2z"/>
   <path class="fil12" d="M1669 374c1,-8 -6,-28 -31,-44 -24,-17 -60,-32 -105,-46 -91,-28 -219,-50 -371,-58 -146,-8 -277,-2 -372,15 -48,9 -87,20 -113,34 -27,13 -36,33 -36,40 -1,-6 6,-27 34,-42 26,-15 65,-28 113,-37 96,-19 228,-26 375,-18 153,9 282,32 373,62 45,15 81,31 105,49 25,17 31,38 29,46z"/>
   <path class="fil12" d="M1703 422c-22,-28 -232,-83 -537,-98 -146,-9 -277,-10 -374,-2 -97,6 -159,26 -172,30 11,-6 73,-27 171,-35 98,-9 229,-9 376,0 307,16 515,75 536,106z"/>
   <path class="fil12" d="M1719 423c-11,-13 -67,-46 -164,-68 -96,-24 -230,-43 -388,-53 -152,-9 -288,-9 -388,3 -101,11 -164,37 -177,43 11,-7 73,-35 175,-48 101,-13 238,-15 390,-6 160,10 293,30 389,56 97,24 152,59 162,73z"/>
   <path class="fil12" d="M788 313c-3,0 -21,12 -53,12 -29,-4 -49,-5 -53,-5 1,-4 26,-7 53,-2 28,1 49,-6 52,-4z"/>
   <path class="fil12" d="M860 308c-3,1 -22,15 -56,10 -29,-8 -52,-8 -55,-10 2,-2 27,-5 57,3 29,4 51,-4 55,-3z"/>
   <path class="fil12" d="M927 309c-3,1 -25,12 -59,7 -31,-14 -52,-15 -56,-16 1,-1 8,-2 19,-2 11,-1 25,8 39,11 31,4 54,-2 58,0z"/>
   <path class="fil12" d="M984 311c-3,1 -26,9 -61,4 -31,-15 -53,-17 -57,-18 2,-3 31,-4 59,10 32,5 56,2 59,4z"/>
   <path class="fil12" d="M1046 309c-3,2 -27,10 -62,3 -31,-13 -55,-16 -58,-19 2,0 8,0 20,0 12,0 25,8 40,11 33,7 56,4 60,5z"/>
   <path class="fil12" d="M1124 312c-3,1 -30,14 -68,3 -35,-13 -59,-25 -64,-24 2,-1 10,-2 22,1 12,3 27,11 44,15 36,10 62,3 66,4z"/>
   <path class="fil12" d="M1184 320c-3,-3 -29,13 -61,-6 -26,-22 -52,-19 -55,-22 1,-1 33,-6 59,16 29,17 55,7 58,13z"/>
   <path class="fil12" d="M1241 323c-2,2 -24,7 -53,-3 -7,-2 -15,-6 -18,-12 -3,-4 -7,-6 -12,-7 -9,-2 -15,-4 -16,-5 2,0 7,-1 17,0 5,0 12,2 16,8 4,5 8,7 15,9 28,9 47,9 51,10z"/>
   <path class="fil12" d="M1314 327c-3,2 -24,6 -53,-1 -14,-1 -28,-11 -32,-18 -6,-6 -13,-7 -14,-8 1,0 8,-2 17,4 8,7 16,12 30,15 29,7 48,7 51,8z"/>
   <path class="fil12" d="M1387 335c-3,2 -28,10 -62,0 -18,-3 -27,-20 -35,-23 -10,-4 -17,-6 -18,-7 2,0 9,0 20,2 13,4 19,18 35,20 33,9 56,6 60,8z"/>
   <path class="fil12" d="M1450 344c-3,0 -29,13 -63,-5 -23,-24 -53,-21 -55,-26 2,-1 9,0 20,1 11,0 28,7 39,19 28,15 56,9 59,11z"/>
   <path class="fil12" d="M1510 352c-1,6 -30,11 -62,-7 -28,-20 -53,-21 -57,-24 2,-1 33,-4 60,17 30,17 55,17 58,14z"/>
   <path class="fil12" d="M1571 366c-3,2 -24,6 -54,-3 -23,-22 -40,-27 -44,-29 1,0 8,-1 17,3 11,1 19,16 30,20 27,8 48,10 51,10z"/>
   <path class="fil12" d="M1609 379c-2,0 -20,6 -43,-8 -14,-20 -30,-21 -33,-23 0,-3 25,-2 38,17 18,11 36,12 38,14z"/>
   <path class="fil12" d="M1651 392c-2,0 -19,5 -40,-9 -11,-21 -27,-21 -29,-24 0,-3 25,-2 34,18 16,12 33,13 35,15z"/>
   <path class="fil0" d="M664 307c-3,-16 -21,-30 -37,-25 -29,9 -56,20 -82,35 -14,8 -18,22 -16,35 -16,10 -31,21 -45,33 -11,-6 -25,-5 -34,5 -90,88 -167,212 -173,342 -1,18 -1,35 -2,53 0,16 -2,39 4,54 16,43 54,26 79,3 17,-16 32,-35 36,-45 28,-65 20,-147 31,-217 8,-53 26,-97 60,-138 11,-14 21,-26 14,-41 13,-11 27,-21 41,-30 8,8 20,11 33,3 21,-12 43,-22 66,-29 17,-5 28,-20 25,-38z"/>
   <path class="fil15" d="M327 602c17,-38 28,-76 53,-110 11,-15 29,-39 49,-38 11,28 -51,97 -65,122 -27,46 -49,90 -62,142 -7,29 -10,56 -12,85l0 -81c3,-46 18,-79 37,-120z"/>
   <path class="fil15" d="M634 290c5,28 -80,54 -90,85l-14 -13c9,-41 68,-67 104,-72z"/>
   <path class="fil12" d="M573 375c-2,1 -8,6 -18,5 -10,0 -23,-9 -28,-25 -7,-16 6,-39 27,-46 18,-10 40,-20 64,-27 25,-14 55,12 50,36 -2,26 -28,32 -42,36 -30,10 -49,21 -53,22 3,-2 21,-15 51,-27 15,-5 35,-11 37,-32 3,-19 -19,-40 -41,-28 -24,7 -45,17 -64,26 -20,7 -29,24 -25,39 9,32 39,24 41,21z"/>
   <path class="fil12" d="M307 866c-6,0 -24,-6 -29,-30 -7,-22 -5,-54 -3,-90 -1,-75 29,-177 99,-274 17,-23 35,-44 53,-64 9,-10 18,-20 31,-26 12,-7 30,-3 38,8 9,10 12,25 6,37 -5,12 -13,20 -21,28 -14,17 -29,31 -40,46 -24,29 -40,56 -52,76 -13,20 -21,32 -23,38 1,-5 8,-19 20,-38 11,-21 26,-49 50,-78 11,-16 26,-30 40,-47 15,-14 31,-38 14,-57 -16,-21 -42,-2 -58,18 -18,20 -36,41 -52,64 -70,96 -99,196 -100,270 -3,37 -6,67 0,89 5,23 21,30 27,30z"/>
   <path class="fil12" d="M542 370c-1,2 -8,10 -20,18 -11,9 -21,14 -23,13 0,-2 7,-11 19,-20 12,-8 22,-12 24,-12z"/>
   <path class="fil12" d="M484 386c0,-2 8,-11 20,-21 13,-9 24,-14 26,-14 0,2 -9,11 -21,20 -12,10 -23,15 -25,15z"/>
   <path class="fil12" d="M430 579c-1,-3 -3,-29 10,-63 12,-32 30,-53 33,-54 0,4 -13,26 -26,57 -13,32 -15,56 -17,60z"/>
   <path class="fil12" d="M463 422c-1,1 -7,2 -14,-1 -7,-2 -12,-6 -12,-8 1,-1 7,-1 14,1 7,2 11,6 12,8z"/>
   <path class="fil12" d="M437 449c-1,1 -8,3 -18,1 -9,-3 -15,-8 -15,-10 2,-1 9,0 17,3 9,1 15,5 16,6z"/>
   <path class="fil12" d="M435 449c0,-2 4,-9 11,-17 7,-8 12,-14 14,-14 1,1 -1,11 -8,19 -8,8 -15,12 -17,11z"/>
   <path class="fil12" d="M637 294c-3,2 -21,8 -46,22 -27,10 -42,20 -44,23 -3,-4 16,-21 41,-30 26,-14 46,-15 49,-15z"/>
   <path class="fil12" d="M291 808c0,-10 -3,-82 32,-178 35,-91 84,-150 89,-157 -2,8 -47,71 -82,160 -35,94 -36,165 -39,175z"/>
   <path class="fil0" d="M1655 364c5,-16 24,-27 40,-21 28,12 54,26 78,44 13,10 15,24 11,36 14,12 28,25 41,38 12,-5 25,-2 34,9 79,97 142,230 132,360 -1,18 -3,35 -5,53 -1,16 -2,39 -10,54 -21,41 -56,20 -79,-6 -15,-18 -28,-38 -31,-49 -20,-68 -3,-148 -6,-219 -2,-53 -15,-99 -44,-144 -9,-15 -18,-28 -9,-43 -12,-12 -24,-24 -37,-35 -9,7 -21,8 -33,-1 -20,-14 -40,-27 -63,-37 -16,-7 -26,-23 -20,-41z"/>
   <path class="fil15" d="M1956 695c-13,-39 -19,-78 -40,-115 -9,-17 -25,-42 -45,-44 -14,26 39,102 51,128 22,49 38,95 46,148 4,29 3,56 2,86l9 -80c2,-46 -9,-81 -23,-123z"/>
   <path class="fil15" d="M1686 350c-8,27 73,63 80,95l15 -11c-5,-42 -60,-74 -95,-83z"/>
   <path class="fil12" d="M1737 442c2,3 31,15 44,-17 6,-15 -1,-32 -20,-41 -17,-12 -37,-23 -60,-33 -20,-14 -44,4 -44,23 -1,21 18,29 33,36 29,15 45,30 48,33 -4,-1 -21,-14 -50,-28 -13,-5 -38,-14 -38,-40 -2,-24 31,-46 54,-30 23,10 44,22 61,35 20,9 30,34 21,49 -7,16 -21,23 -31,22 -10,-1 -15,-6 -17,-7z"/>
   <path class="fil12" d="M1946 960c6,0 23,-5 30,-27 8,-21 9,-52 10,-89 7,-73 -11,-176 -69,-279 -14,-25 -29,-48 -45,-69 -13,-21 -37,-44 -55,-25 -19,17 -7,42 7,58 12,18 25,35 34,51 20,32 33,62 41,84 10,21 15,36 16,41 -1,-5 -7,-18 -18,-39 -9,-21 -22,-50 -43,-82 -9,-17 -22,-33 -35,-51 -6,-9 -14,-18 -18,-30 -4,-12 0,-27 10,-36 9,-10 27,-13 39,-4 12,7 20,19 28,30 16,22 32,45 45,70 59,105 76,210 67,284 -2,37 -4,68 -13,89 -8,23 -27,27 -33,26z"/>
   <path class="fil12" d="M1769 441c2,0 11,5 23,14 10,10 17,19 16,22 -2,0 -12,-6 -22,-16 -11,-10 -17,-18 -18,-20z"/>
   <path class="fil12" d="M1824 462c-2,0 -12,-6 -23,-18 -11,-10 -19,-20 -19,-22 2,0 13,6 24,16 11,11 17,21 18,23z"/>
   <path class="fil12" d="M1856 660c-1,-4 -1,-28 -10,-62 -9,-32 -19,-56 -19,-60 3,2 18,25 26,58 9,35 4,60 2,64z"/>
   <path class="fil12" d="M1842 500c1,-2 5,-5 13,-6 7,-2 13,-1 14,1 0,2 -5,5 -12,7 -7,1 -13,0 -14,-1z"/>
   <path class="fil12" d="M1864 531c1,-1 8,-4 17,-5 8,-2 15,-2 17,-1 0,2 -6,6 -16,8 -10,0 -17,-2 -18,-3z"/>
   <path class="fil12" d="M1866 531c-2,0 -9,-4 -16,-13 -7,-9 -7,-19 -6,-20 2,0 7,7 12,15 6,9 10,16 9,18z"/>
   <path class="fil12" d="M1683 354c3,0 24,4 47,20 23,12 40,30 37,34 -2,-3 -16,-15 -41,-28 -23,-16 -40,-24 -43,-27z"/>
   <path class="fil12" d="M1969 904c-2,-10 5,-81 -19,-178 -24,-93 -62,-159 -63,-168 4,7 46,72 71,166 24,100 12,170 12,180z"/>
   <path class="fil20" d="M1669 1171c-1,25 16,37 38,38l31 2c22,1 40,-9 42,-33l29 -510c1,-25 -16,-37 -38,-38l-31 -2c-22,-1 -40,9 -42,33l-29 510z"/>
   <path class="fil19" d="M1810 1197c13,1 14,-13 14,-17l29 -510c0,-4 1,-18 -12,-19l-18 -1c-13,-1 -14,13 -14,17l-29 510c0,4 -1,18 12,19l18 1z"/>
   <path class="fil18" d="M1806 1197c7,0 8,-13 8,-17l29 -510c0,-4 1,-18 -6,-18l-10 -1c-7,0 -8,13 -8,17l-29 510c0,4 -1,18 6,18l10 1z"/>
   <path class="fil22" d="M1772 739c5,-19 17,-55 14,-74 -3,-16 -14,-29 -26,-10 3,14 -5,18 -6,30 -1,10 4,18 4,28 0,15 -6,25 -9,39 -7,31 9,54 7,84 -2,16 -10,31 -10,48 0,17 13,28 13,45 0,17 -10,36 -15,52 -11,37 -25,83 -14,121 9,32 2,57 2,91 0,7 25,-23 26,-28 5,-15 2,-30 2,-45 0,-14 6,-27 6,-40 0,-14 -10,-23 -13,-36 -3,-13 1,-28 5,-41 8,-29 15,-52 12,-83 -3,-31 11,-51 13,-80 2,-34 -20,-63 -11,-100z"/>
   <path class="fil23" d="M1854 671c1,0 2,0 3,0l22 1c10,1 19,8 23,20 14,23 47,123 41,240 -7,122 -54,221 -69,236 -6,9 -14,15 -24,15l-22 -1c-1,0 -2,0 -3,0l29 -510z"/>
   <path class="fil24" d="M1889 836c-8,3 -9,19 -18,16 -8,-2 -10,-25 -11,-32 -1,-8 -1,-15 -1,-23 0,-19 4,-39 7,-58 9,-52 40,-4 48,20 15,49 31,108 17,159 7,-26 -12,-94 -42,-84z"/>
   <path class="fil24" d="M1857 1016c6,-8 13,-15 19,-23 7,-9 8,-21 10,-32 0,-3 7,-25 7,-25 5,9 1,31 0,42 -1,18 -1,34 -6,51 -3,12 -1,30 -10,40 -7,9 -19,10 -26,1 -17,-21 -7,-39 5,-55z"/>
   <path class="fil15" d="M1818 839c0,-36 -8,-94 7,-128 6,-1 8,2 11,5l-3 15c-1,19 5,111 -15,108z"/>
   <path class="fil15" d="M1820 1050l-12 37c-3,2 -2,4 -5,5 -11,-13 -2,-62 0,-81 17,-1 17,25 16,39z"/>
   <path class="fil12" d="M1823 1181c4,0 15,1 31,0 15,-3 27,-24 38,-47 21,-48 42,-118 47,-202 4,-81 -9,-153 -25,-204 -9,-24 -16,-49 -32,-53 -16,-3 -27,-3 -31,-4 4,0 14,-1 31,0 20,3 28,30 38,54 18,52 33,125 28,207 -6,86 -28,156 -51,204 -12,23 -24,45 -43,47 -17,0 -27,-2 -32,-3z"/>
   <path class="fil12" d="M1685 898c0,-19 3,-93 9,-208 2,-14 -1,-29 6,-46 8,-16 29,-22 45,-20 16,2 35,-2 53,10 19,12 15,38 14,55 -4,76 -9,161 -14,253 -6,88 -8,170 -16,248 -7,22 -33,28 -50,25 -17,-2 -37,1 -53,-11 -17,-13 -13,-35 -12,-49 1,-16 2,-31 3,-46 8,-117 13,-194 15,-211 0,16 -3,93 -9,210 -1,15 -1,30 -2,46 -1,16 -4,33 9,43 12,10 30,8 48,10 17,2 37,-2 42,-19 7,-73 10,-159 15,-246 5,-92 10,-177 15,-254 2,-19 4,-38 -11,-47 -13,-9 -32,-7 -49,-8 -16,-2 -32,3 -38,16 -5,13 -4,29 -5,43 -8,114 -13,187 -15,207z"/>
   <path class="fil12" d="M1794 925c0,-17 3,-81 7,-182 1,-25 2,-52 5,-82 0,-9 13,-16 20,-14 8,1 15,-1 25,4 13,19 3,34 5,51 -3,67 -8,141 -12,221 -4,77 -9,150 -13,216 -1,17 -1,32 -4,49 -1,11 -17,14 -23,12 -7,-2 -16,2 -24,-6 -9,-34 1,-59 0,-85 7,-102 12,-170 14,-185 0,14 -2,81 -7,184 0,24 -6,57 -1,80 2,4 11,3 18,4 9,1 13,1 15,-6 2,-13 2,-31 3,-48 4,-67 8,-140 12,-217 5,-81 9,-155 13,-222 0,-15 6,-36 -2,-43 -10,-2 -33,-8 -33,6 -2,28 -4,56 -6,81 -7,100 -12,164 -13,181z"/>
   <path class="fil12" d="M1861 1166c1,-14 18,-103 32,-232 11,-125 1,-222 0,-234 4,10 19,109 8,235 -14,131 -35,219 -39,232z"/>
   <path class="fil12" d="M1805 679c-3,-1 -9,-14 -26,-22 -17,-7 -32,-7 -34,-9 1,-1 18,-6 37,2 21,10 23,28 23,29z"/>
   <path class="fil12" d="M1807 700c-3,-1 -10,-11 -27,-15 -16,-4 -30,-4 -31,-6 1,-1 15,-6 34,-1 20,6 25,21 25,23z"/>
   <path class="fil12" d="M1805 730c-2,-1 -11,-11 -30,-16 -17,-6 -32,-8 -33,-10 2,-1 17,-3 36,3 20,7 28,22 27,24z"/>
   <path class="fil12" d="M1721 733c2,-2 19,-1 42,0 22,2 37,-6 40,-6 0,2 -16,15 -40,13 -24,-2 -39,-6 -41,-8z"/>
   <path class="fil12" d="M1732 754c2,-1 19,-1 40,8 22,9 27,31 24,32 -2,-2 -8,-17 -28,-25 -20,-9 -35,-13 -37,-15z"/>
   <path class="fil12" d="M1736 805c2,-2 15,-2 33,-3 16,-2 27,-11 30,-10 0,2 -9,15 -29,18 -20,1 -32,-3 -34,-4z"/>
   <path class="fil12" d="M1734 837c2,-2 15,-5 34,-7 19,-2 28,-10 30,-12 3,2 -8,18 -28,19 -20,2 -33,1 -35,0z"/>
   <path class="fil12" d="M1749 866c3,0 14,1 28,-9 13,-9 20,-20 22,-21 2,2 -2,17 -18,28 -16,12 -33,5 -32,3z"/>
   <path class="fil12" d="M1726 898c2,-3 26,-1 48,-14 18,-19 20,-43 22,-45 1,2 5,28 -17,51 -29,17 -50,7 -53,8z"/>
   <path class="fil12" d="M1717 939c2,-1 17,-7 38,-6 21,2 36,7 38,9 -2,2 -18,1 -38,-1 -21,-1 -35,-1 -38,-2z"/>
   <path class="fil12" d="M1742 959c2,-2 11,-3 25,-6 13,-3 24,-3 26,-2 -1,2 -11,7 -24,9 -15,2 -25,-1 -26,-2z"/>
   <path class="fil12" d="M1726 989c3,-1 18,3 36,-8 17,-10 27,-23 30,-24 0,2 -7,19 -26,30 -21,12 -39,3 -40,1z"/>
   <path class="fil12" d="M1784 1105c-2,-3 -5,-25 -21,-51 -16,-25 -42,-26 -44,-28 1,-2 32,-6 50,23 17,29 15,52 14,55z"/>
   <path class="fil12" d="M1782 1108c-3,-1 -7,-20 -19,-37 -14,-14 -36,-16 -36,-20 2,1 22,-3 42,15 15,22 13,40 13,42z"/>
   <path class="fil12" d="M1778 1142c-2,-2 -4,-18 -20,-31 -15,-13 -32,-16 -33,-18 1,-1 21,-3 38,12 19,16 16,36 15,37z"/>
   <path class="fil12" d="M1715 1151c2,-2 16,-4 34,-5 17,-2 29,-11 31,-10 0,2 -10,15 -30,18 -20,2 -33,-1 -35,-2z"/>
   <path class="fil12" d="M1730 1188c0,-3 14,-6 25,-14 11,-10 16,-21 19,-22 1,1 -1,16 -13,28 -17,12 -28,7 -30,9z"/>
   <path class="fil12" d="M1745 1018c2,-2 10,-1 22,-3 11,-2 17,-7 19,-7 1,1 -4,13 -18,15 -14,2 -22,-4 -23,-5z"/>
   <path class="fil12" d="M1751 912c2,-1 12,-2 26,4 15,7 16,22 14,23 -2,-1 -7,-10 -18,-16 -12,-5 -22,-9 -23,-11z"/>
   <path class="fil20" d="M557 1108c-1,25 -20,35 -42,33l-31 -2c-22,-1 -39,-13 -38,-38l29 -510c1,-25 20,-35 42,-33l31 2c22,1 39,13 38,38l-29 510z"/>
   <path class="fil19" d="M415 1118c-13,-1 -13,-14 -12,-19l29 -510c0,-4 1,-18 14,-17l18 1c13,1 13,14 12,19l-29 510c0,4 -1,18 -14,17l-18 -1z"/>
   <path class="fil18" d="M419 1118c-7,0 -6,-14 -6,-18l29 -510c0,-4 1,-18 8,-17l10 1c7,0 6,14 6,18l-29 510c0,4 -1,18 -8,17l-10 -1z"/>
   <path class="fil22" d="M504 666c-2,-20 -10,-57 -5,-75 4,-16 17,-27 27,-7 -5,13 3,19 2,30 -1,10 -6,17 -8,27 -2,15 3,25 5,39 3,31 -15,52 -16,83 0,16 7,32 4,48 -2,16 -16,27 -18,44 -2,17 6,37 9,53 7,38 16,85 0,121 -13,31 -9,57 -12,90 -1,7 -22,-26 -23,-31 -3,-16 2,-30 3,-45 1,-14 -3,-27 -2,-41 2,-14 13,-21 17,-34 4,-13 2,-28 0,-41 -5,-30 -9,-53 -3,-84 7,-30 -5,-52 -3,-81 1,-35 27,-61 22,-98z"/>
   <path class="fil23" d="M431 589c-1,0 -2,0 -3,0l-22 -1c-10,-1 -20,6 -25,17 -16,21 -61,116 -68,234 -7,122 28,226 42,242 5,10 13,17 22,17l22 1c1,0 2,0 3,0l29 -510z"/>
   <path class="fil24" d="M378 749c7,3 6,19 16,18 8,-1 13,-24 14,-30 2,-7 3,-15 4,-23 2,-19 1,-39 0,-58 -3,-53 -40,-9 -50,15 -20,47 -43,103 -35,156 -4,-26 23,-92 51,-78z"/>
   <path class="fil24" d="M388 932c-5,-9 -11,-17 -16,-25 -6,-9 -6,-22 -6,-33 0,-3 -4,-26 -4,-26 -6,8 -4,31 -5,42 -1,18 -3,34 0,52 2,13 -2,30 5,41 6,9 18,12 26,4 19,-18 12,-38 1,-56z"/>
   <path class="fil15" d="M448 761c4,-36 18,-93 7,-128 -6,-1 -8,1 -12,4l2 15c-1,19 -18,110 3,109z"/>
   <path class="fil15" d="M422 970l7 38c3,2 1,4 4,6 13,-12 9,-62 9,-80 -17,-3 -20,23 -21,36z"/>
   <path class="fil12" d="M404 1099c-5,0 -15,1 -32,-1 -18,-5 -28,-28 -37,-52 -18,-50 -32,-123 -28,-208 5,-82 28,-153 52,-202 13,-23 23,-48 43,-49 17,0 28,2 32,3 -4,1 -15,0 -31,0 -16,1 -26,25 -38,48 -22,49 -43,120 -48,200 -4,85 9,156 24,206 8,24 17,47 32,51 15,3 27,3 31,4z"/>
   <path class="fil12" d="M573 834c0,-19 3,-93 9,-208 0,-14 3,-30 -1,-43 -5,-13 -21,-20 -37,-20 -17,0 -35,-5 -49,3 -16,7 -15,27 -16,46 -4,76 -9,161 -14,253 -4,87 -11,173 -13,246 3,17 21,24 39,24 18,0 36,5 49,-4 14,-8 14,-25 15,-41 1,-16 2,-31 3,-46 8,-117 13,-194 15,-211 0,16 -3,93 -9,210 -1,15 -1,30 -2,46 -1,14 1,36 -17,48 -17,11 -37,6 -54,6 -17,1 -43,-7 -48,-30 0,-78 8,-160 12,-249 5,-92 10,-177 15,-254 1,-17 0,-43 21,-52 19,-9 37,-3 53,-3 17,0 37,8 42,25 4,17 0,32 0,46 -8,114 -13,187 -15,207z"/>
   <path class="fil12" d="M462 849c0,-17 3,-81 7,-182 1,-25 3,-53 4,-81 2,-13 -23,-10 -32,-9 -7,7 -4,28 -6,44 -3,67 -8,141 -12,221 -4,77 -9,150 -13,216 -1,16 -3,34 -2,48 1,7 5,8 14,8 8,0 16,2 19,-1 8,-22 5,-55 8,-79 7,-102 12,-170 14,-185 0,14 -2,81 -7,184 -3,26 2,52 -9,85 -9,8 -18,4 -25,4 -6,1 -21,-2 -22,-14 -1,-18 1,-33 2,-50 4,-67 8,-140 12,-217 5,-81 9,-155 13,-222l2 -25c1,-7 0,-19 10,-25 11,-4 17,-1 25,-1 8,-2 19,8 18,17 -1,30 -3,57 -5,82 -7,100 -12,164 -13,181z"/>
   <path class="fil12" d="M368 1081c-3,-13 -14,-104 -13,-235 4,-126 29,-222 35,-232 -2,11 -23,107 -27,233 -1,131 5,221 5,234z"/>
   <path class="fil12" d="M478 604c0,-2 4,-19 26,-26 20,-6 36,1 37,2 -2,2 -17,0 -35,5 -18,6 -26,18 -29,19z"/>
   <path class="fil12" d="M475 624c0,-1 7,-16 27,-20 19,-2 32,4 33,5 -2,2 -16,0 -32,2 -17,3 -26,12 -28,12z"/>
   <path class="fil12" d="M473 654c0,-2 9,-16 30,-20 19,-4 34,0 36,1 -2,2 -17,3 -34,6 -19,4 -29,12 -31,13z"/>
   <path class="fil12" d="M556 666c-3,1 -18,4 -42,3 -24,-1 -38,-15 -38,-18 3,0 17,9 39,10 23,1 39,3 41,5z"/>
   <path class="fil12" d="M543 686c-2,2 -18,4 -38,10 -20,6 -28,20 -30,22 -2,-2 5,-23 28,-29 23,-7 39,-4 41,-3z"/>
   <path class="fil12" d="M533 736c-2,1 -15,4 -34,1 -19,-5 -27,-19 -27,-21 3,0 13,10 29,14 17,3 30,5 32,7z"/>
   <path class="fil12" d="M531 769c-2,1 -16,1 -35,-4 -20,-3 -29,-20 -26,-22 2,2 10,11 28,15 18,5 31,9 33,11z"/>
   <path class="fil12" d="M513 795c0,2 -17,7 -32,-7 -14,-12 -16,-28 -15,-30 2,1 7,13 20,24 13,12 24,12 27,12z"/>
   <path class="fil12" d="M532 829c-3,-2 -25,5 -52,-14 -20,-25 -12,-51 -11,-52 2,2 0,26 17,47 21,16 45,16 46,20z"/>
   <path class="fil12" d="M537 871c-3,1 -17,-1 -38,-2 -20,-1 -36,-2 -38,-3 2,-2 18,-5 39,-4 22,1 36,8 38,10z"/>
   <path class="fil12" d="M510 889c-1,1 -12,3 -26,-1 -13,-4 -22,-10 -23,-12 2,-1 13,1 25,5 13,4 23,7 24,8z"/>
   <path class="fil12" d="M522 920c-1,1 -19,9 -39,-6 -18,-14 -23,-31 -23,-33 3,1 12,15 27,27 17,13 32,11 35,12z"/>
   <path class="fil12" d="M452 1029c0,-3 0,-27 21,-53 21,-27 52,-19 53,-18 -2,2 -29,-1 -47,23 -18,24 -24,46 -26,48z"/>
   <path class="fil12" d="M453 1031c1,-2 1,-20 18,-41 22,-16 41,-9 43,-10 0,4 -22,4 -38,16 -14,16 -20,34 -23,35z"/>
   <path class="fil12" d="M453 1066c-1,-1 -1,-21 19,-35 19,-13 38,-9 40,-8 -2,2 -19,3 -35,14 -18,12 -21,27 -23,29z"/>
   <path class="fil12" d="M514 1083c-2,1 -15,2 -35,-2 -20,-5 -28,-20 -28,-21 3,0 13,10 30,14 18,4 32,7 33,9z"/>
   <path class="fil12" d="M495 1118c-2,-2 -14,1 -29,-12 -12,-13 -11,-28 -10,-29 2,1 6,13 16,24 9,9 24,14 23,17z"/>
   <path class="fil12" d="M499 947c-1,1 -10,5 -23,2 -14,-4 -17,-16 -16,-17 3,0 8,7 18,10 11,3 20,4 21,5z"/>
   <path class="fil12" d="M506 841c-1,2 -12,4 -24,8 -12,4 -17,13 -20,14 -1,-1 2,-15 17,-21 15,-5 25,-2 27,-1z"/>
  </g>
 </g>
</svg>
