<?xml version="1.0" encoding="utf-8"?>
<!-- Generator: Adobe Illustrator 24.2.3, SVG Export Plug-In . SVG Version: 6.00 Build 0)  -->
<svg version="1.1" id="Layer_1" xmlns="http://www.w3.org/2000/svg" xmlns:xlink="http://www.w3.org/1999/xlink" x="0px" y="0px"
	 viewBox="0 0 400 400" style="enable-background:new 0 0 400 400;" xml:space="preserve">
<style type="text/css">
	.st0{fill:#FFFFFF;stroke:#FFFFFF;stroke-miterlimit:10;}
</style>
<g>
	<path class="st0" d="M160.3,215.1c5.2,8.7,12.1,22.7,13.7,40.6c2.9,31.6-13.2,46.9-2.7,67.5c5.7,11.2,18.6,22.7,32.2,21.8
		c12.6-0.9,22.5-12.3,26.7-22.1c9.2-21.2-7.8-35.9-7.1-66.8c0.4-17.8,6.5-32.1,11.4-41.3c19.9,0.1,39.8,0.2,59.6,0.4
		c7.2-12.3,14.4-24.6,21.6-36.9c-76.8,0-153.6,0-230.3,0c7.3,12.9,14.7,25.8,22,38.7C125,216.4,142.7,215.7,160.3,215.1z"/>
	<polygon class="st0" points="275.7,131.8 85.8,77.5 85.8,173.4 316.1,173.4 	"/>
</g>
</svg>
