<?xml version="1.0" encoding="UTF-8"?>
<!DOCTYPE svg PUBLIC "-//W3C//DTD SVG 1.1//EN" "http://www.w3.org/Graphics/SVG/1.1/DTD/svg11.dtd">
<!-- Creator: CorelDRAW 2019 (64-Bit) -->
<svg xmlns="http://www.w3.org/2000/svg" xml:space="preserve" width="150mm" height="150mm" version="1.1" style="shape-rendering:geometricPrecision; text-rendering:geometricPrecision; image-rendering:optimizeQuality; fill-rule:evenodd; clip-rule:evenodd"
viewBox="0 0 15000 15000"
 xmlns:xlink="http://www.w3.org/1999/xlink">
 <defs>
  <style type="text/css">
   <![CDATA[
    .str0 {stroke:#FEFEFE;stroke-width:20;stroke-miterlimit:22.9256}
    .fil0 {fill:none}
    .fil1 {fill:#FEFEFE;fill-rule:nonzero}
   ]]>
  </style>
 </defs>
 <g id="Layer_x0020_1">
  <metadata id="CorelCorpID_0Corel-Layer"/>
  <rect class="fil0" x="-17.74" y="-14.81" width="15032.53" height="15032.53"/>
  <path class="fil1 str0" d="M9923.6 9985.52l-266.13 238.83c-71.94,54.82 -156.86,118.12 -248.87,177.13 -106.49,73.38 -215.83,136.51 -322.32,187.04 -482.08,253.24 -1033.13,388.48 -1591.36,388.48l-8.64 0c-569.73,-1.46 -1110.71,-138.14 -1610,-405.77l-315.1 -188.47c-92.1,-60.56 -162.57,-112.24 -224.45,-164.03l-2.89 -1.43 -28.75 -20.15 -240.27 -220.12 -15.87 -15.98c-666.1,-664.6 -1031.62,-1542.25 -1027.29,-2473.18 1.47,-202.86 20.15,-394.22 56.12,-585.59 20.15,-131.08 46.09,-249.07 79.16,-359.68 21.58,-74.84 50.33,-154.13 76.23,-228.81l15.78 -43.15c50.41,-138.14 100.78,-247.48 158.33,-348.18 503.58,-1001.44 1473.32,-1699.23 2591.33,-1860.54 116.48,-18.56 237.37,-28.63 355.32,-30.06 38.87,-4.48 79.16,-5.91 120.88,-5.91 0,0 35.98,-1.31 37.45,-1.31 56.07,0 104.98,1.31 158.24,8.65 90.63,1.43 202.79,11.5 351.04,31.65 1113.64,169.91 2079.1,874.8 2585.49,1886.27 64.81,130.96 112.28,238.84 146.79,340.88 38.87,84.88 66.23,185.74 90.66,279.26 38.91,126.64 66.2,251.81 80.6,364.01 30.22,172.52 47.43,369.8 48.9,576.99 -4.33,940.95 -376.94,1818.65 -1050.38,2473.17zm-2410 -6647.17c-2293.47,-10.07 -4169.63,1850.18 -4178.23,4143.77 -10.12,2296.33 1850.34,4174 4146.62,4182.48 2292.05,8.77 4168.16,-1850.18 4179.71,-4146.5 7.26,-2294.9 -1851.69,-4171.1 -4148.1,-4179.75z"/>
  <path class="fil1 str0" d="M9661.1 9653.92l-1113.64 -1828.72 1968.29 -788.63c27.33,156.86 37.4,318.13 35.97,476.42 -1.46,811.46 -318,1571.16 -890.62,2140.93zm-266.17 243.16c-70.59,51.8 -136.71,105.02 -217.34,156.82 -1.39,0 -2.85,2.9 -4.24,5.75l-1151.08 -1592.74c84.87,-46.05 162.61,-103.59 231.62,-169.79l1145.33 1594.05c-1.39,3.02 -1.39,3.02 -4.29,5.91zm-1906.42 660.44c-489.17,-2.9 -956.82,-118 -1378.37,-338.15l1374.01 -1620.11 1378.38 1633.08c-422.99,217.26 -889.12,325.18 -1374.02,325.18zm-1687.73 -519.44l-8.64 -8.61c-73.42,-44.62 -143.89,-97.84 -201.44,-146.62l-12.97 -10.24 1156.75 -1584.14c67.66,67.5 145.4,125.21 228.88,169.79l-1162.58 1579.82zm-486.32 -405.73c-564.06,-576.83 -874.8,-1335.23 -871.94,-2143.84 1.46,-156.81 17.25,-312.21 41.76,-471.92l20.07 7.06 1945.28 798.65 -1135.17 1810.05zm-751.06 -2972.59c21.54,-82.02 50.37,-164.04 80.55,-244.59 1.39,-1.59 2.9,-8.64 5.8,-11.5l1866.04 615.77c-43.07,83.49 -73.33,173.99 -93.44,267.64l-1863.27 -615.82c1.43,-2.85 2.85,-7.34 4.32,-11.5zm2454.58 -2174.05l-153.93 2120.83 0 1.42 -1.47 0 -2064.7 -526.61c450.31,-851.76 1273.35,-1446 2220.1,-1595.64zm-250.38 2925.11c-87.73,0 -159.68,-70.52 -159.68,-158.41 0,-89.08 71.95,-159.55 159.68,-159.55 87.85,0 159.79,70.47 159.79,159.55 0,87.89 -71.94,158.41 -159.79,158.41zm276.27 545.3c87.81,0 159.76,70.51 159.76,159.59 0,87.89 -71.95,158.41 -159.76,158.41 -87.77,0 -159.71,-70.52 -159.71,-158.41 0,-89.08 71.94,-159.59 159.71,-159.59zm454.68 -896.5c244.63,0 443.13,198.7 443.13,443.29 0,243.16 -198.5,441.7 -443.13,441.7 -243.16,0 -441.67,-198.54 -441.67,-441.7 0,-244.59 198.51,-443.29 441.67,-443.29zm0 -506.35c89.24,0 159.63,70.52 159.63,159.59 0,87.89 -70.39,158.41 -159.63,158.41 -87.77,0 -159.72,-70.52 -159.72,-158.41 0,-89.07 71.95,-159.59 159.72,-159.59zm-133.78 -2100.64c11.46,-2.89 22.96,-4.32 33.08,-4.32 30.18,-1.59 58.97,-1.59 90.66,-1.59l43.11 0c28.84,0 61.88,0 113.71,5.91l5.71 0 -7.18 1962.54c-47.43,-7.22 -96.37,-10.07 -145.31,-10.07 -48.94,0 -96.42,2.85 -143.89,10.07l10.11 -1962.54zm751.02 3663.08c0,87.89 -70.48,158.41 -159.67,158.41 -87.77,0 -159.72,-70.52 -159.72,-158.41 0,-89.08 71.95,-159.59 159.72,-159.59 89.19,0 159.67,70.51 159.67,159.59zm279.13 -863.3c0,87.89 -71.94,158.41 -159.67,158.41 -87.81,0 -159.76,-70.52 -159.76,-158.41 0,-89.08 71.95,-159.55 159.76,-159.55 87.73,0 159.67,70.47 159.67,159.55zm1818.69 -1152.34l-2071.88 512.22 -141.04 -2120.83c946.75,153.96 1765.43,755.38 2212.92,1608.61zm149.6 346.75c33.12,79.12 59.02,166.89 79.13,241.57 0,3.02 0,3.02 1.47,5.92l-1869.02 598.68c-17.34,-93.68 -47.52,-182.88 -87.77,-266.33l1868.93 -601.58c2.94,8.77 2.94,12.97 7.26,21.74zm420.13 506.31c-14.39,-114.98 -43.11,-232.93 -77.69,-345.17 -23.01,-90.62 -47.48,-181.29 -86.39,-267.75 -38.82,-110.65 -87.72,-218.57 -139.48,-323.75 -474.86,-948.01 -1389.92,-1642.95 -2476.23,-1808.58 -116.48,-15.66 -234.52,-28.63 -349.61,-31.49 -47.52,-5.91 -92.14,-7.22 -139.61,-7.22 -51.76,1.31 -100.7,0 -148.17,7.22 -116.48,1.43 -234.48,11.5 -346.76,28.76 -1087.78,156.69 -2009.97,843.15 -2486.22,1789.89 -60.44,105.03 -106.53,211.52 -148.29,323.72 -30.14,86.34 -63.26,176.96 -89.12,266.2 -33.12,110.77 -57.55,225.87 -76.27,343.7 -34.5,184.47 -51.75,368.49 -53.22,559.85 -4.33,926.44 376.93,1765.27 985.53,2371.17l11.58 11.5 240.19 220.16 10.11 4.28c70.52,60.45 148.22,115.14 223.02,164.04l307.96 185.61c458.96,246.02 981.25,387.06 1542.34,388.48 553.98,1.43 1077.7,-132.39 1538.04,-374.08 106.58,-50.37 210.17,-112.24 306.55,-178.43 80.59,-51.8 156.81,-107.92 230.23,-164.16l261.84 -234.23c615.77,-598.69 1002.82,-1438.82 1007.15,-2368.44 -1.43,-190.06 -15.79,-378.4 -47.48,-561.28z"/>
  <path class="fil1 str0" d="M9661.1 9653.92l-1113.64 -1828.72 1968.29 -788.63c27.33,156.86 37.4,318.13 35.97,476.42 -1.46,811.46 -318,1571.16 -890.62,2140.93zm-266.17 243.16c-70.59,51.8 -136.71,105.02 -217.34,156.82 -1.39,0 -2.85,2.9 -4.24,5.75l-1151.08 -1592.74c84.87,-46.05 162.61,-103.59 231.62,-169.79l1145.33 1594.05c-1.39,3.02 -1.39,3.02 -4.29,5.91zm-1906.42 660.44c-489.17,-2.9 -956.82,-118 -1378.37,-338.15l1374.01 -1620.11 1378.38 1633.08c-422.99,217.26 -889.12,325.18 -1374.02,325.18zm-1687.73 -519.44l-8.64 -8.61c-73.42,-44.62 -143.89,-97.84 -201.44,-146.62l-12.97 -10.24 1156.75 -1584.14c67.66,67.5 145.4,125.21 228.88,169.79l-1162.58 1579.82zm-486.32 -405.73c-564.06,-576.83 -874.8,-1335.23 -871.94,-2143.84 1.46,-156.81 17.25,-312.21 41.76,-471.92l20.07 7.06 1945.28 798.65 -1135.17 1810.05zm-751.06 -2972.59c21.54,-82.02 50.37,-164.04 80.55,-244.59 1.39,-1.59 2.9,-8.64 5.8,-11.5l1866.04 615.77c-43.07,83.49 -73.33,173.99 -93.44,267.64l-1863.27 -615.82c1.43,-2.85 2.85,-7.34 4.32,-11.5zm2454.58 -2174.05l-153.93 2120.83 0 1.42 -1.47 0 -2064.7 -526.61c450.31,-851.76 1273.35,-1446 2220.1,-1595.64zm-250.38 2925.11c-87.73,0 -159.68,-70.52 -159.68,-158.41 0,-89.08 71.95,-159.55 159.68,-159.55 87.85,0 159.79,70.47 159.79,159.55 0,87.89 -71.94,158.41 -159.79,158.41zm276.27 545.3c87.81,0 159.76,70.51 159.76,159.59 0,87.89 -71.95,158.41 -159.76,158.41 -87.77,0 -159.71,-70.52 -159.71,-158.41 0,-89.08 71.94,-159.59 159.71,-159.59zm454.68 -896.5c244.63,0 443.13,198.7 443.13,443.29 0,243.16 -198.5,441.7 -443.13,441.7 -243.16,0 -441.67,-198.54 -441.67,-441.7 0,-244.59 198.51,-443.29 441.67,-443.29zm0 -506.35c89.24,0 159.63,70.52 159.63,159.59 0,87.89 -70.39,158.41 -159.63,158.41 -87.77,0 -159.72,-70.52 -159.72,-158.41 0,-89.07 71.95,-159.59 159.72,-159.59zm-133.78 -2100.64c11.46,-2.89 22.96,-4.32 33.08,-4.32 30.18,-1.59 58.97,-1.59 90.66,-1.59l43.11 0c28.84,0 61.88,0 113.71,5.91l5.71 0 -7.18 1962.54c-47.43,-7.22 -96.37,-10.07 -145.31,-10.07 -48.94,0 -96.42,2.85 -143.89,10.07l10.11 -1962.54zm751.02 3663.08c0,87.89 -70.48,158.41 -159.67,158.41 -87.77,0 -159.72,-70.52 -159.72,-158.41 0,-89.08 71.95,-159.59 159.72,-159.59 89.19,0 159.67,70.51 159.67,159.59zm279.13 -863.3c0,87.89 -71.94,158.41 -159.67,158.41 -87.81,0 -159.76,-70.52 -159.76,-158.41 0,-89.08 71.95,-159.55 159.76,-159.55 87.73,0 159.67,70.47 159.67,159.55zm1818.69 -1152.34l-2071.88 512.22 -141.04 -2120.83c946.75,153.96 1765.43,755.38 2212.92,1608.61zm149.6 346.75c33.12,79.12 59.02,166.89 79.13,241.57 0,3.02 0,3.02 1.47,5.92l-1869.02 598.68c-17.34,-93.68 -47.52,-182.88 -87.77,-266.33l1868.93 -601.58c2.94,8.77 2.94,12.97 7.26,21.74zm420.13 506.31c-14.39,-114.98 -43.11,-232.93 -77.69,-345.17 -23.01,-90.62 -47.48,-181.29 -86.39,-267.75 -38.82,-110.65 -87.72,-218.57 -139.48,-323.75 -474.86,-948.01 -1389.92,-1642.95 -2476.23,-1808.58 -116.48,-15.66 -234.52,-28.63 -349.61,-31.49 -47.52,-5.91 -92.14,-7.22 -139.61,-7.22 -51.76,1.31 -100.7,0 -148.17,7.22 -116.48,1.43 -234.48,11.5 -346.76,28.76 -1087.78,156.69 -2009.97,843.15 -2486.22,1789.89 -60.44,105.03 -106.53,211.52 -148.29,323.72 -30.14,86.34 -63.26,176.96 -89.12,266.2 -33.12,110.77 -57.55,225.87 -76.27,343.7 -34.5,184.47 -51.75,368.49 -53.22,559.85 -4.33,926.44 376.93,1765.27 985.53,2371.17l11.58 11.5 240.19 220.16 10.11 4.28c70.52,60.45 148.22,115.14 223.02,164.04l307.96 185.61c458.96,246.02 981.25,387.06 1542.34,388.48 553.98,1.43 1077.7,-132.39 1538.04,-374.08 106.58,-50.37 210.17,-112.24 306.55,-178.43 80.59,-51.8 156.81,-107.92 230.23,-164.16l261.84 -234.23c615.77,-598.69 1002.82,-1438.82 1007.15,-2368.44 -1.43,-190.06 -15.79,-378.4 -47.48,-561.28z"/>
 </g>
</svg>
