<?xml version="1.0" encoding="UTF-8"?>
<!DOCTYPE svg PUBLIC "-//W3C//DTD SVG 1.1//EN" "http://www.w3.org/Graphics/SVG/1.1/DTD/svg11.dtd">
<!-- Creator: CorelDRAW 2017 -->
<svg xmlns="http://www.w3.org/2000/svg" xml:space="preserve" width="191mm" height="160mm" version="1.1" style="shape-rendering:geometricPrecision; text-rendering:geometricPrecision; image-rendering:optimizeQuality; fill-rule:evenodd; clip-rule:evenodd"
viewBox="0 0 19100 16000"
 xmlns:xlink="http://www.w3.org/1999/xlink">
 <defs>
  <style type="text/css">
   <![CDATA[
    .fil2 {fill:#FEFEFE}
    .fil1 {fill:#373435}
    .fil0 {fill:#00B3E3}
   ]]>
  </style>
 </defs>
 <g id="Layer_x0020_1">
  <metadata id="CorelCorpID_0Corel-Layer"/>
  <g id="_2428731955200">
   <path class="fil0" d="M5353.79 550.37l8099.72 0c183.35,0 333.62,150.16 333.62,333.66l0 7918.31c0,183.58 -150.27,333.59 -333.62,333.59l-8099.72 0c-183.46,0 -333.55,-150.01 -333.55,-333.59l0 -7918.31c0,-183.5 150.09,-333.66 333.55,-333.66z"/>
   <path class="fil1" d="M3845.25 10345l1233.22 11.87c368.61,3.38 669.19,266.14 688.89,684.71 19.74,418.68 -201.33,876.55 -892.94,899.89l-413.72 0.14 -5.7 827.3 -600.75 0 -9 -2423.91zm615.45 465.66l2.76 672.94c99.32,7.39 360.6,-3.64 440.59,-4.59 401.95,-4.6 410.74,-658.54 15.8,-668.35l-459.15 0z"/>
   <path class="fil1" d="M7155.74 10328.02c733.96,0 1329.09,575.82 1329.09,1285.85 0,710 -595.13,1285.64 -1329.09,1285.64 -733.89,0 -1329.23,-575.64 -1329.23,-1285.64 0,-710.03 595.34,-1285.85 1329.23,-1285.85zm2.9 482.64c463.09,0 708.45,359.68 708.45,803.21 0,443.61 -234,791.86 -708.45,803.29 -474.44,11.36 -713.96,-359.68 -713.96,-803.29 0,-443.53 250.77,-803.21 713.96,-803.21z"/>
   <path class="fil1" d="M14020.8 10271.26c734,0 1329.2,575.9 1329.2,1285.9 0,710.03 -595.2,1285.78 -1329.2,1285.78 -733.77,0 -1329.23,-575.75 -1329.23,-1285.78 0,-710 595.46,-1285.9 1329.23,-1285.9zm2.87 482.46c463.34,0 708.56,359.9 708.56,803.32 0,443.54 -233.93,792.01 -708.56,803.26 -474.48,11.54 -714.15,-359.72 -714.15,-803.26 0,-443.42 251.03,-803.32 714.15,-803.32z"/>
   <path class="fil1" d="M8640.17 10339.34l1233.18 11.72c368.54,3.53 668.86,266.95 688.75,686.51 13.97,295.39 -91.64,580.68 -396.63,731.76l2.83 1.72 799.25 1003.74 -793.62 -5.92 -647.36 -888.13 -271.1 1.88 -5.62 886.25 -600.9 0 -8.78 -2429.53zm618.06 460.07l0 677.39c99.25,7.46 360.68,4.56 440.63,3.82 402.06,-4.7 413.53,-671.03 18.56,-681.21l-459.19 0z"/>
   <polygon class="fil1" points="10666.97,10342.24 12792.4,10342.24 12792.4,10864.51 12038.55,10864.51 12038.55,12771.92 11426.41,12771.92 11426.41,10864.51 10666.97,10864.51 "/>
   <path class="fil1" d="M14108.73 13278.16c618.17,0 1119.49,484.92 1119.49,1082.81 0,597.73 -501.32,1082.72 -1119.49,1082.72 -617.88,0 -1119.05,-484.99 -1119.05,-1082.72 0,-597.89 501.17,-1082.81 1119.05,-1082.81zm2.46 406.33c390.09,0 596.78,302.79 596.78,676.48 0,373.43 -196.99,666.87 -596.78,676.28 -399.53,9.63 -601.37,-302.85 -601.37,-676.28 0,-373.69 211.69,-676.48 601.37,-676.48z"/>
   <path class="fil1" d="M11201.52 13291.4l1082.98 10.1c323.7,3.13 587.7,234.49 604.98,602.96 12.39,259.55 -80.39,510.1 -348.4,642.91l2.65 1.58 702.09 881.44 -697.09 -5.11 -568.96 -780.17 -237.86 1.69 -4.96 778.48 -527.79 0 -7.64 -2133.88zm542.59 404.05l0 594.83c87.45,6.65 317.05,4.26 387.15,3.56 353.14,-4.22 363.32,-589.42 16.43,-598.39l-403.58 0z"/>
   <path class="fil1" d="M5127.58 13863.91l198.31 -411.55c0,0 -487.46,-275.5 -969.18,-144.97 -481.84,130.64 -666.14,766.38 -258.09,1047.47 408.17,281.06 734.63,220.11 708.46,465.44 -37.17,351.09 -635.42,122.08 -901.4,2.91l-155.68 425.77c0,0 243.72,153.25 688.68,195.85 445.04,42.64 874.09,-201.51 889.86,-635.89 26.28,-730.28 -1107.99,-571.89 -902.47,-997.08 89.69,-185.44 434.97,-76.93 701.51,52.05z"/>
   <polygon class="fil1" points="6898.54,13341.76 6898.54,13790.21 6065.4,13790.21 6065.4,14116.04 6824.87,14116.04 6824.87,14564.54 6065.4,14564.54 6065.4,14929.77 6960.95,14929.77 6960.95,15378.26 5532.73,15379.99 5532.73,13341.76 "/>
   <path class="fil1" d="M8706.7 13850.9c-698.67,-289.84 -1144.22,87.34 -1188.04,482.24 -41.13,371.19 276.35,757.71 941.43,621.85l-3.02 -717.94 521.46 0 -2.61 967.86c-858.57,539.32 -1989.9,58.11 -1962.03,-824.65 38.23,-1194.4 1364.08,-1233.29 1885.39,-932.31l-192.58 402.95z"/>
   <path class="fil1" d="M9664.56 13297.35l-521.5 -5.77 0 1260.35c-10.58,592.81 471.58,879.41 954.89,878.05 485.4,-0.99 971.6,-292.49 961.16,-878.05l0 -1260.35 -521.49 5.77 -2.87 1228.99c8.12,300.65 -148.95,440.01 -433.75,440.01 -284.81,0 -441.77,-139.36 -433.72,-440.01l-2.72 -1228.99z"/>
   <path class="fil2" d="M5505.9 1106.42c306.38,-14.66 4026.44,-146.55 6161.61,1956.82 0,0 -1695.09,-1272.77 -5517.75,-708.42 -189.6,-494.84 -410.52,-910.47 -643.86,-1248.4z"/>
   <path class="fil2" d="M12659.37 4461.06c-1155.29,-1306.66 -4895.82,-666.58 -6049.02,-346.59 -72.6,-452.39 -169.13,-866.45 -283.78,-1243.04 833.95,-127.33 5595.86,-747.05 6332.8,1589.63z"/>
   <path class="fil2" d="M6688.21 4703.85c908.19,-250.51 6033.32,-1548.68 6546.4,897.51 -1615.99,-1083.87 -5473.82,130.78 -6488.55,506.75 9.63,-308.4 3.61,-637.84 -21.21,-990.28 -9.85,-141 -22.57,-278.63 -36.64,-413.98z"/>
   <path class="fil2" d="M6695.81 6788.44c2186.16,-906.32 8993.03,-2613.32 6012.56,1167.2 642.98,-1192.96 273.3,-1347.98 -600.2,-1300.52 -1668.92,90.83 -5110.68,1554.86 -5956.86,1969.86 253.04,-464.19 452.83,-1069.6 544.5,-1836.54z"/>
  </g>
 </g>
</svg>
