<?xml version="1.0" encoding="utf-8"?>
<!-- Generator: Adobe Illustrator 24.2.3, SVG Export Plug-In . SVG Version: 6.00 Build 0)  -->
<svg version="1.1" id="Layer_1" xmlns="http://www.w3.org/2000/svg" xmlns:xlink="http://www.w3.org/1999/xlink" x="0px" y="0px"
	 viewBox="0 0 541.4 453.5" style="enable-background:new 0 0 541.4 453.5;" xml:space="preserve">
<style type="text/css">
	.st0{fill-rule:evenodd;clip-rule:evenodd;fill:#838383;}
	.st1{fill-rule:evenodd;clip-rule:evenodd;fill:#353535;}
	.st2{fill-rule:evenodd;clip-rule:evenodd;fill:#FEFEFE;}
</style>
<g id="Layer_x0020_1">
	<g id="_2428731955200">
		<path class="st0" d="M151.8,15.6h229.6c5.2,0,9.5,4.3,9.5,9.5v224.5c0,5.2-4.3,9.5-9.5,9.5H151.8c-5.2,0-9.5-4.3-9.5-9.5V25.1
			C142.3,19.9,146.6,15.6,151.8,15.6L151.8,15.6z"/>
		<path class="st1" d="M109,293.2l35,0.3c10.4,0.1,19,7.5,19.5,19.4c0.6,11.9-5.7,24.8-25.3,25.5l-11.7,0l-0.2,23.5h-17L109,293.2
			L109,293.2z M126.4,306.4l0.1,19.1c2.8,0.2,10.2-0.1,12.5-0.1c11.4-0.1,11.6-18.7,0.4-18.9L126.4,306.4L126.4,306.4z"/>
		<path class="st1" d="M202.8,292.8c20.8,0,37.7,16.3,37.7,36.4c0,20.1-16.9,36.4-37.7,36.4c-20.8,0-37.7-16.3-37.7-36.4
			C165.2,309.1,182,292.8,202.8,292.8z M202.9,306.4c13.1,0,20.1,10.2,20.1,22.8c0,12.6-6.6,22.4-20.1,22.8
			c-13.4,0.3-20.2-10.2-20.2-22.8C182.7,316.6,189.8,306.4,202.9,306.4z"/>
		<path class="st1" d="M397.4,291.2c20.8,0,37.7,16.3,37.7,36.5c0,20.1-16.9,36.4-37.7,36.4c-20.8,0-37.7-16.3-37.7-36.4
			C359.8,307.5,376.6,291.2,397.4,291.2L397.4,291.2z M397.5,304.8c13.1,0,20.1,10.2,20.1,22.8c0,12.6-6.6,22.5-20.1,22.8
			c-13.4,0.3-20.2-10.2-20.2-22.8C377.3,315,384.4,304.8,397.5,304.8z"/>
		<path class="st1" d="M244.9,293.1l35,0.3c10.4,0.1,19,7.6,19.5,19.5c0.4,8.4-2.6,16.5-11.2,20.7l0.1,0l22.7,28.5l-22.5-0.2
			L270,336.8l-7.7,0.1l-0.2,25.1h-17L244.9,293.1L244.9,293.1z M262.4,306.1v19.2c2.8,0.2,10.2,0.1,12.5,0.1
			c11.4-0.1,11.7-19,0.5-19.3H262.4L262.4,306.1z"/>
		<polygon class="st1" points="302.4,293.2 362.6,293.2 362.6,308 341.3,308 341.3,362 323.9,362 323.9,308 302.4,308 		"/>
		<path class="st1" d="M399.9,376.4c17.5,0,31.7,13.7,31.7,30.7c0,16.9-14.2,30.7-31.7,30.7c-17.5,0-31.7-13.7-31.7-30.7
			C368.2,390.1,382.4,376.4,399.9,376.4z M400,387.9c11.1,0,16.9,8.6,16.9,19.2c0,10.6-5.6,18.9-16.9,19.2c-11.3,0.3-17-8.6-17-19.2
			C383,396.5,389,387.9,400,387.9z"/>
		<path class="st1" d="M317.5,376.8l30.7,0.3c9.2,0.1,16.7,6.6,17.1,17.1c0.4,7.4-2.3,14.5-9.9,18.2l0.1,0l19.9,25l-19.8-0.1
			l-16.1-22.1l-6.7,0l-0.1,22.1h-15L317.5,376.8L317.5,376.8z M332.9,388.2v16.9c2.5,0.2,9,0.1,11,0.1c10-0.1,10.3-16.7,0.5-17
			H332.9z"/>
		<path class="st1" d="M145.3,393l5.6-11.7c0,0-13.8-7.8-27.5-4.1c-13.7,3.7-18.9,21.7-7.3,29.7c11.6,8,20.8,6.2,20.1,13.2
			c-1.1,10-18,3.5-25.6,0.1l-4.4,12.1c0,0,6.9,4.3,19.5,5.6c12.6,1.2,24.8-5.7,25.2-18c0.7-20.7-31.4-16.2-25.6-28.3
			C128,386.3,137.8,389.3,145.3,393z"/>
		<polygon class="st1" points="195.5,378.2 195.5,390.9 171.9,390.9 171.9,400.1 193.5,400.1 193.5,412.9 171.9,412.9 171.9,423.2 
			197.3,423.2 197.3,435.9 156.8,436 156.8,378.2 		"/>
		<path class="st1" d="M246.8,392.6c-19.8-8.2-32.4,2.5-33.7,13.7c-1.2,10.5,7.8,21.5,26.7,17.6l-0.1-20.4h14.8l-0.1,27.4
			c-24.3,15.3-56.4,1.6-55.6-23.4c1.1-33.9,38.7-35,53.4-26.4L246.8,392.6L246.8,392.6z"/>
		<path class="st1" d="M274,376.9l-14.8-0.2v35.7c-0.3,16.8,13.4,24.9,27.1,24.9c13.8,0,27.5-8.3,27.2-24.9v-35.7l-14.8,0.2
			l-0.1,34.8c0.2,8.5-4.2,12.5-12.3,12.5c-8.1,0-12.5-4-12.3-12.5L274,376.9z"/>
		<path class="st2" d="M156.1,31.4c8.7-0.4,114.1-4.2,174.7,55.5c0,0-48-36.1-156.4-20.1C168.9,52.7,162.7,40.9,156.1,31.4z"/>
		<path class="st2" d="M358.8,126.5c-32.7-37-138.8-18.9-171.5-9.8c-2.1-12.8-4.8-24.6-8-35.2C203,77.8,338,60.2,358.8,126.5z"/>
		<path class="st2" d="M189.6,133.3c25.7-7.1,171-43.9,185.6,25.4c-45.8-30.7-155.2,3.7-183.9,14.4c0.3-8.7,0.1-18.1-0.6-28.1
			C190.3,141.1,190,137.2,189.6,133.3L189.6,133.3z"/>
		<path class="st2" d="M189.8,192.4c62-25.7,254.9-74.1,170.4,33.1c18.2-33.8,7.7-38.2-17-36.9c-47.3,2.6-144.9,44.1-168.9,55.8
			C181.5,231.3,187.2,214.2,189.8,192.4L189.8,192.4z"/>
	</g>
</g>
</svg>
