<?xml version="1.0" encoding="utf-8"?>
<!-- Generator: Adobe Illustrator 24.2.3, SVG Export Plug-In . SVG Version: 6.00 Build 0)  -->
<svg version="1.1" id="Layer_1" xmlns="http://www.w3.org/2000/svg" xmlns:xlink="http://www.w3.org/1999/xlink" x="0px" y="0px"
	 viewBox="0 0 400 400" style="enable-background:new 0 0 400 400;" xml:space="preserve">
<style type="text/css">
	.st0{fill:#FFFFFF;}
</style>
<g>
	<path class="st0" d="M145.2,300.8l-63.8-39.6L75,177.1c0.5-7.8-5.8-13.5-13.1-13.5c-7.3,0-13.5,5.8-13.5,13l-6.3,91
		c-0.5,7.3,0.5,9.6,5.3,13.5l52.2,44.5v16c0,3.4,2.9,5.8,6.3,5.8h35.3c3.4,0,6.3-2.4,6.3-5.8v-35.8
		C147.5,303.8,146.6,301.9,145.2,300.8L145.2,300.8z"/>
	<path class="st0" d="M254.8,304.1c-1.4,1.1-2.4,3-2.5,4.8v35.8c0,3.3,2.9,5.8,6.3,5.8H294c3.4,0,6.3-2.3,6.3-5.8v-16l52.2-44.5
		c4.8-3.9,5.8-6.2,5.3-13.5l-6.3-91c0-7.2-6.2-13-13.5-13c-7.3,0-13.5,5.8-13.1,13.5l-6.3,84.1L254.8,304.1L254.8,304.1z"/>
	<path class="st0" d="M201.3,49.5l-99.8,99.8v110.5c0.3,0.3,76.8,1.6,135.5,2.6v-88.7h44.5V263c13.3,0.2,21.6,0.3,21.6,0.3v-112
		L201.3,49.5z M184.3,207h-59.1v-54.1h59.1V207z"/>
</g>
</svg>
