<?xml version="1.0" encoding="UTF-8"?>
<!DOCTYPE svg PUBLIC "-//W3C//DTD SVG 1.1//EN" "http://www.w3.org/Graphics/SVG/1.1/DTD/svg11.dtd">
<!-- Creator: CorelDRAW 2019 (64-Bit) -->
<svg xmlns="http://www.w3.org/2000/svg" xml:space="preserve" width="150mm" height="150mm" version="1.1" style="shape-rendering:geometricPrecision; text-rendering:geometricPrecision; image-rendering:optimizeQuality; fill-rule:evenodd; clip-rule:evenodd"
viewBox="0 0 15000 15000"
 xmlns:xlink="http://www.w3.org/1999/xlink">
 <defs>
  <style type="text/css">
   <![CDATA[
    .str0 {stroke:#FEFEFE;stroke-width:20;stroke-miterlimit:22.9256}
    .fil0 {fill:none}
    .fil1 {fill:#FEFEFE;fill-rule:nonzero}
   ]]>
  </style>
 </defs>
 <g id="Layer_x0020_1">
  <metadata id="CorelCorpID_0Corel-Layer"/>
  <rect class="fil0" x="-17.74" y="-14.81" width="15032.53" height="15032.53"/>
  <g id="_2352559474448">
   <path class="fil1 str0" d="M9981.25 10654.05l0.18 789.23c0,38.19 14.93,74.15 42,101.28 26.96,27.17 62.84,42 100.93,42l0.1 0 1292.84 -0.35c78.76,-0.08 142.76,-64.35 142.76,-143.38l-0.18 -788.78 -1578.63 0z"/>
   <path class="fil1 str0" d="M3468.82 10828.73l0.1 614.55c0,0.07 0.07,0.17 0.07,0.17l0 1.93c0,13.18 2.84,25.64 7.7,36.96 6.64,22.98 16.79,44.73 34.2,62.22 27.06,27.17 62.87,42 100.96,42l0.1 0 1292.81 -0.35c78.79,-0.08 142.86,-64.35 142.86,-143.38l-0.18 -788.78 -1578.7 0 0.08 174.68z"/>
   <path class="fil1 str0" d="M4782.51 8528.49c455.53,0 824.78,172.12 824.78,384.46 0,212.32 -369.25,384.44 -824.78,384.44 -455.51,0 -824.76,-172.12 -824.76,-384.44 0,-212.34 369.25,-384.46 824.76,-384.46zm725.75 -2117.15c0,0 869.41,-99.8 1981.38,-99.8 1111.97,0 1979.71,98.57 1979.71,98.57l724.5 1261.35c-22.81,-1.86 -46.66,-1.86 -70.09,-1.86 -0.1,0 -0.18,0 -0.35,0 0,0 -605.8,-82.19 -2611.84,-82.19 -7.79,0 -15.39,0 -23.16,0 -2024.6,0.7 -2634.74,83.87 -2634.74,83.87 -23.78,0 -47.38,0 -70.36,1.95l724.95 -1261.89zm5531.12 2501.61c0,212.32 -369.23,384.44 -824.76,384.44 -455.5,0 -824.76,-172.12 -824.76,-384.44 0,-212.34 369.26,-384.46 824.76,-384.46 455.53,0 824.76,172.12 824.76,384.46zm-7570.64 1570.41l8041.45 0 -0.35 -1254.3c20.25,-95.47 30.24,-195.28 30.24,-296.66 -0.17,-520.23 -278.29,-842.8 -694.45,-1090.95l185.63 0c170.79,-0.08 309.74,-139.4 309.66,-312.3 -0.1,-172.02 -138.97,-311.97 -309.76,-311.97l-0.08 0 -373.04 0.1c-88.05,0.08 -167.61,37.21 -224.01,96.07l-696.49 -989.16c-33.78,-58.08 -94.77,-93.54 -161.5,-93.54l0 0c0,0 -738.76,-98.55 -2086.5,-98.55 -1347.61,0 -2089.48,99.88 -2089.48,99.88 -66.45,0 -128,35.53 -161.92,93.61l-695.99 989.72c-55.95,-58.86 -134.99,-96 -223.29,-96 -0.08,0 -0.08,0 -0.08,0l-372.78 0.18c-171.05,0 -310.47,140.09 -310.47,312.12 0.1,172.92 139.5,312.07 310.57,312.07 0.07,0 0.07,0 0.07,0l184.58 0c-415.21,248.3 -693.83,571.14 -693.75,1091.35 0.1,101.31 10.77,201.11 31.37,296.58l0.37 1251.75z"/>
   <path class="fil1 str0" d="M5179.52 3913.99c0,-117.85 95.48,-213.32 213.22,-213.32 117.83,0 213.3,95.47 213.3,213.32l0 1232.18c0,117.74 -95.47,213.21 -213.3,213.21 -117.74,0 -213.22,-95.47 -213.22,-213.21l0 -1232.18zm5279.97 334.85l0 519.78c0,90.71 -74.18,164.95 -164.86,164.95l-297.39 0 -182.8 -105.64 -182.89 105.64 -1332.26 0 -182.9 -105.64 -182.9 105.64 -216.92 0 -182.9 -105.64 -182.9 105.64 -367.4 0 0 -251.23 3453.31 0 0 -170.59 -3453.31 0 0 -427.77 3311.26 0c90.68,0 164.86,74.15 164.86,164.86zm-5193.62 1352.23l1717.5 0 0 -496.88 413.11 0 39.59 -22.9 97.6 -56.3 97.6 56.3 39.59 22.9 308.34 0 39.59 -22.9 97.6 -56.3 97.6 56.3 39.59 22.9 1423.67 0 39.59 -22.9 97.6 -56.3 97.5 56.3 39.62 22.9 343.07 0c185.03,0 335.48,-150.54 335.48,-335.57l0 -519.78c0,-185.03 -150.45,-335.48 -335.48,-335.48l-3311.26 0 0 -496.97 -1717.5 0c-400.52,0 -728.23,327.68 -728.23,728.23l0 728.24c0,400.52 327.71,728.21 728.23,728.21z"/>
  </g>
 </g>
</svg>
