<?xml version="1.0" encoding="UTF-8"?>
<!DOCTYPE svg PUBLIC "-//W3C//DTD SVG 1.1//EN" "http://www.w3.org/Graphics/SVG/1.1/DTD/svg11.dtd">
<!-- Creator: CorelDRAW 2019 (64-Bit) -->
<svg xmlns="http://www.w3.org/2000/svg" xml:space="preserve" width="150mm" height="150mm" version="1.1" style="shape-rendering:geometricPrecision; text-rendering:geometricPrecision; image-rendering:optimizeQuality; fill-rule:evenodd; clip-rule:evenodd"
viewBox="0 0 15000 15000"
 xmlns:xlink="http://www.w3.org/1999/xlink">
 <defs>
  <style type="text/css">
   <![CDATA[
    .str0 {stroke:#FEFEFE;stroke-width:20;stroke-miterlimit:22.9256}
    .fil0 {fill:none}
    .fil1 {fill:#FEFEFE}
   ]]>
  </style>
 </defs>
 <g id="Layer_x0020_1">
  <metadata id="CorelCorpID_0Corel-Layer"/>
  <rect class="fil0" x="-17.74" y="-14.81" width="15032.53" height="15032.53"/>
  <path class="fil1 str0" d="M10320.92 11572.66c893.99,-578.64 1488.04,-1263.86 1820.76,-2287.86 76.99,-236.47 29.75,-331.06 -5.71,-431.52 -35.41,-100.59 -158.89,-248.7 -141.99,-561.58 72.03,-1330.14 393.21,-2882.2 -252.62,-4191.97 -233.86,-474.37 -356.31,-571.9 -1273.61,-619.88 -1331.92,-69.1 -3561.89,-151.46 -5136.39,-15 -784.48,68.06 -1498.54,256.13 -1949.9,991.93 -772.21,1259.15 -715.68,2335.35 -76.54,3508.21 516.53,947.34 1187.74,1183.23 1993.05,1341.38 1287.33,253.12 3090.86,319.45 4114.12,140.42 0,0 636.66,1965.48 675.3,2097.85 38.64,132.24 233.53,28.02 233.53,28.02l0 0zm181.83 -7544.34c379.74,14.71 345.65,132.65 345.65,347.09 0,606.5 -77.57,2810.34 -91.42,3009.37 -121.87,1768.52 -3655.9,1502.34 -4835.9,1378.24 -1002.85,-105.67 -1258.57,-422.18 -1550.58,-1206.37 -346.84,-930.86 -410.57,-1570.41 9.47,-2525.03 300.76,-684.31 751.95,-902.88 1479.86,-1005.08 1423.5,-199.85 3268.56,-51.57 4642.92,1.78z"/>
 </g>
</svg>
