<?xml version="1.0" encoding="UTF-8"?>
<!DOCTYPE svg PUBLIC "-//W3C//DTD SVG 1.1//EN" "http://www.w3.org/Graphics/SVG/1.1/DTD/svg11.dtd">
<!-- Creator: CorelDRAW 2019 (64-Bit) -->
<svg xmlns="http://www.w3.org/2000/svg" xml:space="preserve" width="149.931mm" height="149.931mm" version="1.1" style="shape-rendering:geometricPrecision; text-rendering:geometricPrecision; image-rendering:optimizeQuality; fill-rule:evenodd; clip-rule:evenodd"
viewBox="0 0 14993.06 14993.06"
 xmlns:xlink="http://www.w3.org/1999/xlink">
 <defs>
  <style type="text/css">
   <![CDATA[
    .fil1 {fill:#FEFEFE;fill-rule:nonzero}
    .fil0 {fill:#ED3237;fill-rule:nonzero}
   ]]>
  </style>
 </defs>
 <g id="Layer_x0020_1">
  <metadata id="CorelCorpID_0Corel-Layer"/>
  <g id="_2092613035312">
   <path class="fil0" d="M7491.65 13894.33c321.88,-589.98 1465.62,-1711.96 2253.17,-2424.71 1126.92,-1019.33 4597.15,-2746.84 4597.15,-6180.5 0,-3907.84 -4167.75,-5586.36 -6850.32,-2796.39 -2682.61,-2789.97 -6850.46,-1111.45 -6850.46,2796.39 0,3433.66 3470.33,5161.17 4596.94,6180.5 787.91,712.75 1931.47,1834.73 2253.52,2424.71z"/>
   <path class="fil1" d="M10349.73 6835.55c71.47,147.52 45.97,418.95 45.97,418.95 -4.8,120.37 63.04,324.39 180.19,508.66 117.11,184.32 146.59,387.72 136.73,505.39 -9.87,117.84 -81.86,1062.33 162.99,1295.78 71.63,68.35 304.32,296.42 597.55,584.75 -477.5,376.5 -934.61,696.08 -1297.99,971.44 -341.94,-446.66 -612.16,-799.36 -639,-833.6 -77.63,-98.79 -294.58,-154.16 -294.58,-154.16 -567.21,-115.91 -945.24,-456.41 -1162.75,-634.89 -226.65,-186.33 -572.13,-254.28 -738.3,-283.06 -166.22,-28.72 -1127.08,-331.6 -1127.08,-331.6 -217.1,-55.28 -225.5,-150.39 -225.5,-150.39 -44.16,-113.73 36.67,-181.45 83.32,-208.71 46.71,-27.44 179.94,-22.3 179.94,-22.3 58.92,-1.49 699.43,172.16 1164.68,260.27 464.92,88.44 231.96,-72.62 125.82,-153.99 -106.08,-81.54 -1181.71,-609.86 -1409.75,-719.07 -284.82,-135.98 -243.82,-263.77 -243.82,-263.77 38.06,-258.14 221.43,-188.2 221.43,-188.2 53.82,8.72 755.1,350.34 755.1,350.34 124.42,71.59 739.83,342.17 916.18,376.12 176.36,34.12 117.46,-113.13 39.16,-173.6 -78.34,-60.37 -148.87,-113.89 -323.6,-247.22 -189.67,-144.6 -257.89,-199.85 -257.89,-199.85 -170.06,-95.26 -590.22,-393.06 -590.22,-393.06l-313.8 -216.27c-78.51,-60.55 -158.32,-80.91 -128.95,-235.88 30.3,-160.36 139.23,-179.5 205.82,-170.73 66.37,9.12 299.91,144.28 299.91,144.28 50.47,39.47 1322.28,873.88 1322.28,873.88 374.23,273.79 456.65,-53.61 265.89,-236.13 -134.95,-129.17 -441.21,-541.89 -491.05,-619.75 -49.7,-77.93 -420.28,-556.74 -420.28,-556.74 -27.59,-33.9 -106.45,-199.89 -5.13,-274.69 100.05,-73.68 158.19,-141.46 318.11,39.42 114.52,129.59 536.87,578.44 654.91,722.81 60.47,73.79 514.26,606.06 564.29,671.01 50.2,65.07 160.63,187.75 265.17,223 104.46,35.4 371.51,155.7 424.67,190.05 61.14,39.52 183.56,63.73 277.04,2.65 81.82,-84.43 -37.85,-177.31 10.73,-663.26 15.97,-161.13 -87.22,-371.32 -56.75,-528.27 30.14,-156.7 136.36,-329.81 246.79,-353.94 174.16,-38.32 192.29,91.96 188.07,266.85 -2.3,101.61 1.99,259.85 73.7,407.48z"/>
   <path class="fil1" d="M5432.05 3475.24c-110.36,-54.21 -314.04,-36.49 -314.04,-36.49 -90.27,3.01 -242.9,-48.92 -380.59,-137.64 -137.6,-88.73 -289.94,-111.84 -378.3,-104.9 -88.42,6.84 -797.2,56.18 -971.08,-128.63 -59.63,-63.28 -589.28,-609.44 -1170.27,-1207.85 -360.57,273.77 -676.76,617.89 -929.58,1024.6 773.05,590.25 1522.52,1161.4 1551.42,1184.33 73.82,58.72 114.26,221.71 114.26,221.71 84.14,426.04 337.71,711.16 470.45,875.12 138.7,170.91 187.99,430.41 208.81,555.06 20.68,124.86 243.15,847.08 243.15,847.08 40.42,163 111.68,169.69 111.68,169.69 85.12,33.73 136.31,-26.53 157.01,-61.47 20.73,-34.85 17.55,-134.86 17.55,-134.86 1.46,-44.15 -125.67,-525.34 -189.49,-874.66 -64.13,-349.19 55.59,-173.67 116.12,-93.63 60.58,79.9 451.62,889.15 532.35,1060.78 100.7,214.25 196.68,184.11 196.68,184.11 193.82,-27.26 142.18,-165.18 142.18,-165.18 -6.22,-40.36 -258.98,-568.04 -258.98,-568.04 -53.09,-93.5 -253.09,-556.45 -277.7,-688.84 -24.78,-132.5 85.35,-87.66 130.42,-28.58 44.83,59.06 84.65,112.27 183.79,243.89 107.54,142.94 148.61,194.41 148.61,194.41 70.72,127.99 292.03,444.57 292.03,444.57l160.61 236.44c45.03,59.15 59.81,119.05 176.26,97.81 120.45,-22 135.31,-103.57 129.09,-153.55 -6.6,-49.84 -106.74,-225.63 -106.74,-225.63 -29.42,-38.13 -648.97,-995.92 -648.97,-995.92 -203.51,-282.06 42.35,-342.29 178.32,-198.32 96.19,101.84 404.24,333.56 462.39,371.28 58.22,37.72 415.63,317.93 415.63,317.93 25.18,20.83 149.29,80.79 205.86,5.21 55.85,-74.78 106.84,-118.01 -28.02,-238.75 -96.64,-86.55 -431.17,-405.49 -538.85,-494.71 -55.1,-45.72 -452.05,-388.65 -500.56,-426.48 -48.54,-37.96 -140.08,-121.45 -166.02,-199.97 -25.94,-78.51 -114.9,-279.38 -140.45,-319.46 -29.29,-46.04 -46.87,-137.91 -0.59,-207.79 63.67,-60.98 132.79,29.25 497.49,-4.75 120.92,-11.25 278.07,67.14 395.92,45.1 117.64,-21.93 248,-100.72 266.68,-183.38 29.55,-130.46 -68.08,-144.61 -199.26,-142.38 -76.2,1.23 -194.81,-2.73 -305.27,-57.26z"/>
  </g>
 </g>
</svg>
