<?xml version="1.0" encoding="utf-8"?>
<!-- Generator: Adobe Illustrator 24.2.3, SVG Export Plug-In . SVG Version: 6.00 Build 0)  -->
<svg version="1.1" id="Layer_1" xmlns="http://www.w3.org/2000/svg" xmlns:xlink="http://www.w3.org/1999/xlink" x="0px" y="0px"
	 viewBox="0 0 148 148" style="enable-background:new 0 0 148 148;" xml:space="preserve">
<style type="text/css">
	.st0{fill:#A22900;}
</style>
<g>
	<path class="st0" d="M102.8,118.1l-3.2-10.6l-15-68.8h0.3V15.6H70.4v23.1l-0.1,0L60.2,91l-59-37.4v91.8h144.6L102.8,118.1z
		 M77.9,45.4l14,65.7L68.1,96L77.9,45.4z M7,64.1l52,33l-2.5,13.1l-0.9,0.1c-3.6,0.1-7.6,2-7.6,5.6c0,1.3,0.5,2.8,1.4,3.7
		c1.9,1.9,5.1,2.7,6,2.7H56l0,5.6l1.5,0.1h-39v-48L52.2,103l3.2-4.8l-42.7-29v64.6h101.8L68.4,105l-3,4.8l1.5-7.6l36.8,23.4l2,2.2
		l-0.3-1.1l20.6,13.1H7V64.1z M65.4,109.9l29.1,18.2H61.8L65.4,109.9z"/>
	<path class="st0" d="M84.4,9.8c0-2.7-1.8-6.8-6.7-6.8c-4.8,0-6.6,4-6.7,6.6l-0.1,3l13.6,0.1L84.4,9.8z"/>
</g>
</svg>
