<?xml version="1.0" encoding="utf-8"?>
<!-- Generator: Adobe Illustrator 24.2.3, SVG Export Plug-In . SVG Version: 6.00 Build 0)  -->
<svg version="1.1" id="Layer_2" xmlns="http://www.w3.org/2000/svg" xmlns:xlink="http://www.w3.org/1999/xlink" x="0px" y="0px"
	 viewBox="0 0 541.4 453.5" style="enable-background:new 0 0 541.4 453.5;" xml:space="preserve">
<style type="text/css">
	.st0{fill:#464646;}
	.st1{fill:#D3D3D3;}
	.st2{fill:#898989;}
</style>
<g>
	<g>
		<circle class="st0" cx="243.6" cy="197.9" r="128.5"/>
		<g>
			<path class="st1" d="M297.8,15.7c-71,0-128.5,57.5-128.5,128.5s57.5,128.5,128.5,128.5s128.5-57.5,128.5-128.5
				S368.7,15.7,297.8,15.7z M297.8,261.1c-64.6,0-116.9-52.3-116.9-116.9S233.2,27.2,297.8,27.2s116.9,52.3,116.9,116.9
				S362.3,261.1,297.8,261.1z"/>
			<path class="st2" d="M297.8,27.2c-64.6,0-116.9,52.3-116.9,116.9s52.3,116.9,116.9,116.9c64.6,0,116.9-52.3,116.9-116.9
				S362.3,27.2,297.8,27.2z M297.8,247.6c-57.1,0-103.5-46.3-103.5-103.5c0-57.1,46.3-103.5,103.5-103.5
				c57.1,0,103.5,46.3,103.5,103.5C401.2,201.3,354.9,247.6,297.8,247.6z"/>
		</g>
	</g>
	<g>
		<path d="M125.9,393.7c0,1.7,0.4,3.1,1.1,4.3c0.7,1.1,1.7,2.1,2.9,2.8c1.2,0.7,2.6,1.3,4.3,1.8c1.6,0.5,3.3,0.9,5,1.3
			c2.4,0.6,4.7,1.2,7,1.8c2.3,0.7,4.3,1.6,6.1,2.8c1.8,1.2,3.2,2.7,4.3,4.6c1.1,1.9,1.6,4.3,1.6,7.3c0,3-0.6,5.7-1.8,7.9
			c-1.2,2.2-2.9,4-5,5.4c-2.1,1.4-4.6,2.5-7.5,3.2c-2.9,0.7-6,1-9.5,1c-1.6,0-3.2-0.1-4.8-0.3c-1.7-0.2-3.2-0.4-4.7-0.8
			c-1.5-0.3-2.9-0.7-4.1-1.1c-1.2-0.4-2.2-0.8-2.9-1.2V428c1.1,0.5,2.3,1,3.7,1.4c1.4,0.4,2.8,0.8,4.2,1.1c1.5,0.3,2.9,0.5,4.4,0.7
			c1.5,0.2,2.9,0.3,4.2,0.3c2.1,0,4.1-0.2,6.1-0.5c1.9-0.4,3.6-0.9,5.1-1.8c1.5-0.8,2.6-1.9,3.5-3.4c0.9-1.4,1.3-3.2,1.3-5.3
			c0-1.8-0.4-3.2-1.1-4.3c-0.7-1.1-1.7-2.1-3-2.8c-1.2-0.7-2.7-1.3-4.3-1.8c-1.6-0.5-3.3-0.9-5.1-1.3c-2.4-0.5-4.7-1.1-6.9-1.8
			c-2.3-0.7-4.3-1.6-6-2.7s-3.2-2.7-4.3-4.5c-1.1-1.8-1.6-4.2-1.6-7.1c0-3,0.6-5.5,1.7-7.7c1.1-2.2,2.7-3.9,4.6-5.3
			c1.9-1.4,4.2-2.4,6.7-3.1c2.5-0.7,5.2-1,8.1-1c3.2,0,6.3,0.3,9.1,0.9c2.8,0.6,5.4,1.4,7.7,2.3v6.6c-2.5-1-5.1-1.9-7.8-2.5
			c-2.7-0.6-5.6-1-8.6-1c-2.3,0-4.3,0.2-6,0.7c-1.7,0.5-3.1,1.2-4.2,2.1c-1.1,0.9-2,2-2.5,3.2C126.2,390.7,125.9,392.1,125.9,393.7
			L125.9,393.7z"/>
		<path id="_x31__2_" d="M218.4,407.5c0-3.9-0.5-7.4-1.6-10.4c-1.1-3-2.5-5.5-4.4-7.5c-1.9-2-4.1-3.5-6.7-4.6
			c-2.5-1-5.3-1.6-8.2-1.6c-2.9,0-5.7,0.5-8.2,1.6c-2.6,1-4.8,2.6-6.7,4.6c-1.9,2-3.4,4.5-4.4,7.5c-1.1,3-1.6,6.5-1.6,10.4
			c0,3.9,0.5,7.4,1.6,10.4c1.1,3,2.6,5.5,4.5,7.5c1.9,2,4.1,3.5,6.7,4.5c2.5,1,5.3,1.5,8.3,1.5c2.9,0,5.7-0.5,8.2-1.5
			c2.5-1,4.7-2.5,6.6-4.5c1.9-2,3.4-4.5,4.4-7.5C217.8,414.9,218.4,411.5,218.4,407.5L218.4,407.5z M225.7,407.5
			c0,4.4-0.7,8.5-2,12.2c-1.3,3.7-3.2,6.9-5.7,9.6c-2.5,2.7-5.4,4.8-8.9,6.3c-3.5,1.5-7.4,2.3-11.7,2.3c-4.5,0-8.4-0.7-12-2.3
			c-3.5-1.5-6.5-3.6-8.9-6.3c-2.4-2.7-4.3-5.9-5.6-9.6c-1.3-3.7-1.9-7.8-1.9-12.2c0-4.5,0.7-8.6,2-12.3c1.3-3.7,3.2-6.9,5.7-9.6
			c2.5-2.7,5.4-4.8,8.9-6.3c3.5-1.5,7.4-2.3,11.7-2.3c4.4,0,8.4,0.7,11.9,2.3c3.5,1.5,6.5,3.6,8.9,6.3c2.4,2.7,4.3,5.9,5.6,9.6
			C225.1,398.9,225.7,403,225.7,407.5L225.7,407.5z"/>
		<path id="_x32__2_" d="M271.6,436.8h-3.4l-15.3-35c-2.1-4.8-4.2-10.1-6.4-15.7h-0.4c0.4,8.2,0.6,15.6,0.6,22.4v28.3h-7.5v-58.6
			h10.7l14.3,33.2c1.6,3.8,3.4,8.4,5.4,13.7h0.2c2.2-5.9,4-10.5,5.4-13.7l14.3-33.2h10.7v58.6H293v-28.3c0-6.6,0.2-14.1,0.6-22.4
			h-0.4c-2.3,6-4.4,11.2-6.4,15.7L271.6,436.8L271.6,436.8z"/>
		<path id="_x33__2_" d="M323.4,436.8h-7.5v-58.6h16.9c2.5,0,4.8,0.1,7,0.4c2.1,0.3,4.1,0.7,5.9,1.4c3.6,1.3,6.4,3.1,8.3,5.6
			c1.9,2.5,2.8,5.6,2.8,9.2c0,3-0.6,5.6-1.8,7.9c-1.2,2.3-3,4.2-5.3,5.7c-2.3,1.5-5.2,2.7-8.5,3.4c-3.3,0.8-7.1,1.2-11.4,1.2
			c-2,0-4.1-0.1-6.3-0.3V436.8L323.4,436.8z M323.4,406.2c1,0.1,2,0.2,3.1,0.3c1.1,0.1,2.1,0.1,3.1,0.1c3.5,0,6.4-0.3,8.9-0.8
			c2.5-0.5,4.5-1.3,6-2.3c1.6-1,2.7-2.2,3.4-3.7c0.7-1.5,1-3.1,1-4.9c0-2.3-0.6-4.1-1.7-5.6c-1.1-1.5-2.7-2.6-4.8-3.3
			c-1.3-0.5-2.8-0.8-4.5-1c-1.7-0.2-3.7-0.3-5.9-0.3h-8.6L323.4,406.2L323.4,406.2z"/>
		<path id="_x34__2_" d="M416.1,407.5c0-3.9-0.5-7.4-1.6-10.4c-1.1-3-2.5-5.5-4.4-7.5c-1.9-2-4.1-3.5-6.7-4.6
			c-2.5-1-5.3-1.6-8.2-1.6c-2.9,0-5.7,0.5-8.2,1.6c-2.6,1-4.8,2.6-6.7,4.6c-1.9,2-3.4,4.5-4.4,7.5c-1.1,3-1.6,6.5-1.6,10.4
			c0,3.9,0.5,7.4,1.6,10.4c1.1,3,2.6,5.5,4.5,7.5c1.9,2,4.1,3.5,6.7,4.5c2.5,1,5.3,1.5,8.3,1.5c2.9,0,5.7-0.5,8.2-1.5
			c2.5-1,4.7-2.5,6.6-4.5c1.9-2,3.4-4.5,4.4-7.5C415.5,414.9,416.1,411.5,416.1,407.5z M423.4,407.5c0,4.4-0.7,8.5-2,12.2
			c-1.3,3.7-3.2,6.9-5.7,9.6c-2.5,2.7-5.4,4.8-8.9,6.3c-3.5,1.5-7.4,2.3-11.7,2.3c-4.5,0-8.4-0.7-12-2.3c-3.5-1.5-6.5-3.6-8.9-6.3
			c-2.4-2.7-4.3-5.9-5.6-9.6c-1.3-3.7-1.9-7.8-1.9-12.2c0-4.5,0.7-8.6,2-12.3c1.3-3.7,3.2-6.9,5.7-9.6c2.5-2.7,5.4-4.8,8.9-6.3
			c3.5-1.5,7.4-2.3,11.7-2.3c4.4,0,8.4,0.7,11.9,2.3c3.5,1.5,6.5,3.6,8.9,6.3c2.4,2.7,4.3,5.9,5.6,9.6
			C422.8,398.9,423.4,403,423.4,407.5L423.4,407.5z"/>
	</g>
</g>
</svg>
