<?xml version="1.0" encoding="UTF-8"?>
<!DOCTYPE svg PUBLIC "-//W3C//DTD SVG 1.1//EN" "http://www.w3.org/Graphics/SVG/1.1/DTD/svg11.dtd">
<!-- Creator: CorelDRAW 2019 (64-Bit) -->
<svg xmlns="http://www.w3.org/2000/svg" xml:space="preserve" width="150mm" height="150mm" version="1.1" style="shape-rendering:geometricPrecision; text-rendering:geometricPrecision; image-rendering:optimizeQuality; fill-rule:evenodd; clip-rule:evenodd"
viewBox="0 0 15000 15000"
 xmlns:xlink="http://www.w3.org/1999/xlink">
 <defs>
  <style type="text/css">
   <![CDATA[
    .fil0 {fill:none}
    .fil1 {fill:#FEFEFE;fill-rule:nonzero}
   ]]>
  </style>
 </defs>
 <g id="Layer_x0020_1">
  <metadata id="CorelCorpID_0Corel-Layer"/>
  <rect class="fil0" x="-17.74" y="-14.81" width="15032.53" height="15032.53"/>
  <g id="_2603898966016">
   <path class="fil1" d="M6511.05 4099.43c-5.06,42.42 19.9,68.71 52.42,79.56 6.18,12.78 17.25,23.1 33.96,26.67 253.86,54.82 495.86,59.34 755.15,49.76 340.4,-12.56 661.8,18.41 1000.13,36.62 82.06,4.52 123.74,-76.96 111.55,-144.18 3.35,-5.85 8.99,-8.84 10.86,-16.18 246.89,-899.86 -1840.49,-1094.76 -1964.07,-32.25z"/>
   <path class="fil1" d="M11558.21 7814.84c121.87,-18.79 242.74,-47.31 367.97,-77.17 -108.89,68.17 -241.63,101.76 -367.97,77.17zm-1046.91 1110.72c-168.77,7.88 -286.7,-140.61 -325.18,-289.52 -24.06,-92.55 -6.39,-166.32 33.21,-230.34 229.43,-22.94 500.17,13.68 638.76,144.76 67.21,215.17 -154.72,366.11 -346.79,375.1zm-944.57 -1852.14c-159.02,51.99 -325.39,95.16 -510.12,115.65 -610.93,67.59 -1206.31,21.55 -1816.86,-23.31 -170.52,-12.4 -340.61,-21.56 -510.34,-29.86 -394.84,-64.03 -772.98,-128.05 -1110.19,-156.2 -77.91,-6.39 -326.67,17.82 -570.36,10.69 -161.64,-58.54 -358.45,-181.91 -500.92,-130.44 72.86,-533.6 383.56,-1090.66 788.36,-1454.53 169.56,-111.71 368.18,-200.54 526.25,-319.75 321.83,-111.34 682.67,-119.59 1033.77,-107.03 311.13,77.76 655.25,93.14 972.77,38.85 399.69,17.67 796.82,50.51 1189.22,144.39 48.81,11.87 91.44,29.32 136.83,44.12 203.57,139.92 353.76,362.17 477.87,566.86 154.88,255.51 275.42,526.83 379.42,806.19 16.18,43.37 29.85,87.65 43.37,131.99 -159.55,154.34 -336.83,274.14 -529.07,362.38zm-4652.9 1841.66c-171.37,105.69 -449.66,128.05 -611.45,-7.35 -208.26,-174.24 -15.97,-426.56 166.69,-542.96 197.71,-60.83 379.99,-19.16 519.91,136.09 133.64,148.54 82.76,316.93 -75.15,414.22zm7401.39 -1708.18c-64.61,-218.74 -255.88,-377.77 -473.13,-428.43 -129.91,-30.45 -332.9,-38.91 -495.86,2.98 -17.46,1.7 -34.91,3.78 -52.58,6.54 -235.4,-691.28 -457.92,-1476.67 -936.11,-2038.57 -395.8,-464.89 -1183.95,-619.97 -1761.67,-582.4 -111.71,7.13 -109.26,160.89 0,171.8 4.69,0.37 9,0.9 13.52,1.27 -483.46,714.6 -1847.51,401.24 -2382.59,-76 -3.94,-3.77 -8.63,-4.89 -12.94,-7.93 6.02,-26.82 -2.29,-53.86 -36.45,-68.33 -431.25,-182.5 -884.86,56.52 -1256.98,353.55 -154.87,99.15 -292.71,226.61 -415.28,375.68 -0.21,0.38 -0.59,0.59 -0.8,0.96 -394.85,391.44 -855.21,1117.69 -850.68,1721.27 -79.04,-5.8 -160.14,3.2 -239.39,18.79 -292.34,-29.64 -622.95,100.48 -720.19,372.12 -74.93,209 -40.18,481.97 109.05,651.91 79.04,90.1 226.24,182.86 366.48,203.89 -147.74,465.04 -166.9,1023.81 -188.29,1426.69 -13.52,252 -24.8,557.06 -0.75,861.81 6.02,599.85 150.4,1119.55 595.54,1339.78 67.81,33.64 146.63,55.19 229.07,71.37 132.94,43.38 268.66,50.51 404.96,26.45 230.76,-10.69 462.27,-55.77 637.64,-107.93 367.43,-109.69 378.88,-515.6 357.85,-824.23 291.18,-53.33 582.56,-69.88 874.16,-66.32 232.63,24.43 467.86,36.25 703.15,41.89 119.38,11.81 238.81,24.59 358.24,38.48 807.3,94.84 1624.57,-11.44 2433.42,-25.12 22.72,49.92 49.92,97.02 83.18,140.98 174.62,710.82 1006.52,927.85 1666.83,571.11 376.65,-203.3 415.92,-752.27 438.97,-1122.53 43.75,-699.01 102.18,-1581.09 -125.98,-2259.98 421.73,54.82 808.64,-347.69 677.61,-791.55z"/>
  </g>
 </g>
</svg>
