<?xml version="1.0" encoding="utf-8"?>
<!-- Generator: Adobe Illustrator 24.2.3, SVG Export Plug-In . SVG Version: 6.00 Build 0)  -->
<svg version="1.1" id="Layer_1" xmlns="http://www.w3.org/2000/svg" xmlns:xlink="http://www.w3.org/1999/xlink" x="0px" y="0px"
	 viewBox="0 0 541.4 453.5" style="enable-background:new 0 0 541.4 453.5;" xml:space="preserve">
<style type="text/css">
	.st0{fill:#363636;}
	.st1{fill-rule:evenodd;clip-rule:evenodd;fill:url(#SVGID_1_);}
	.st2{fill-rule:evenodd;clip-rule:evenodd;fill:#777676;}
	.st3{fill-rule:evenodd;clip-rule:evenodd;fill:url(#SVGID_2_);}
	.st4{fill-rule:evenodd;clip-rule:evenodd;fill:#B5B5B5;}
	.st5{fill-rule:evenodd;clip-rule:evenodd;fill:url(#SVGID_3_);}
	.st6{fill-rule:evenodd;clip-rule:evenodd;fill:url(#SVGID_4_);}
	.st7{fill-rule:evenodd;clip-rule:evenodd;fill:#353535;}
</style>
<path class="st0" d="M158.1,130.2c0,0,10.3-11,38.7,17.2c28.4,28.2,51.9,57,51.9,57S214.1,72.2,234.8,81.4
	c20.7,9.1,37.3,29.4,37.3,29.4l15.6-40c0,0-35.8-44.1-58.2-31.7c0,0-38.7,27.4-32.6,58C160.8,61.7,153.4,111.7,158.1,130.2
	L158.1,130.2z"/>
<path class="st0" d="M158.1,130.2c0,0,10.3-11,38.7,17.2c28.4,28.2,51.9,57,51.9,57S214.1,72.2,234.8,81.4
	c20.7,9.1,37.3,29.4,37.3,29.4l15.6-40c0,0-35.8-44.1-58.2-31.7c0,0-38.7,27.4-32.6,58C160.8,61.7,153.4,111.7,158.1,130.2
	L158.1,130.2z"/>
<radialGradient id="SVGID_1_" cx="7555.2446" cy="-2788.2505" r="1804.9652" gradientTransform="matrix(2.863389e-02 2.863389e-02 -2.863389e-02 2.863389e-02 36.6135 -25.7022)" gradientUnits="userSpaceOnUse">
	<stop  offset="0" style="stop-color:#FAFAFA"/>
	<stop  offset="0.2784" style="stop-color:#C2C2C2"/>
	<stop  offset="0.6" style="stop-color:#9A9A9A"/>
	<stop  offset="0.8" style="stop-color:#787878"/>
	<stop  offset="1" style="stop-color:#595959"/>
</radialGradient>
<path class="st1" d="M332.8,47.3c-35.1,0-63.5,28.4-63.5,63.5c0,35.1,28.4,63.5,63.5,63.5c35.1,0,63.5-28.4,63.5-63.5
	C396.3,75.7,367.9,47.3,332.8,47.3L332.8,47.3z"/>
<path class="st2" d="M332.8,47.3c-35.1,0-63.5,28.4-63.5,63.5c0,35.1,28.4,63.5,63.5,63.5c35.1,0,63.5-28.4,63.5-63.5
	C396.3,75.7,367.9,47.3,332.8,47.3L332.8,47.3z"/>
<radialGradient id="SVGID_2_" cx="5725.0005" cy="-5634.9673" r="3783.4785" gradientTransform="matrix(5.655741e-02 0 0 5.655741e-02 -92.3456 437.2729)" gradientUnits="userSpaceOnUse">
	<stop  offset="0" style="stop-color:#E9E9E9"/>
	<stop  offset="0.1804" style="stop-color:#B1B1B1"/>
	<stop  offset="0.4196" style="stop-color:#868686"/>
	<stop  offset="0.6" style="stop-color:#626262"/>
	<stop  offset="0.8" style="stop-color:#4D4D4D"/>
	<stop  offset="1" style="stop-color:#404040"/>
</radialGradient>
<path class="st3" d="M207.6,217.8c-22.8-42.3-44.9-83.8-44.9-125.4c-34.9,57-10.5,112.2,38.5,166.8c16.3,10.9,37.4,17.8,57,19.5
	C247.9,272.1,229,255.6,207.6,217.8L207.6,217.8z"/>
<path class="st4" d="M207.6,217.8c-22.8-42.3-44.9-83.8-44.9-125.4c-34.9,57-10.5,112.2,38.5,166.8c16.3,10.9,37.4,17.8,57,19.5
	C247.9,272.1,229,255.6,207.6,217.8L207.6,217.8z"/>
<radialGradient id="SVGID_3_" cx="5044.4053" cy="-6108.8193" r="4801.6489" gradientTransform="matrix(4.449118e-02 0 0 4.449118e-02 7.6649 389.9297)" gradientUnits="userSpaceOnUse">
	<stop  offset="0" style="stop-color:#E9E9E9"/>
	<stop  offset="0.1804" style="stop-color:#B1B1B1"/>
	<stop  offset="0.4196" style="stop-color:#868686"/>
	<stop  offset="0.6" style="stop-color:#626262"/>
	<stop  offset="0.8" style="stop-color:#4D4D4D"/>
	<stop  offset="1" style="stop-color:#404040"/>
</radialGradient>
<path class="st5" d="M318.9,238.7c-35.8-41.4-98.2-138.1-85.4-201.1c-15.2,4.5-29.2,11.9-41.3,21.5c-9.7,44.4,53.7,184,110.6,215.5
	c14.7-4.2,28.2-11.1,40.1-20C333.8,251.8,325.3,246,318.9,238.7L318.9,238.7z"/>
<path class="st4" d="M318.9,238.7c-35.8-41.4-98.2-138.1-85.4-201.1c-15.2,4.5-29.2,11.9-41.3,21.5c-9.7,44.4,53.7,184,110.6,215.5
	c14.7-4.2,28.2-11.1,40.1-20C333.8,251.8,325.3,246,318.9,238.7L318.9,238.7z"/>
<radialGradient id="SVGID_4_" cx="5806.3452" cy="-5622.876" r="3752.6479" gradientTransform="matrix(5.653530e-02 0 0 5.653530e-02 -94.2132 436.0618)" gradientUnits="userSpaceOnUse">
	<stop  offset="0" style="stop-color:#E9E9E9"/>
	<stop  offset="0.1804" style="stop-color:#B1B1B1"/>
	<stop  offset="0.4196" style="stop-color:#868686"/>
	<stop  offset="0.6" style="stop-color:#626262"/>
	<stop  offset="0.8" style="stop-color:#4D4D4D"/>
	<stop  offset="1" style="stop-color:#404040"/>
</radialGradient>
<path class="st6" d="M377.6,174.3c-10.8-9.9-38.5-47.6-46.6-69.9c-4.1-14.1-24.2-55.8-4.5-56.8c-14.3-7.4-31.4-13.4-48.2-14.7
	c-17,19.8,45.9,180.5,96.8,185.4c7.6-12.9,12.8-27.2,15.3-42.5C386,177.5,381.4,177.8,377.6,174.3L377.6,174.3z"/>
<path class="st4" d="M377.6,174.3c-10.8-9.9-38.5-47.6-46.6-69.9c-4.1-14.1-24.2-55.8-4.5-56.8c-14.3-7.4-31.4-13.4-48.2-14.7
	c-17,19.8,45.9,180.5,96.8,185.4c7.6-12.9,12.8-27.2,15.3-42.5C386,177.5,381.4,177.8,377.6,174.3L377.6,174.3z"/>
<path class="st7" d="M95.5,324.1c-4,3.9-6.1,9-6.1,14.4c0,11.9,9.4,20.9,21.8,20.9c12.3,0,22-9.3,22-21.1c0-5.3-2.1-10.4-5.9-14.2
	c-4-4-9.5-6.2-15.5-6.2C105.6,317.7,99.8,319.9,95.5,324.1L95.5,324.1z M96.8,338c0-9,6-15.2,14.6-15.2c9.4,0,14.4,8.6,14.4,16.6
	c0,8.8-5.9,15-14.3,15C102.4,354.4,96.8,345.9,96.8,338C96.8,338,96.8,338,96.8,338z M158,318.9h-0.3v0.7l0.2,0.1
	c0.9,0.4,1.4,0.9,1.5,1.5c0.4,1.4-1.1,3.4-2.4,5.1l-0.8,1.2l0,0l-7.9,10.5l13.2,17.9c1.1,1.6,4,2.7,6.9,2.7h5.9v-0.7l-0.2-0.1
	c-3.1-1.5-5.2-3.2-6.9-5.5c0,0-10.3-13.6-11.7-15.5c0.3-0.4,13.8-17.8,13.8-17.8l-0.7-0.1H158L158,318.9L158,318.9z M150.7,318.9
	h-11.6v0.7l0.2,0.1c2.5,0.9,2.5,4.4,2.4,7l0,0.8v22.3l0,0.8c0,2.6,0.1,6.1-2.4,7.1l-0.2,0.1v0.7h12v-0.7l-0.2-0.1
	c-2.5-0.9-2.5-4.5-2.4-7.1l0-0.8v-22.3l0-0.8c0-2.6-0.1-6.1,2.4-7l0.2-0.1v-0.7L150.7,318.9L150.7,318.9L150.7,318.9z M188,318.9
	h-11.5v0.7l0.2,0.1c2.5,0.9,2.4,4.3,2.4,6.9l0,0.9v22.3l0,0.8c0,2.6,0.1,6.1-2.4,7l-0.2,0.1v0.7h11.8v-0.7l-0.2-0.1
	c-2.4-0.9-2.4-4.4-2.4-7l0-0.8v-22.3l0-0.8c0-2.6-0.1-6.1,2.4-7.1l0.2-0.1v-0.7H188L188,318.9z M200.4,324.1c-4,3.9-6.1,9-6.1,14.4
	c0,11.9,9.4,20.9,21.8,20.9c12.3,0,22-9.3,22-21.1c0-5.3-2.1-10.4-5.9-14.2c-4-4-9.5-6.2-15.5-6.2
	C210.5,317.7,204.7,319.9,200.4,324.1L200.4,324.1z M201.6,338c0-9,6-15.2,14.6-15.2c9.4,0,14.4,8.6,14.4,16.6c0,8.8-5.9,15-14.3,15
	C207.3,354.4,201.6,345.9,201.6,338L201.6,338z M297.2,318.9h-10.5v0.4c0,1.2-0.4,2.3-0.9,3.5c0,0-8.9,22.8-9.5,24.3
	c-0.6-1.4-10.7-25.3-10.7-25.3c0,0-0.2-0.4-0.2-0.4c-0.3-0.7-0.6-1.4-0.6-2.1v-0.3l-0.3-0.1h-10.6v0.7l0.2,0.1
	c2.3,1.2,2,3.1,1.7,4.7l-0.1,0.4l-3.3,24.8c0,0-0.1,0.3-0.1,0.3c-0.4,3.1-0.8,5.7-3.1,7.8l-0.1,0.1v0.7h10.3v-0.7l-0.2-0.1
	c-1.6-0.7-2-1.9-2-3.6c0-0.9,0.1-2,0.3-3.3c0,0,2.9-22.2,3.2-24.4c0.9,2.1,10.7,25.5,10.7,25.5c1.5,3.4,2.4,5,5.3,7.3l0.4,0.3
	c0,0,11.9-30.7,12.9-33c0.3,2.4,3.2,27.2,3.2,27.2c0,2-0.4,3.5-2.2,4.1l-0.2,0.1v0.8h12v-0.7l-0.1-0.1c-2.2-1.6-2.5-3.1-2.9-5.8
	l-3.9-29c0-0.6,0.1-2.7,1.6-3.1l0.2-0.1v-0.8L297.2,318.9L297.2,318.9L297.2,318.9z M328.7,318.9h-9.6v0.8l0.2,0.1
	c0.7,0.2,1.2,0.6,1.4,1c0.5,1-0.1,2.4-0.6,3.7l-0.1,0.3l-9.8,24.6c0,0-0.3,0.8-0.3,0.8c-1.1,3-2.2,5.9-5.2,7.4l-0.2,0.1v0.7h11.5
	v-0.7l-0.2-0.1c-0.9-0.4-1.5-0.8-1.7-1.3c-0.1-0.2-0.2-0.5-0.2-0.9c0-0.9,0.4-2.1,0.9-3.5c0,0,2.5-6.8,3-8.1c0.4,0,13.9,0,14.4,0
	c0.2,0.4,3.1,8.1,3.1,8.1l0.3,0.7c0.6,1.6,1,2.5,1,3.2c0,0.8-0.5,1.2-1.9,1.8l-0.2,0.1v0.7H347v-0.7l-0.2-0.1
	c-3-1.5-4.1-4.4-5.3-7.4l-0.3-0.9l-12.3-30.5H328.7L328.7,318.9L328.7,318.9z M324.8,325.1c0.5,1.4,5,12.8,5.3,13.6
	c-0.9,0-9.8,0-10.6,0C319.8,338,324.3,326.5,324.8,325.1L324.8,325.1z M350.4,318.9H350v0.7l0.2,0.1c2.5,0.9,2.4,4.3,2.4,6.9l0,0.9
	v22.3l0,0.9c0,2.5,0.1,6-2.4,6.9l-0.2,0.1v0.7h11.9v-0.7l-0.2-0.1c-2.2-0.8-2.4-3.7-2.4-6.1c0-0.3,0-0.6,0-0.9v-0.8
	c0,0,0-25.6,0-26.2c1.4-0.2,2.6-0.4,3.7-0.4c2.1-0.1,4.1,0.6,5.5,1.9c1.2,1.1,1.8,2.6,1.8,4.3c0,5.8-6.2,7.6-9.9,8.1l-0.5,0.1
	l5.7,8.8c0,0,7.2,9,7.2,9c1.8,2.2,3.8,3.1,7.1,3.1h6.6l-1-0.6c-3.6-2.3-7.2-5.4-9.5-8.2c0,0-6.7-8.4-8.2-10.3
	c4.6-1.3,9.1-5.2,9.1-10.6c0-6-4.9-9.9-12.5-9.9L350.4,318.9L350.4,318.9L350.4,318.9z M400.2,318.9h-11.5v0.7l0.2,0.1
	c2.5,0.9,2.4,4.3,2.4,6.9l0,0.9v22.3l0,0.8c0,2.6,0.1,6.1-2.4,7l-0.2,0.1v0.7h11.8v-0.7l-0.2-0.1c-2.4-0.9-2.4-4.4-2.4-7v-23.8
	c0-2.6-0.1-6.1,2.4-7.1l0.2-0.1v-0.7H400.2L400.2,318.9z M448.8,318.9h-10.7v0.7l0.2,0.1c2.8,1.6,2.9,3.7,2.9,6.8c0,0.1,0,20,0,21.8
	c-1.1-1.4-20.9-26.5-20.9-26.5l-0.8-1.2c-0.4-0.5-0.6-0.7-0.8-1.4l-0.1-0.2l-0.2-0.1h-8.9v0.7l0.2,0.1c2.9,1.7,2.9,3.9,2.9,7.2v23.6
	c0,3.3,0,5.5-3,7.2l-0.2,0.1v0.7h11.1v-0.7l-0.2-0.1c-2.8-1.7-2.9-3.7-2.9-6.9c0-0.1,0-20.5,0-22.3c1.1,1.4,19.6,24.9,19.6,24.9
	c2.5,3.3,4.3,5.4,8.7,6.9l0.5,0.2v-33.6c0-3.3,0-5.5,2.9-7.2l0.2-0.1v-0.7H448.8L448.8,318.9z M478.6,318.6h-0.3l-0.1,0
	c-0.5,0.3-1.3,0.3-2,0.3l-0.6,0h-19.2v0.7l0.2,0.1c2.5,0.9,2.5,4.5,2.4,7.1l0,0.8v22.3l0,0.8c0,2.6,0.1,6.1-2.4,7l-0.2,0.1v0.7h25.1
	l2.9-8.4h-0.8l-0.1,0.1c-2.8,2.5-6.8,3.8-10.6,3.4c0,0-6.6-0.6-7.2-0.7c0-0.6,0-12.7,0-13.4c0.6,0,4.2,0,4.2,0c1.8,0,3.9,0,4.8,1.5
	l0.1,0.2h0.7v-6.9H475l-0.1,0c-0.6,0.3-1.6,0.3-2.4,0.3c0,0-6.1,0-6.7,0c0-0.6,0-9.8,0-10.4c1.8-0.3,3.8-0.4,5.7-0.4
	c2.5,0,4.9,0.2,6.7,2.2l0.1,0.1h0.7v-7.6H478.6L478.6,318.6z M127.4,379.8h-0.3l-0.1,0c-0.5,0.3-1.3,0.3-2,0.3l-0.6,0h-19.2v0.8
	l0.2,0.1c2.5,0.9,2.4,4.4,2.4,7l0,0.8v22.3l0,0.8c0,2.6,0.1,6.1-2.4,7l-0.2,0.1v0.8h25.1l2.9-8.4h-0.8l-0.1,0.1
	c-2.8,2.5-6.8,3.7-10.6,3.4c0,0-6.5-0.6-7.1-0.7c0-0.6,0-12.6,0-13.3c0.6,0,4.2,0,4.2,0c1.8,0,3.9,0,4.7,1.5l0.1,0.2h0.7v-7h-0.6
	l-0.1,0c-0.6,0.3-1.5,0.3-2.4,0.3c0,0-6,0-6.6,0c0-0.7,0-9.7,0-10.3c1.8-0.3,3.8-0.4,5.6-0.4c2.5,0,4.9,0.2,6.7,2.2l0.1,0.1h0.7
	v-7.6L127.4,379.8L127.4,379.8L127.4,379.8z M137.1,400.2c0,12.4,9.5,20.5,24.3,20.5c4.7,0,9.1-0.8,13.8-1.7l0.8-0.1l-0.2-0.4
	c-0.3-0.7-0.3-1.4-0.3-2.2v-13.9c0-0.9,0-1.8,0.3-2.4l0-0.1v-0.6h-9.7v0.8l0.2,0.1c2.3,0.9,2.5,3.3,2.5,6.3c0,0,0,7.7,0,8.2
	c-2.4,0.7-5.1,1.1-7.8,1.1c-9.2,0-16.5-7.2-16.5-16.4c0-8.9,6.5-15.2,15.8-15.2c2.2,0,7.5,0.3,10.2,3.4l0.1,0.1h0.7v-7.4l-0.3-0.1
	c-3.2-0.7-6.2-1-9.3-1C147,379.2,137.1,387.6,137.1,400.2L137.1,400.2L137.1,400.2z M219.5,380.1h-11.5v0.8l0.2,0.1
	c2.4,0.9,2.4,4.4,2.4,7l0,0.8v18c0,2,0,3.3-1.2,4.9c-1.7,2.5-4.8,4-8.3,4c-6.1,0-9-3.7-9-11.2v-15.8l0-0.8c0-2.6-0.1-6,2.4-7
	l0.2-0.1v-0.8h-11.9v0.8l0.2,0.1c2.4,0.9,2.4,4.4,2.4,6.9l0,0.9V405c0,4.1,0,8,3.1,11.4c2.5,2.7,6.4,4.3,10.9,4.3
	c3.6,0,8.3-1.2,11.2-4.3c0,1.1,0,3.3,0,3.3h9.4v-0.8l-0.2-0.1c-2.5-0.9-2.4-4.4-2.4-7l0-0.8v-22.3l0-0.8c0-2.6-0.1-6.1,2.4-7
	l0.3-0.1l-0.2-0.8L219.5,380.1L219.5,380.1L219.5,380.1z M285.4,380.1h-9.6v0.8l0.3,0.1c0.7,0.2,1.2,0.6,1.4,1
	c0.5,0.9-0.1,2.4-0.6,3.7l-0.1,0.3l-9.8,24.6c0,0-0.3,0.8-0.3,0.8c-1,2.6-1.9,5.1-4.1,6.7c-3.2-2.2-6.1-4.8-8.1-7.3
	c0,0-6.6-8.3-8.1-10.3c4.6-1.3,9.1-5.2,9.1-10.6c0-6-4.9-9.9-12.5-9.9h-14.3v0.8l0.2,0.1c2.5,0.9,2.4,4.2,2.4,6.9l0,0.9v22.3l0,0.9
	c0,2.5,0.1,6-2.4,6.9l-0.2,0.1v0.8h11.9v-0.8l-0.2-0.1c-2.2-0.8-2.4-3.6-2.4-6.1c0-0.3,0-0.6,0-0.9l0-0.8c0,0,0-25.5,0-26.1
	c1.4-0.2,2.6-0.4,3.7-0.4c2.1-0.1,4.1,0.6,5.4,1.9c1.2,1.1,1.8,2.6,1.8,4.3c0,5.7-6.2,7.5-9.9,8.1l-0.6,0.1l5.7,8.8
	c0,0,7.2,8.9,7.2,8.9c1.8,2.2,3.8,3.1,7.1,3.1h14.5v-0.8l-0.2-0.1c-1.4-0.5-1.9-1.2-1.9-2.2c0-0.8,0.4-1.9,0.9-3.4
	c0,0,2.5-6.9,3-8.1c0.5,0,13.8,0,14.3,0c0.2,0.4,3.1,8.1,3.1,8.1l0.3,0.7c0.6,1.6,1,2.5,1,3.2c0,0.8-0.6,1.2-1.9,1.8l-0.2,0.1v0.8
	h12.8V419l-0.2-0.1c-2.9-1.5-4.1-4.3-5.3-7.3l-0.3-0.9l-12.3-30.5L285.4,380.1L285.4,380.1L285.4,380.1z M281.5,386.5
	c0.6,1.5,4.9,12.7,5.2,13.5c-0.9,0-9.6,0-10.5,0C276.6,399.2,281,388,281.5,386.5L281.5,386.5L281.5,386.5z M456.1,380.1h-9.6v0.8
	l0.2,0.1c0.7,0.2,1.2,0.6,1.4,1c0.4,0.9-0.1,2.4-0.6,3.7l-0.1,0.3l-9.8,24.6c0,0-0.3,0.8-0.3,0.8c-1,2.6-1.9,5.1-4.1,6.7
	c-3.2-2.2-6.1-4.8-8.1-7.3c0,0-6.6-8.3-8.1-10.3c4.6-1.3,9.1-5.2,9.1-10.6c0-6-4.9-9.9-12.5-9.9h-14.3v0.8l0.2,0.1
	c2.4,0.9,2.4,4.2,2.4,6.9l0,0.9v22.3l0,0.9c0,2.5,0.1,6-2.4,6.9l-0.2,0.1v0.8h11.9v-0.8l-0.2-0.1c-2.2-0.8-2.4-3.6-2.4-6.1
	c0-0.3,0-0.6,0-0.9v-0.8c0,0,0-25.5,0-26.1c1.4-0.2,2.6-0.4,3.7-0.4c2.1-0.1,4.1,0.6,5.4,1.9c1.2,1.1,1.8,2.6,1.8,4.3
	c0,5.7-6.2,7.5-9.9,8.1l-0.5,0.1l5.7,8.8c0,0,7.2,8.9,7.2,8.9c1.8,2.2,3.8,3.1,7.1,3.1h14.5v-0.8l-0.2-0.1c-1.3-0.5-1.9-1.2-1.9-2.2
	c0-0.8,0.4-1.9,0.9-3.4c0,0,2.6-6.9,3-8.1c0.5,0,13.8,0,14.3,0c0.2,0.4,3.1,8.1,3.1,8.1l0.3,0.7c0.6,1.6,1,2.5,1,3.2
	c0,0.8-0.6,1.2-1.9,1.8l-0.2,0.1v0.8h12.8V419l-0.2-0.1c-2.9-1.5-4.1-4.3-5.3-7.3l-0.3-0.9l-12.3-30.5L456.1,380.1L456.1,380.1
	L456.1,380.1z M452.3,386.5c0.6,1.5,4.9,12.7,5.2,13.5c-0.9,0-9.6,0-10.5,0C447.3,399.2,451.7,388,452.3,386.5L452.3,386.5z
	 M307.4,380.1H307v0.8l0.3,0.1c2.4,0.7,2.4,4,2.3,6.7l0,0.9v22.3l0,1c0,3,0.1,5.3-2.4,7L307,419v0.7h14.5c13.2,0,22.4-8.3,22.4-20.1
	c0-12-8.5-19.4-22.1-19.4L307.4,380.1L307.4,380.1L307.4,380.1z M321.3,385.1c10,0,15.2,5.2,15.2,15.2c0,10.7-8.4,14.5-16.2,14.5
	c-1.4,0-2.7-0.1-3.9-0.4c0-0.6,0-28.1,0-28.7C318,385.3,319.7,385.1,321.3,385.1L321.3,385.1z M355.8,385.4c-4,3.9-6.1,9-6.1,14.4
	c0,11.9,9.4,20.8,21.8,20.8c12.3,0,22-9.3,22-21.1c0-5.3-2.1-10.4-5.9-14.2c-4-4-9.5-6.2-15.5-6.2
	C365.8,379,360.1,381.2,355.8,385.4L355.8,385.4L355.8,385.4z M357,399.3c0-8.9,6-15.2,14.6-15.2c9.3,0,14.4,8.5,14.4,16.6
	c0,8.8-5.9,15-14.3,15C362.7,415.7,357,407.2,357,399.3L357,399.3z M71,389.8c0,7,6.1,9.7,11.5,12.1c4.5,2,8.7,3.9,8.7,7.9
	c0,3.8-4.7,5.8-8,5.8c-4.4,0-9.2-1.8-12.6-4.8l-0.8-0.7l2,8.6l0.2,0.1c3.2,1.2,6.8,1.8,10.6,1.8c8.9,0,16.1-5.6,16.1-12.6
	c0-6.1-6.1-8.9-11.4-11.4c-4.5-2.1-8.8-4-8.8-7.5c0-3.7,3.9-5,7.2-5c3.3,0,6.8,1.4,9,3.6l0.6,0.6v-7.8l-0.3-0.1
	c-2.8-0.9-5.8-1.3-8.9-1.3C79.1,379.2,71,382,71,389.8L71,389.8L71,389.8z M88.1,318.4h-0.2l-0.1,0c-0.7,0.3-1.7,0.4-2.6,0.4H61.8
	c0,0-0.6-0.1-0.6-0.1c-0.5-0.1-1-0.1-1.5-0.3l-0.1,0h-0.5l-2.3,7.7h0.8l0.1-0.1c1.6-1.5,4-2.3,6.8-2.3c0,0,4.3,0,4.8,0
	c0,0.7,0,26,0,26l0,0.8c0,0.3,0,0.6,0,0.9c0,2.4-0.2,5.3-2.4,6.1l-0.2,0.1v0.7h12.3v-0.7l-0.2-0.1c-2.8-1.7-2.9-3.7-2.9-6.9
	c0-0.1,0-26.3,0-27c0.6,0,5,0,5,0c1.8,0,4,0.2,4.7,2.1l0.1,0.2h0.7l2.1-7.7L88.1,318.4L88.1,318.4L88.1,318.4z"/>
</svg>
