<?xml version="1.0" encoding="UTF-8"?>
<!DOCTYPE svg PUBLIC "-//W3C//DTD SVG 1.1//EN" "http://www.w3.org/Graphics/SVG/1.1/DTD/svg11.dtd">
<!-- Creator: CorelDRAW 2017 -->
<svg xmlns="http://www.w3.org/2000/svg" xml:space="preserve" width="295px" height="295px" version="1.1" style="shape-rendering:geometricPrecision; text-rendering:geometricPrecision; image-rendering:optimizeQuality; fill-rule:evenodd; clip-rule:evenodd"
viewBox="0 0 295 295"
 xmlns:xlink="http://www.w3.org/1999/xlink">
 <defs>
  <style type="text/css">
   <![CDATA[
    .str0 {stroke:#373435;stroke-width:2;stroke-miterlimit:22.9256}
    .fil0 {fill:#2E4080}
    .fil1 {fill:#FEFEFE;fill-rule:nonzero}
   ]]>
  </style>
 </defs>
 <g id="Layer_x0020_1">
  <metadata id="CorelCorpID_0Corel-Layer"/>
  <rect class="fil0 str0" width="295" height="295"/>
  <g id="_2017380666848">
   <path class="fil1" d="M204 195l-2 6c-3,9 -11,15 -20,15l-5 0c-7,0 -14,-3 -19,-8l-2 -2 0 -19 14 -17c3,-4 0,-9 -5,-9l-34 0c-5,0 -8,6 -5,9l13 16 0 21 -2 2c-5,5 -12,7 -19,7l-5 0c-9,0 -18,-6 -21,-15l-6 -17 -15 5 6 17c5,15 19,25 35,25l5 0c11,0 21,-4 29,-11 8,7 18,11 29,11l5 0c13,0 26,-7 32,-19 -1,0 -1,0 -2,0 -2,-6 -5,-11 -8,-17zm58 -109l0 -7 -7 -2c-14,-3 -41,-7 -59,2 -2,1 -5,3 -6,4 -2,-1 -4,-2 -6,-2 7,5 14,10 20,16 0,-1 -1,-1 -1,-2 0,0 0,0 1,0 10,-5 26,-5 40,-2 0,21 -2,32 -4,38 6,7 7,15 6,23 2,-2 4,-4 6,-6 3,-3 11,-13 10,-61zm-210 7c14,-2 31,-3 40,2 0,0 1,0 1,1 -3,6 -5,14 -6,15 1,2 2,2 3,3 11,-11 25,-18 37,-21 -5,-5 -9,-8 -11,-10 1,-1 4,-3 6,-5 -6,1 -11,3 -16,6 -2,-1 -4,-3 -6,-4 -18,-9 -46,-5 -59,-2l-7 2 0 7c-1,47 7,58 10,61 6,7 19,19 19,19l9 -10c-6,-8 -11,-16 -14,-21 -1,-1 -7,-10 -7,-43zm53 41c0,4 4,8 8,8 5,0 8,-4 8,-8 0,-4 -4,-8 -8,-8 -5,0 -8,4 -8,8z"/>
   <path class="fil1" d="M125 83c20,18 69,72 90,123 8,-1 12,-7 14,-11 4,-8 4,-17 2,-20l-3 -4 3 -3c6,-7 9,-15 9,-22 0,-6 -3,-11 -8,-15 -1,-1 -3,-3 -5,-5 -13,-12 -51,-49 -68,-50 -2,0 -5,0 -7,0 -12,0 -21,4 -27,8zm89 135l0 0c-1,0 -2,0 -4,0l-3 0 -1 -3c-22,-56 -81,-119 -93,-126l-7 -4 6 -5c4,-4 18,-15 40,-15 3,0 5,0 8,0 18,2 48,28 75,54 2,2 4,4 5,5 7,6 11,14 12,23 1,9 -3,19 -9,27 3,8 2,19 -3,28 -6,11 -15,17 -25,17z"/>
   <polygon class="fil1" points="208,139 205,142 233,180 243,170 "/>
  </g>
 </g>
</svg>
