<?xml version="1.0" encoding="UTF-8"?>
<!DOCTYPE svg PUBLIC "-//W3C//DTD SVG 1.1//EN" "http://www.w3.org/Graphics/SVG/1.1/DTD/svg11.dtd">
<!-- Creator: CorelDRAW 2017 -->
<svg xmlns="http://www.w3.org/2000/svg" xml:space="preserve" width="295px" height="295px" version="1.1" style="shape-rendering:geometricPrecision; text-rendering:geometricPrecision; image-rendering:optimizeQuality; fill-rule:evenodd; clip-rule:evenodd"
viewBox="0 0 295 295"
 xmlns:xlink="http://www.w3.org/1999/xlink">
 <defs>
  <style type="text/css">
   <![CDATA[
    .str0 {stroke:#373435;stroke-width:2;stroke-miterlimit:22.9256}
    .fil0 {fill:#265A99}
    .fil1 {fill:#FEFEFE;fill-rule:nonzero}
   ]]>
  </style>
 </defs>
 <g id="Layer_x0020_1">
  <metadata id="CorelCorpID_0Corel-Layer"/>
  <rect class="fil0 str0" width="295" height="295"/>
  <g id="_2017380672608">
   <path class="fil1" d="M134 87c-3,-3 -11,-10 -21,-13 -6,-2 -13,3 -12,10l1 7c1,5 5,9 11,8 6,-1 13,-2 17,-2 9,-1 11,-5 6,-9z"/>
   <polygon class="fil1" points="224,131 212,119 226,105 239,117 "/>
   <path class="fil1" d="M217 85c-3,10 0,22 9,31 9,9 22,12 31,9l-40 -40z"/>
   <path class="fil1" d="M199 139l-9 -9 -6 6c0,0 0,0 0,0l11 8c1,1 3,1 4,0 1,-1 1,-3 0,-4z"/>
   <path class="fil1" d="M187 151l-9 -9 -6 6c0,0 0,0 0,0l11 8c1,1 3,1 4,0 1,-1 1,-3 0,-4z"/>
   <path class="fil1" d="M196 101l-6 6c-4,4 -5,10 -4,15l-25 25c-9,9 -10,23 -3,33l10 -11c-1,-4 0,-9 3,-12l31 -31 17 17 -31 31c-3,3 -8,4 -12,3l-11 9c4,3 9,5 15,5 7,0 13,-3 18,-8l25 -25c5,2 11,0 15,-4l6 -6 -47 -47z"/>
   <path class="fil1" d="M198 203c-2,-2 -5,-3 -8,-2l-6 2c0,0 -3,-9 -8,-20 -3,0 -5,-1 -8,-2l-23 20 -4 -4 20 -24c-3,-5 -3,-12 0,-17 -7,-10 -16,-25 -25,-33 -7,-7 -11,-10 -15,-14 -5,-18 -17,-30 -20,-31 -3,-1 -16,-6 -30,3 -7,4 -8,11 -15,15 -7,4 -15,6 -18,9 -3,3 3,17 6,20 3,2 6,3 12,3 3,0 13,0 21,-1 2,0 3,1 4,2 6,8 -5,11 5,32 2,4 1,9 1,12 -1,7 -1,5 -5,30l-10 4c-1,0 -2,1 -3,3l-2 5c-1,3 1,6 4,6l19 0c2,0 4,-1 4,-3l10 -27 12 12 -6 4c-1,1 -1,1 -2,2l-2 6c-1,3 1,5 4,5l75 0c1,0 2,0 2,-1l10 -7c4,-3 4,-8 1,-11z"/>
  </g>
 </g>
</svg>
