<?xml version="1.0" encoding="UTF-8"?>
<!DOCTYPE svg PUBLIC "-//W3C//DTD SVG 1.1//EN" "http://www.w3.org/Graphics/SVG/1.1/DTD/svg11.dtd">
<!-- Creator: CorelDRAW 2019 (64-Bit) -->
<svg xmlns="http://www.w3.org/2000/svg" xml:space="preserve" width="150mm" height="150mm" version="1.1" style="shape-rendering:geometricPrecision; text-rendering:geometricPrecision; image-rendering:optimizeQuality; fill-rule:evenodd; clip-rule:evenodd"
viewBox="0 0 15000 15000"
 xmlns:xlink="http://www.w3.org/1999/xlink">
 <defs>
  <style type="text/css">
   <![CDATA[
    .fil0 {fill:none}
    .fil1 {fill:#FEFEFE;fill-rule:nonzero}
   ]]>
  </style>
 </defs>
 <g id="Layer_x0020_1">
  <metadata id="CorelCorpID_0Corel-Layer"/>
  <rect class="fil0" x="-17.74" y="-14.81" width="15032.53" height="15032.53"/>
  <path class="fil1" d="M12879.19 6381.97c-349.94,1032.17 -681.78,2070.53 -994.13,3112.32 -110.69,368.28 -472.09,602.48 -853.65,551.38 -173.02,-23.15 -343.3,-44.46 -515.17,-62.56l-1.61 0 -2571.94 -2641.62c-89.61,-89.37 -233.3,-90.98 -323.82,-3.44 -90.98,87.32 -92.58,232.61 -5.04,322.21l2191.07 2248.37c-974.42,-88.92 -1928.67,-121.92 -2887.74,-98.77l-2405.8 -2468.37c-87.54,-89.37 -231.23,-90.98 -321.75,-3.44 -90.98,87.32 -92.59,232.61 -5.05,322.21l2118.2 2172.51c-769.09,34.84 -1543.44,107.48 -2337.74,212.9 -381.56,51.1 -741.59,-183.1 -853.65,-551.38 -311.9,-1041.79 -643.96,-2080.15 -993.9,-3112.32 -153.77,-457.19 132,-947.61 609.36,-1026.9 3258.99,-539.69 6283.78,-539.69 9544.6,0 475.3,79.29 762.67,569.71 607.76,1026.9z"/>
  <path class="fil1" d="M7498.65 4213.83c-1606.93,0 -3207.43,136.13 -4892.73,415.71 -437.94,72.88 -820.42,333.44 -1048.9,714.77 -230.55,384.78 -280.05,848.84 -136.13,1274.41 344.9,1017.73 676.96,2056.32 986.57,3087.11 194.33,648.09 778.25,1083.28 1453.15,1083.28 67.15,0 135.44,-4.35 202.36,-13.52 1185.94,-159.5 2309.55,-236.96 3435.91,-236.96 1126.59,0 2249.74,77.46 3434.99,236.96 67.38,9.17 135.21,13.52 202.82,13.52 674.44,0 1258.36,-435.19 1453.38,-1082.82 309.14,-1029.88 640.98,-2068.69 986.11,-3087.57 143.91,-425.11 94.41,-889.63 -136.13,-1274.63 -228.25,-381.57 -610.73,-641.67 -1048.44,-714.55 -1685.76,-279.58 -3286.27,-415.71 -4892.96,-415.71l0 0zm0 304.56c1589.96,0 3174.43,134.75 4843.23,411.59 349.48,57.75 654.5,266.06 837.38,570.86 184.48,307.77 223.89,679.71 108.62,1020.25 -346.04,1021.63 -679.25,2063.66 -989.77,3097.43 -155.38,518.15 -622.42,866.26 -1161.42,866.26 -53.86,0 -108.4,-3.67 -162.03,-10.78 -1198.77,-161.56 -2335.67,-239.7 -3475.78,-239.7 -1139.88,0 -2277.24,78.14 -3476.25,239.7 -53.62,7.11 -108.39,10.78 -162.02,10.78 -539.46,0 -1006.27,-348.11 -1161.65,-866.26 -310.75,-1034.46 -643.5,-2076.49 -989.55,-3097.43 -115.27,-340.54 -75.62,-712.48 108.86,-1020.25 182.64,-304.8 487.67,-513.11 837.15,-570.86 1668.8,-276.84 3253.03,-411.59 4843.23,-411.59l0 0z"/>
 </g>
</svg>
