<?xml version="1.0" encoding="UTF-8"?>
<!DOCTYPE svg PUBLIC "-//W3C//DTD SVG 1.1//EN" "http://www.w3.org/Graphics/SVG/1.1/DTD/svg11.dtd">
<!-- Creator: CorelDRAW 2017 -->
<svg xmlns="http://www.w3.org/2000/svg" xml:space="preserve" width="484px" height="484px" version="1.1" style="shape-rendering:geometricPrecision; text-rendering:geometricPrecision; image-rendering:optimizeQuality; fill-rule:evenodd; clip-rule:evenodd"
viewBox="0 0 484 484"
 xmlns:xlink="http://www.w3.org/1999/xlink">
 <defs>
  <style type="text/css">
   <![CDATA[
    .fil0 {fill:#265A99;fill-rule:nonzero}
    .fil1 {fill:white;fill-rule:nonzero}
   ]]>
  </style>
 </defs>
 <g id="Layer_x0020_1">
  <metadata id="CorelCorpID_0Corel-Layer"/>
  <path class="fil0" d="M6 478l41 -122c-21,-35 -32,-75 -32,-118 0,-128 104,-232 232,-232 128,0 232,104 232,232 0,128 -104,232 -232,232 -39,0 -76,-10 -108,-27l-132 35z"/>
  <path class="fil1" d="M377 318c-10,-19 -47,-41 -47,-41 -8,-5 -19,-5 -23,3 0,0 -12,14 -15,17 -14,10 -27,9 -40,-4l-61 -61c-13,-13 -13,-26 -4,-40 2,-3 17,-15 17,-15 9,-5 8,-15 3,-23 0,0 -22,-37 -41,-47 -8,-4 -18,-3 -25,4l-13 13c-43,43 -22,91 21,134l78 78c43,43 91,64 134,21l13 -13c6,-7 8,-16 4,-25z"/>
  <g>
   <path class="fil1" d="M72 347l-37 110 -11 -4 37 -110 11 -1 1 5zm-1 -5l1 2 -1 3 -1 -5zm-40 -104l12 0 0 0 0 4 0 4 0 4 0 3 0 3 0 3 0 3 0 3 1 3 1 3 1 3 1 3 1 3 1 3 1 3 1 3 1 3 1 3 1 3 1 3 1 3 1 3 1 3 1 3 1 3 1 3 1 3 1 3 2 3 2 3 2 3 2 3 -10 6 -2 -3 -2 -3 -2 -3 -2 -3 -2 -3 -2 -3 -1 -3 -1 -3 -1 -3 -1 -3 -1 -3 -1 -3 -1 -3 -1 -3 -1 -3 -1 -3 -1 -3 -1 -3 -1 -4 -1 -4 -1 -4 -1 -4 -1 -4 -1 -4 0 -4 0 -4 0 -4 0 -4 0 -4 0 -4 0 -4 0 -4 0 0zm215 -215l0 12 0 0 -10 0 -10 1 -10 1 -10 2 -10 2 -10 3 -9 3 -9 4 -9 4 -9 4 -9 5 -8 5 -8 6 -8 6 -7 6 -7 7 -7 7 -6 7 -6 8 -6 8 -5 8 -5 9 -4 9 -4 9 -4 9 -3 9 -3 10 -2 10 -2 10 -1 10 -1 10 0 10 -12 0 0 -11 1 -11 1 -11 2 -11 2 -10 3 -10 3 -10 4 -10 4 -10 5 -9 5 -9 6 -9 6 -8 6 -8 7 -8 7 -7 7 -7 8 -7 8 -6 8 -6 9 -6 9 -5 9 -5 10 -4 10 -4 10 -3 10 -3 10 -2 11 -2 11 -1 11 -1 11 0 0 0zm215 215l-12 0 0 0 0 -10 -1 -10 -1 -10 -2 -10 -2 -10 -3 -10 -3 -9 -4 -9 -4 -9 -4 -9 -5 -9 -5 -8 -6 -8 -6 -8 -6 -7 -7 -7 -7 -7 -7 -6 -8 -6 -8 -6 -8 -5 -9 -5 -9 -4 -9 -4 -9 -4 -9 -3 -10 -3 -10 -2 -10 -2 -10 -1 -10 -1 -10 0 0 -12 11 0 11 1 11 1 11 2 10 2 10 3 10 3 10 4 10 4 9 5 9 5 9 6 8 6 8 6 8 7 7 7 7 7 7 8 6 8 6 8 6 9 5 9 5 9 4 10 4 10 3 10 3 10 2 10 2 11 1 11 1 11 0 11 0 0zm-215 215l0 -12 0 0 10 0 10 -1 10 -1 10 -2 10 -2 10 -3 9 -3 9 -4 9 -4 9 -4 9 -5 8 -5 8 -6 8 -6 7 -6 7 -7 7 -7 6 -7 6 -8 6 -8 5 -8 5 -9 4 -9 4 -9 4 -9 3 -9 3 -10 2 -10 2 -10 1 -10 1 -10 0 -10 12 0 0 11 -1 11 -1 11 -2 11 -2 10 -3 10 -3 10 -4 10 -4 10 -5 9 -5 9 -6 9 -6 8 -6 8 -7 8 -7 7 -7 7 -8 7 -8 6 -8 6 -9 6 -9 5 -9 5 -10 4 -10 4 -10 3 -10 3 -10 2 -11 2 -11 1 -11 1 -11 0 0 0zm-96 -24l-3 -11 4 0 3 1 3 1 3 1 3 1 3 1 3 1 3 1 3 1 3 1 3 1 3 1 3 1 3 1 3 1 3 1 3 1 3 1 3 1 3 1 3 1 3 1 3 1 3 0 3 0 3 0 3 0 3 0 3 0 3 0 3 0 3 0 3 0 0 12 -3 0 -3 0 -3 0 -3 0 -3 0 -3 0 -3 0 -3 0 -3 0 -3 0 -3 -1 -3 -1 -3 -1 -3 -1 -3 -1 -3 -1 -3 -1 -3 -1 -3 -1 -3 -1 -3 -1 -3 -1 -3 -1 -3 -1 -3 -1 -3 -1 -3 -1 -3 -1 -3 -1 -3 -1 -3 -1 -3 -1 4 0zm-3 -11l2 -1 2 1 -4 0zm-119 31l119 -31 3 11 -119 31 -7 -8 4 -4zm3 11l-11 3 3 -10 7 8z"/>
  </g>
 </g>
</svg>
